<svg viewBox="0 0 1496 400" xmlns="http://www.w3.org/2000/svg"><g><g><g><g><g><line x1="50" y1="377" x2="45" y2="377" style="visibility: inherit;" fill="rgb(0, 0, 0)" stroke="rgb(204, 204, 204)" stroke-width="1px"></line><line x1="50" y1="335.1111111111111" x2="45" y2="335.1111111111111" style="visibility: inherit;" fill="rgb(0, 0, 0)" stroke="rgb(204, 204, 204)" stroke-width="1px"></line><line x1="50" y1="293.22222222222223" x2="45" y2="293.22222222222223" style="visibility: inherit;" fill="rgb(0, 0, 0)" stroke="rgb(204, 204, 204)" stroke-width="1px"></line><line x1="50" y1="251.33333333333331" x2="45" y2="251.33333333333331" style="visibility: inherit;" fill="rgb(0, 0, 0)" stroke="rgb(204, 204, 204)" stroke-width="1px"></line><line x1="50" y1="209.44444444444446" x2="45" y2="209.44444444444446" style="visibility: inherit;" fill="rgb(0, 0, 0)" stroke="rgb(204, 204, 204)" stroke-width="1px"></line><line x1="50" y1="167.55555555555554" x2="45" y2="167.55555555555554" style="visibility: inherit;" fill="rgb(0, 0, 0)" stroke="rgb(204, 204, 204)" stroke-width="1px"></line><line x1="50" y1="125.66666666666664" x2="45" y2="125.66666666666664" style="visibility: inherit;" fill="rgb(0, 0, 0)" stroke="rgb(204, 204, 204)" stroke-width="1px"></line><line x1="50" y1="83.77777777777781" x2="45" y2="83.77777777777781" style="visibility: inherit;" fill="rgb(0, 0, 0)" stroke="rgb(204, 204, 204)" stroke-width="1px"></line><line x1="50" y1="41.888888888888864" x2="45" y2="41.888888888888864" style="visibility: inherit;" fill="rgb(0, 0, 0)" stroke="rgb(204, 204, 204)" stroke-width="1px"></line><line x1="50" y1="0" x2="45" y2="0" style="visibility: inherit;" fill="rgb(0, 0, 0)" stroke="rgb(204, 204, 204)" stroke-width="1px"></line></g><g transform="translate(40, 0)"><text x="0" y="377" dx="0em" dy="0.3em" style="text-anchor: end; visibility: hidden; font-family: Roboto, sans-serif; font-size: 12px; font-weight: 200;" fill="rgb(33, 33, 33)" stroke="none" stroke-width="1px">-0.8</text><text x="0" y="335.1111111111111" dx="0em" dy="0.3em" style="text-anchor: end; visibility: inherit; font-family: Roboto, sans-serif; font-size: 12px; font-weight: 200;" fill="rgb(33, 33, 33)" stroke="none" stroke-width="1px">-0.6</text><text x="0" y="293.22222222222223" dx="0em" dy="0.3em" style="text-anchor: end; visibility: inherit; font-family: Roboto, sans-serif; font-size: 12px; font-weight: 200;" fill="rgb(33, 33, 33)" stroke="none" stroke-width="1px">-0.4</text><text x="0" y="251.33333333333331" dx="0em" dy="0.3em" style="text-anchor: end; visibility: inherit; font-family: Roboto, sans-serif; font-size: 12px; font-weight: 200;" fill="rgb(33, 33, 33)" stroke="none" stroke-width="1px">-0.2</text><text x="0" y="209.44444444444446" dx="0em" dy="0.3em" style="text-anchor: end; visibility: inherit; font-family: Roboto, sans-serif; font-size: 12px; font-weight: 200;" fill="rgb(33, 33, 33)" stroke="none" stroke-width="1px">0</text><text x="0" y="167.55555555555554" dx="0em" dy="0.3em" style="text-anchor: end; visibility: inherit; font-family: Roboto, sans-serif; font-size: 12px; font-weight: 200;" fill="rgb(33, 33, 33)" stroke="none" stroke-width="1px">0.2</text><text x="0" y="125.66666666666664" dx="0em" dy="0.3em" style="text-anchor: end; visibility: inherit; font-family: Roboto, sans-serif; font-size: 12px; font-weight: 200;" fill="rgb(33, 33, 33)" stroke="none" stroke-width="1px">0.4</text><text x="0" y="83.77777777777781" dx="0em" dy="0.3em" style="text-anchor: end; visibility: inherit; font-family: Roboto, sans-serif; font-size: 12px; font-weight: 200;" fill="rgb(33, 33, 33)" stroke="none" stroke-width="1px">0.6</text><text x="0" y="41.888888888888864" dx="0em" dy="0.3em" style="text-anchor: end; visibility: inherit; font-family: Roboto, sans-serif; font-size: 12px; font-weight: 200;" fill="rgb(33, 33, 33)" stroke="none" stroke-width="1px">0.8</text><text x="0" y="0" dx="0em" dy="0.3em" style="text-anchor: end; visibility: hidden; font-family: Roboto, sans-serif; font-size: 12px; font-weight: 200;" fill="rgb(33, 33, 33)" stroke="none" stroke-width="1px">1</text></g><line x1="50" y1="0" x2="50" y2="377" fill="rgb(0, 0, 0)" stroke="rgb(204, 204, 204)" stroke-width="1px"></line></g></g><g transform="translate(50, 0)" clip-path="url(#clip_0)"><clipPath id="clip_0"><rect width="1446" height="377"></rect></clipPath><g><g><g><line x1="0" y1="0" x2="0" y2="377" fill="rgb(0, 0, 0)" stroke="rgb(66, 66, 66)" stroke-width="1px" opacity="0.25"></line><line x1="120.5" y1="0" x2="120.5" y2="377" fill="rgb(0, 0, 0)" stroke="rgb(66, 66, 66)" stroke-width="1px" opacity="0.25"></line><line x1="241" y1="0" x2="241" y2="377" fill="rgb(0, 0, 0)" stroke="rgb(66, 66, 66)" stroke-width="1px" opacity="0.25"></line><line x1="361.5" y1="0" x2="361.5" y2="377" fill="rgb(0, 0, 0)" stroke="rgb(66, 66, 66)" stroke-width="1px" opacity="0.25"></line><line x1="482" y1="0" x2="482" y2="377" fill="rgb(0, 0, 0)" stroke="rgb(66, 66, 66)" stroke-width="1px" opacity="0.25"></line><line x1="602.5" y1="0" x2="602.5" y2="377" fill="rgb(0, 0, 0)" stroke="rgb(66, 66, 66)" stroke-width="1px" opacity="0.25"></line><line x1="723" y1="0" x2="723" y2="377" fill="rgb(0, 0, 0)" stroke="rgb(66, 66, 66)" stroke-width="1px" opacity="0.25"></line><line x1="843.5" y1="0" x2="843.5" y2="377" fill="rgb(0, 0, 0)" stroke="rgb(66, 66, 66)" stroke-width="1px" opacity="0.25"></line><line x1="964" y1="0" x2="964" y2="377" fill="rgb(0, 0, 0)" stroke="rgb(66, 66, 66)" stroke-width="1px" opacity="0.25"></line><line x1="1084.5" y1="0" x2="1084.5" y2="377" fill="rgb(0, 0, 0)" stroke="rgb(66, 66, 66)" stroke-width="1px" opacity="0.25"></line><line x1="1205" y1="0" x2="1205" y2="377" fill="rgb(0, 0, 0)" stroke="rgb(66, 66, 66)" stroke-width="1px" opacity="0.25"></line><line x1="1325.5" y1="0" x2="1325.5" y2="377" fill="rgb(0, 0, 0)" stroke="rgb(66, 66, 66)" stroke-width="1px" opacity="0.25"></line><line x1="1446" y1="0" x2="1446" y2="377" fill="rgb(0, 0, 0)" stroke="rgb(66, 66, 66)" stroke-width="1px" opacity="0.25"></line></g><g><line x1="0" y1="377" x2="1446" y2="377" fill="rgb(0, 0, 0)" stroke="rgb(66, 66, 66)" stroke-width="1px" opacity="0.25"></line><line x1="0" y1="335.1111111111111" x2="1446" y2="335.1111111111111" fill="rgb(0, 0, 0)" stroke="rgb(66, 66, 66)" stroke-width="1px" opacity="0.25"></line><line x1="0" y1="293.22222222222223" x2="1446" y2="293.22222222222223" fill="rgb(0, 0, 0)" stroke="rgb(66, 66, 66)" stroke-width="1px" opacity="0.25"></line><line x1="0" y1="251.33333333333331" x2="1446" y2="251.33333333333331" fill="rgb(0, 0, 0)" stroke="rgb(66, 66, 66)" stroke-width="1px" opacity="0.25"></line><line x1="0" y1="209.44444444444446" x2="1446" y2="209.44444444444446" fill="rgb(0, 0, 0)" stroke="rgb(66, 66, 66)" stroke-width="1px" opacity="0.25"></line><line x1="0" y1="167.55555555555554" x2="1446" y2="167.55555555555554" fill="rgb(0, 0, 0)" stroke="rgb(66, 66, 66)" stroke-width="1px" opacity="0.25"></line><line x1="0" y1="125.66666666666664" x2="1446" y2="125.66666666666664" fill="rgb(0, 0, 0)" stroke="rgb(66, 66, 66)" stroke-width="1px" opacity="0.25"></line><line x1="0" y1="83.77777777777781" x2="1446" y2="83.77777777777781" fill="rgb(0, 0, 0)" stroke="rgb(66, 66, 66)" stroke-width="1px" opacity="0.25"></line><line x1="0" y1="41.888888888888864" x2="1446" y2="41.888888888888864" fill="rgb(0, 0, 0)" stroke="rgb(66, 66, 66)" stroke-width="1px" opacity="0.25"></line><line x1="0" y1="0" x2="1446" y2="0" fill="rgb(0, 0, 0)" stroke="rgb(66, 66, 66)" stroke-width="1px" opacity="0.25"></line></g></g></g><g><g><line x1="0" y1="209.44444444444446" x2="1446" y2="209.44444444444446" fill="rgb(0, 0, 0)" stroke="rgb(153, 153, 153)" stroke-width="1.5px"></line></g></g><g><g><line x1="120.5" y1="0" x2="120.5" y2="377" fill="rgb(0, 0, 0)" stroke="rgb(153, 153, 153)" stroke-width="1.5px"></line></g></g><g><g><g><g><g><path stroke="rgb(187, 187, 187)" stroke-width="2px" d="M122.96784000000001,307.7489692800575L125.43568,307.5445499457419L127.90351999999999,301.4032045415605L130.37136,295.19104304321695L132.8392,291.4833822563648L135.30704,286.9370418184794L137.77488,280.01914788330606L140.24272,276.75588014278634L142.71056,270.9208152498249L145.1784,262.26583047691304L147.64624,255.62365152996026L150.11408,254.11920176580438L152.58192,246.56935689846756L155.04976,243.1313878949167L157.5176,235.33154411057305L159.98544,230.82198714411788L162.45328,225.73393134432888L164.92112,223.2311511957543L167.38896,217.39179130378477L169.8568,213.78206008464144L172.32464000000002,211.27773813149037L174.79248,210.17190916374716L177.26032,209.29499718573473L179.72816,208.91306096050604L182.196,207.54561610082334L184.66384,206.5104883399172L187.13168,205.52339232352978L189.59951999999998,205.35151655350555L192.06736,204.80455725363137L194.5352,203.76525843727083L197.00304,203.41631024423435L199.47088,202.89580479945653L201.93872,201.1600057522567L204.40656,199.71947847756425L206.8744,198.66160454145063L209.34224,198.31218980297578L211.81008,197.15043739613571L214.27792,196.4623443758303L216.74576,194.12125749717006L219.2136,192.46515979973864L221.68144,189.14445505304735L224.14928,186.98816279590497L226.61712,185.81165959084723L229.08496,184.28692370083823L231.5528,179.629631402831L234.02064000000001,177.06045739930516L236.48848,174.54306331117456L238.95632,172.43299701908163L241.42416,169.66955173799343L243.892,166.61153932350422L246.35984,161.73068210111867L248.82768000000002,155.69946872632687L251.29552,152.17735330724688L253.76336,148.41442162736908L256.2312,142.2103591326184L258.69903999999997,138.28931837657782L261.16688,134.58539828619425L263.63472,132.37435910744742L266.10256,124.55669427764981L268.5704,120.27308425219371L271.03824,114.99061701576142L273.50608,111.38622889314887L275.97392,107.32835605710953L278.44176,102.77197508992873L280.9096,97.39282120654252L283.37744,93.77010978891015L285.84528,91.95225302292378L288.31311999999997,87.33057355564254L290.78096,85.76754669423417L293.2488,83.23257527131479L295.71664,81.23231199874331L298.18448,78.54531611829641L300.65232,75.1573342034994L303.12016,73.47811298600836L305.588,72.8308595109569L308.05584,70.29125342102371L310.52368,68.80393764971606L312.99152,65.40285125996684L315.45936,61.86973378435382L317.92719999999997,60.57142124466135L320.39504,57.0462787634984L322.86288,54.707587337372686L325.33072,53.42084191791889L327.79856,51.109654362316974L330.2664,48.7687453493704L332.73424,47.258276871754525L335.20208,45.05721459039212L337.66992,43.92423463081883L340.13776,43.30222696061934L342.6056,42.028206871591706L345.07344,38.772230743023044L347.54128,73.1967629053772L350.00912,90.1713820863249L352.47696,97.65128276822522L354.9448,100.06166390491721L357.41264,99.11632424408779L359.88048,93.41940679307199L362.34832,86.34776430884914L364.81615999999997,76.85578935546292L367.284,65.68932727894752L369.75184,55.68409796773999L372.21968,48.84767759242089L374.68752,89.3721854392594L377.15536,111.8488637231135L379.6232,123.19888445139652L382.09103999999996,128.2999361168057L384.55888,130.02826192972654L387.02672,130.22832185094774L389.49456,128.80723506251107L391.9624,126.2881497411941L394.43023999999997,122.09853070193617L396.89808,118.61442366237559L399.36592,111.11812024047384L401.83376,105.15718465286739L404.3016,98.77840082323826L406.76944,92.58954841844671L409.23728,123.92967102631722L411.70511999999997,141.37482505993256L414.17296,147.94672541989607L416.6408,150.11717475027743L419.10864,150.17659102488764L421.57648,146.61114853718735L424.04431999999997,143.58199343342895L426.51216,140.25718392751867L428.98,138.1045321732099L431.44784,134.9437799452677L433.91568,131.32932702429036L436.38352,127.99094489385186L438.85136,123.76406046451828L441.3192,119.02990626250059L443.78704,114.42605828748093L446.25488,108.02642908331651L448.72272,101.70409584027666L451.19056,102.39498391140785L453.6584,99.4437477916503L456.12624,95.65917446461131L458.59408,112.67946482911461L461.06192,142.91772942803487L463.52976,160.60262471573859L465.9976,169.00184042668064L468.46544,172.66257975945308L470.93328,172.94248842533753L473.40112,172.62678385444943L475.86896,172.32497140170213L478.3368,171.39008963413352L480.80464,170.3888847323032L483.27248,168.24256608238449L485.74032,165.73178464118357L488.20816,163.50283350248694L490.676,161.30215134971408L493.14384,158.50389252157854L495.61168,152.8028292327898L498.07952,148.86759399591546L500.54736,156.53965386282601L503.0152,160.31272421464703L505.48304,162.04502856179639L507.95088,161.03031531572412L510.41872,159.30038540257388L512.88656,156.64312078438888L515.3543999999999,154.5223600102426L517.8222400000001,153.02914392879708L520.29008,164.12812307634616L522.75792,169.17383411621248L525.2257599999999,170.98735000150518L527.6936,163.9290481601252L530.1614400000001,171.63449627920548L532.62928,174.28027776206935L535.09712,174.96759530632272L537.5649599999999,174.7595528864577L540.0328,174.0581090975697L542.5006400000001,172.5800182823344L544.96848,175.52375935935996L547.43632,176.37242518916142L549.9041599999999,175.59292812644756L552.372,173.48373315433253L554.83984,169.78557092964405L557.30768,166.60468843392383L559.77552,164.45113568591188L562.2433599999999,162.9458733080387L564.7112,162.2984203239748L567.17904,161.24660356087304L569.64688,160.12838947387888L572.11472,159.443349264404L574.58256,156.22068358799262L577.0504,161.54022531381185L579.51824,163.93661600353877L581.98608,164.7860398246335L584.45392,164.88521850229228L586.92176,163.62935113581568L589.3896,160.73594701227412L591.85744,158.08789602083084L594.32528,155.1815236545L596.7931199999999,153.1066906414267L599.26096,151.33260492918578L601.7288,149.38281550668293L604.19664,147.10774307910833L606.66448,144.8877972822574L609.1323199999999,140.62745291094438L611.60016,137.36372592244155L614.068,134.15906102772718L616.53584,128.75042834006777L619.00368,124.62166846004278L621.4715199999999,120.55014349478105L623.93936,116.3558725496919L626.4072,112.8706621847359L628.87504,107.51081155072494L631.34288,119.75441366233932L633.81072,125.42364525012607L636.27856,128.33854579588566L638.7464,138.21630773474584L641.21424,157.47632031657184L643.68208,167.48405124754441L646.14992,172.80910457776426L648.61776,174.79148171375724L651.0856,175.49240325111467L653.55344,174.7081661442683L656.02128,170.83696252424116L658.48912,165.8202641916721L660.95696,162.1738878317147L663.4248,157.8851554251196L665.89264,157.75726604864556L668.3604799999999,156.09118826895954L670.82832,154.71551520254215L673.29616,159.42178539013463L675.764,161.1034252108338L678.23184,161.42888022297507L680.69968,160.30797344810756L683.16752,162.05424375421666L685.63536,153.67526094369217L688.1032,146.8646040441388L690.57104,141.57573438310718L693.03888,137.04114733776575L695.50672,130.96449838596592L697.97456,127.06879432907509L700.4424,152.9265349776859L702.91024,181.74456290597277L705.37808,198.98102867421244L707.84592,209.19218774659802L710.31376,214.97274440474666L712.7816,218.32640851207984L715.24944,220.17658080790818L717.71728,221.0335938633875L720.18512,221.5389709249971L722.65296,221.70720604431324L725.1207999999999,221.8665032395689L727.58864,221.76844531400806L730.05648,221.66248023555295L732.52432,221.31655337605912L734.99216,220.89248215638688L737.46,220.3192674488477L739.92784,219.63558876736872L742.3956800000001,218.2400659326151L744.86352,217.1784858980504L747.33136,216.38206106934976L749.7991999999999,215.8014870853896L752.2670400000001,215.27778906777553L754.73488,214.93666503844688L757.20272,214.66943289747655L759.67056,214.353727740594L762.1384,216.08120208037786L764.60624,216.00589861586758L767.07408,215.75923855671326L769.54192,215.61836456432695L772.00976,215.24546858110216L774.4775999999999,214.98802472059506L776.9454400000001,214.80701084816866L779.41328,214.6226456143523L781.88112,215.5823119441839L784.3489599999999,216.0793104859958L786.8168000000001,216.32632640225972L789.28464,216.4371976579292L791.75248,216.417475340602L794.22032,218.17160060127807L796.68816,219.17414155922472L799.156,219.58976489199483L801.6238400000001,219.8222713219057L804.09168,221.548611325836L806.55952,222.55030879380584L809.0273599999999,223.02236960730323L811.4952000000001,223.1807262815451L813.96304,223.01093635662886L816.43088,222.80260595883954L818.89872,222.59542084078274L821.36656,222.3506710898959L823.8344,221.99544061967896L826.3022399999999,221.78008239483998L828.77008,221.64187876740795L831.23792,221.49277901582408L833.7057599999999,221.3824274222999L836.1736000000001,222.0862794185913L838.64144,222.42662969487986L841.10928,223.05790652786544L843.57712,223.35581840051125L846.0449600000001,223.4723571928052L848.5128,223.48391404532967L850.9806399999999,223.45346273617758L853.44848,224.68681518715707L855.91632,226.85026777972033L858.38416,227.26160252339528L860.8520000000001,227.44006858317186L863.31984,228.319894265422L865.78768,229.73596150653887L868.2555199999999,231.52944733685652L870.7233600000001,234.10740482467915L873.1912,234.98026925254302L875.6590399999999,235.33443334788475L878.12688,235.73639562912354L880.59472,236.80600081264188L883.06256,236.26535620915422L885.5304000000001,235.23636718402156L887.99824,235.44026019062505L890.46608,234.79858053689077L892.93392,235.2255861538542L895.4017600000001,236.17967983882315L897.8696,237.7859296316612L900.33744,240.03722006236427L902.80528,242.43361386484185L905.2731200000001,244.63221043708356L907.74096,247.1633678398277L910.2087999999999,249.71283227202437L912.67664,252.8061745332177L915.14448,254.82941744657657L917.61232,257.03371418607946L920.0801600000001,257.87302072037227L922.548,258.4171509753999L925.01584,260.0439169546103L927.4836799999999,262.4608064350898L929.9515200000001,265.192296173286L932.41936,265.9962019320994L934.8871999999999,265.999487181306L937.35504,264.8701632922359L939.82288,263.2845964739667L942.29072,263.26099581446596L944.7585600000001,262.1301028048576L947.2264,260.1943085474453L949.69424,258.23453772362166L952.16208,255.97511722953107L954.6299200000001,253.806563297112L957.09776,253.16034930366894L959.5655999999999,251.25167208695913L962.03344,250.7767742276593L964.5012800000001,250.50715196201293L966.96912,250.3225918098435L969.4369599999999,250.87983095551405L971.9048,251.59202847887664L974.37264,253.15670294634916L976.84048,255.61290603720596L979.3083200000001,260.1226181696462L981.77616,264.6124292360111L984.2439999999999,270.93319978659207L986.71184,280.14544329186526L989.1796800000001,293.8281067545296L991.64752,302.0679906806398L994.1153599999999,306.9623601053121L996.5832,310.57270581540575L999.0510400000001,312.9290025069674L1001.51888,315.1495575753135L1003.9867200000001,315.7121706580158L1006.45456,315.39508979304185L1008.9223999999999,314.90419492923684L1011.39024,315.05331947553896L1013.8580800000001,314.6999666606974L1016.32592,315.02718289454987L1018.7937599999999,314.71336212280187L1021.2616,315.0951976370183L1023.7294400000001,314.74255098980206L1026.1972799999999,315.00273312908666L1028.66512,314.8432304144173L1031.1329600000001,315.14314236324634L1033.6008,314.88520559915867L1036.06864,315.28256479583894L1038.53648,314.9059354021446L1041.00432,315.9810408141127L1043.47216,315.29758148506744L1045.94,316.081337583091L1048.40784,315.40769998684425L1050.8756799999999,316.4915438096352L1053.34352,315.59691728754603L1055.8113600000001,317.0667373832291L1058.2792,315.9353970108167L1060.74704,316.81244648535795L1063.21488,315.9056237229756L1065.68272,317.0876985920897L1068.15056,316.06452306906965L1070.6183999999998,317.28373802185405L1073.08624,316.04215270169783L1075.5540799999999,318.4338866160935L1078.02192,316.7379145250031L1080.4897600000002,318.44718617749066L1082.9576,316.7453849202836L1085.42544,319.0946522088713L1087.89328,317.1960141962555L1090.36112,319.38766551250933L1092.82896,317.3644367258499L1095.2967999999998,319.200676392229L1097.76464,317.2185418206059L1100.23248,318.6924882384037L1102.70032,317.4015232117114L1105.1681600000002,318.52389195044987L1107.636,317.0327813534746L1110.10384,317.86011391202135L1112.57168,317.2261047627368L1115.03952,318.073556982097L1117.50736,317.8993658134376L1119.9751999999999,317.8257261990263L1122.44304,317.8079383075819L1124.91088,318.46316474348487L1127.37872,317.44779143004394L1129.8465600000002,319.15452353121105L1132.3144,317.80361795932146L1134.78224,319.8215281834806L1137.25008,318.25975843823915L1139.71792,319.9338310937171L1142.18576,317.9665663098015L1144.6535999999999,321.00874882467895L1147.1214400000001,318.7184886626103L1149.58928,319.9885642821609L1152.05712,319.07110580242454L1154.52496,320.1009527815256L1156.9928,318.6939736058703L1159.46064,320.6606623904806L1161.92848,318.93809292311215L1164.39632,321.0316437498415L1166.86416,319.0283577981337L1169.3319999999999,319.72477212273213L1171.79984,319.6332491984024L1174.26768,320.2670651008718L1176.73552,319.8468594681574L1179.20336,320.30190690611585L1181.6712,319.20892625271813L1184.13904,321.3555201311746L1186.60688,319.3188043685658L1189.07472,322.3414127314563L1191.54256,319.9335649050625L1194.0104,321.50875229263414L1196.47824,320.32082717128395L1198.94608,321.98245266051435L1201.41392,320.5414895552676L1203.88176,322.0899622641969L1206.3496,320.0484810340849L1208.81744,320.9654883981812L1211.28528,320.50371603150904L1213.7531199999999,321.17815257696157L1216.22096,321.4591144153082L1218.6888,321.12001780442023L1221.15664,321.58764730158424L1223.62448,321.44738902805034L1226.09232,322.1145627971623L1228.56016,320.6419732086208L1231.028,323.6022603989384L1233.49584,320.740593197125L1235.96368,324.9107873108387L1238.4315199999999,320.62171296939323L1240.8993600000001,331.4347082839977L1243.3672,324.64552405277317L1245.83504,330.6560974950226L1248.30288,324.43290851322604L1250.77072,326.9487708384925L1253.23856,322.5524928449009L1255.7064,327.688621484609L1258.17424,322.84191794066584L1260.64208,328.99707455225825L1263.1099199999999,323.65105367309013L1265.5777600000001,327.1448080734779L1268.0456,323.08859420463324L1270.51344,327.97716011855596L1272.98128,323.07766516492256L1275.44912,326.4383584760092L1277.91696,323.45570192417944L1280.3848,326.5532951693621L1282.85264,323.02324713778484L1285.32048,326.46966997359056L1287.7883199999999,321.54907286972787L1290.2561600000001,328.8444919766975L1292.724,324.0707931680012L1295.19184,325.2762928264853L1297.65968,325.44653757358697L1300.12752,325.79725308915374L1302.59536,321.85004710707636L1305.0632,331.180365308114L1307.53104,324.8454874896932L1309.99888,331.95161090490126L1312.46672,325.2353490695504L1314.93456,330.8230891210922L1317.4024,324.63526641956827L1319.87024,332.5501963964348L1322.33808,325.2113506743723L1324.80592,336.67554581128707L1327.27376,327.67446595805774" style="fill: none;" fill="none"></path></g></g></g></g><g opacity="0.2"><g><g><g><path stroke="rgb(187, 187, 187)" stroke-width="2px" d="M122.96784000000001,307.74896928005745L125.43568,307.4218983451525L127.90351999999999,295.5075129535463L130.37136,287.8855411211649L132.8392,286.6426603330506L135.30704,280.6478163103262L137.77488,270.1264488697052L140.24272,271.99800444973835L142.71056,262.3152279357115L145.1784,249.41418677568436L147.64624,245.72062718371546L150.11408,251.8707142687506L152.58192,235.26924115088252L155.04976,237.98116972876915L157.5176,223.6409468576312L159.98544,224.06083218339415L162.45328,218.1040007393393L164.92112,219.47761642850105L167.38896,208.63364103353683L169.8568,208.36779319965797L172.32464000000002,207.5213925447315L174.79248,208.51320209990564L177.26032,207.97964653181327L179.72816,208.34016114706174L182.196,205.49445853051213L184.66384,204.95780111290514L187.13168,204.04275082465676L189.59951999999998,205.093703162339L192.06736,203.98411880764695L194.5352,202.20631078713473L197.00304,202.89288807039458L199.47088,202.11504673585296L201.93872,198.55630738867654L204.40656,197.55868766870765L206.8744,197.0747936827441L209.34224,197.7880677042736L211.81008,195.40780880384978L214.27792,195.4302048517598L216.74576,190.60962719221908L219.2136,189.9810132591261L221.68144,184.16339793966876L224.14928,183.75372441278563L226.61712,184.04690478410987L229.08496,181.99981986648504L231.5528,172.6436929570304L234.02064000000001,173.206696394417L236.48848,170.76697217921418L238.95632,169.2678975810607L241.42416,165.52438381645413L243.892,162.02452070183222L246.35984,154.4093962675995L248.82768000000002,146.65264866418306L251.29552,146.89418017864227L253.76336,142.77002410756216L256.2312,132.90426539050208L258.69903999999997,132.40775724252063L261.16688,129.02951815062096L263.63472,129.0578003393279L266.10256,112.83019703295497L268.5704,113.84766921401024L271.03824,107.0669161611133L273.50608,105.97964670923022L275.97392,101.24154680305055L278.44176,95.9374036391576L280.9096,89.32409038146335L283.37744,88.33604266246158L285.84528,89.22546787394418L288.31311999999997,80.39805435472067L290.78096,83.42300640212164L293.2488,79.43011813693579L295.71664,78.23191708988611L298.18448,74.5148222976261L300.65232,70.0753613313039L303.12016,70.95928115977182L305.588,71.8599792983797L308.05584,66.48184428612393L310.52368,66.57296399275464L312.99152,60.301221675342966L315.45936,56.570057570934296L317.92719999999997,58.62395243512259L320.39504,51.75856504175397L322.86288,51.19955019818411L325.33072,51.49072378873825L327.79856,47.642873028914146L330.2664,45.25738182995053L332.73424,44.99257415533066L335.20208,41.75562116834851L337.66992,42.2247646914588L340.13776,42.36921545532016L342.6056,40.11717673805026L345.07344,33.888266550170044L347.54128,124.83356114890842L350.00912,115.63331085774632L352.47696,108.8711337910758L354.9448,103.67723560995523L357.41264,97.69831475284366L359.88048,84.87403061654834L362.34832,75.74030058251486L364.81615999999997,62.61782692538367L367.284,48.939634164174386L369.75184,40.67625400092868L372.21968,38.59304702944224L374.68752,150.15894720951718L377.15536,145.5638811488946L379.6232,140.22391554382114L382.09103999999996,135.95151361491946L384.55888,132.62075064910783L387.02672,130.5284117327796L389.49456,126.67560487985611L391.9624,122.50952175921861L394.43023999999997,115.81410214304924L396.89808,113.38826310303477L399.36592,99.8736651076211L401.83376,96.21578127145767L404.3016,89.21022507879468L406.76944,83.30626981125937L409.23728,170.93985493812295L411.70511999999997,167.54255611035558L414.17296,157.80457595984143L416.6408,153.3728487458494L419.10864,150.26571543680296L421.57648,141.2629848056369L424.04431999999997,139.03826077779132L426.51216,135.2699696686533L428.98,134.8755545417468L431.44784,130.20265160335435L433.91568,125.90764764282437L436.38352,122.98337169819406L438.85136,117.42373382051784L441.3192,111.92867495947412L443.78704,107.52028632495137L446.25488,98.42698527706995L448.72272,92.22059597571689L451.19056,103.43131601810455L453.6584,95.01689361201392L456.12624,89.98231447405283L458.59408,138.20990037586955L461.06192,188.27512632641526L463.52976,187.12996764729422L465.9976,181.6006639930937L468.46544,178.15368875861168L470.93328,173.36235142416422L473.40112,172.15322699811725L475.86896,171.8722527225812L478.3368,169.98776698278056L480.80464,168.8870773795578L483.27248,165.02308810750645L485.74032,161.96561247938206L488.20816,160.15940679444208L490.676,158.00112812055482L493.14384,154.30650427937508L495.61168,144.25123429960672L498.07952,142.96474114060402L500.54736,168.0477436631918L503.0152,165.97232974237863L505.48304,164.64348508252039L507.95088,159.50824544661572L510.41872,156.70549053284856L512.88656,152.65722385711138L515.3543999999999,151.34121884902316L517.8222400000001,150.78931980662873L520.29008,180.7765917976697L522.75792,176.74240067601204L525.2257599999999,173.70762382944423L527.6936,153.34159539805518L530.1614400000001,183.19266845782596L532.62928,178.24894998636512L535.09712,175.9985716227028L537.5649599999999,174.44748925666016L540.0328,173.00594341423778L542.5006400000001,170.36288205948142L544.96848,179.93937097489834L547.43632,177.64542393386364L549.9041599999999,174.4236825323767L552.372,170.31994069616002L554.83984,164.2383275926113L557.30768,161.83336469034356L559.77552,161.22080656389397L562.2433599999999,160.68797974122896L564.7112,161.32724084787895L567.17904,159.66887841622037L569.64688,158.4510683433877L572.11472,158.4157889501916L574.58256,151.3866850733757L577.0504,169.5195379025406L579.51824,167.53120203812915L581.98608,166.06017555627557L584.45392,165.0339865187804L586.92176,161.74555008610088L589.3896,156.39584082696172L591.85744,154.11581953366596L594.32528,150.82196510500376L596.7931199999999,149.99444112181664L599.26096,148.67147636082439L601.7288,146.45813137292862L604.19664,143.69513443774645L606.66448,141.55787858698102L609.1323199999999,134.23693635397484L611.60016,132.46813543968727L614.068,129.3520636856556L616.53584,120.63747930857869L619.00368,118.42852864000531L621.4715199999999,114.44285604688855L623.93936,110.06446613205804L626.4072,107.64284663730196L628.87504,99.47103559970856L631.34288,138.11981682976085L633.81072,133.92749263180627L636.27856,132.71089661452504L638.7464,153.0329506430361L641.21424,186.36633918931085L643.68208,182.4956476440032L646.14992,180.79668457309407L648.61776,177.76504741774664L651.0856,176.54378555715084L653.55344,173.5318104839987L656.02128,165.03015709420043L658.48912,158.29521669281854L660.95696,156.70432329177856L663.4248,151.45205681522685L665.89264,157.5654319839345L668.3604799999999,153.59207159943048L670.82832,152.65200560291606L673.29616,166.4811906715234L675.764,163.62588494188253L678.23184,161.9170627411869L680.69968,158.62661328580646L683.16752,164.67364921338026L685.63536,141.10678672790527L688.1032,136.64861869480876L690.57104,133.6424298915598L693.03888,130.23926676975356L695.50672,121.84952495826616L697.97456,121.22523824373883L700.4424,191.71314595060215L702.91024,224.97160479840306L705.37808,224.83572732657194L707.84592,224.50892635517653L710.31376,223.64357939196958L712.7816,223.3569046730796L715.24944,222.9518392516507L717.71728,222.31911344660654L720.18512,222.29703651741147L722.65296,221.95955872328744L725.1207999999999,222.10544903245238L727.58864,221.62135842566687L730.05648,221.5035326178703L732.52432,220.79766308681832L734.99216,220.25637532687847L737.46,219.45944538753895L739.92784,218.6100707451502L742.3956800000001,216.1467816804846L744.86352,215.58611584620343L747.33136,215.18742382629875L749.7991999999999,214.9306261094494L752.2670400000001,214.49224204135436L754.73488,214.4249789944539L757.20272,214.26858468602097L759.67056,213.8801700052702L762.1384,218.67241359005368L764.60624,215.89294341910215L767.07408,215.38924846798182L769.54192,215.40705357574757L772.00976,214.68612460626497L774.4775999999999,214.6018589298344L776.9454400000001,214.53549003952907L779.41328,214.34609776362777L781.88112,217.02181143893137L784.3489599999999,216.8248082987136L786.8168000000001,216.6968502766556L789.28464,216.6035045414335L791.75248,216.38789186461105L794.22032,220.80278849229217L796.68816,220.67795299614465L799.156,220.21319989115L801.6238400000001,220.17103096677198L804.09168,224.13812133173144L806.55952,224.05285499576064L809.0273599999999,223.73046082754928L811.4952000000001,223.4182612929079L813.96304,222.7562514692545L816.43088,222.49011036215558L818.89872,222.28464316369758L821.36656,221.9835464635657L823.8344,221.46259491435353L826.3022399999999,221.45704505758152L828.77008,221.43457332625985L831.23792,221.26912938844828L833.7057599999999,221.21690003201365L836.1736000000001,223.14205741302834L838.64144,222.9371551093128L841.10928,224.00482177734375L843.57712,223.80268620947993L846.0449600000001,223.64716538124617L848.5128,223.50124932411643L850.9806399999999,223.40778577244942L853.44848,226.5368438636263L855.91632,230.09544666856527L858.38416,227.87860463890763L860.8520000000001,227.70776767283678L863.31984,229.6396327887972L865.78768,231.86006236821413L868.2555199999999,234.2196760823329L870.7233600000001,237.9743410564131L873.1912,236.2895658943388L875.6590399999999,235.86567949089738L878.12688,236.33933905098172L880.59472,238.41040858791933L883.06256,235.45438930392265L885.5304000000001,233.69288364632263L887.99824,235.74609970053035L890.46608,233.8360610562894L892.93392,235.86609457929927L895.4017600000001,237.61082036627658L897.8696,240.19530432091818L900.33744,243.41415570841895L902.80528,246.0282045685583L905.2731200000001,247.9301052954462L907.74096,250.96010394394398L910.2087999999999,253.53702892031936L912.67664,257.4461879250076L915.14448,257.86428181661495L917.61232,260.3401592953337L920.0801600000001,259.13198052181133L922.548,259.2333463579416L925.01584,262.4840659234259L927.4836799999999,266.086140655809L929.9515200000001,269.2895307805803L932.41936,267.2020605703195L934.8871999999999,266.004415055116L937.35504,263.17617745863066L939.82288,260.90624624656306L942.29072,263.2255948252148L944.7585600000001,260.433763290445L947.2264,257.29061716132696L949.69424,255.29488148788607L952.16208,252.5859864883953L954.6299200000001,250.55373239848348L957.09776,252.19102831350432L959.5655999999999,248.38865626189443L962.03344,250.06442743870946L964.5012800000001,250.10271856354342L966.96912,250.04575158158934L969.4369599999999,251.7156896740198L971.9048,252.66032476392058L974.37264,255.503714647558L976.84048,259.2972106734911L979.3083200000001,266.88718636830646L981.77616,271.34714583555854L984.2439999999999,280.4143556124634L986.71184,293.963808549775L989.1796800000001,314.3521019485262L991.64752,314.42781656980515L994.1153599999999,314.30391424232056L996.5832,315.9882243805461L999.0510400000001,316.4634475443098L1001.51888,318.4803901778327L1003.9867200000001,316.5560902820693L1006.45456,314.9194684955809L1008.9223999999999,314.1678526335292L1011.39024,315.27700629499225L1013.8580800000001,314.169937438435L1016.32592,315.5180072453287L1018.7937599999999,314.24263096517984L1021.2616,315.66795090834296L1023.7294400000001,314.21358101897766L1026.1972799999999,315.39300633801355L1028.66512,314.60397634241315L1031.1329600000001,315.5930102864901L1033.6008,314.49830045302707L1036.06864,315.8786035908593L1038.53648,314.3409913116031L1041.00432,317.5936989320649L1043.47216,314.27239249149955L1045.94,317.2569717301263L1048.40784,314.3972435924742L1050.8756799999999,318.11730954382153L1053.34352,314.2549775044123L1055.8113600000001,319.2714675267537L1058.2792,314.23838645219803L1060.74704,318.1280206971698L1063.21488,314.54538957940207L1065.68272,318.86081089576084L1068.15056,314.5297597845395L1070.6183999999998,319.11256045103073L1073.08624,314.1797747214635L1075.5540799999999,322.021487487687L1078.02192,314.19395638836755L1080.4897600000002,321.011093656222L1082.9576,314.19268303447296L1085.42544,322.61855314175284L1087.89328,314.3480571773317L1090.36112,322.67514248689014L1092.82896,314.3295935458607L1095.2967999999998,321.9550358917978L1097.76464,314.2453399631712L1100.23248,320.9034078651004L1102.70032,315.4650756716728L1105.1681600000002,320.2074450585577L1107.636,314.7961154580116L1110.10384,319.1011127498415L1112.57168,316.2750910388099L1115.03952,319.3447353111373L1117.50736,317.63807906044855L1119.9751999999999,317.71526677740945L1122.44304,317.7812564704153L1124.91088,319.44600439733927L1127.37872,315.92473145988254L1129.8465600000002,321.71462168296176L1132.3144,315.77725960148706L1134.78224,322.8483935197194L1137.25008,315.9171038203769L1139.71792,322.44494007693396L1142.18576,315.0156691339281L1144.6535999999999,325.572022596995L1147.1214400000001,315.2830984195073L1149.58928,321.8936777114868L1152.05712,317.69491808282004L1154.52496,321.6457232501772L1156.9928,316.5835048423873L1159.46064,323.61069556739596L1161.92848,316.35423872205945L1164.39632,324.1719699899355L1166.86416,316.023428870572L1169.3319999999999,320.76939360962973L1171.79984,319.49596481190787L1174.26768,321.21778895457584L1176.73552,319.2165510190858L1179.20336,320.98447806305353L1181.6712,317.56945527262155L1184.13904,324.5754109488593L1186.60688,316.2637307246526L1189.07472,326.875325275792L1191.54256,316.32179316547183L1194.0104,323.8715333739916L1196.47824,318.53893948925867L1198.94608,324.47489089436L1201.41392,318.38004489739734L1203.88176,324.41267132759094L1206.3496,316.98625918891696L1208.81744,322.34099944432575L1211.28528,319.8110574815008L1213.7531199999999,322.1898073951403L1216.22096,321.8805571728282L1218.6888,320.6113728880882L1221.15664,322.2890915473302L1223.62448,321.2370016177495L1226.09232,323.11532345083026L1228.56016,318.4330888258086L1231.028,328.04269118441476L1233.49584,316.4480923944049L1235.96368,331.1660784814093L1238.4315199999999,314.18810145722495L1240.8993600000001,347.6542012559043L1243.3672,314.46174770593643L1245.83504,339.6719576583968L1248.30288,315.09812504053116L1250.77072,330.7225643263923L1253.23856,315.95807585451337L1255.7064,335.39281444417105L1258.17424,315.5718626247512L1260.64208,338.22980946964685L1263.1099199999999,315.6320223543379L1265.5777600000001,332.3854396740595L1268.0456,317.00427340136633L1270.51344,335.31000898944006L1272.98128,315.7284227344725L1275.44912,331.47939844263925L1277.91696,318.9817170964347L1280.3848,331.1996850371361L1282.85264,317.7281750904189L1285.32048,331.63930422729914L1287.7883199999999,314.16817721393375L1290.2561600000001,339.7876206371519L1292.724,316.9102449549569L1295.19184,327.0845423142115L1297.65968,325.70190469423926L1300.12752,326.3233263625039L1302.59536,315.92923813396027L1305.0632,345.17584260967044L1307.53104,315.3431707620621L1309.99888,342.6107960277133L1312.46672,315.16095631652405L1314.93456,339.2046991984049L1317.4024,315.3535323672824L1319.87024,344.4225913617346L1322.33808,314.2030820912785L1324.80592,353.8718385166592L1327.27376,314.1728461782137" style="fill: none;" fill="none"></path></g></g></g></g></g><g><g opacity="0.0215545"><span fill="rgb(0, 0, 0)" stroke="none" stroke-width="1px">Alt + Scroll to Zoom</span></g></g></g><g transform="translate(50, 377)" clip-path="url(#clip_1)"><clipPath id="clip_1"><rect width="1446" height="23"></rect></clipPath><g><g><line x1="0" y1="0" x2="0" y2="5" style="visibility: inherit;" fill="rgb(0, 0, 0)" stroke="rgb(204, 204, 204)" stroke-width="1px"></line><line x1="120.5" y1="0" x2="120.5" y2="5" style="visibility: inherit;" fill="rgb(0, 0, 0)" stroke="rgb(204, 204, 204)" stroke-width="1px"></line><line x1="241" y1="0" x2="241" y2="5" style="visibility: inherit;" fill="rgb(0, 0, 0)" stroke="rgb(204, 204, 204)" stroke-width="1px"></line><line x1="361.5" y1="0" x2="361.5" y2="5" style="visibility: inherit;" fill="rgb(0, 0, 0)" stroke="rgb(204, 204, 204)" stroke-width="1px"></line><line x1="482" y1="0" x2="482" y2="5" style="visibility: inherit;" fill="rgb(0, 0, 0)" stroke="rgb(204, 204, 204)" stroke-width="1px"></line><line x1="602.5" y1="0" x2="602.5" y2="5" style="visibility: inherit;" fill="rgb(0, 0, 0)" stroke="rgb(204, 204, 204)" stroke-width="1px"></line><line x1="723" y1="0" x2="723" y2="5" style="visibility: inherit;" fill="rgb(0, 0, 0)" stroke="rgb(204, 204, 204)" stroke-width="1px"></line><line x1="843.5" y1="0" x2="843.5" y2="5" style="visibility: inherit;" fill="rgb(0, 0, 0)" stroke="rgb(204, 204, 204)" stroke-width="1px"></line><line x1="964" y1="0" x2="964" y2="5" style="visibility: inherit;" fill="rgb(0, 0, 0)" stroke="rgb(204, 204, 204)" stroke-width="1px"></line><line x1="1084.5" y1="0" x2="1084.5" y2="5" style="visibility: inherit;" fill="rgb(0, 0, 0)" stroke="rgb(204, 204, 204)" stroke-width="1px"></line><line x1="1205" y1="0" x2="1205" y2="5" style="visibility: inherit;" fill="rgb(0, 0, 0)" stroke="rgb(204, 204, 204)" stroke-width="1px"></line><line x1="1325.5" y1="0" x2="1325.5" y2="5" style="visibility: inherit;" fill="rgb(0, 0, 0)" stroke="rgb(204, 204, 204)" stroke-width="1px"></line><line x1="1446" y1="0" x2="1446" y2="5" style="visibility: inherit;" fill="rgb(0, 0, 0)" stroke="rgb(204, 204, 204)" stroke-width="1px"></line></g><g transform="translate(0, 8)"><text x="0" y="0" dx="0em" dy="0.95em" style="text-anchor: middle; visibility: hidden; font-family: Roboto, sans-serif; font-size: 12px; font-weight: 200;" fill="rgb(33, 33, 33)" stroke="none" stroke-width="1px">-100k</text><text x="120.5" y="0" dx="0em" dy="0.95em" style="text-anchor: middle; visibility: inherit; font-family: Roboto, sans-serif; font-size: 12px; font-weight: 200;" fill="rgb(33, 33, 33)" stroke="none" stroke-width="1px">0</text><text x="241" y="0" dx="0em" dy="0.95em" style="text-anchor: middle; visibility: inherit; font-family: Roboto, sans-serif; font-size: 12px; font-weight: 200;" fill="rgb(33, 33, 33)" stroke="none" stroke-width="1px">100k</text><text x="361.5" y="0" dx="0em" dy="0.95em" style="text-anchor: middle; visibility: inherit; font-family: Roboto, sans-serif; font-size: 12px; font-weight: 200;" fill="rgb(33, 33, 33)" stroke="none" stroke-width="1px">200k</text><text x="482" y="0" dx="0em" dy="0.95em" style="text-anchor: middle; visibility: inherit; font-family: Roboto, sans-serif; font-size: 12px; font-weight: 200;" fill="rgb(33, 33, 33)" stroke="none" stroke-width="1px">300k</text><text x="602.5" y="0" dx="0em" dy="0.95em" style="text-anchor: middle; visibility: inherit; font-family: Roboto, sans-serif; font-size: 12px; font-weight: 200;" fill="rgb(33, 33, 33)" stroke="none" stroke-width="1px">400k</text><text x="723" y="0" dx="0em" dy="0.95em" style="text-anchor: middle; visibility: inherit; font-family: Roboto, sans-serif; font-size: 12px; font-weight: 200;" fill="rgb(33, 33, 33)" stroke="none" stroke-width="1px">500k</text><text x="843.5" y="0" dx="0em" dy="0.95em" style="text-anchor: middle; visibility: inherit; font-family: Roboto, sans-serif; font-size: 12px; font-weight: 200;" fill="rgb(33, 33, 33)" stroke="none" stroke-width="1px">600k</text><text x="964" y="0" dx="0em" dy="0.95em" style="text-anchor: middle; visibility: inherit; font-family: Roboto, sans-serif; font-size: 12px; font-weight: 200;" fill="rgb(33, 33, 33)" stroke="none" stroke-width="1px">700k</text><text x="1084.5" y="0" dx="0em" dy="0.95em" style="text-anchor: middle; visibility: inherit; font-family: Roboto, sans-serif; font-size: 12px; font-weight: 200;" fill="rgb(33, 33, 33)" stroke="none" stroke-width="1px">800k</text><text x="1205" y="0" dx="0em" dy="0.95em" style="text-anchor: middle; visibility: inherit; font-family: Roboto, sans-serif; font-size: 12px; font-weight: 200;" fill="rgb(33, 33, 33)" stroke="none" stroke-width="1px">900k</text><text x="1325.5" y="0" dx="0em" dy="0.95em" style="text-anchor: middle; visibility: inherit; font-family: Roboto, sans-serif; font-size: 12px; font-weight: 200;" fill="rgb(33, 33, 33)" stroke="none" stroke-width="1px">1M</text><text x="1446" y="0" dx="0em" dy="0.95em" style="text-anchor: middle; visibility: hidden; font-family: Roboto, sans-serif; font-size: 12px; font-weight: 200;" fill="rgb(33, 33, 33)" stroke="none" stroke-width="1px">1.1M</text></g><line x1="0" y1="0" x2="1446" y2="0" fill="rgb(0, 0, 0)" stroke="rgb(204, 204, 204)" stroke-width="1px"></line></g></g></g></g></svg>