<svg viewBox="0 0 1496 400" xmlns="http://www.w3.org/2000/svg"><g><g><g><g><g><line x1="50" y1="377" x2="45" y2="377" style="visibility: inherit;" fill="rgb(0, 0, 0)" stroke="rgb(204, 204, 204)" stroke-width="1px"></line><line x1="50" y1="335.1111111111111" x2="45" y2="335.1111111111111" style="visibility: inherit;" fill="rgb(0, 0, 0)" stroke="rgb(204, 204, 204)" stroke-width="1px"></line><line x1="50" y1="293.22222222222223" x2="45" y2="293.22222222222223" style="visibility: inherit;" fill="rgb(0, 0, 0)" stroke="rgb(204, 204, 204)" stroke-width="1px"></line><line x1="50" y1="251.33333333333331" x2="45" y2="251.33333333333331" style="visibility: inherit;" fill="rgb(0, 0, 0)" stroke="rgb(204, 204, 204)" stroke-width="1px"></line><line x1="50" y1="209.44444444444446" x2="45" y2="209.44444444444446" style="visibility: inherit;" fill="rgb(0, 0, 0)" stroke="rgb(204, 204, 204)" stroke-width="1px"></line><line x1="50" y1="167.55555555555554" x2="45" y2="167.55555555555554" style="visibility: inherit;" fill="rgb(0, 0, 0)" stroke="rgb(204, 204, 204)" stroke-width="1px"></line><line x1="50" y1="125.66666666666664" x2="45" y2="125.66666666666664" style="visibility: inherit;" fill="rgb(0, 0, 0)" stroke="rgb(204, 204, 204)" stroke-width="1px"></line><line x1="50" y1="83.77777777777781" x2="45" y2="83.77777777777781" style="visibility: inherit;" fill="rgb(0, 0, 0)" stroke="rgb(204, 204, 204)" stroke-width="1px"></line><line x1="50" y1="41.888888888888864" x2="45" y2="41.888888888888864" style="visibility: inherit;" fill="rgb(0, 0, 0)" stroke="rgb(204, 204, 204)" stroke-width="1px"></line><line x1="50" y1="0" x2="45" y2="0" style="visibility: inherit;" fill="rgb(0, 0, 0)" stroke="rgb(204, 204, 204)" stroke-width="1px"></line></g><g transform="translate(40, 0)"><text x="0" y="377" dx="0em" dy="0.3em" style="text-anchor: end; visibility: hidden; font-family: Roboto, sans-serif; font-size: 12px; font-weight: 200;" fill="rgb(33, 33, 33)" stroke="none" stroke-width="1px">-0.8</text><text x="0" y="335.1111111111111" dx="0em" dy="0.3em" style="text-anchor: end; visibility: inherit; font-family: Roboto, sans-serif; font-size: 12px; font-weight: 200;" fill="rgb(33, 33, 33)" stroke="none" stroke-width="1px">-0.6</text><text x="0" y="293.22222222222223" dx="0em" dy="0.3em" style="text-anchor: end; visibility: inherit; font-family: Roboto, sans-serif; font-size: 12px; font-weight: 200;" fill="rgb(33, 33, 33)" stroke="none" stroke-width="1px">-0.4</text><text x="0" y="251.33333333333331" dx="0em" dy="0.3em" style="text-anchor: end; visibility: inherit; font-family: Roboto, sans-serif; font-size: 12px; font-weight: 200;" fill="rgb(33, 33, 33)" stroke="none" stroke-width="1px">-0.2</text><text x="0" y="209.44444444444446" dx="0em" dy="0.3em" style="text-anchor: end; visibility: inherit; font-family: Roboto, sans-serif; font-size: 12px; font-weight: 200;" fill="rgb(33, 33, 33)" stroke="none" stroke-width="1px">0</text><text x="0" y="167.55555555555554" dx="0em" dy="0.3em" style="text-anchor: end; visibility: inherit; font-family: Roboto, sans-serif; font-size: 12px; font-weight: 200;" fill="rgb(33, 33, 33)" stroke="none" stroke-width="1px">0.2</text><text x="0" y="125.66666666666664" dx="0em" dy="0.3em" style="text-anchor: end; visibility: inherit; font-family: Roboto, sans-serif; font-size: 12px; font-weight: 200;" fill="rgb(33, 33, 33)" stroke="none" stroke-width="1px">0.4</text><text x="0" y="83.77777777777781" dx="0em" dy="0.3em" style="text-anchor: end; visibility: inherit; font-family: Roboto, sans-serif; font-size: 12px; font-weight: 200;" fill="rgb(33, 33, 33)" stroke="none" stroke-width="1px">0.6</text><text x="0" y="41.888888888888864" dx="0em" dy="0.3em" style="text-anchor: end; visibility: inherit; font-family: Roboto, sans-serif; font-size: 12px; font-weight: 200;" fill="rgb(33, 33, 33)" stroke="none" stroke-width="1px">0.8</text><text x="0" y="0" dx="0em" dy="0.3em" style="text-anchor: end; visibility: hidden; font-family: Roboto, sans-serif; font-size: 12px; font-weight: 200;" fill="rgb(33, 33, 33)" stroke="none" stroke-width="1px">1</text></g><line x1="50" y1="0" x2="50" y2="377" fill="rgb(0, 0, 0)" stroke="rgb(204, 204, 204)" stroke-width="1px"></line></g></g><g transform="translate(50, 0)" clip-path="url(#clip_0)"><clipPath id="clip_0"><rect width="1446" height="377"></rect></clipPath><g><g><g><line x1="0" y1="0" x2="0" y2="377" fill="rgb(0, 0, 0)" stroke="rgb(66, 66, 66)" stroke-width="1px" opacity="0.25"></line><line x1="120.5" y1="0" x2="120.5" y2="377" fill="rgb(0, 0, 0)" stroke="rgb(66, 66, 66)" stroke-width="1px" opacity="0.25"></line><line x1="241" y1="0" x2="241" y2="377" fill="rgb(0, 0, 0)" stroke="rgb(66, 66, 66)" stroke-width="1px" opacity="0.25"></line><line x1="361.5" y1="0" x2="361.5" y2="377" fill="rgb(0, 0, 0)" stroke="rgb(66, 66, 66)" stroke-width="1px" opacity="0.25"></line><line x1="482" y1="0" x2="482" y2="377" fill="rgb(0, 0, 0)" stroke="rgb(66, 66, 66)" stroke-width="1px" opacity="0.25"></line><line x1="602.5" y1="0" x2="602.5" y2="377" fill="rgb(0, 0, 0)" stroke="rgb(66, 66, 66)" stroke-width="1px" opacity="0.25"></line><line x1="723" y1="0" x2="723" y2="377" fill="rgb(0, 0, 0)" stroke="rgb(66, 66, 66)" stroke-width="1px" opacity="0.25"></line><line x1="843.5" y1="0" x2="843.5" y2="377" fill="rgb(0, 0, 0)" stroke="rgb(66, 66, 66)" stroke-width="1px" opacity="0.25"></line><line x1="964" y1="0" x2="964" y2="377" fill="rgb(0, 0, 0)" stroke="rgb(66, 66, 66)" stroke-width="1px" opacity="0.25"></line><line x1="1084.5" y1="0" x2="1084.5" y2="377" fill="rgb(0, 0, 0)" stroke="rgb(66, 66, 66)" stroke-width="1px" opacity="0.25"></line><line x1="1205" y1="0" x2="1205" y2="377" fill="rgb(0, 0, 0)" stroke="rgb(66, 66, 66)" stroke-width="1px" opacity="0.25"></line><line x1="1325.5" y1="0" x2="1325.5" y2="377" fill="rgb(0, 0, 0)" stroke="rgb(66, 66, 66)" stroke-width="1px" opacity="0.25"></line><line x1="1446" y1="0" x2="1446" y2="377" fill="rgb(0, 0, 0)" stroke="rgb(66, 66, 66)" stroke-width="1px" opacity="0.25"></line></g><g><line x1="0" y1="377" x2="1446" y2="377" fill="rgb(0, 0, 0)" stroke="rgb(66, 66, 66)" stroke-width="1px" opacity="0.25"></line><line x1="0" y1="335.1111111111111" x2="1446" y2="335.1111111111111" fill="rgb(0, 0, 0)" stroke="rgb(66, 66, 66)" stroke-width="1px" opacity="0.25"></line><line x1="0" y1="293.22222222222223" x2="1446" y2="293.22222222222223" fill="rgb(0, 0, 0)" stroke="rgb(66, 66, 66)" stroke-width="1px" opacity="0.25"></line><line x1="0" y1="251.33333333333331" x2="1446" y2="251.33333333333331" fill="rgb(0, 0, 0)" stroke="rgb(66, 66, 66)" stroke-width="1px" opacity="0.25"></line><line x1="0" y1="209.44444444444446" x2="1446" y2="209.44444444444446" fill="rgb(0, 0, 0)" stroke="rgb(66, 66, 66)" stroke-width="1px" opacity="0.25"></line><line x1="0" y1="167.55555555555554" x2="1446" y2="167.55555555555554" fill="rgb(0, 0, 0)" stroke="rgb(66, 66, 66)" stroke-width="1px" opacity="0.25"></line><line x1="0" y1="125.66666666666664" x2="1446" y2="125.66666666666664" fill="rgb(0, 0, 0)" stroke="rgb(66, 66, 66)" stroke-width="1px" opacity="0.25"></line><line x1="0" y1="83.77777777777781" x2="1446" y2="83.77777777777781" fill="rgb(0, 0, 0)" stroke="rgb(66, 66, 66)" stroke-width="1px" opacity="0.25"></line><line x1="0" y1="41.888888888888864" x2="1446" y2="41.888888888888864" fill="rgb(0, 0, 0)" stroke="rgb(66, 66, 66)" stroke-width="1px" opacity="0.25"></line><line x1="0" y1="0" x2="1446" y2="0" fill="rgb(0, 0, 0)" stroke="rgb(66, 66, 66)" stroke-width="1px" opacity="0.25"></line></g></g></g><g><g><line x1="0" y1="209.44444444444446" x2="1446" y2="209.44444444444446" fill="rgb(0, 0, 0)" stroke="rgb(153, 153, 153)" stroke-width="1.5px"></line></g></g><g><g><line x1="120.5" y1="0" x2="120.5" y2="377" fill="rgb(0, 0, 0)" stroke="rgb(153, 153, 153)" stroke-width="1.5px"></line></g></g><g><g><g><g><g><path stroke="rgb(255, 112, 67)" stroke-width="2px" d="M122.96784000000001,349.46675810548993L125.43568,331.0479358956218L127.90351999999999,319.7273798124725L130.37136,318.2361370208825L132.8392,310.2472452952285L135.30704,308.4356698012245L137.77488,303.56964893172L140.24272,300.3647720019676L142.71056,298.46220546418925L145.1784,297.0638520672033L147.64624,293.57542898949623L150.11408,292.3550893663282L152.58192,290.7786877103308L155.04976,289.205562318767L157.5176,286.35152710988535L159.98544,286.8227274089332L162.45328,286.4946709555086L164.92112,286.5489360987703L167.38896,286.9633812772967L169.8568,285.952142297885L172.32464000000002,284.484194493196L174.79248,282.3852301922443L177.26032,281.4427147022742L179.72816,281.16696696888766L182.196,278.42308754635854L184.66384,276.56580723684635L187.13168,274.4092772493844L189.59951999999998,270.61320374952015L192.06736,268.35685861746276L194.5352,268.2297415609659L197.00304,266.9332086557265L199.47088,265.08765160672306L201.93872,262.25628360280837L204.40656,261.1180944067139L206.8744,257.65656536759246L209.34224,252.94536712441072L211.81008,249.12847198604996L214.27792,249.31503696513252L216.74576,248.8547194751767L219.2136,247.35071371641712L221.68144,243.84180227688495L224.14928,239.67598342724432L226.61712,239.7435404886667L229.08496,236.7442912256739L231.5528,236.18282053904656L234.02064000000001,232.72984702289574L236.48848,228.42564476934476L238.95632,225.93559418988377L241.42416,221.52682416348634L243.892,219.27891940870438L246.35984,216.28506246637306L248.82768000000002,213.8867027564552L251.29552,212.08536899461487L253.76336,209.0163068277885L256.2312,207.9349676276107L258.69903999999997,207.99628131151604L261.16688,206.8528451186374L263.63472,206.11487878292854L266.10256,205.14533198136115L268.5704,203.8374448170742L271.03824,203.74337498945877L273.50608,203.0648463468922L275.97392,201.91349594302014L278.44176,201.5241491142666L280.9096,201.46893977022035L283.37744,201.0233770220232L285.84528,200.09696731420865L288.31311999999997,199.3132810261995L290.78096,199.17846505148114L293.2488,198.2958163014559L295.71664,198.02288276436306L298.18448,198.12207271810468L300.65232,197.26723432799497L303.12016,196.60012439214051L305.588,195.22376588179387L308.05584,192.32308115114333L310.52368,191.521536610157L312.99152,189.27708340285062L315.45936,188.65482313327033L317.92719999999997,187.84829319916057L320.39504,185.44954060688084L322.86288,183.9691871852148L325.33072,182.39130294358873L327.79856,179.17743445060339L330.2664,176.74143839252997L332.73424,175.37969292558373L335.20208,174.69272249090292L337.66992,170.60125406141316L340.13776,169.15708891881647L342.6056,169.32260071966266L345.07344,167.09184120204645L347.54128,166.23480689258L350.00912,165.81953963675474L352.47696,165.61997267229384L354.9448,163.64073382722484L357.41264,163.13657084250738L359.88048,158.67836901366618L362.34832,155.9357629149352L364.81615999999997,156.9260205948535L367.284,158.9481616988291L369.75184,159.59350305974874L372.21968,158.76011952004404L374.68752,159.53906227692903L377.15536,158.0767412489682L379.6232,159.02769631845598L382.09103999999996,160.6671850385438L384.55888,156.6036542291081L387.02672,156.9133036157272L389.49456,154.5582428865104L391.9624,147.89613459264052L394.43023999999997,147.70133404850515L396.89808,148.79945305339226L399.36592,143.24906386677793L401.83376,140.515084557864L404.3016,138.8534219753872L406.76944,137.90074463174858L409.23728,135.92743275521536L411.70511999999997,134.83806581074992L414.17296,136.38912059000793L416.6408,132.61832115000155L419.10864,131.26029976375298L421.57648,128.7772684915242L424.04431999999997,129.20124570270642L426.51216,128.9292025616847L428.98,129.16996193236602L431.44784,131.07396293398963L433.91568,131.03327045735722L436.38352,128.66267545294303L438.85136,129.96741804112582L441.3192,126.56656699290954L443.78704,121.17573992556981L446.25488,116.70083470167044L448.72272,115.1817594125482L451.19056,116.47483438512693L453.6584,113.91320632719274L456.12624,118.33583531870407L458.59408,114.26955968330016L461.06192,110.41866601288805L463.52976,112.13812760314973L465.9976,108.08422634748263L468.46544,104.64134195627688L470.93328,106.07334468936737L473.40112,105.35982943083339L475.86896,100.62063834968504L478.3368,112.12649131293404L480.80464,110.35859040437654L483.27248,110.78566900767657L485.74032,114.68980043258931L488.20816,111.17210492302314L490.676,109.04236733468635L493.14384,108.48767244548954L495.61168,101.30571461623394L498.07952,105.04185697909813L500.54736,102.41347059494232L503.0152,106.02701623835414L505.48304,101.53708321278903L507.95088,100.42555773379439L510.41872,101.64073440571515L512.88656,101.9994791867064L515.3543999999999,100.54248781135044L517.8222400000001,99.84523424848796L520.29008,98.55025036076965L522.75792,135.28580885229002L525.2257599999999,147.2574101652552L527.6936,156.2540426114708L530.1614400000001,150.18329307328057L532.62928,151.92204439905848L535.09712,148.1675623777231L537.5649599999999,145.81492986483366L540.0328,137.90210472598795L542.5006400000001,136.77640487319638L544.96848,134.8321801861774L547.43632,132.8795790471359L549.9041599999999,128.07534194111503L552.372,125.77279989260906L554.83984,125.7897493104446L557.30768,125.83315100102142L559.77552,131.2257145394594L562.2433599999999,138.07161293392315L564.7112,140.21484629159795L567.17904,140.4766102914086L569.64688,140.85903235645185L572.11472,140.4304013221395L574.58256,134.47504142337633L577.0504,129.90724121512463L579.51824,130.21841336279007L581.98608,131.47878868109652L584.45392,135.4220988250706L586.92176,140.02375728602146L589.3896,147.04357809188264L591.85744,147.5375805611482L594.32528,154.52380888883033L596.7931199999999,145.7647977332366L599.26096,150.13613124384366L601.7288,159.5773157558474L604.19664,151.2735901589837L606.66448,151.21560905933924L609.1323199999999,155.11651634908043L611.60016,155.69767139198183L614.068,155.59923743312635L616.53584,151.96426974796307L619.00368,151.24254770647644L621.4715199999999,149.17964646428194L623.93936,151.9661484512251L626.4072,150.7593210682144L628.87504,150.35355062818417L631.34288,145.3280377744456L633.81072,153.37701565510284L636.27856,163.0369402921043L638.7464,159.2200032181381L641.21424,154.2370720026331L643.68208,152.4583052850891L646.14992,152.09372188193367L648.61776,156.59330355120028L651.0856,158.22801061665413L653.55344,158.01770591653622L656.02128,158.1561060615746L658.48912,162.37832529886109L660.95696,166.6984320196124L663.4248,170.28144002698204L665.89264,169.64217784780996L668.3604799999999,168.6674622496026L670.82832,166.8661966668269L673.29616,165.34187322669766L675.764,173.60770008783996L678.23184,172.56687176650968L680.69968,184.5214078289508L683.16752,187.16759793400865L685.63536,183.15784801838194L688.1032,183.09840104856525L690.57104,184.72910119884935L693.03888,180.03635009404258L695.50672,192.86555279583476L697.97456,195.41520907141543L700.4424,200.65517115341376L702.91024,186.3189981710386L705.37808,196.42869141748875L707.84592,198.4345583698564L710.31376,193.79642554609453L712.7816,204.15555082271254L715.24944,202.30780270122008L717.71728,206.732021781092L720.18512,197.70462530093496L722.65296,207.2824263788819L725.1207999999999,201.29164104963698L727.58864,195.8428357592876L730.05648,184.03066624843342L732.52432,186.58657345625386L734.99216,188.3870258652989L737.46,197.45064697838103L739.92784,191.31109217113024L742.3956800000001,189.59484148439557L744.86352,188.4356053377199L747.33136,199.76466843217653L749.7991999999999,208.4741273703313L752.2670400000001,191.40930618603514L754.73488,192.47093430448595L757.20272,211.42992384672243L759.67056,214.85971879012763L762.1384,211.73358276489805L764.60624,214.77305607748087L767.07408,221.9588891802685L769.54192,225.34326568905587L772.00976,221.96787637371264L774.4775999999999,223.27199757071733L776.9454400000001,221.23463714023538L779.41328,229.0405861868467L781.88112,227.69239494042964L784.3489599999999,223.0452488723969L786.8168000000001,229.47533309639942L789.28464,234.41383939096204L791.75248,238.6852044363683L794.22032,231.9663478086312L796.68816,233.20219792491383L799.156,233.13116339716356L801.6238400000001,229.12761622227387L804.09168,228.61161903011427L806.55952,229.99295416587503L809.0273599999999,238.41874250307694L811.4952000000001,244.30834469981664L813.96304,245.359519087665L816.43088,234.12741384294526L818.89872,244.99191905225786L821.36656,245.83203556901165L823.8344,248.0116644302299L826.3022399999999,253.39751239414755L828.77008,249.42098548158117L831.23792,252.92551331804657L833.7057599999999,244.08374892690327L836.1736000000001,243.86867343264612L838.64144,237.9261034660208L841.10928,240.7611547337241L843.57712,250.13664447490643L846.0449600000001,251.67400916683573L848.5128,247.90698517521955L850.9806399999999,250.653957828844L853.44848,257.32339653337533L855.91632,254.29538973614956L858.38416,250.24556360708905L860.8520000000001,253.81668522199334L863.31984,255.44724646420153L865.78768,260.1379890633277L868.2555199999999,258.90839872780026L870.7233600000001,261.2170001547888L873.1912,263.5514862877276L875.6590399999999,268.15795375823524L878.12688,267.65440565034805L880.59472,270.27674373333025L883.06256,272.89789961914175L885.5304000000001,274.6892479885019L887.99824,269.41710691621284L890.46608,268.9871737816158L892.93392,273.93091948909233L895.4017600000001,276.30265296084616L897.8696,289.87290245642026L900.33744,289.0316652663203L902.80528,296.4290326414431L905.2731200000001,291.6928308950618L907.74096,279.1818745780044L910.2087999999999,291.95536659580125L912.67664,285.4877902718351L915.14448,287.8200504837281L917.61232,282.8350224092312L920.0801600000001,288.99913044076743L922.548,291.5321643496316L925.01584,301.65419933599134L927.4836799999999,303.42452032474483L929.9515200000001,306.3304494605927L932.41936,301.96381578232325L934.8871999999999,311.3259434199792L937.35504,313.5939197505061L939.82288,307.19718144920733L942.29072,301.0536588359444L944.7585600000001,302.22354526094017L947.2264,297.0998406032342L949.69424,295.6115176649661L952.16208,292.6619400140043L954.6299200000001,294.02598477077197L957.09776,296.2272589736815L959.5655999999999,296.36293549671916L962.03344,294.1001293487127L964.5012800000001,289.9289003202715L966.96912,299.99487742254854L969.4369599999999,292.62270898966494L971.9048,296.0876455519838L974.37264,291.76154751597636L976.84048,289.1667176227895L979.3083200000001,294.6809561018821L981.77616,303.6710644475757L984.2439999999999,296.3680533727623L986.71184,293.5061718718579L989.1796800000001,297.6210038083615L991.64752,293.86579407559765L994.1153599999999,304.95696763181843L996.5832,303.38637986438636L999.0510400000001,304.48708857292235L1001.51888,307.68222459604254L1003.9867200000001,311.6036151753857L1006.45456,316.4730462376472L1008.9223999999999,314.59614812332904L1011.39024,317.44013694325196L1013.8580800000001,313.46180156641003L1016.32592,314.298220821192L1018.7937599999999,315.7452904603038L1021.2616,322.7624783038456L1023.7294400000001,311.6914232245699L1026.1972799999999,307.1628222998284L1028.66512,315.18134088798837L1031.1329600000001,312.55510903289604L1033.6008,315.58472393089943L1036.06864,322.73571344429234L1038.53648,320.39953878848144L1041.00432,319.28851821816994L1043.47216,322.2565422648677L1045.94,324.2008103910446L1048.40784,322.87707055840383L1050.8756799999999,324.9275292205158L1053.34352,322.90493950066355L1055.8113600000001,321.0202782308767L1058.2792,325.3539723462621L1060.74704,325.3751578116472L1063.21488,327.3228077335921L1065.68272,327.6841362595154L1068.15056,321.3726726672142L1070.6183999999998,319.7695265313639L1073.08624,322.98613217741837L1075.5540799999999,326.5337943139575L1078.02192,331.70266633514643L1080.4897600000002,324.5498204413763L1082.9576,321.728272382772L1085.42544,321.35284537071675L1087.89328,324.55360524253865L1090.36112,325.41244854633766L1092.82896,331.9314034190064L1095.2967999999998,336.31728293270913L1097.76464,339.575999853306L1100.23248,338.8625898424543L1102.70032,330.59862857509864L1105.1681600000002,326.56873653269L1107.636,334.8313192588924" style="fill: none;" fill="none"></path></g><g><path stroke="rgb(187, 187, 187)" stroke-width="2px" d="M122.96784000000001,307.7489692800575L125.43568,307.5445499457419L127.90351999999999,301.4032045415605L130.37136,295.19104304321695L132.8392,291.4833822563648L135.30704,286.9370418184794L137.77488,280.01914788330606L140.24272,276.75588014278634L142.71056,270.9208152498249L145.1784,262.26583047691304L147.64624,255.62365152996026L150.11408,254.11920176580438L152.58192,246.56935689846756L155.04976,243.1313878949167L157.5176,235.33154411057305L159.98544,230.82198714411788L162.45328,225.73393134432888L164.92112,223.2311511957543L167.38896,217.39179130378477L169.8568,213.78206008464144L172.32464000000002,211.27773813149037L174.79248,210.17190916374716L177.26032,209.29499718573473L179.72816,208.91306096050604L182.196,207.54561610082334L184.66384,206.5104883399172L187.13168,205.52339232352978L189.59951999999998,205.35151655350555L192.06736,204.80455725363137L194.5352,203.76525843727083L197.00304,203.41631024423435L199.47088,202.89580479945653L201.93872,201.1600057522567L204.40656,199.71947847756425L206.8744,198.66160454145063L209.34224,198.31218980297578L211.81008,197.15043739613571L214.27792,196.4623443758303L216.74576,194.12125749717006L219.2136,192.46515979973864L221.68144,189.14445505304735L224.14928,186.98816279590497L226.61712,185.81165959084723L229.08496,184.28692370083823L231.5528,179.629631402831L234.02064000000001,177.06045739930516L236.48848,174.54306331117456L238.95632,172.43299701908163L241.42416,169.66955173799343L243.892,166.61153932350422L246.35984,161.73068210111867L248.82768000000002,155.69946872632687L251.29552,152.17735330724688L253.76336,148.41442162736908L256.2312,142.2103591326184L258.69903999999997,138.28931837657782L261.16688,134.58539828619425L263.63472,132.37435910744742L266.10256,124.55669427764981L268.5704,120.27308425219371L271.03824,114.99061701576142L273.50608,111.38622889314887L275.97392,107.32835605710953L278.44176,102.77197508992873L280.9096,97.39282120654252L283.37744,93.77010978891015L285.84528,91.95225302292378L288.31311999999997,87.33057355564254L290.78096,85.76754669423417L293.2488,83.23257527131479L295.71664,81.23231199874331L298.18448,78.54531611829641L300.65232,75.1573342034994L303.12016,73.47811298600836L305.588,72.8308595109569L308.05584,70.29125342102371L310.52368,68.80393764971606L312.99152,65.40285125996684L315.45936,61.86973378435382L317.92719999999997,60.57142124466135L320.39504,57.0462787634984L322.86288,54.707587337372686L325.33072,53.42084191791889L327.79856,51.109654362316974L330.2664,48.7687453493704L332.73424,47.258276871754525L335.20208,45.05721459039212L337.66992,43.92423463081883L340.13776,43.30222696061934L342.6056,42.028206871591706L345.07344,38.772230743023044L347.54128,73.1967629053772L350.00912,90.1713820863249L352.47696,97.65128276822522L354.9448,100.06166390491721L357.41264,99.11632424408779L359.88048,93.41940679307199L362.34832,86.34776430884914L364.81615999999997,76.85578935546292L367.284,65.68932727894752L369.75184,55.68409796773999L372.21968,48.84767759242089L374.68752,89.3721854392594L377.15536,111.8488637231135L379.6232,123.19888445139652L382.09103999999996,128.2999361168057L384.55888,130.02826192972654L387.02672,130.22832185094774L389.49456,128.80723506251107L391.9624,126.2881497411941L394.43023999999997,122.09853070193617L396.89808,118.61442366237559L399.36592,111.11812024047384L401.83376,105.15718465286739L404.3016,98.77840082323826L406.76944,92.58954841844671L409.23728,123.92967102631722L411.70511999999997,141.37482505993256L414.17296,147.94672541989607L416.6408,150.11717475027743L419.10864,150.17659102488764L421.57648,146.61114853718735L424.04431999999997,143.58199343342895L426.51216,140.25718392751867L428.98,138.1045321732099L431.44784,134.9437799452677L433.91568,131.32932702429036L436.38352,127.99094489385186L438.85136,123.76406046451828L441.3192,119.02990626250059L443.78704,114.42605828748093L446.25488,108.02642908331651L448.72272,101.70409584027666L451.19056,102.39498391140785L453.6584,99.4437477916503L456.12624,95.65917446461131L458.59408,112.67946482911461L461.06192,142.91772942803487L463.52976,160.60262471573859L465.9976,169.00184042668064L468.46544,172.66257975945308L470.93328,172.94248842533753L473.40112,172.62678385444943L475.86896,172.32497140170213L478.3368,171.39008963413352L480.80464,170.3888847323032L483.27248,168.24256608238449L485.74032,165.73178464118357L488.20816,163.50283350248694L490.676,161.30215134971408L493.14384,158.50389252157854L495.61168,152.8028292327898L498.07952,148.86759399591546L500.54736,156.53965386282601L503.0152,160.31272421464703L505.48304,162.04502856179639L507.95088,161.03031531572412L510.41872,159.30038540257388L512.88656,156.64312078438888L515.3543999999999,154.5223600102426L517.8222400000001,153.02914392879708L520.29008,164.12812307634616L522.75792,169.17383411621248L525.2257599999999,170.98735000150518L527.6936,163.9290481601252L530.1614400000001,171.63449627920548L532.62928,174.28027776206935L535.09712,174.96759530632272L537.5649599999999,174.7595528864577L540.0328,174.0581090975697L542.5006400000001,172.5800182823344L544.96848,175.52375935935996L547.43632,176.37242518916142L549.9041599999999,175.59292812644756L552.372,173.48373315433253L554.83984,169.78557092964405L557.30768,166.60468843392383L559.77552,164.45113568591188L562.2433599999999,162.9458733080387L564.7112,162.2984203239748L567.17904,161.24660356087304L569.64688,160.12838947387888L572.11472,159.443349264404L574.58256,156.22068358799262L577.0504,161.54022531381185L579.51824,163.93661600353877L581.98608,164.7860398246335L584.45392,164.88521850229228L586.92176,163.62935113581568L589.3896,160.73594701227412L591.85744,158.08789602083084L594.32528,155.1815236545L596.7931199999999,153.1066906414267L599.26096,151.33260492918578L601.7288,149.38281550668293L604.19664,147.10774307910833L606.66448,144.8877972822574L609.1323199999999,140.62745291094438L611.60016,137.36372592244155L614.068,134.15906102772718L616.53584,128.75042834006777L619.00368,124.62166846004278L621.4715199999999,120.55014349478105L623.93936,116.3558725496919L626.4072,112.8706621847359L628.87504,107.51081155072494L631.34288,119.75441366233932L633.81072,125.42364525012607L636.27856,128.33854579588566L638.7464,138.21630773474584L641.21424,157.47632031657184L643.68208,167.48405124754441L646.14992,172.80910457776426L648.61776,174.79148171375724L651.0856,175.49240325111467L653.55344,174.7081661442683L656.02128,170.83696252424116L658.48912,165.8202641916721L660.95696,162.1738878317147L663.4248,157.8851554251196L665.89264,157.75726604864556L668.3604799999999,156.09118826895954L670.82832,154.71551520254215L673.29616,159.42178539013463L675.764,161.1034252108338L678.23184,161.42888022297507L680.69968,160.30797344810756L683.16752,162.05424375421666L685.63536,153.67526094369217L688.1032,146.8646040441388L690.57104,141.57573438310718L693.03888,137.04114733776575L695.50672,130.96449838596592L697.97456,127.06879432907509L700.4424,152.9265349776859L702.91024,181.74456290597277L705.37808,198.98102867421244L707.84592,209.19218774659802L710.31376,214.97274440474666L712.7816,218.32640851207984L715.24944,220.17658080790818L717.71728,221.0335938633875L720.18512,221.5389709249971L722.65296,221.70720604431324L725.1207999999999,221.8665032395689L727.58864,221.76844531400806L730.05648,221.66248023555295L732.52432,221.31655337605912L734.99216,220.89248215638688L737.46,220.3192674488477L739.92784,219.63558876736872L742.3956800000001,218.2400659326151L744.86352,217.1784858980504L747.33136,216.38206106934976L749.7991999999999,215.8014870853896L752.2670400000001,215.27778906777553L754.73488,214.93666503844688L757.20272,214.66943289747655L759.67056,214.353727740594L762.1384,216.08120208037786L764.60624,216.00589861586758L767.07408,215.75923855671326L769.54192,215.61836456432695L772.00976,215.24546858110216L774.4775999999999,214.98802472059506L776.9454400000001,214.80701084816866L779.41328,214.6226456143523L781.88112,215.5823119441839L784.3489599999999,216.0793104859958L786.8168000000001,216.32632640225972L789.28464,216.4371976579292L791.75248,216.417475340602L794.22032,218.17160060127807L796.68816,219.17414155922472L799.156,219.58976489199483L801.6238400000001,219.8222713219057L804.09168,221.548611325836L806.55952,222.55030879380584L809.0273599999999,223.02236960730323L811.4952000000001,223.1807262815451L813.96304,223.01093635662886L816.43088,222.80260595883954L818.89872,222.59542084078274L821.36656,222.3506710898959L823.8344,221.99544061967896L826.3022399999999,221.78008239483998L828.77008,221.64187876740795L831.23792,221.49277901582408L833.7057599999999,221.3824274222999L836.1736000000001,222.0862794185913L838.64144,222.42662969487986L841.10928,223.05790652786544L843.57712,223.35581840051125L846.0449600000001,223.4723571928052L848.5128,223.48391404532967L850.9806399999999,223.45346273617758L853.44848,224.68681518715707L855.91632,226.85026777972033L858.38416,227.26160252339528L860.8520000000001,227.44006858317186L863.31984,228.319894265422L865.78768,229.73596150653887L868.2555199999999,231.52944733685652L870.7233600000001,234.10740482467915L873.1912,234.98026925254302L875.6590399999999,235.33443334788475L878.12688,235.73639562912354L880.59472,236.80600081264188L883.06256,236.26535620915422L885.5304000000001,235.23636718402156L887.99824,235.44026019062505L890.46608,234.79858053689077L892.93392,235.2255861538542L895.4017600000001,236.17967983882315L897.8696,237.7859296316612L900.33744,240.03722006236427L902.80528,242.43361386484185L905.2731200000001,244.63221043708356L907.74096,247.1633678398277L910.2087999999999,249.71283227202437L912.67664,252.8061745332177L915.14448,254.82941744657657L917.61232,257.03371418607946L920.0801600000001,257.87302072037227L922.548,258.4171509753999L925.01584,260.0439169546103L927.4836799999999,262.4608064350898L929.9515200000001,265.192296173286L932.41936,265.9962019320994L934.8871999999999,265.999487181306L937.35504,264.8701632922359L939.82288,263.2845964739667L942.29072,263.26099581446596L944.7585600000001,262.1301028048576L947.2264,260.1943085474453L949.69424,258.23453772362166L952.16208,255.97511722953107L954.6299200000001,253.806563297112L957.09776,253.16034930366894L959.5655999999999,251.25167208695913L962.03344,250.7767742276593L964.5012800000001,250.50715196201293L966.96912,250.3225918098435L969.4369599999999,250.87983095551405L971.9048,251.59202847887664L974.37264,253.15670294634916L976.84048,255.61290603720596L979.3083200000001,260.1226181696462L981.77616,264.6124292360111L984.2439999999999,270.93319978659207L986.71184,280.14544329186526L989.1796800000001,293.8281067545296L991.64752,302.0679906806398L994.1153599999999,306.9623601053121L996.5832,310.57270581540575L999.0510400000001,312.9290025069674L1001.51888,315.1495575753135L1003.9867200000001,315.7121706580158L1006.45456,315.39508979304185L1008.9223999999999,314.90419492923684L1011.39024,315.05331947553896L1013.8580800000001,314.6999666606974L1016.32592,315.02718289454987L1018.7937599999999,314.71336212280187L1021.2616,315.0951976370183L1023.7294400000001,314.74255098980206L1026.1972799999999,315.00273312908666L1028.66512,314.8432304144173L1031.1329600000001,315.14314236324634L1033.6008,314.88520559915867L1036.06864,315.28256479583894L1038.53648,314.9059354021446L1041.00432,315.9810408141127L1043.47216,315.29758148506744L1045.94,316.081337583091L1048.40784,315.40769998684425L1050.8756799999999,316.4915438096352L1053.34352,315.59691728754603L1055.8113600000001,317.0667373832291L1058.2792,315.9353970108167L1060.74704,316.81244648535795L1063.21488,315.9056237229756L1065.68272,317.0876985920897L1068.15056,316.06452306906965L1070.6183999999998,317.28373802185405L1073.08624,316.04215270169783L1075.5540799999999,318.4338866160935L1078.02192,316.7379145250031L1080.4897600000002,318.44718617749066L1082.9576,316.7453849202836L1085.42544,319.0946522088713L1087.89328,317.1960141962555L1090.36112,319.38766551250933L1092.82896,317.3644367258499L1095.2967999999998,319.200676392229L1097.76464,317.2185418206059L1100.23248,318.6924882384037L1102.70032,317.4015232117114L1105.1681600000002,318.52389195044987L1107.636,317.0327813534746L1110.10384,317.86011391202135L1112.57168,317.2261047627368L1115.03952,318.073556982097L1117.50736,317.8993658134376L1119.9751999999999,317.8257261990263L1122.44304,317.8079383075819L1124.91088,318.46316474348487L1127.37872,317.44779143004394L1129.8465600000002,319.15452353121105L1132.3144,317.80361795932146L1134.78224,319.8215281834806L1137.25008,318.25975843823915L1139.71792,319.9338310937171L1142.18576,317.9665663098015L1144.6535999999999,321.00874882467895L1147.1214400000001,318.7184886626103L1149.58928,319.9885642821609L1152.05712,319.07110580242454L1154.52496,320.1009527815256L1156.9928,318.6939736058703L1159.46064,320.6606623904806L1161.92848,318.93809292311215L1164.39632,321.0316437498415L1166.86416,319.0283577981337L1169.3319999999999,319.72477212273213L1171.79984,319.6332491984024L1174.26768,320.2670651008718L1176.73552,319.8468594681574L1179.20336,320.30190690611585L1181.6712,319.20892625271813L1184.13904,321.3555201311746L1186.60688,319.3188043685658L1189.07472,322.3414127314563L1191.54256,319.9335649050625L1194.0104,321.50875229263414L1196.47824,320.32082717128395L1198.94608,321.98245266051435L1201.41392,320.5414895552676L1203.88176,322.0899622641969L1206.3496,320.0484810340849L1208.81744,320.9654883981812L1211.28528,320.50371603150904L1213.7531199999999,321.17815257696157L1216.22096,321.4591144153082L1218.6888,321.12001780442023L1221.15664,321.58764730158424L1223.62448,321.44738902805034L1226.09232,322.1145627971623L1228.56016,320.6419732086208L1231.028,323.6022603989384L1233.49584,320.740593197125L1235.96368,324.9107873108387L1238.4315199999999,320.62171296939323L1240.8993600000001,331.4347082839977L1243.3672,324.64552405277317L1245.83504,330.6560974950226L1248.30288,324.43290851322604L1250.77072,326.9487708384925L1253.23856,322.5524928449009L1255.7064,327.688621484609L1258.17424,322.84191794066584L1260.64208,328.99707455225825L1263.1099199999999,323.65105367309013L1265.5777600000001,327.1448080734779L1268.0456,323.08859420463324L1270.51344,327.97716011855596L1272.98128,323.07766516492256L1275.44912,326.4383584760092L1277.91696,323.45570192417944L1280.3848,326.5532951693621L1282.85264,323.02324713778484L1285.32048,326.46966997359056L1287.7883199999999,321.54907286972787L1290.2561600000001,328.8444919766975L1292.724,324.0707931680012L1295.19184,325.2762928264853L1297.65968,325.44653757358697L1300.12752,325.79725308915374L1302.59536,321.85004710707636L1305.0632,331.180365308114L1307.53104,324.8454874896932L1309.99888,331.95161090490126L1312.46672,325.2353490695504L1314.93456,330.8230891210922L1317.4024,324.63526641956827L1319.87024,332.5501963964348L1322.33808,325.2113506743723L1324.80592,336.67554581128707L1327.27376,327.67446595805774" style="fill: none;" fill="none"></path></g></g></g></g><g opacity="0.2"><g><g><g><path stroke="rgb(255, 112, 67)" stroke-width="2px" d="M122.96784000000001,349.46675810548993L125.43568,319.99664256970084L127.90351999999999,308.8596459726492L130.37136,316.4824354979727L132.8392,299.81694825821455L135.30704,305.9296087258392L137.77488,296.61116123199463L140.24272,295.69203067157L142.71056,295.6562893754906L145.1784,294.9874602423774L147.64624,288.3744341135025L150.11408,290.5312209659153L152.58192,288.4192324512535L155.04976,286.84895614782965L157.5176,282.0738291078144L159.98544,287.52919553054704L162.45328,286.00272509786816L164.92112,286.63032003574904L167.38896,287.5849859085348L169.8568,284.4353762600157L172.32464000000002,282.28235329190886L174.79248,279.23685280813106L177.26032,280.02896007564334L179.72816,280.75334863530264L182.196,274.30728791488536L184.66384,273.7798946930302L187.13168,271.17448778616057L189.59951999999998,264.91909932759074L192.06736,264.9723429977894L194.5352,268.03906604647636L197.00304,264.9884097278118L199.47088,262.31931640042194L201.93872,258.00923193494475L204.40656,259.4108106940985L206.8744,252.46427195767558L209.34224,245.87856988112128L211.81008,243.4031293375624L214.27792,249.5948844320244L216.74576,248.16424324280683L219.2136,245.094705083304L221.68144,238.57843512462244L224.14928,233.42725515779523L226.61712,239.84487608075142L229.08496,232.24541733248367L231.5528,235.3406145092514L234.02064000000001,227.55038674920797L236.48848,221.96934138942095L238.95632,222.20051832083197L241.42416,214.91366912403868L243.892,215.90706227657694L246.35984,211.79427705291243L248.82768000000002,210.28916319159583L251.29552,209.38336835186215L253.76336,204.41271357755693L256.2312,206.3129588273457L258.69903999999997,208.088251837374L261.16688,205.1376908293201L263.63472,205.0079292793655L266.10256,203.6910117790103L268.5704,201.87561407064396L271.03824,203.60227024803555L273.50608,202.0470533830424L275.97392,200.18647033721209L278.44176,200.94012887113627L280.9096,201.38612575415107L283.37744,200.3550328997274L285.84528,198.70735275248683L288.31311999999997,198.13775159418583L290.78096,198.97624108940363L293.2488,196.9718431764179L295.71664,197.61348245872392L298.18448,198.27085764871703L300.65232,195.98497674283055L303.12016,195.59945948835878L305.588,193.15922811627388L308.05584,187.97205405516758L310.52368,190.31921979867752L312.99152,185.9104035918911L315.45936,187.72143272889986L317.92719999999997,186.63849829799597L320.39504,181.85141171846124L322.86288,181.7486570527156L325.33072,180.0244765811496L327.79856,174.35663171112537L330.2664,173.08744430541992L332.73424,173.3370747251643L335.20208,173.6622668388817L337.66992,164.46405141717855L340.13776,166.99084120492142L342.6056,169.57086842093202L345.07344,163.7457019256221L347.54128,164.9492554283804L350.00912,165.19663875301677L352.47696,165.32062222560245L354.9448,160.67187555962136L357.41264,162.38032636543113L359.88048,151.99106627040436L362.34832,151.82185376683873L364.81615999999997,158.41140711473093L367.284,161.9813733547926L369.75184,160.56151510112812L372.21968,157.5100442104869L374.68752,160.70747641225654L377.15536,155.88325970702698L379.6232,160.45412892268763L382.09103999999996,163.12641811867553L384.55888,150.50835801495447L387.02672,157.37777769565582L389.49456,151.0256517926852L391.9624,137.90297215183574L394.43023999999997,147.4091332323021L396.89808,150.446631560723L399.36592,134.9234800868564L401.83376,136.414115594493L404.3016,136.36092810167207L406.76944,136.4717286162906L409.23728,132.96746494041548L411.70511999999997,133.20401539405185L414.17296,138.71570275889502L416.6408,126.96212198999194L419.10864,129.22326768438023L421.57648,125.05272158318094L424.04431999999997,129.83721151947975L426.51216,128.52113785015212L428.98,129.53110098838806L431.44784,133.9299644364251L433.91568,130.97223174240855L436.38352,125.10678294632169L438.85136,131.92453192340002L441.3192,121.46529042058519L443.78704,113.08949932456017L446.25488,109.9884768658214L448.72272,112.90314647886487L451.19056,118.414446843995L453.6584,110.0707642402914L456.12624,124.96977880597115L458.59408,108.17014623019429L461.06192,104.64232550726996L463.52976,114.71731998854212L465.9976,102.00337446398203L468.46544,99.47701536946825L470.93328,108.22134878900317L473.40112,104.28955654303235L475.86896,93.5118517279625L478.3368,129.38527075780763L480.80464,107.70673904154035L483.27248,111.42628691262667L485.74032,120.54599756995839L488.20816,105.8955616586738L490.676,105.84776095218126L493.14384,107.65563011169434L495.61168,90.5327778723505L498.07952,110.64607052339449L500.54736,98.47089101870853L503.0152,111.44733470347194L505.48304,94.80218367444144L507.95088,98.75826951530246L510.41872,103.46349941359625L512.88656,102.5375963581933L515.3543999999999,98.35700074831647L517.8222400000001,98.79935390419428L520.29008,96.60777452919217L522.75792,190.3891465895706L525.2257599999999,165.21481213470298L527.6936,169.74899128079414L530.1614400000001,141.07716876599522L532.62928,154.53017138772537L535.09712,142.5358393457201L537.5649599999999,142.28598109549944L540.0328,126.03286701771947L542.5006400000001,135.08785509400894L544.96848,131.915843155649L547.43632,129.95067733857366L549.9041599999999,120.86898628208371L552.372,122.31898681985007L554.83984,125.81517343719798L557.30768,125.89825353688661L559.77552,139.31455984711647L562.2433599999999,148.34046052561865L564.7112,143.42969632811014L567.17904,140.86925629112454L569.64688,141.43266545401679L572.11472,139.787454770671L574.58256,125.54200157523155L577.0504,123.05554090274705L579.51824,130.6851715842883L581.98608,133.36935165855618L584.45392,141.33706404103174L586.92176,146.9262449774477L589.3896,157.57330930067434L591.85744,148.27858426504662L594.32528,165.00315138035347L596.7931199999999,132.6262809998459L599.26096,156.69313150975438L601.7288,173.739092523853L604.19664,138.8180017636882L606.66448,151.12863740987245L609.1323199999999,160.96787728369236L611.60016,156.56940395633382L614.068,155.45158649484318L616.53584,146.511818220218L619.00368,150.1599646442466L621.4715199999999,146.0852946009901L623.93936,156.14590143163997L626.4072,148.94907999369832L628.87504,149.7448949681388L631.34288,137.78976849383776L633.81072,165.45048247608872L636.27856,177.52682724760638L638.7464,153.49459760718872L641.21424,146.76267517937555L643.68208,149.79015520877306L646.14992,151.5468467772007L648.61776,163.34267605510024L651.0856,160.68007121483487L653.55344,157.7022488663594L656.02128,158.3637062791321L658.48912,168.71165415479078L660.95696,173.17859210073948L663.4248,175.65595203803645L665.89264,168.68328457905187L668.3604799999999,167.2053888522916L670.82832,164.16429829266337L673.29616,163.05538806650372L675.764,186.00644037955334L678.23184,171.00562928451433L680.69968,202.45321192261247L683.16752,191.13688309159545L685.63536,177.14322314494183L688.1032,183.0092305938403L690.57104,187.1751514242755L693.03888,172.99722343683243L695.50672,212.10935684852302L697.97456,199.23969348478647L700.4424,208.51511427641123L702.91024,164.81473869747583L705.37808,211.59323128716397L707.84592,201.44335879840787L710.31376,186.8392263104518L712.7816,219.69423873763947L715.24944,199.5361805189815L717.71728,213.36835040089983L720.18512,184.16353058069944L722.65296,221.6491279958023L725.1207999999999,192.30546305576956L727.58864,187.6696278237634L730.05648,166.31241198215218L732.52432,190.4204342679845L734.99216,191.0877044788665L737.46,211.04607864800425L739.92784,182.10175996025401L742.3956800000001,187.02046545429363L744.86352,186.6967511177063L747.33136,216.7582630738616L749.7991999999999,221.5383157775634L752.2670400000001,165.81207440959082L754.73488,194.0633764821622L757.20272,239.8684081600772L759.67056,220.00441120523544L762.1384,207.04437872705358L764.60624,219.33226604635513L767.07408,232.73763883444997L769.54192,230.41983045223685L772.00976,216.90479240069783L774.4775999999999,225.22817936622437L776.9454400000001,218.17859649451242L779.41328,240.74950975676376L781.88112,225.67010807080402L784.3489599999999,216.0745297703478L786.8168000000001,239.1204594324032L789.28464,241.82159883280593L791.75248,245.0922520044777L794.22032,221.8880628670255L796.68816,235.05597309933768L799.156,233.02461160553827L801.6238400000001,223.12229545993938L804.09168,227.8376232418749L806.55952,232.0649568695161L809.0273599999999,251.05742500887976L811.4952000000001,253.14274799492625L813.96304,246.9362806694375L816.43088,217.27925597586568L818.89872,261.28867686622675L821.36656,247.09221034414236L823.8344,251.2811077220572L826.3022399999999,261.476284340024L828.77008,243.45619511273173L831.23792,258.18230507274467L833.7057599999999,230.8211023401883L836.1736000000001,243.54606019126044L838.64144,229.01224851608276L841.10928,245.0137316352791L843.57712,264.19987908667986L846.0449600000001,253.98005620472964L848.5128,242.25644918779528L850.9806399999999,254.7744168092807L853.44848,267.3275545901722L855.91632,249.75337954031096L858.38416,244.17082441349822L860.8520000000001,259.1733676443497L863.31984,257.8930883275138L865.78768,267.17410296201706L868.2555199999999,257.06401322450904L870.7233600000001,264.6799022952715L873.1912,267.05321548713573L875.6590399999999,275.0676549639967L878.12688,266.89908348851736L880.59472,274.21025085780354L883.06256,276.829633447859L885.5304000000001,277.3762705425421L887.99824,261.5088953077793L890.46608,268.34227407972014L892.93392,281.3465380503071L895.4017600000001,279.8602531684769L897.8696,310.2282766997814L900.33744,287.76980948117046L902.80528,307.5250837041272L905.2731200000001,284.5885282754898L907.74096,260.41544010241824L910.2087999999999,311.1156046224965L912.67664,275.7864257858859L915.14448,291.3184408015675L917.61232,275.35748029748595L920.0801600000001,298.24529248807164L922.548,295.3317152129279L925.01584,316.837251815531L927.4836799999999,306.0800018078751L929.9515200000001,310.68934316436446L932.41936,295.4138652649191L934.8871999999999,325.36913487646314L937.35504,316.9958842462963L939.82288,297.60207399725914L942.29072,291.83837491605016L944.7585600000001,303.9783748984337L947.2264,289.4142836166753L949.69424,293.3790332575639L952.16208,288.2375735375616L954.6299200000001,296.07205190592344L957.09776,299.52917027804585L959.5655999999999,296.56645028127565L962.03344,290.70592012670306L964.5012800000001,283.6720567776097L966.96912,315.0938430759642L969.4369599999999,281.56445634033946L971.9048,301.28505039546224L974.37264,285.27240046196516L976.84048,285.2744727830092L979.3083200000001,302.952313820521L981.77616,317.15622696611615L984.2439999999999,285.4135367605421L986.71184,289.21334962050116L989.1796800000001,303.79325171311694L991.64752,288.2329794764519L994.1153599999999,321.59372796614963L996.5832,301.03049821323816L999.0510400000001,306.1381516357263L1001.51888,312.4749286307229L1003.9867200000001,317.4857010444005L1006.45456,323.77719283103943L1008.9223999999999,311.78080095185175L1011.39024,321.70612017313636L1013.8580800000001,307.49429850114717L1016.32592,315.55284970336487L1018.7937599999999,317.91589491897156L1021.2616,333.28826006915835L1023.7294400000001,295.08484060565627L1026.1972799999999,300.3699209127161L1028.66512,327.2091187702285L1031.1329600000001,308.6157612502575L1033.6008,320.1291462779045L1036.06864,333.4621977143817L1038.53648,316.89527680476505L1041.00432,317.62198736270267L1043.47216,326.7085783349143L1045.94,327.11721258030997L1048.40784,320.8914608094427L1050.8756799999999,328.0032172136836L1053.34352,319.8710549208853L1055.8113600000001,318.19328632619647L1058.2792,331.85451351934006L1060.74704,325.4069360097249L1063.21488,330.24428261650934L1065.68272,328.2261290484004L1068.15056,311.90547727876236L1070.6183999999998,317.3648073275884L1073.08624,327.81104064650003L1075.5540799999999,331.8552875187662L1078.02192,339.4559743669298L1080.4897600000002,313.82055160072116L1082.9576,317.4959502948655L1085.42544,320.789704852634L1087.89328,329.35474505027133L1090.36112,326.7007135020362L1092.82896,341.7098357280095L1095.2967999999998,342.8961022032632L1097.76464,344.46407523420123L1100.23248,337.79247482617694L1102.70032,318.20268667406503L1105.1681600000002,320.5238984690772L1107.636,347.22519334819583" style="fill: none;" fill="none"></path></g><g><path stroke="rgb(187, 187, 187)" stroke-width="2px" d="M122.96784000000001,307.74896928005745L125.43568,307.4218983451525L127.90351999999999,295.5075129535463L130.37136,287.8855411211649L132.8392,286.6426603330506L135.30704,280.6478163103262L137.77488,270.1264488697052L140.24272,271.99800444973835L142.71056,262.3152279357115L145.1784,249.41418677568436L147.64624,245.72062718371546L150.11408,251.8707142687506L152.58192,235.26924115088252L155.04976,237.98116972876915L157.5176,223.6409468576312L159.98544,224.06083218339415L162.45328,218.1040007393393L164.92112,219.47761642850105L167.38896,208.63364103353683L169.8568,208.36779319965797L172.32464000000002,207.5213925447315L174.79248,208.51320209990564L177.26032,207.97964653181327L179.72816,208.34016114706174L182.196,205.49445853051213L184.66384,204.95780111290514L187.13168,204.04275082465676L189.59951999999998,205.093703162339L192.06736,203.98411880764695L194.5352,202.20631078713473L197.00304,202.89288807039458L199.47088,202.11504673585296L201.93872,198.55630738867654L204.40656,197.55868766870765L206.8744,197.0747936827441L209.34224,197.7880677042736L211.81008,195.40780880384978L214.27792,195.4302048517598L216.74576,190.60962719221908L219.2136,189.9810132591261L221.68144,184.16339793966876L224.14928,183.75372441278563L226.61712,184.04690478410987L229.08496,181.99981986648504L231.5528,172.6436929570304L234.02064000000001,173.206696394417L236.48848,170.76697217921418L238.95632,169.2678975810607L241.42416,165.52438381645413L243.892,162.02452070183222L246.35984,154.4093962675995L248.82768000000002,146.65264866418306L251.29552,146.89418017864227L253.76336,142.77002410756216L256.2312,132.90426539050208L258.69903999999997,132.40775724252063L261.16688,129.02951815062096L263.63472,129.0578003393279L266.10256,112.83019703295497L268.5704,113.84766921401024L271.03824,107.0669161611133L273.50608,105.97964670923022L275.97392,101.24154680305055L278.44176,95.9374036391576L280.9096,89.32409038146335L283.37744,88.33604266246158L285.84528,89.22546787394418L288.31311999999997,80.39805435472067L290.78096,83.42300640212164L293.2488,79.43011813693579L295.71664,78.23191708988611L298.18448,74.5148222976261L300.65232,70.0753613313039L303.12016,70.95928115977182L305.588,71.8599792983797L308.05584,66.48184428612393L310.52368,66.57296399275464L312.99152,60.301221675342966L315.45936,56.570057570934296L317.92719999999997,58.62395243512259L320.39504,51.75856504175397L322.86288,51.19955019818411L325.33072,51.49072378873825L327.79856,47.642873028914146L330.2664,45.25738182995053L332.73424,44.99257415533066L335.20208,41.75562116834851L337.66992,42.2247646914588L340.13776,42.36921545532016L342.6056,40.11717673805026L345.07344,33.888266550170044L347.54128,124.83356114890842L350.00912,115.63331085774632L352.47696,108.8711337910758L354.9448,103.67723560995523L357.41264,97.69831475284366L359.88048,84.87403061654834L362.34832,75.74030058251486L364.81615999999997,62.61782692538367L367.284,48.939634164174386L369.75184,40.67625400092868L372.21968,38.59304702944224L374.68752,150.15894720951718L377.15536,145.5638811488946L379.6232,140.22391554382114L382.09103999999996,135.95151361491946L384.55888,132.62075064910783L387.02672,130.5284117327796L389.49456,126.67560487985611L391.9624,122.50952175921861L394.43023999999997,115.81410214304924L396.89808,113.38826310303477L399.36592,99.8736651076211L401.83376,96.21578127145767L404.3016,89.21022507879468L406.76944,83.30626981125937L409.23728,170.93985493812295L411.70511999999997,167.54255611035558L414.17296,157.80457595984143L416.6408,153.3728487458494L419.10864,150.26571543680296L421.57648,141.2629848056369L424.04431999999997,139.03826077779132L426.51216,135.2699696686533L428.98,134.8755545417468L431.44784,130.20265160335435L433.91568,125.90764764282437L436.38352,122.98337169819406L438.85136,117.42373382051784L441.3192,111.92867495947412L443.78704,107.52028632495137L446.25488,98.42698527706995L448.72272,92.22059597571689L451.19056,103.43131601810455L453.6584,95.01689361201392L456.12624,89.98231447405283L458.59408,138.20990037586955L461.06192,188.27512632641526L463.52976,187.12996764729422L465.9976,181.6006639930937L468.46544,178.15368875861168L470.93328,173.36235142416422L473.40112,172.15322699811725L475.86896,171.8722527225812L478.3368,169.98776698278056L480.80464,168.8870773795578L483.27248,165.02308810750645L485.74032,161.96561247938206L488.20816,160.15940679444208L490.676,158.00112812055482L493.14384,154.30650427937508L495.61168,144.25123429960672L498.07952,142.96474114060402L500.54736,168.0477436631918L503.0152,165.97232974237863L505.48304,164.64348508252039L507.95088,159.50824544661572L510.41872,156.70549053284856L512.88656,152.65722385711138L515.3543999999999,151.34121884902316L517.8222400000001,150.78931980662873L520.29008,180.7765917976697L522.75792,176.74240067601204L525.2257599999999,173.70762382944423L527.6936,153.34159539805518L530.1614400000001,183.19266845782596L532.62928,178.24894998636512L535.09712,175.9985716227028L537.5649599999999,174.44748925666016L540.0328,173.00594341423778L542.5006400000001,170.36288205948142L544.96848,179.93937097489834L547.43632,177.64542393386364L549.9041599999999,174.4236825323767L552.372,170.31994069616002L554.83984,164.2383275926113L557.30768,161.83336469034356L559.77552,161.22080656389397L562.2433599999999,160.68797974122896L564.7112,161.32724084787895L567.17904,159.66887841622037L569.64688,158.4510683433877L572.11472,158.4157889501916L574.58256,151.3866850733757L577.0504,169.5195379025406L579.51824,167.53120203812915L581.98608,166.06017555627557L584.45392,165.0339865187804L586.92176,161.74555008610088L589.3896,156.39584082696172L591.85744,154.11581953366596L594.32528,150.82196510500376L596.7931199999999,149.99444112181664L599.26096,148.67147636082439L601.7288,146.45813137292862L604.19664,143.69513443774645L606.66448,141.55787858698102L609.1323199999999,134.23693635397484L611.60016,132.46813543968727L614.068,129.3520636856556L616.53584,120.63747930857869L619.00368,118.42852864000531L621.4715199999999,114.44285604688855L623.93936,110.06446613205804L626.4072,107.64284663730196L628.87504,99.47103559970856L631.34288,138.11981682976085L633.81072,133.92749263180627L636.27856,132.71089661452504L638.7464,153.0329506430361L641.21424,186.36633918931085L643.68208,182.4956476440032L646.14992,180.79668457309407L648.61776,177.76504741774664L651.0856,176.54378555715084L653.55344,173.5318104839987L656.02128,165.03015709420043L658.48912,158.29521669281854L660.95696,156.70432329177856L663.4248,151.45205681522685L665.89264,157.5654319839345L668.3604799999999,153.59207159943048L670.82832,152.65200560291606L673.29616,166.4811906715234L675.764,163.62588494188253L678.23184,161.9170627411869L680.69968,158.62661328580646L683.16752,164.67364921338026L685.63536,141.10678672790527L688.1032,136.64861869480876L690.57104,133.6424298915598L693.03888,130.23926676975356L695.50672,121.84952495826616L697.97456,121.22523824373883L700.4424,191.71314595060215L702.91024,224.97160479840306L705.37808,224.83572732657194L707.84592,224.50892635517653L710.31376,223.64357939196958L712.7816,223.3569046730796L715.24944,222.9518392516507L717.71728,222.31911344660654L720.18512,222.29703651741147L722.65296,221.95955872328744L725.1207999999999,222.10544903245238L727.58864,221.62135842566687L730.05648,221.5035326178703L732.52432,220.79766308681832L734.99216,220.25637532687847L737.46,219.45944538753895L739.92784,218.6100707451502L742.3956800000001,216.1467816804846L744.86352,215.58611584620343L747.33136,215.18742382629875L749.7991999999999,214.9306261094494L752.2670400000001,214.49224204135436L754.73488,214.4249789944539L757.20272,214.26858468602097L759.67056,213.8801700052702L762.1384,218.67241359005368L764.60624,215.89294341910215L767.07408,215.38924846798182L769.54192,215.40705357574757L772.00976,214.68612460626497L774.4775999999999,214.6018589298344L776.9454400000001,214.53549003952907L779.41328,214.34609776362777L781.88112,217.02181143893137L784.3489599999999,216.8248082987136L786.8168000000001,216.6968502766556L789.28464,216.6035045414335L791.75248,216.38789186461105L794.22032,220.80278849229217L796.68816,220.67795299614465L799.156,220.21319989115L801.6238400000001,220.17103096677198L804.09168,224.13812133173144L806.55952,224.05285499576064L809.0273599999999,223.73046082754928L811.4952000000001,223.4182612929079L813.96304,222.7562514692545L816.43088,222.49011036215558L818.89872,222.28464316369758L821.36656,221.9835464635657L823.8344,221.46259491435353L826.3022399999999,221.45704505758152L828.77008,221.43457332625985L831.23792,221.26912938844828L833.7057599999999,221.21690003201365L836.1736000000001,223.14205741302834L838.64144,222.9371551093128L841.10928,224.00482177734375L843.57712,223.80268620947993L846.0449600000001,223.64716538124617L848.5128,223.50124932411643L850.9806399999999,223.40778577244942L853.44848,226.5368438636263L855.91632,230.09544666856527L858.38416,227.87860463890763L860.8520000000001,227.70776767283678L863.31984,229.6396327887972L865.78768,231.86006236821413L868.2555199999999,234.2196760823329L870.7233600000001,237.9743410564131L873.1912,236.2895658943388L875.6590399999999,235.86567949089738L878.12688,236.33933905098172L880.59472,238.41040858791933L883.06256,235.45438930392265L885.5304000000001,233.69288364632263L887.99824,235.74609970053035L890.46608,233.8360610562894L892.93392,235.86609457929927L895.4017600000001,237.61082036627658L897.8696,240.19530432091818L900.33744,243.41415570841895L902.80528,246.0282045685583L905.2731200000001,247.9301052954462L907.74096,250.96010394394398L910.2087999999999,253.53702892031936L912.67664,257.4461879250076L915.14448,257.86428181661495L917.61232,260.3401592953337L920.0801600000001,259.13198052181133L922.548,259.2333463579416L925.01584,262.4840659234259L927.4836799999999,266.086140655809L929.9515200000001,269.2895307805803L932.41936,267.2020605703195L934.8871999999999,266.004415055116L937.35504,263.17617745863066L939.82288,260.90624624656306L942.29072,263.2255948252148L944.7585600000001,260.433763290445L947.2264,257.29061716132696L949.69424,255.29488148788607L952.16208,252.5859864883953L954.6299200000001,250.55373239848348L957.09776,252.19102831350432L959.5655999999999,248.38865626189443L962.03344,250.06442743870946L964.5012800000001,250.10271856354342L966.96912,250.04575158158934L969.4369599999999,251.7156896740198L971.9048,252.66032476392058L974.37264,255.503714647558L976.84048,259.2972106734911L979.3083200000001,266.88718636830646L981.77616,271.34714583555854L984.2439999999999,280.4143556124634L986.71184,293.963808549775L989.1796800000001,314.3521019485262L991.64752,314.42781656980515L994.1153599999999,314.30391424232056L996.5832,315.9882243805461L999.0510400000001,316.4634475443098L1001.51888,318.4803901778327L1003.9867200000001,316.5560902820693L1006.45456,314.9194684955809L1008.9223999999999,314.1678526335292L1011.39024,315.27700629499225L1013.8580800000001,314.169937438435L1016.32592,315.5180072453287L1018.7937599999999,314.24263096517984L1021.2616,315.66795090834296L1023.7294400000001,314.21358101897766L1026.1972799999999,315.39300633801355L1028.66512,314.60397634241315L1031.1329600000001,315.5930102864901L1033.6008,314.49830045302707L1036.06864,315.8786035908593L1038.53648,314.3409913116031L1041.00432,317.5936989320649L1043.47216,314.27239249149955L1045.94,317.2569717301263L1048.40784,314.3972435924742L1050.8756799999999,318.11730954382153L1053.34352,314.2549775044123L1055.8113600000001,319.2714675267537L1058.2792,314.23838645219803L1060.74704,318.1280206971698L1063.21488,314.54538957940207L1065.68272,318.86081089576084L1068.15056,314.5297597845395L1070.6183999999998,319.11256045103073L1073.08624,314.1797747214635L1075.5540799999999,322.021487487687L1078.02192,314.19395638836755L1080.4897600000002,321.011093656222L1082.9576,314.19268303447296L1085.42544,322.61855314175284L1087.89328,314.3480571773317L1090.36112,322.67514248689014L1092.82896,314.3295935458607L1095.2967999999998,321.9550358917978L1097.76464,314.2453399631712L1100.23248,320.9034078651004L1102.70032,315.4650756716728L1105.1681600000002,320.2074450585577L1107.636,314.7961154580116L1110.10384,319.1011127498415L1112.57168,316.2750910388099L1115.03952,319.3447353111373L1117.50736,317.63807906044855L1119.9751999999999,317.71526677740945L1122.44304,317.7812564704153L1124.91088,319.44600439733927L1127.37872,315.92473145988254L1129.8465600000002,321.71462168296176L1132.3144,315.77725960148706L1134.78224,322.8483935197194L1137.25008,315.9171038203769L1139.71792,322.44494007693396L1142.18576,315.0156691339281L1144.6535999999999,325.572022596995L1147.1214400000001,315.2830984195073L1149.58928,321.8936777114868L1152.05712,317.69491808282004L1154.52496,321.6457232501772L1156.9928,316.5835048423873L1159.46064,323.61069556739596L1161.92848,316.35423872205945L1164.39632,324.1719699899355L1166.86416,316.023428870572L1169.3319999999999,320.76939360962973L1171.79984,319.49596481190787L1174.26768,321.21778895457584L1176.73552,319.2165510190858L1179.20336,320.98447806305353L1181.6712,317.56945527262155L1184.13904,324.5754109488593L1186.60688,316.2637307246526L1189.07472,326.875325275792L1191.54256,316.32179316547183L1194.0104,323.8715333739916L1196.47824,318.53893948925867L1198.94608,324.47489089436L1201.41392,318.38004489739734L1203.88176,324.41267132759094L1206.3496,316.98625918891696L1208.81744,322.34099944432575L1211.28528,319.8110574815008L1213.7531199999999,322.1898073951403L1216.22096,321.8805571728282L1218.6888,320.6113728880882L1221.15664,322.2890915473302L1223.62448,321.2370016177495L1226.09232,323.11532345083026L1228.56016,318.4330888258086L1231.028,328.04269118441476L1233.49584,316.4480923944049L1235.96368,331.1660784814093L1238.4315199999999,314.18810145722495L1240.8993600000001,347.6542012559043L1243.3672,314.46174770593643L1245.83504,339.6719576583968L1248.30288,315.09812504053116L1250.77072,330.7225643263923L1253.23856,315.95807585451337L1255.7064,335.39281444417105L1258.17424,315.5718626247512L1260.64208,338.22980946964685L1263.1099199999999,315.6320223543379L1265.5777600000001,332.3854396740595L1268.0456,317.00427340136633L1270.51344,335.31000898944006L1272.98128,315.7284227344725L1275.44912,331.47939844263925L1277.91696,318.9817170964347L1280.3848,331.1996850371361L1282.85264,317.7281750904189L1285.32048,331.63930422729914L1287.7883199999999,314.16817721393375L1290.2561600000001,339.7876206371519L1292.724,316.9102449549569L1295.19184,327.0845423142115L1297.65968,325.70190469423926L1300.12752,326.3233263625039L1302.59536,315.92923813396027L1305.0632,345.17584260967044L1307.53104,315.3431707620621L1309.99888,342.6107960277133L1312.46672,315.16095631652405L1314.93456,339.2046991984049L1317.4024,315.3535323672824L1319.87024,344.4225913617346L1322.33808,314.2030820912785L1324.80592,353.8718385166592L1327.27376,314.1728461782137" style="fill: none;" fill="none"></path></g></g></g></g></g></g><g transform="translate(50, 377)" clip-path="url(#clip_1)"><clipPath id="clip_1"><rect width="1446" height="23"></rect></clipPath><g><g><line x1="0" y1="0" x2="0" y2="5" style="visibility: inherit;" fill="rgb(0, 0, 0)" stroke="rgb(204, 204, 204)" stroke-width="1px"></line><line x1="120.5" y1="0" x2="120.5" y2="5" style="visibility: inherit;" fill="rgb(0, 0, 0)" stroke="rgb(204, 204, 204)" stroke-width="1px"></line><line x1="241" y1="0" x2="241" y2="5" style="visibility: inherit;" fill="rgb(0, 0, 0)" stroke="rgb(204, 204, 204)" stroke-width="1px"></line><line x1="361.5" y1="0" x2="361.5" y2="5" style="visibility: inherit;" fill="rgb(0, 0, 0)" stroke="rgb(204, 204, 204)" stroke-width="1px"></line><line x1="482" y1="0" x2="482" y2="5" style="visibility: inherit;" fill="rgb(0, 0, 0)" stroke="rgb(204, 204, 204)" stroke-width="1px"></line><line x1="602.5" y1="0" x2="602.5" y2="5" style="visibility: inherit;" fill="rgb(0, 0, 0)" stroke="rgb(204, 204, 204)" stroke-width="1px"></line><line x1="723" y1="0" x2="723" y2="5" style="visibility: inherit;" fill="rgb(0, 0, 0)" stroke="rgb(204, 204, 204)" stroke-width="1px"></line><line x1="843.5" y1="0" x2="843.5" y2="5" style="visibility: inherit;" fill="rgb(0, 0, 0)" stroke="rgb(204, 204, 204)" stroke-width="1px"></line><line x1="964" y1="0" x2="964" y2="5" style="visibility: inherit;" fill="rgb(0, 0, 0)" stroke="rgb(204, 204, 204)" stroke-width="1px"></line><line x1="1084.5" y1="0" x2="1084.5" y2="5" style="visibility: inherit;" fill="rgb(0, 0, 0)" stroke="rgb(204, 204, 204)" stroke-width="1px"></line><line x1="1205" y1="0" x2="1205" y2="5" style="visibility: inherit;" fill="rgb(0, 0, 0)" stroke="rgb(204, 204, 204)" stroke-width="1px"></line><line x1="1325.5" y1="0" x2="1325.5" y2="5" style="visibility: inherit;" fill="rgb(0, 0, 0)" stroke="rgb(204, 204, 204)" stroke-width="1px"></line><line x1="1446" y1="0" x2="1446" y2="5" style="visibility: inherit;" fill="rgb(0, 0, 0)" stroke="rgb(204, 204, 204)" stroke-width="1px"></line></g><g transform="translate(0, 8)"><text x="0" y="0" dx="0em" dy="0.95em" style="text-anchor: middle; visibility: hidden; font-family: Roboto, sans-serif; font-size: 12px; font-weight: 200;" fill="rgb(33, 33, 33)" stroke="none" stroke-width="1px">-100k</text><text x="120.5" y="0" dx="0em" dy="0.95em" style="text-anchor: middle; visibility: inherit; font-family: Roboto, sans-serif; font-size: 12px; font-weight: 200;" fill="rgb(33, 33, 33)" stroke="none" stroke-width="1px">0</text><text x="241" y="0" dx="0em" dy="0.95em" style="text-anchor: middle; visibility: inherit; font-family: Roboto, sans-serif; font-size: 12px; font-weight: 200;" fill="rgb(33, 33, 33)" stroke="none" stroke-width="1px">100k</text><text x="361.5" y="0" dx="0em" dy="0.95em" style="text-anchor: middle; visibility: inherit; font-family: Roboto, sans-serif; font-size: 12px; font-weight: 200;" fill="rgb(33, 33, 33)" stroke="none" stroke-width="1px">200k</text><text x="482" y="0" dx="0em" dy="0.95em" style="text-anchor: middle; visibility: inherit; font-family: Roboto, sans-serif; font-size: 12px; font-weight: 200;" fill="rgb(33, 33, 33)" stroke="none" stroke-width="1px">300k</text><text x="602.5" y="0" dx="0em" dy="0.95em" style="text-anchor: middle; visibility: inherit; font-family: Roboto, sans-serif; font-size: 12px; font-weight: 200;" fill="rgb(33, 33, 33)" stroke="none" stroke-width="1px">400k</text><text x="723" y="0" dx="0em" dy="0.95em" style="text-anchor: middle; visibility: inherit; font-family: Roboto, sans-serif; font-size: 12px; font-weight: 200;" fill="rgb(33, 33, 33)" stroke="none" stroke-width="1px">500k</text><text x="843.5" y="0" dx="0em" dy="0.95em" style="text-anchor: middle; visibility: inherit; font-family: Roboto, sans-serif; font-size: 12px; font-weight: 200;" fill="rgb(33, 33, 33)" stroke="none" stroke-width="1px">600k</text><text x="964" y="0" dx="0em" dy="0.95em" style="text-anchor: middle; visibility: inherit; font-family: Roboto, sans-serif; font-size: 12px; font-weight: 200;" fill="rgb(33, 33, 33)" stroke="none" stroke-width="1px">700k</text><text x="1084.5" y="0" dx="0em" dy="0.95em" style="text-anchor: middle; visibility: inherit; font-family: Roboto, sans-serif; font-size: 12px; font-weight: 200;" fill="rgb(33, 33, 33)" stroke="none" stroke-width="1px">800k</text><text x="1205" y="0" dx="0em" dy="0.95em" style="text-anchor: middle; visibility: inherit; font-family: Roboto, sans-serif; font-size: 12px; font-weight: 200;" fill="rgb(33, 33, 33)" stroke="none" stroke-width="1px">900k</text><text x="1325.5" y="0" dx="0em" dy="0.95em" style="text-anchor: middle; visibility: inherit; font-family: Roboto, sans-serif; font-size: 12px; font-weight: 200;" fill="rgb(33, 33, 33)" stroke="none" stroke-width="1px">1M</text><text x="1446" y="0" dx="0em" dy="0.95em" style="text-anchor: middle; visibility: hidden; font-family: Roboto, sans-serif; font-size: 12px; font-weight: 200;" fill="rgb(33, 33, 33)" stroke="none" stroke-width="1px">1.1M</text></g><line x1="0" y1="0" x2="1446" y2="0" fill="rgb(0, 0, 0)" stroke="rgb(204, 204, 204)" stroke-width="1px"></line></g></g></g></g></svg>