<svg viewBox="0 0 1496 400" xmlns="http://www.w3.org/2000/svg"><g><g><g><g><g><line x1="50" y1="377" x2="45" y2="377" style="visibility: inherit;" fill="rgb(0, 0, 0)" stroke="rgb(204, 204, 204)" stroke-width="1px"></line><line x1="50" y1="335.1111111111111" x2="45" y2="335.1111111111111" style="visibility: inherit;" fill="rgb(0, 0, 0)" stroke="rgb(204, 204, 204)" stroke-width="1px"></line><line x1="50" y1="293.22222222222223" x2="45" y2="293.22222222222223" style="visibility: inherit;" fill="rgb(0, 0, 0)" stroke="rgb(204, 204, 204)" stroke-width="1px"></line><line x1="50" y1="251.33333333333331" x2="45" y2="251.33333333333331" style="visibility: inherit;" fill="rgb(0, 0, 0)" stroke="rgb(204, 204, 204)" stroke-width="1px"></line><line x1="50" y1="209.44444444444446" x2="45" y2="209.44444444444446" style="visibility: inherit;" fill="rgb(0, 0, 0)" stroke="rgb(204, 204, 204)" stroke-width="1px"></line><line x1="50" y1="167.55555555555554" x2="45" y2="167.55555555555554" style="visibility: inherit;" fill="rgb(0, 0, 0)" stroke="rgb(204, 204, 204)" stroke-width="1px"></line><line x1="50" y1="125.66666666666664" x2="45" y2="125.66666666666664" style="visibility: inherit;" fill="rgb(0, 0, 0)" stroke="rgb(204, 204, 204)" stroke-width="1px"></line><line x1="50" y1="83.77777777777781" x2="45" y2="83.77777777777781" style="visibility: inherit;" fill="rgb(0, 0, 0)" stroke="rgb(204, 204, 204)" stroke-width="1px"></line><line x1="50" y1="41.888888888888864" x2="45" y2="41.888888888888864" style="visibility: inherit;" fill="rgb(0, 0, 0)" stroke="rgb(204, 204, 204)" stroke-width="1px"></line><line x1="50" y1="0" x2="45" y2="0" style="visibility: inherit;" fill="rgb(0, 0, 0)" stroke="rgb(204, 204, 204)" stroke-width="1px"></line></g><g transform="translate(40, 0)"><text x="0" y="377" dx="0em" dy="0.3em" style="text-anchor: end; visibility: hidden; font-family: Roboto, sans-serif; font-size: 12px; font-weight: 200;" fill="rgb(33, 33, 33)" stroke="none" stroke-width="1px">-0.8</text><text x="0" y="335.1111111111111" dx="0em" dy="0.3em" style="text-anchor: end; visibility: inherit; font-family: Roboto, sans-serif; font-size: 12px; font-weight: 200;" fill="rgb(33, 33, 33)" stroke="none" stroke-width="1px">-0.6</text><text x="0" y="293.22222222222223" dx="0em" dy="0.3em" style="text-anchor: end; visibility: inherit; font-family: Roboto, sans-serif; font-size: 12px; font-weight: 200;" fill="rgb(33, 33, 33)" stroke="none" stroke-width="1px">-0.4</text><text x="0" y="251.33333333333331" dx="0em" dy="0.3em" style="text-anchor: end; visibility: inherit; font-family: Roboto, sans-serif; font-size: 12px; font-weight: 200;" fill="rgb(33, 33, 33)" stroke="none" stroke-width="1px">-0.2</text><text x="0" y="209.44444444444446" dx="0em" dy="0.3em" style="text-anchor: end; visibility: inherit; font-family: Roboto, sans-serif; font-size: 12px; font-weight: 200;" fill="rgb(33, 33, 33)" stroke="none" stroke-width="1px">0</text><text x="0" y="167.55555555555554" dx="0em" dy="0.3em" style="text-anchor: end; visibility: inherit; font-family: Roboto, sans-serif; font-size: 12px; font-weight: 200;" fill="rgb(33, 33, 33)" stroke="none" stroke-width="1px">0.2</text><text x="0" y="125.66666666666664" dx="0em" dy="0.3em" style="text-anchor: end; visibility: inherit; font-family: Roboto, sans-serif; font-size: 12px; font-weight: 200;" fill="rgb(33, 33, 33)" stroke="none" stroke-width="1px">0.4</text><text x="0" y="83.77777777777781" dx="0em" dy="0.3em" style="text-anchor: end; visibility: inherit; font-family: Roboto, sans-serif; font-size: 12px; font-weight: 200;" fill="rgb(33, 33, 33)" stroke="none" stroke-width="1px">0.6</text><text x="0" y="41.888888888888864" dx="0em" dy="0.3em" style="text-anchor: end; visibility: inherit; font-family: Roboto, sans-serif; font-size: 12px; font-weight: 200;" fill="rgb(33, 33, 33)" stroke="none" stroke-width="1px">0.8</text><text x="0" y="0" dx="0em" dy="0.3em" style="text-anchor: end; visibility: hidden; font-family: Roboto, sans-serif; font-size: 12px; font-weight: 200;" fill="rgb(33, 33, 33)" stroke="none" stroke-width="1px">1</text></g><line x1="50" y1="0" x2="50" y2="377" fill="rgb(0, 0, 0)" stroke="rgb(204, 204, 204)" stroke-width="1px"></line></g></g><g transform="translate(50, 0)" clip-path="url(#clip_0)"><clipPath id="clip_0"><rect width="1446" height="377"></rect></clipPath><g><g><g><line x1="0" y1="0" x2="0" y2="377" fill="rgb(0, 0, 0)" stroke="rgb(66, 66, 66)" stroke-width="1px" opacity="0.25"></line><line x1="120.5" y1="0" x2="120.5" y2="377" fill="rgb(0, 0, 0)" stroke="rgb(66, 66, 66)" stroke-width="1px" opacity="0.25"></line><line x1="241" y1="0" x2="241" y2="377" fill="rgb(0, 0, 0)" stroke="rgb(66, 66, 66)" stroke-width="1px" opacity="0.25"></line><line x1="361.5" y1="0" x2="361.5" y2="377" fill="rgb(0, 0, 0)" stroke="rgb(66, 66, 66)" stroke-width="1px" opacity="0.25"></line><line x1="482" y1="0" x2="482" y2="377" fill="rgb(0, 0, 0)" stroke="rgb(66, 66, 66)" stroke-width="1px" opacity="0.25"></line><line x1="602.5" y1="0" x2="602.5" y2="377" fill="rgb(0, 0, 0)" stroke="rgb(66, 66, 66)" stroke-width="1px" opacity="0.25"></line><line x1="723" y1="0" x2="723" y2="377" fill="rgb(0, 0, 0)" stroke="rgb(66, 66, 66)" stroke-width="1px" opacity="0.25"></line><line x1="843.5" y1="0" x2="843.5" y2="377" fill="rgb(0, 0, 0)" stroke="rgb(66, 66, 66)" stroke-width="1px" opacity="0.25"></line><line x1="964" y1="0" x2="964" y2="377" fill="rgb(0, 0, 0)" stroke="rgb(66, 66, 66)" stroke-width="1px" opacity="0.25"></line><line x1="1084.5" y1="0" x2="1084.5" y2="377" fill="rgb(0, 0, 0)" stroke="rgb(66, 66, 66)" stroke-width="1px" opacity="0.25"></line><line x1="1205" y1="0" x2="1205" y2="377" fill="rgb(0, 0, 0)" stroke="rgb(66, 66, 66)" stroke-width="1px" opacity="0.25"></line><line x1="1325.5" y1="0" x2="1325.5" y2="377" fill="rgb(0, 0, 0)" stroke="rgb(66, 66, 66)" stroke-width="1px" opacity="0.25"></line><line x1="1446" y1="0" x2="1446" y2="377" fill="rgb(0, 0, 0)" stroke="rgb(66, 66, 66)" stroke-width="1px" opacity="0.25"></line></g><g><line x1="0" y1="377" x2="1446" y2="377" fill="rgb(0, 0, 0)" stroke="rgb(66, 66, 66)" stroke-width="1px" opacity="0.25"></line><line x1="0" y1="335.1111111111111" x2="1446" y2="335.1111111111111" fill="rgb(0, 0, 0)" stroke="rgb(66, 66, 66)" stroke-width="1px" opacity="0.25"></line><line x1="0" y1="293.22222222222223" x2="1446" y2="293.22222222222223" fill="rgb(0, 0, 0)" stroke="rgb(66, 66, 66)" stroke-width="1px" opacity="0.25"></line><line x1="0" y1="251.33333333333331" x2="1446" y2="251.33333333333331" fill="rgb(0, 0, 0)" stroke="rgb(66, 66, 66)" stroke-width="1px" opacity="0.25"></line><line x1="0" y1="209.44444444444446" x2="1446" y2="209.44444444444446" fill="rgb(0, 0, 0)" stroke="rgb(66, 66, 66)" stroke-width="1px" opacity="0.25"></line><line x1="0" y1="167.55555555555554" x2="1446" y2="167.55555555555554" fill="rgb(0, 0, 0)" stroke="rgb(66, 66, 66)" stroke-width="1px" opacity="0.25"></line><line x1="0" y1="125.66666666666664" x2="1446" y2="125.66666666666664" fill="rgb(0, 0, 0)" stroke="rgb(66, 66, 66)" stroke-width="1px" opacity="0.25"></line><line x1="0" y1="83.77777777777781" x2="1446" y2="83.77777777777781" fill="rgb(0, 0, 0)" stroke="rgb(66, 66, 66)" stroke-width="1px" opacity="0.25"></line><line x1="0" y1="41.888888888888864" x2="1446" y2="41.888888888888864" fill="rgb(0, 0, 0)" stroke="rgb(66, 66, 66)" stroke-width="1px" opacity="0.25"></line><line x1="0" y1="0" x2="1446" y2="0" fill="rgb(0, 0, 0)" stroke="rgb(66, 66, 66)" stroke-width="1px" opacity="0.25"></line></g></g></g><g><g><line x1="0" y1="209.44444444444446" x2="1446" y2="209.44444444444446" fill="rgb(0, 0, 0)" stroke="rgb(153, 153, 153)" stroke-width="1.5px"></line></g></g><g><g><line x1="120.5" y1="0" x2="120.5" y2="377" fill="rgb(0, 0, 0)" stroke="rgb(153, 153, 153)" stroke-width="1.5px"></line></g></g><g><g><g><g><g><path stroke="rgb(0, 119, 187)" stroke-width="2px" d="M122.96784000000001,338.6683924992879L125.43568,332.96218316174213L127.90351999999999,324.15408545678434L130.37136,319.9358747108212L132.8392,317.93794631353643L135.30704,318.3811460735627L137.77488,315.4449266707029L140.24272,314.7840261157991L142.71056,310.3799737883245L145.1784,309.5546038455891L147.64624,307.1325238447516L150.11408,300.42534492127595L152.58192,297.1189894781761L155.04976,293.5163210198348L157.5176,287.0593646505267L159.98544,281.33256548428915L162.45328,279.53556271321514L164.92112,276.0295625798044L167.38896,270.84836640714934L169.8568,265.96425863509546L172.32464000000002,261.8947596019089L174.79248,255.95556636857853L177.26032,248.332924538501L179.72816,240.87337010985468L182.196,236.55810124858095L184.66384,233.27619714138342L187.13168,227.17835009240443L189.59951999999998,219.10380710729964L192.06736,211.26880635874977L194.5352,207.97377864973606L197.00304,203.30806071700823L199.47088,201.49522877463255L201.93872,199.17901965217538L204.40656,197.12855027048036L206.8744,195.35750211105275L209.34224,194.6620510760934L211.81008,192.70601965565214L214.27792,194.3844788489204L216.74576,192.76629373870156L219.2136,191.43774375570825L221.68144,191.8298963442458L224.14928,189.2975663140821L226.61712,186.5776302704552L229.08496,186.51403741440762L231.5528,188.2013174248266L234.02064000000001,187.92857236279502L236.48848,185.0393506383617L238.95632,182.42195769781932L241.42416,180.6351354133283L243.892,181.72523066204178L246.35984,180.5872269658275L248.82768000000002,178.37258001295248L251.29552,174.4194843677264L253.76336,174.84422922312086L256.2312,171.19487821831063L258.69903999999997,167.06903689302436L261.16688,162.14679007978913L263.63472,160.19699217032374L266.10256,158.11873521431193L268.5704,155.530931899425L271.03824,154.1862285498307L273.50608,150.9856809859258L275.97392,145.0189184027448L278.44176,138.3702102959011L280.9096,137.36548227693427L283.37744,133.7103687416395L285.84528,126.96653603989499L288.31311999999997,126.6547761594637L290.78096,120.90939815255304L293.2488,119.47800791178193L295.71664,116.02047568773321L298.18448,112.29899543254633L300.65232,107.97026414312357L303.12016,105.38259300108545L305.588,100.5653755881006L308.05584,98.81541095282323L310.52368,94.7318537758133L312.99152,94.94436737919565L315.45936,91.07946665632888L317.92719999999997,87.92385281717341L320.39504,86.8874616718028L322.86288,83.47720167147853L325.33072,81.23160849012908L327.79856,78.40561905833206L330.2664,76.37701589133279L332.73424,75.27462562216219L335.20208,75.21467390499913L337.66992,70.54741988286814L340.13776,69.27988594594859L342.6056,68.81773487224142L345.07344,68.4932652178378L347.54128,66.69241976451036L350.00912,69.54767460650896L352.47696,70.94267379922354L354.9448,70.87724990655596L357.41264,71.57616631394394L359.88048,68.89320161995089L362.34832,67.41552203463924L364.81615999999997,65.08085623456816L367.284,63.074619422796054L369.75184,65.01652585493086L372.21968,64.94748518416554L374.68752,63.932818922694125L377.15536,59.920598876453816L379.6232,60.33158851383767L382.09103999999996,59.655045664620225L384.55888,60.30432086300895L387.02672,59.766434927787L389.49456,58.99537793133328L391.9624,59.76716795365214L394.43023999999997,66.27005410803807L396.89808,67.52365911902395L399.36592,64.85329154075032L401.83376,63.9071928040634L404.3016,62.71474125112465L406.76944,60.33389819935185L409.23728,61.36036874153679L411.70511999999997,59.55018731732246L414.17296,60.526282585337235L416.6408,84.0868568334361L419.10864,93.34106267969096L421.57648,95.74501394783296L424.04431999999997,94.70985748767421L426.51216,91.66307937144977L428.98,87.8982362345574L431.44784,82.73980366363433L433.91568,78.34911901723594L436.38352,74.90297757966074L438.85136,71.3035528464084L441.3192,69.16586460952416L443.78704,65.06514472468706L446.25488,64.21736806255979L448.72272,64.22560884330115L451.19056,64.83706425558262L453.6584,64.26460181234715L456.12624,63.77762984635165L458.59408,61.23945513209735L461.06192,58.9267213407949L463.52976,58.43004428925881L465.9976,59.44259386078843L468.46544,60.04698765764433L470.93328,60.502069428502274L473.40112,59.09601911666982L475.86896,57.64365585834908L478.3368,57.818939798222736L480.80464,57.25366686571447L483.27248,69.93923062291361L485.74032,75.2480604038368L488.20816,75.92473125505164L490.676,74.18509749864835L493.14384,69.38015941425012L495.61168,66.86755778577236L498.07952,66.67140650727802L500.54736,62.1649542330411L503.0152,60.4901275893606L505.48304,76.2072545074424L507.95088,82.3920561873052L510.41872,82.73076151495646L512.88656,79.32706748920624L515.3543999999999,75.65731004827656L517.8222400000001,70.86875449523721L520.29008,68.41330620854998L522.75792,66.87200518375577L525.2257599999999,65.22987191368041L527.6936,70.75433160225555L530.1614400000001,70.41025220568979L532.62928,68.32980215082172L535.09712,64.39507498725676L537.5649599999999,71.31005254683221L540.0328,72.64729890934353L542.5006400000001,69.47409105526441L544.96848,65.86225920918474L547.43632,63.967118532145044L549.9041599999999,60.568168112712144L552.372,59.92254112440309L554.83984,57.92898629009835L557.30768,86.25717385285498L559.77552,97.6646145801151L562.2433599999999,102.6986893652786L564.7112,101.16258962783672L567.17904,97.6602858665924L569.64688,92.60269020179953L572.11472,85.91444604106773L574.58256,81.54079084434262L577.0504,76.51817324661104L579.51824,72.7426177303831L581.98608,67.19186658572858L584.45392,63.642898383541485L586.92176,59.35158725879143L589.3896,72.45139752938607L591.85744,76.61598072848605L594.32528,76.63711354309783L596.7931199999999,73.23279549451019L599.26096,69.01365835662826L601.7288,64.21472727773272L604.19664,60.649939706364734L606.66448,59.01564987328021L609.1323199999999,57.4302528476962L611.60016,56.479708735056974L614.068,57.74774076244396L616.53584,87.08406950057247L619.00368,98.67682981834564L621.4715199999999,98.13036424260129L623.93936,98.80132865976432L626.4072,94.01707249789781L628.87504,85.02017851749004L631.34288,79.3788864643776L633.81072,74.74362777261354L636.27856,69.57177808503029L638.7464,65.92770758971736L641.21424,62.23752922041317L643.68208,58.8942918618572L646.14992,55.32360224565187L648.61776,72.48073433357001L651.0856,77.0889840991349L653.55344,75.72139122909616L656.02128,73.57243776946383L658.48912,70.19411614581088L660.95696,66.06870086947895L663.4248,61.784370361194576L665.89264,60.42220986987682L668.3604799999999,58.75923680858469L670.82832,93.2912774273885L673.29616,110.14496889711876L675.764,114.719147975586L678.23184,114.26454851084809L680.69968,110.1912044693925L683.16752,104.46333819554307L685.63536,97.11920966395701L688.1032,91.6045001925367L690.57104,86.48018644936907L693.03888,80.34247300372675L695.50672,75.97949944079944L697.97456,74.30034690384683L700.4424,72.9301043216133L702.91024,69.1700267313169L705.37808,64.83899757374802L707.84592,60.89416537416328L710.31376,62.36449055114799L712.7816,61.6825476687184L715.24944,61.656476700367385L717.71728,60.379854228533425L720.18512,56.50693719108462L722.65296,66.28430346692673L725.1207999999999,66.88062605619805L727.58864,68.18969985925052L730.05648,65.0970325004697L732.52432,62.381548684072264L734.99216,58.96052462598254L737.46,69.92504751991238L739.92784,72.75187144464856L742.3956800000001,72.04019839768903L744.86352,70.03614327433878L747.33136,67.02920793831919L749.7991999999999,64.80276263691663L752.2670400000001,61.23339277667412L754.73488,69.5792933036642L757.20272,69.35099715370477L759.67056,64.4742666942589L762.1384,63.03754812720358L764.60624,60.48345936416684L767.07408,62.35373728653582L769.54192,61.960158492874505L772.00976,58.14774437161039L774.4775999999999,69.66256825838201L776.9454400000001,73.712318697521L779.41328,72.24700935883926L781.88112,68.98628245051204L784.3489599999999,64.49072371078827L786.8168000000001,61.64949947686971L789.28464,58.9498461000309L791.75248,72.34647186868499L794.22032,73.46413843529619L796.68816,70.71626754222628L799.156,66.08951480161139L801.6238400000001,62.89367083624927L804.09168,59.68843414733366L806.55952,58.437153597107155L809.0273599999999,57.75515137082181L811.4952000000001,56.16639488385293L813.96304,67.93629835778846L816.43088,71.68727063908136L818.89872,71.89895475835641L821.36656,68.1775402124586L823.8344,62.13139106076797L826.3022399999999,69.76273665373623L828.77008,70.70213878545891L831.23792,70.81243112321928L833.7057599999999,67.47249970947782L836.1736000000001,65.10990448199092L838.64144,61.91598870133121L841.10928,58.66281738544363L843.57712,68.51139473649111L846.0449600000001,71.70092188622567L848.5128,71.05189611498128L850.9806399999999,69.1113907958749L853.44848,65.42941727764835L855.91632,63.26788157009211L858.38416,60.85093803408948L860.8520000000001,59.057860205457494L863.31984,56.87898442937091L865.78768,55.54793962646746L868.2555199999999,56.97558477142326L870.7233600000001,53.79045171974091L873.1912,54.25661375187627L875.6590399999999,53.06428390778772L878.12688,54.71803332854582L880.59472,53.213011284274145L883.06256,63.94925162106226L885.5304000000001,68.18147214530923L887.99824,69.65597100424176L890.46608,65.90157742388162L892.93392,62.0475814049668L895.4017600000001,59.13527431585418L897.8696,63.50483748812295L900.33744,62.81647446519095L902.80528,61.38909295194261L905.2731200000001,59.308791183720786L907.74096,58.15922763676228L910.2087999999999,56.17526259725427L912.67664,55.69424655725305L915.14448,54.289200186867L917.61232,57.52016578258714L920.0801600000001,57.420569954497815L922.548,55.179012939906684L925.01584,54.415706841825745L927.4836799999999,60.4474287323232L929.9515200000001,61.684076652451864L932.41936,58.96432051325643L934.8871999999999,67.4808676662599L937.35504,68.4770339502427L939.82288,64.54290715828074L942.29072,60.94741762463966L944.7585600000001,56.61044664320846L947.2264,63.81639476897815L949.69424,64.99268223613001L952.16208,62.735105533020686L954.6299200000001,60.13694217519978L957.09776,58.66795293255195L959.5655999999999,56.66134898256715L962.03344,54.78475115002737L964.5012800000001,53.5668562993168L966.96912,69.08960798252178L969.4369599999999,73.13101958554121L971.9048,73.3050312743519L974.37264,69.4571525342823L976.84048,64.51019581415952L979.3083200000001,62.647377852816206L981.77616,72.10698346548406L984.2439999999999,76.58566933358921L986.71184,77.28718782356509L989.1796800000001,75.32346660827278L991.64752,68.71709101359849L994.1153599999999,63.84207857757623L996.5832,58.417732091736994L999.0510400000001,69.84681711911692L1001.51888,72.37754642756504L1003.9867200000001,71.09532451505491L1006.45456,68.35598306051575L1008.9223999999999,64.66226343693013L1011.39024,60.594724906441314L1013.8580800000001,67.73006276532087L1016.32592,65.72426289068103L1018.7937599999999,61.85605274817546L1021.2616,57.11419627708249L1023.7294400000001,54.63219298970597L1026.1972799999999,57.50909681218668L1028.66512,56.79404491575574L1031.1329600000001,55.14314332904294L1033.6008,53.76265647260143L1036.06864,53.998543659998404L1038.53648,52.61929193876722L1041.00432,55.92195664358322L1043.47216,57.39020908581529L1045.94,55.95645284809392L1048.40784,56.284502946946L1050.8756799999999,53.66003518849725L1053.34352,53.05949023693865L1055.8113600000001,52.60748677914049L1058.2792,65.2267907335906L1060.74704,67.21296354446771L1063.21488,65.2457109152116L1065.68272,61.21515388971921L1068.15056,57.87871154227337L1070.6183999999998,55.63232223769445L1073.08624,71.27921902154803L1075.5540799999999,76.48025489325937L1078.02192,76.19688186928997L1080.4897600000002,74.713755544668L1082.9576,70.0397566073345L1085.42544,65.76898287414748L1087.89328,99.25487776339926L1090.36112,114.48966567229425L1092.82896,119.87403956426567L1095.2967999999998,117.44941462169784L1097.76464,113.76839259718278L1100.23248,106.78549375473779L1102.70032,101.32395354711602L1105.1681600000002,95.17565134514189L1107.636,88.96659780220145L1110.10384,82.79212662781849L1112.57168,78.08420584125666L1115.03952,70.5706147814526L1117.50736,66.15520525099576L1119.9751999999999,62.52304517765554L1122.44304,60.05422341284312L1124.91088,57.185194324860596L1127.37872,55.70308251398712L1129.8465600000002,54.4003699017639L1132.3144,55.2447803029595L1134.78224,55.577241717991555L1137.25008,55.85851282894322L1139.71792,55.53200574661451L1142.18576,58.175171340509515L1144.6535999999999,59.82505797843395L1147.1214400000001,56.94223140047809L1149.58928,54.06222250017947L1152.05712,52.810476484286035L1154.52496,53.149784337248086L1156.9928,53.67133800035657L1159.46064,52.82716103038091L1161.92848,52.68013014314445L1164.39632,59.339244117512216L1166.86416,59.60631731825176L1169.3319999999999,58.50071763534936L1171.79984,54.950230108271896L1174.26768,69.99493991528207L1176.73552,77.22532811214413L1179.20336,75.2308325516177L1181.6712,71.81767550390917L1184.13904,68.50034731330977L1186.60688,63.933855599378624L1189.07472,58.99646134879426L1191.54256,54.958605028096926L1194.0104,53.55444951270267L1196.47824,52.14224768395433L1198.94608,56.36472269855405L1201.41392,56.10890353034743L1203.88176,55.95915219439222L1206.3496,54.1006128332869L1208.81744,52.23887938311833L1211.28528,52.24178152777105L1213.7531199999999,50.21825094850602L1216.22096,68.59786315658735L1218.6888,75.50957643660664L1221.15664,75.4684635487231L1223.62448,69.75372155761252L1226.09232,65.57300333334324L1228.56016,61.530600413600524L1231.028,70.44853471545905L1233.49584,69.60009420279444L1235.96368,68.46504912063413L1238.4315199999999,63.42699454066781L1240.8993600000001,59.709574707705855L1243.3672,56.29116851457172L1245.83504,55.26025604229103L1248.30288,54.15791397570793L1250.77072,62.86811376115546L1253.23856,63.342631181417445L1255.7064,63.66772942298296L1258.17424,59.60743440057356L1260.64208,54.874151929080256L1263.1099199999999,53.13627273869105L1265.5777600000001,50.92306334395165L1268.0456,49.47963701855509L1270.51344,49.60950875583113L1272.98128,58.06115681510857L1275.44912,60.03183352366765L1277.91696,59.470174158110304L1280.3848,58.03141282667365L1282.85264,56.170086264628075L1285.32048,55.311017155657964L1287.7883199999999,54.252357925315465L1290.2561600000001,52.599507941673686L1292.724,61.839171526487355L1295.19184,62.282163653035994L1297.65968,60.21799594689347L1300.12752,58.957239094549024L1302.59536,55.6846826294106L1305.0632,54.66241194918007L1307.53104,60.942543100667166L1309.99888,62.49456655728617L1312.46672,58.89044360699267L1314.93456,55.117326966549385L1317.4024,53.02074072921467L1319.87024,78.18316202261558L1322.33808,88.28475061263418L1324.80592,91.09292873333025L1327.27376,87.11788740244916" style="fill: none;" fill="none"></path></g><g><path stroke="rgb(255, 112, 67)" stroke-width="2px" d="M122.96784000000001,316.21898856427936L125.43568,300.1943252546092L127.90351999999999,294.7204659811629L130.37136,289.34069122893897L132.8392,280.02777426038904L135.30704,276.062167120084L137.77488,273.70159063659827L140.24272,269.40924853396257L142.71056,265.2225197222251L145.1784,261.8135823232785L147.64624,257.3153544341547L150.11408,258.3506861822577L152.58192,252.07598613800147L155.04976,249.89924095075733L157.5176,242.67800450562802L159.98544,240.698424278874L162.45328,237.2973301536651L164.92112,233.17135379863439L167.38896,228.08869456660685L169.8568,221.74249945336535L172.32464000000002,219.27664299211875L174.79248,213.9235727002654L177.26032,212.5691402075213L179.72816,207.4783417796815L182.196,202.42026883759053L184.66384,201.45136773088575L187.13168,197.6308428288701L189.59951999999998,195.86800999053276L192.06736,194.92191424840723L194.5352,192.67703360551045L197.00304,189.5657243003107L199.47088,188.66909178596018L201.93872,188.1276062302912L204.40656,186.92635154135542L206.8744,185.88619165232984L209.34224,184.71761521716985L211.81008,181.1313889819178L214.27792,179.244113879217L216.74576,177.35559132945465L219.2136,178.877535527507L221.68144,177.51112018184446L224.14928,174.26879508631313L226.61712,172.7479711733718L229.08496,170.21346490247936L231.5528,167.57926559154296L234.02064000000001,165.2165384399324L236.48848,164.3775091652216L238.95632,163.67184055682608L241.42416,161.014011658215L243.892,157.22647906756328L246.35984,152.64682701740648L248.82768000000002,151.29660160913727L251.29552,149.66359511624947L253.76336,148.7733779089313L256.2312,144.8524408183467L258.69903999999997,144.30518978024665L261.16688,144.06302024832448L263.63472,142.53082890589994L266.10256,142.30678280427696L268.5704,138.79847167075445L271.03824,136.20455954026298L273.50608,135.4176201237308L275.97392,132.5974143632094L278.44176,129.62877110501498L280.9096,128.16108487893698L283.37744,127.10571156319375L285.84528,124.48534891167455L288.31311999999997,120.89576673271425L290.78096,118.68357797189523L293.2488,117.90257847806859L295.71664,115.4891104754537L298.18448,115.84996870034641L300.65232,113.92321430833036L303.12016,112.31553300799135L305.588,113.93618218185559L308.05584,113.06125726881193L310.52368,108.89106213996348L312.99152,109.55193366576954L315.45936,109.59713574497404L317.92719999999997,109.2621376158373L320.39504,104.60560355169366L322.86288,104.55535128530208L325.33072,102.19772872219292L327.79856,99.41000030571105L330.2664,102.38445830689865L332.73424,99.15047339010435L335.20208,96.15559061545385L337.66992,95.51100128333056L340.13776,93.31204038259887L342.6056,93.61176078357798L345.07344,91.20226533117993L347.54128,90.07482164311932L350.00912,93.77303514141289L352.47696,88.95867040377591L354.9448,90.09985710223228L357.41264,85.76795426034755L359.88048,85.95829150624704L362.34832,82.68974683942307L364.81615999999997,85.80329484433413L367.284,90.16182422652133L369.75184,90.70481556000219L372.21968,88.19959011082989L374.68752,84.44615887115152L377.15536,78.73947103724728L379.6232,82.49194106734639L382.09103999999996,80.60382947093356L384.55888,80.72334351996246L387.02672,86.42079936513436L389.49456,88.92342681582916L391.9624,87.94542371833674L394.43023999999997,88.095589158561L396.89808,89.77142848562102L399.36592,88.45659665393707L401.83376,91.71449612852658L404.3016,95.4287212699589L406.76944,96.1888795726129L409.23728,98.73805875707775L411.70511999999997,103.06825822337599L414.17296,107.54153382890564L416.6408,108.59835016000159L419.10864,108.47375573410655L421.57648,116.06909370107557L424.04431999999997,113.39591592626303L426.51216,111.48817703504614L428.98,103.92095886893617L431.44784,101.2810662117587L433.91568,102.51214156245443L436.38352,102.84676406599235L438.85136,98.02480561491805L441.3192,93.82978348375204L443.78704,96.34397620357907L446.25488,90.65566041044431L448.72272,85.37488048722236L451.19056,90.92892665932507L453.6584,93.17130350631433L456.12624,100.20294635961959L458.59408,102.91127494655353L461.06192,95.85745897898461L463.52976,101.2040514701502L465.9976,101.4632189577491L468.46544,106.0230558233198L470.93328,105.2112192183774L473.40112,102.22422394772622L475.86896,100.71101113331463L478.3368,102.98132483002169L480.80464,106.1057224833499L483.27248,108.2058895274783L485.74032,111.90723637609392L488.20816,109.12291228030678L490.676,105.33010377704501L493.14384,105.1125755296645L495.61168,105.08764708359027L498.07952,102.50294950198523L500.54736,98.58850648623209L503.0152,102.64814645422396L505.48304,101.86901146395745L507.95088,97.33383391169288L510.41872,104.13487279733567L512.88656,109.08893450689638L515.3543999999999,111.31277177157064L517.8222400000001,105.33619014474982L520.29008,108.69421696827091L522.75792,108.80105706419383L525.2257599999999,113.61114333821168L527.6936,111.11938716754347L530.1614400000001,113.86522862385726L532.62928,118.38574446415846L535.09712,120.18942857754462L537.5649599999999,129.29434034211775L540.0328,138.86836787518533L542.5006400000001,141.59747238563833L544.96848,139.17627185613975L547.43632,135.69821475630312L549.9041599999999,138.19879769495313L552.372,133.99692889908994L554.83984,129.8878079796767L557.30768,121.17306905524218L559.77552,125.2157051615096L562.2433599999999,123.74399997306924L564.7112,118.80130243143608L567.17904,124.32712924253313L569.64688,120.39371372987317L572.11472,122.40728799870635L574.58256,121.13368579370393L577.0504,119.30550246609815L579.51824,121.40243618525535L581.98608,113.95867317222046L584.45392,113.71413531152561L586.92176,109.23545016198253L589.3896,123.05348720824719L591.85744,148.60732485690647L594.32528,162.61493054929733L596.7931199999999,169.11930165431914L599.26096,180.39337843949806L601.7288,181.04762742099288L604.19664,186.21142074471987L606.66448,189.5593103054871L609.1323199999999,192.50644375502L611.60016,192.97733506333185L614.068,183.61779322024333L616.53584,178.1376465977333L619.00368,169.64221657242985L621.4715199999999,156.59353511753312L623.93936,149.40574955609358L626.4072,144.59847510854553L628.87504,152.6469884077717L631.34288,150.40362544748572L633.81072,145.33665786255762L636.27856,142.44940212079175L638.7464,149.47004589529476L641.21424,160.19144150470677L643.68208,166.62875683154982L646.14992,186.12711337956583L648.61776,200.42754546538004L651.0856,207.37982894090484L653.55344,200.95102283919454L656.02128,209.97710880775014L658.48912,226.39374156743213L660.95696,228.1773551235923L663.4248,216.52837664384282L665.89264,207.95853359963345L668.3604799999999,214.1024132759655L670.82832,212.72932740758066L673.29616,220.19304080101642L675.764,209.83513860380324L678.23184,209.91855083133805L680.69968,205.7850091815222L683.16752,193.75111590453025L685.63536,191.6712496881037L688.1032,204.645773523974L690.57104,207.03577724881708L693.03888,214.37299207852263L695.50672,215.28040209515478L697.97456,210.0500230942715L700.4424,211.07476042374765L702.91024,210.9411958580104L705.37808,223.13967821349027L707.84592,218.03213716518974L710.31376,219.69289690007687L712.7816,226.09080323759008L715.24944,226.4027056761249L717.71728,227.09819623006035L720.18512,221.28921938488307L722.65296,219.9765421254402L725.1207999999999,222.91932150540543L727.58864,223.63974972291794L730.05648,222.40639234649873L732.52432,219.80306449821236L734.99216,224.1069582019354L737.46,225.78006543866093L739.92784,226.75748271966094L742.3956800000001,223.02452255389227L744.86352,218.53946587569862L747.33136,215.20745563558148L749.7991999999999,219.58016278343905L752.2670400000001,223.182465028748L754.73488,214.80289425305958L757.20272,215.7854165005498L759.67056,216.78551813089396L762.1384,217.50417142600608L764.60624,215.82957218946157L767.07408,216.21358358876589L769.54192,223.66570655912173L772.00976,224.6943413762186L774.4775999999999,221.048031005968L776.9454400000001,226.78224095260995L779.41328,221.9597682953729L781.88112,220.69563011267238L784.3489599999999,215.45961295528286L786.8168000000001,211.72489876029732L789.28464,216.76281577534183L791.75248,217.43147076131925L794.22032,218.8085802792895L796.68816,211.94047368959914L799.156,211.15921985834305L801.6238400000001,217.22648901612573L804.09168,213.1665181806694L806.55952,211.55317564427872L809.0273599999999,211.58987929093686L811.4952000000001,222.7766681922877L813.96304,219.4365956397231L816.43088,217.87164572776942L818.89872,216.04990087829646L821.36656,222.9233852217221L823.8344,225.18241123164108L826.3022399999999,219.70868493226814L828.77008,213.17572778527523L831.23792,207.48529186320388L833.7057599999999,204.96916488756654L836.1736000000001,202.06537217136835L838.64144,191.61206132645705L841.10928,201.25393621012748L843.57712,210.80415762925588L846.0449600000001,219.71863460188442L848.5128,217.10191713716122L850.9806399999999,212.7192957099178L853.44848,211.22253996749902L855.91632,209.77255348063616L858.38416,209.21305879256724L860.8520000000001,203.36479356634246L863.31984,208.81507846579197L865.78768,205.1337012074306L868.2555199999999,213.15685389470545L870.7233600000001,208.8481317276977L873.1912,211.36209731068547L875.6590399999999,205.78552232708998L878.12688,204.7139136356534L880.59472,209.27652166543268L883.06256,209.6368267136163L885.5304000000001,207.39148710528093L887.99824,215.83830963189848L890.46608,212.32857549660835L892.93392,209.7021566556632L895.4017600000001,206.996155706814L897.8696,208.29095904420035L900.33744,208.38814605781567L902.80528,211.91007464417626L905.2731200000001,216.25219752795118L907.74096,220.23599919091302L910.2087999999999,221.5922874892392L912.67664,215.65331082380808L915.14448,213.6826702454863L917.61232,215.18943770969972L920.0801600000001,216.80628393471613L922.548,214.54842035310028L925.01584,213.58228112568725L927.4836799999999,214.921451244283L929.9515200000001,215.80329828638202L932.41936,214.57928189460122L934.8871999999999,211.29292807068305L937.35504,216.02580668844968L939.82288,219.25536803296126L942.29072,217.30376505778446L944.7585600000001,210.29929365653854L947.2264,200.45855899383727L949.69424,203.58879768232237L952.16208,185.27280696923043L954.6299200000001,187.77500439402164L957.09776,185.55491425822197L959.5655999999999,192.63466658961121L962.03344,187.384794125916L964.5012800000001,173.91320629448708L966.96912,173.21188612234536L969.4369599999999,190.29627341806392L971.9048,186.97643112739954L974.37264,202.97554006636753L976.84048,217.67314927057794L979.3083200000001,224.10360510414662L981.77616,236.63924297186563L984.2439999999999,247.9522691133522L986.71184,262.6745251924868L989.1796800000001,267.6545526583968L991.64752,265.55790724356837L994.1153599999999,261.7430441002043L996.5832,270.40306342164627L999.0510400000001,267.61549564380084L1001.51888,247.7608739118495L1003.9867200000001,252.27401094652856L1006.45456,245.9629360127176L1008.9223999999999,250.64485596676352L1011.39024,248.70929408307683L1013.8580800000001,257.4254230354377L1016.32592,272.6501844409263L1018.7937599999999,279.4680715054168L1021.2616,279.0369018518199L1023.7294400000001,283.343193745808L1026.1972799999999,283.102287937917L1028.66512,283.40875391877086L1031.1329600000001,281.34218024045066L1033.6008,279.69280282091336L1036.06864,275.7642930579722L1038.53648,276.45019840196017L1041.00432,285.1614772736743L1043.47216,293.5830096214177L1045.94,300.94531111771835L1048.40784,299.0428543724581L1050.8756799999999,304.4867172489013L1053.34352,307.0987932340636L1055.8113600000001,308.5484957768321L1058.2792,304.8543023511052L1060.74704,297.5271654592522L1063.21488,284.2006452295456L1065.68272,277.0200965452159L1068.15056,276.4347320386547L1070.6183999999998,273.43102479179043L1073.08624,279.43622503531907L1075.5540799999999,287.03815079707334L1078.02192,288.4769251563853L1080.4897600000002,287.7655803201487L1082.9576,290.4208541137709L1085.42544,288.13138759139247L1087.89328,289.41642566788704L1090.36112,292.7192131204185L1092.82896,287.18965560002454L1095.2967999999998,290.6210287996331L1097.76464,289.4429796291311L1100.23248,285.6160236145144L1102.70032,288.9272536351003L1105.1681600000002,293.2705727194644L1107.636,296.13430847574654L1110.10384,296.18983187850614L1112.57168,300.4426087850906L1115.03952,302.42494841569794L1117.50736,310.0803508900187L1119.9751999999999,303.2354563202012L1122.44304,298.57882768266694L1124.91088,300.05137752372667L1127.37872,299.3511273317256L1129.8465600000002,296.8888121888006L1132.3144,301.84054447150675L1134.78224,305.11576311881544L1137.25008,306.8808429200496L1139.71792,303.675306266092L1142.18576,308.325104490246L1144.6535999999999,306.14842135892513L1147.1214400000001,307.1903437327516L1149.58928,309.82167121145824L1152.05712,306.9000255646727L1154.52496,304.38328800096644L1156.9928,303.94267048269563L1159.46064,302.2803696211646L1161.92848,299.95533790156725L1164.39632,302.1671287309391L1166.86416,296.7615392593633L1169.3319999999999,302.68450597983474L1171.79984,308.5449366308298L1174.26768,307.300304577307L1176.73552,308.33468028903036L1179.20336,304.8771676560245L1181.6712,305.81421694000574L1184.13904,301.72005597588753L1186.60688,303.54707446001373L1189.07472,303.7552760089249L1191.54256,302.8792009579029L1194.0104,299.37801250776965L1196.47824,306.4736435285223L1198.94608,303.5725111778518L1201.41392,302.2354924423394L1203.88176,303.11822801620485L1206.3496,295.69467570921876L1208.81744,300.96399700566786L1211.28528,306.0046756289548L1213.7531199999999,308.4484259366944L1216.22096,305.54878504885295L1218.6888,304.9548242730018L1221.15664,302.89663030160165L1223.62448,305.20108845569973L1226.09232,305.018259625067L1228.56016,308.27933482089753L1231.028,305.5076648830255L1233.49584,303.65390701658146L1235.96368,311.42329321444004L1238.4315199999999,311.0404935315316L1240.8993600000001,307.56964118954596L1243.3672,307.485948347445L1245.83504,307.1137738486502L1248.30288,310.51709339581174L1250.77072,309.1646906667684L1253.23856,304.157942436825L1255.7064,305.8902881095288L1258.17424,304.058207577767L1260.64208,304.7763473627778L1263.1099199999999,297.0110616852198L1265.5777600000001,296.437316417192L1268.0456,306.73523678484565L1270.51344,304.499783818541L1272.98128,305.5207008614515L1275.44912,304.311595999197L1277.91696,305.69801798045387L1280.3848,306.9989522730097L1282.85264,304.3391478188374L1285.32048,306.0256793641239L1287.7883199999999,301.64296460740235L1290.2561600000001,306.6850133295405L1292.724,305.1015079220131L1295.19184,309.8029911902213L1297.65968,307.97887340174765L1300.12752,309.49689547544045L1302.59536,302.11878907212144L1305.0632,306.35397252358115L1307.53104,311.83849005715985L1309.99888,302.1906791192641L1312.46672,298.94702251461575L1314.93456,304.3071334569765L1317.4024,299.7199500341019L1319.87024,297.1460093965081L1322.33808,300.4729152665504L1324.80592,301.6458554699269L1327.27376,301.98728299609974" style="fill: none;" fill="none"></path></g></g></g></g><g opacity="0.2"><g><g><g><path stroke="rgb(0, 119, 187)" stroke-width="2px" d="M122.96784000000001,338.6683924992879L125.43568,329.5384575592147L127.90351999999999,315.69831166002484L130.37136,314.97525887356863L132.8392,315.32945099804135L135.30704,318.99425089359283L137.77488,311.2460859451029L140.24272,313.82042676210403L142.71056,303.88485204842357L145.1784,308.3290256725417L147.64624,303.52137193083763L150.11408,290.40107670757504L152.58192,292.170252137714L155.04976,288.1193763348791L157.5176,277.3815200063917L159.98544,272.7464057173994L162.45328,276.84081898795233L164.92112,270.7714525527424L167.38896,263.07736145125494L169.8568,258.6385434038109L172.32464000000002,255.7907342331277L174.79248,247.04697195026608L177.26032,236.89911228915054L179.72816,229.684126832419L182.196,230.0852286277546L184.66384,228.35335497640904L187.13168,218.0315951216552L189.59951999999998,206.99200502596796L192.06736,199.51631245306794L194.5352,203.03123890732724L197.00304,196.30948536511926L199.47088,198.77598122176198L201.93872,195.70470624499853L204.40656,194.0528463448087L206.8744,192.7009299480253L209.34224,193.61887454158727L211.81008,189.77197255525323L214.27792,196.90216762324172L216.74576,190.33901608238614L219.2136,189.44491878565816L221.68144,192.41812522626583L224.14928,185.4990712718831L226.61712,182.49772620697814L229.08496,186.41864813036386L231.5528,190.73223744001655L234.02064000000001,187.51945476979017L236.48848,180.70551805198193L238.95632,178.4958682871527L241.42416,177.95490198665192L243.892,183.36037353509L246.35984,178.88022142151993L248.82768000000002,175.050609583656L251.29552,168.48984089990455L253.76336,175.48134650621148L256.2312,165.72085171110098L258.69903999999997,160.88027490509882L261.16688,154.76341985993912L263.63472,157.2722953061263L266.10256,155.00134978029462L268.5704,151.64922692709496L271.03824,152.16917352543936L273.50608,146.18485964006845L275.97392,136.06877452797357L278.44176,128.39714813563558L280.9096,135.85839024848406L283.37744,128.22769843869736L285.84528,116.85078698727818L288.31311999999997,126.18713633881674L290.78096,112.29133114218712L293.2488,117.33092255062525L295.71664,110.83417735166017L298.18448,106.71677504976589L300.65232,101.47716720898944L303.12016,101.50108628802828L305.588,93.33954946862326L308.05584,96.1904639999072L310.52368,88.60651801029843L312.99152,95.26313778426913L315.45936,85.28211557202872L317.92719999999997,83.19043205844031L320.39504,85.3328749537468L322.86288,78.3618116709921L325.33072,77.86321871810492L327.79856,74.1666349106365L330.2664,73.33411114083395L332.73424,73.62104021840628L335.20208,75.12474632925455L337.66992,63.54653884967167L340.13776,67.3785850405693L342.6056,68.1245082616806L345.07344,68.00656073623236L347.54128,63.99115158451929L350.00912,73.83055686950684L352.47696,73.03517258829538L354.9448,70.77911406755447L357.41264,72.62454092502594L359.88048,64.86875457896127L362.34832,65.19900265667172L364.81615999999997,61.57885753446157L367.284,60.0652642051379L369.75184,67.92938550313312L372.21968,64.84392417801752L374.68752,62.41081953048706L377.15536,53.902268807093314L379.6232,60.94807296991348L382.09103999999996,58.640231390794106L384.55888,61.27823366059198L387.02672,58.95960602495404L389.49456,57.83879243665273L391.9624,60.92485298713047L394.43023999999997,76.02438333961697L396.89808,69.40406663550272L399.36592,60.847740173339844L401.83376,62.48804469903309L404.3016,60.92606392171649L406.76944,56.76263362169266L409.23728,62.90007455481424L411.70511999999997,56.834915181001016L414.17296,61.99042548735935L416.6408,119.42771820558443L419.10864,107.22237144907314L421.57648,99.35094085004596L424.04431999999997,93.15712279743616L426.51216,87.09291219711304L428.98,82.25097152921887L431.44784,75.00215480724972L433.91568,71.76309204763834L436.38352,69.73376542329788L438.85136,65.90441574652988L441.3192,65.95933225419788L443.78704,58.914064897431274L446.25488,62.94570306936901L448.72272,64.23797001441318L451.19056,65.75424737400476L453.6584,63.40590814749401L456.12624,63.047171897358346L458.59408,57.43219306071598L461.06192,55.45762065384122L463.52976,57.685028711954764L465.9976,60.961418218082834L468.46544,60.95357835292816L470.93328,61.184692084789276L473.40112,56.98694364892111L475.86896,55.46511097086801L478.3368,58.081865708033256L480.80464,56.40575746695202L483.27248,88.96757625871237L485.74032,83.21130507522162L488.20816,76.9397375318739L490.676,71.57564686404334L493.14384,62.17275228765277L495.61168,63.098655343055725L498.07952,66.37717958953647L500.54736,55.40527582168579L503.0152,57.977887623839926L505.48304,99.78294488456515L507.95088,91.66925870709952L510.41872,83.23881950643329L512.88656,74.221526450581L515.3543999999999,70.15267388688193L517.8222400000001,63.685921165678224L520.29008,64.73013377851908L522.75792,64.56005364656448L525.2257599999999,62.766672008567404L527.6936,79.04102113511829L530.1614400000001,69.8941331108411L532.62928,65.20912706851959L535.09712,58.49298424190943L537.5649599999999,81.68251888619528L540.0328,74.6531684531106L542.5006400000001,64.71427927414578L544.96848,60.444511440065185L547.43632,61.12440751658545L549.9041599999999,55.469742483562875L552.372,58.95410064193936L554.83984,54.938654038641175L557.30768,128.7494551969899L559.77552,114.77577567100525L562.2433599999999,110.24980154302386L564.7112,98.85844002167386L567.17904,92.40683022472592L569.64688,85.01629670461017L572.11472,75.88207979996997L574.58256,74.98030804925497L577.0504,68.98424685001373L579.51824,67.07928445604114L581.98608,58.86573986874686L584.45392,58.319446080260825L586.92176,52.91462057166631L589.3896,92.10111293527814L591.85744,82.86285552713605L594.32528,76.6688127650155L596.7931199999999,68.12631842162875L599.26096,62.68495264980527L601.7288,57.016330659389496L604.19664,55.30275834931268L606.66448,56.56421512365341L609.1323199999999,55.05215730932025L611.60016,55.05389256609811L614.068,59.64978880352442L616.53584,131.0885626077652L619.00368,116.06597029500536L621.4715199999999,97.31066587898465L623.93936,99.80777528550891L626.4072,86.84068825509814L628.87504,71.52483754687842L631.34288,70.9169483847088L633.81072,67.79073973496753L636.27856,61.814003553655425L638.7464,60.461601846747946L641.21424,56.70226166645687L643.68208,53.879435824023346L646.14992,49.96756782134373L648.61776,98.21643246544733L651.0856,84.0013587474823L653.55344,73.67000192403793L656.02128,70.34900758001538L658.48912,65.12663371033136L660.95696,59.88057795498105L663.4248,55.357874598768035L665.89264,58.37896913290024L668.3604799999999,56.264777216646394L670.82832,145.08933835559418L673.29616,135.42550610171423L675.764,121.58041659328671L678.23184,113.58264931374124L680.69968,104.0811884072092L683.16752,95.87153878476886L685.63536,86.103016866578L688.1032,83.33243598540622L690.57104,78.79371583461761L693.03888,71.13590283526315L695.50672,69.43503909640845L697.97456,71.78161809841794L700.4424,70.87474044826297L702.91024,63.52991034587223L705.37808,58.342453837394714L707.84592,54.976917074786286L710.31376,64.56997831662494L712.7816,60.659633345074106L715.24944,61.61737024784088L717.71728,58.46492052078247L720.18512,50.69756163491144L722.65296,80.95035288068982L725.1207999999999,67.77510994010504L727.58864,70.15331056382922L730.05648,60.45803146229849L732.52432,58.308322959476065L734.99216,53.82898853884802L737.46,86.37183186080722L739.92784,76.99210733175278L742.3956800000001,70.97268882724973L744.86352,67.0300605893135L747.33136,62.51880493428973L749.7991999999999,61.463094684812745L752.2670400000001,55.87933798631031L754.73488,82.09814409414929L757.20272,69.0085529287656L759.67056,57.159171005090066L762.1384,60.882470276620666L764.60624,56.652326219611716L767.07408,65.15915417008932L769.54192,61.36979030238257L772.00976,52.42912318971423L774.4775999999999,86.93480408853952L776.9454400000001,79.78694435622958L779.41328,70.04904535081653L781.88112,64.09519208802118L784.3489599999999,57.74738560120266L786.8168000000001,57.38766312599182L789.28464,54.900366034772674L791.75248,92.44141052166623L794.22032,75.14063828521307L796.68816,66.59446120262146L799.156,59.14938569068909L801.6238400000001,58.099904888206076L804.09168,54.880579113960266L806.55952,56.56023277176752L809.0273599999999,56.7321480313937L811.4952000000001,53.78326015339957L813.96304,85.59115356869165L816.43088,77.31372906102075L818.89872,72.21648093726901L821.36656,62.59541839361191L823.8344,53.062167333232026L826.3022399999999,81.20975504318875L828.77008,72.11124198304282L831.23792,70.97786962985992L833.7057599999999,62.46260258886548L836.1736000000001,61.56601164076062L838.64144,57.125115030341696L841.10928,53.783060411612205L843.57712,83.28426076306238L846.0449600000001,76.48521261082755L848.5128,70.07835745811462L850.9806399999999,66.20063281721536L853.44848,59.906457000308585L855.91632,60.02557800875769L858.38416,57.22552273008557L860.8520000000001,56.36824346250956L863.31984,53.610670765240975L865.78768,53.551372422112365L868.2555199999999,59.117052488856864L870.7233600000001,49.01275214221744L873.1912,54.955856800079346L875.6590399999999,51.27578914165497L878.12688,57.19865745968287L880.59472,50.9554782178667L883.06256,80.05361212624445L885.5304000000001,74.52980293167963L887.99824,71.86771929264069L890.46608,60.26998705334132L892.93392,56.26658737659454L895.4017600000001,54.76681368218527L897.8696,70.05918224652606L900.33744,61.78392993079291L902.80528,59.24802068206998L905.2731200000001,56.18833853138818L907.74096,56.43488231632443L910.2087999999999,53.19931503799228L912.67664,54.97272249725131L915.14448,52.18163063128788L917.61232,62.36661417616739L920.0801600000001,57.27117621236379L922.548,51.81667741802005L925.01584,53.270747694704255L927.4836799999999,69.49501156806946L929.9515200000001,63.53904853264492L932.41936,54.88468630446329L934.8871999999999,80.2556883957651L937.35504,69.97128337621689L939.82288,58.64171697033777L942.29072,55.55418332417805L944.7585600000001,50.104990171061615L947.2264,74.62531695763272L949.69424,66.75711343685788L952.16208,59.34874047835667L954.6299200000001,56.239697138468436L957.09776,56.46446906858022L959.5655999999999,53.65144305759008L962.03344,51.96985440121756L964.5012800000001,51.740014023250986L966.96912,92.37373550732929L969.4369599999999,79.19313699007034L971.9048,73.566048807568L974.37264,63.68533442417782L976.84048,57.08976073397531L979.3083200000001,59.85315091080134L981.77616,86.2963918844859L984.2439999999999,83.30369813574686L986.71184,78.3394655585289L989.1796800000001,72.37788478533429L991.64752,58.807527621587106L994.1153599999999,56.52955992354288L996.5832,50.28121236297818L999.0510400000001,86.99044466018677L1001.51888,76.17364039023715L1003.9867200000001,69.17199164628983L1006.45456,64.24697087870703L1008.9223999999999,59.12168400155173L1011.39024,54.49341711070804L1013.8580800000001,78.43306955364017L1016.32592,62.71556307872135L1018.7937599999999,56.05373753441705L1021.2616,50.001411570443054L1023.7294400000001,50.909188058641234L1026.1972799999999,61.824452545907775L1028.66512,55.721467071109366L1031.1329600000001,52.666790948973755L1033.6008,51.691926187939096L1036.06864,54.35237444109385L1038.53648,50.55041435692044L1041.00432,60.87595370080737L1043.47216,59.59258774916332L1045.94,53.80581849151189L1048.40784,56.77657809522418L1050.8756799999999,49.723333550824066L1053.34352,52.15867280960083L1055.8113600000001,51.92948159244327L1058.2792,84.15574666526584L1060.74704,70.1922227607833L1063.21488,62.294831971327476L1065.68272,55.16931835148068L1068.15056,52.87404802110461L1070.6183999999998,52.26273828082616L1073.08624,94.74956419732837L1075.5540799999999,84.28180870082645L1078.02192,75.77182233333588L1080.4897600000002,72.48906605773504L1082.9576,63.0287582013342L1085.42544,59.362822274367026L1087.89328,149.4837200972769L1090.36112,137.3418475356367L1092.82896,127.95060040222273L1095.2967999999998,113.81247720784609L1097.76464,108.2468595604102L1100.23248,96.31114549107019L1102.70032,93.13164323568344L1105.1681600000002,85.95319804218082L1107.636,79.65301748779086L1110.10384,73.53041986624402L1112.57168,71.02232466141385L1115.03952,59.30022819174661L1117.50736,59.532090955310416L1119.9751999999999,57.07480506764517L1122.44304,56.350990765624594L1124.91088,52.88165069288676L1127.37872,53.47991479767694L1129.8465600000002,52.446300983428955L1132.3144,56.51139590475293L1134.78224,56.07593384053973L1137.25008,56.280419495370666L1139.71792,55.04224512312146L1142.18576,62.13991973135205L1144.6535999999999,62.29988793532055L1147.1214400000001,52.61799153354434L1149.58928,49.742209149731536L1152.05712,50.93285746044581L1154.52496,53.658746116691184L1156.9928,54.453668495019265L1159.46064,51.56089557541742L1161.92848,52.459583812289786L1164.39632,69.32791507906381L1166.86416,60.00692711936102L1169.3319999999999,56.84231811099584L1171.79984,49.62449881765576L1174.26768,92.56200462579727L1176.73552,88.07091040743722L1179.20336,72.23908921082813L1181.6712,66.69793993234634L1184.13904,63.52435502741071L1186.60688,57.08411802848179L1189.07472,51.590369972917756L1191.54256,48.90182054705088L1194.0104,51.44821623961132L1196.47824,50.02394494083194L1198.94608,62.69843522045346L1201.41392,55.72517477803762L1203.88176,55.73452519045935L1206.3496,51.31280379162894L1208.81744,49.44627920786541L1211.28528,52.24613474475012L1213.7531199999999,47.18295507960851L1216.22096,96.16728146870929L1218.6888,85.87714635663565L1221.15664,75.40679421689777L1223.62448,61.181608570946594L1226.09232,59.30192599693935L1228.56016,55.4669960339864L1231.028,83.82543616824682L1233.49584,68.32743343379764L1235.96368,66.76248149739371L1238.4315199999999,55.86991267071829L1240.8993600000001,54.13344495826299L1243.3672,51.16355922487048L1245.83504,53.713887333869934L1248.30288,52.50440087583331L1250.77072,75.93341343932684L1253.23856,64.0544073118104L1255.7064,64.15537678533133L1258.17424,53.51699186695947L1260.64208,47.77422822184031L1263.1099199999999,50.529453953107186L1265.5777600000001,47.6032492518425L1268.0456,47.31449753046036L1270.51344,49.80431636174519L1272.98128,70.73862890402478L1275.44912,62.987848586506296L1277.91696,58.62768510977428L1280.3848,55.873270829518624L1282.85264,53.37809642155964L1285.32048,54.02241349220276L1287.7883199999999,52.66436907980176L1290.2561600000001,50.12023296621112L1292.724,75.6986669037077L1295.19184,62.94665184285907L1297.65968,57.12174438767965L1300.12752,57.06610381603241L1302.59536,50.77584793170292L1305.0632,53.12900592883427L1307.53104,70.36273982789783L1309.99888,64.8226017422146L1312.46672,53.48425918155248L1314.93456,49.45765200588437L1317.4024,49.875861373212615L1319.87024,115.92679396271706L1322.33808,103.43713349766199L1324.80592,95.30519591437445L1327.27376,81.15532540612753" style="fill: none;" fill="none"></path></g><g><path stroke="rgb(255, 112, 67)" stroke-width="2px" d="M122.96784000000001,316.21898856427936L125.43568,290.57952726880706L127.90351999999999,289.4655610786544L130.37136,283.0140761203236L132.8392,267.86882986625034L135.30704,270.5763048264715L137.77488,270.3259284959899L140.24272,263.1509725418356L142.71056,259.04790795511667L145.1784,256.75170757704313L147.64624,250.6088111963537L150.11408,259.8980495747593L152.58192,242.68442405594715L155.04976,246.63838764031726L157.5176,231.8546381303006L159.98544,237.73045009209045L162.45328,232.19712819490167L164.92112,226.98343685103788L167.38896,220.4654800105426L169.8568,212.2237868508738L172.32464000000002,215.5779935336775L174.79248,205.89414340754348L177.26032,210.5375182093121L179.72816,199.84220444328253L182.196,194.83319537507163L184.66384,199.99802020274933L187.13168,191.90006525152262L189.59951999999998,193.22376343939038L192.06736,193.50277150670684L194.5352,189.30971388187675L197.00304,184.898761374255L199.47088,187.3241431928343L201.93872,187.31537796143027L204.40656,185.12446959399512L206.8744,184.3259518634942L209.34224,182.96475059456293L211.81008,175.75204968452454L214.27792,176.41320124268532L216.74576,174.52280751532976L219.2136,181.16045181949931L221.68144,175.4614971660905L224.14928,169.40530744691688L226.61712,170.46673530505763L229.08496,166.41170549723836L231.5528,163.62796662582292L234.02064000000001,161.672447712885L236.48848,163.1189652532339L238.95632,162.61333764427235L241.42416,157.0272683103879L243.892,151.54518018166226L246.35984,145.7773489422268L248.82768000000002,149.2712634967433L251.29552,147.2140853769249L253.76336,147.43805209795636L256.2312,138.97103518247604L258.69903999999997,143.48431322309705L261.16688,143.69976595044136L263.63472,140.2325418922636L266.10256,141.97071365184252L268.5704,133.53600497047108L271.03824,132.3136913445261L273.50608,134.23721099893254L275.97392,128.36710572242737L278.44176,125.1758062177234L280.9096,125.95955553981992L283.37744,125.52265158957903L285.84528,120.55480493439569L288.31311999999997,115.51139346427385L290.78096,115.36529483066664L293.2488,116.73107923732863L295.71664,111.86890847153131L298.18448,116.3912560376856L300.65232,111.0330827203062L303.12016,109.90401105748282L305.588,116.36715594265195L308.05584,111.74886989924642L310.52368,102.63576944669086L312.99152,110.54324095447856L315.45936,109.66493886378078L317.92719999999997,108.75964042213229L320.39504,97.62080245547823L322.86288,104.47997288571463L325.33072,98.66129487752914L327.79856,95.22840768098831L330.2664,106.84614530867998L332.73424,94.2994960149129L335.20208,91.66326645347806L337.66992,94.54411728514566L340.13776,90.01359903150137L342.6056,94.06134138504666L345.07344,87.58802215258282L347.54128,88.38365611102847L350.00912,99.32035538885327L352.47696,81.73712329732047L354.9448,91.81163714991675L357.41264,79.27009999752045L359.88048,86.24379737509622L362.34832,77.78692983918722L364.81615999999997,90.47361685170068L367.284,96.69961829980213L369.75184,91.51930256022348L372.21968,84.4417519370715L374.68752,78.81601201163397L377.15536,70.17943928639096L379.6232,88.12064611249502L382.09103999999996,77.77166207631427L384.55888,80.90261459350586L387.02672,94.96698313289217L389.49456,92.67736799187128L391.9624,86.47841907209818L394.43023999999997,88.32083731889725L396.89808,92.28518747621115L399.36592,86.48434890641107L401.83376,96.60134534041089L404.3016,101.00005898210736L406.76944,97.32911702659396L409.23728,102.56182753377489L411.70511999999997,109.56355742282335L414.17296,114.25144723720018L416.6408,110.18357465664548L419.10864,108.286864095264L421.57648,127.46210065152911L424.04431999999997,109.3861492640442L426.51216,108.62656869822077L428.98,92.5701316197713L431.44784,97.3212272259924L433.91568,104.35875458849802L436.38352,103.34869782129925L438.85136,90.79186793830661L441.3192,87.53725028700296L443.78704,100.11526528331967L446.25488,82.12318672074213L448.72272,77.45371060238944L451.19056,99.25999591747922L453.6584,96.53486877679825L456.12624,110.75041063957742L458.59408,106.97376782695454L461.06192,85.2767350276311L463.52976,109.22394020689859L465.9976,101.85197018914751L468.46544,112.86281112167569L470.93328,103.99346431096393L473.40112,97.7437310417493L475.86896,98.44119191169739L478.3368,106.38679537508222L480.80464,110.79231896334223L483.27248,111.35614009367094L485.74032,117.45925664901733L488.20816,104.94642613662614L490.676,99.64089102215235L493.14384,104.78628315859369L495.61168,105.05025441447896L498.07952,98.62590312957764L500.54736,92.71684196260242L503.0152,108.73760640621185L505.48304,100.70030897855759L507.95088,90.53106758329602L510.41872,114.33643112579983L512.88656,116.52002707123756L515.3543999999999,114.64852766858206L517.8222400000001,96.37131770451862L520.29008,113.73125720355245L522.75792,108.96131720807819L525.2257599999999,120.82627274923853L527.6936,107.38175291154118L530.1614400000001,117.98399080832797L532.62928,125.16651822461023L535.09712,122.89495474762384L537.5649599999999,142.95170798897743L540.0328,153.22940917478667L542.5006400000001,145.6911291513178L544.96848,135.54447106189195L547.43632,130.4811291065481L549.9041599999999,141.94967210292816L552.372,127.69412570529512L554.83984,123.72412660055689L557.30768,108.10096066859035L559.77552,131.27965932091075L562.2433599999999,121.5364421904087L564.7112,111.38725611898633L567.17904,132.61586945917873L569.64688,114.49359046088324L572.11472,125.42764940195612L574.58256,119.22328248620033L577.0504,116.56322747468948L579.51824,124.54783676399126L581.98608,102.793028652668L584.45392,113.34732852048342L586.92176,102.51742243766785L589.3896,143.78054277764426L591.85744,186.9380813298954L594.32528,183.62633908788365L596.7931199999999,178.8758583118518L599.26096,197.30449361726642L601.7288,182.0290008932352L604.19664,193.95711073031026L606.66448,194.581144646638L609.1323199999999,196.92714392931924L611.60016,193.68367202579975L614.068,169.57848045561047L616.53584,169.91742666396829L619.00368,156.89907153447467L621.4715199999999,137.0205129351881L623.93936,138.62407121393414L626.4072,137.38756343722343L628.87504,164.71975835661095L631.34288,147.03858100705673L633.81072,137.7362064851655L636.27856,138.11851850814287L638.7464,160.0010115570492L641.21424,176.27353491882485L643.68208,176.28472982181444L646.14992,215.37464820158976L648.61776,221.8781935941014L651.0856,217.80825415419207L653.55344,191.30781368662912L656.02128,223.51623776058352L658.48912,251.01869070695506L660.95696,230.85277545783254L663.4248,199.0549089242187L665.89264,195.1037690333194L668.3604799999999,223.31823279046353L670.82832,210.66969860500342L673.29616,231.38861089116995L675.764,194.29828530798352L678.23184,210.04366917264025L680.69968,199.58469670679835L683.16752,175.70027598904238L685.63536,188.5514503634638L688.1032,224.1075592777795L690.57104,210.62078283608167L693.03888,225.37881432308092L695.50672,216.641517120103L697.97456,202.2044545929465L700.4424,212.61186641796178L702.91024,210.74084900940454L705.37808,241.43740174671012L707.84592,210.37082559273887L710.31376,222.18403650240765L712.7816,235.68766274385985L715.24944,226.87055933392708L717.71728,228.14143206096355L720.18512,212.57575411711719L722.65296,218.0075262362758L725.1207999999999,227.33349057535327L727.58864,224.72039204918678L730.05648,220.55635628186997L732.52432,215.89807272578275L734.99216,230.56279875752L737.46,228.28972629374925L739.92784,228.22360864116087L742.3956800000001,217.4250823052393L744.86352,211.81188085840807L747.33136,210.20944027540583L749.7991999999999,226.13922350522546L752.2670400000001,228.58591839671135L754.73488,202.23353808952703L757.20272,217.25919987178509L759.67056,218.28567057641015L762.1384,218.58215136867432L764.60624,213.3176733346449L767.07408,216.78960068772233L769.54192,234.8438910146554L772.00976,226.23729360186394L774.4775999999999,215.57856545059218L776.9454400000001,235.3835558725728L779.41328,214.72605930951732L781.88112,218.7994228386217L784.3489599999999,207.60558721919853L786.8168000000001,206.12282746781904L789.28464,224.3196912979086L791.75248,218.43445324028528L794.22032,220.8742445562449L796.68816,201.63831380506355L799.156,209.98733911145894L801.6238400000001,226.3273927527997L804.09168,207.07656192748493L806.55952,209.13316183969278L809.0273599999999,211.644934760924L811.4952000000001,239.556851544314L813.96304,214.42648681087627L816.43088,215.52422085983886L818.89872,213.3172836040871L821.36656,233.23361173686055L823.8344,228.5709502465195L826.3022399999999,211.49809548320866L828.77008,203.37629206478596L831.23792,198.9496379800969L833.7057599999999,201.1949744241105L836.1736000000001,197.7096830970711L838.64144,175.93209505909016L841.10928,215.7167485356331L843.57712,225.12948975794848L846.0449600000001,233.09035006082718L848.5128,213.17684094007643L850.9806399999999,206.14536356905268L853.44848,208.97740635387083L855.91632,207.5975737503419L858.38416,208.37381676046385L860.8520000000001,194.59239572700528L863.31984,216.99050581496624L865.78768,199.6116353198886L868.2555199999999,225.1915829256177L870.7233600000001,202.3850484771861L873.1912,215.13304568516708L875.6590399999999,197.42065985169677L878.12688,203.10650059849854L880.59472,216.12043371010157L883.06256,210.1772842858918L885.5304000000001,204.02347769277787L887.99824,228.50854342182475L890.46608,207.0639742936732L892.93392,205.76252839424546L895.4017600000001,202.9371542835401L897.8696,210.23316405028004L900.33744,208.5339265782386L902.80528,217.19296752371724L905.2731200000001,222.76538185361358L907.74096,226.21170168535576L910.2087999999999,223.62671993672848L912.67664,206.7448458256614L915.14448,210.72670937800365L917.61232,217.44958890601993L920.0801600000001,219.23155327224072L922.548,211.1616249806765L925.01584,212.13307228456767L927.4836799999999,216.93020642217664L929.9515200000001,217.1260688495305L932.41936,212.7432573069301L934.8871999999999,206.36339733480577L937.35504,223.1251246150997L939.82288,224.09971004972851L942.29072,214.37636059501932L944.7585600000001,199.7925865546697L947.2264,185.69745699978535L949.69424,208.28415571504996L952.16208,157.7988208995925L954.6299200000001,191.52830053120852L957.09776,182.22477905452251L959.5655999999999,203.2542950866951L962.03344,179.5099854303731L964.5012800000001,153.70582454734375L966.96912,172.15990586413278L969.4369599999999,215.92285436164173L971.9048,181.99666769140293L974.37264,226.97420347481966L976.84048,239.71956307689345L979.3083200000001,233.74928885449964L981.77616,255.44269977344402L984.2439999999999,264.9218083255821L986.71184,284.7579093111886L989.1796800000001,275.12459385726186L991.64752,262.4129391213258L994.1153599999999,256.0207493851582L996.5832,283.3930924038092L999.0510400000001,263.43414397703276L1001.51888,217.9789413139224L1003.9867200000001,259.04371649854716L1006.45456,236.49632361200122L1008.9223999999999,257.6677358978325L1011.39024,245.80595125754672L1013.8580800000001,270.49961646397907L1016.32592,295.48732654915915L1018.7937599999999,289.69490210215247L1021.2616,278.3901473714245L1023.7294400000001,289.8026315867901L1026.1972799999999,282.74092922608054L1028.66512,283.86845289005174L1031.1329600000001,278.2423197229703L1033.6008,277.2187366916073L1036.06864,269.87152841356067L1038.53648,277.47905641794205L1041.00432,298.2283955812454L1043.47216,306.2153081430329L1045.94,311.98876336216927L1048.40784,296.1891692545679L1050.8756799999999,312.652511563566L1053.34352,311.01690721180705L1055.8113600000001,310.72304959098494L1058.2792,299.3130122125149L1060.74704,286.53646012147266L1063.21488,264.21086488498577L1065.68272,266.2492735187212L1068.15056,275.556685278813L1070.6183999999998,268.92546392149393L1073.08624,288.4440254006121L1075.5540799999999,298.4410394397047L1078.02192,290.63508669535315L1080.4897600000002,286.6985630657938L1082.9576,294.4037648042043L1085.42544,284.6971878078249L1087.89328,291.3439827826288L1090.36112,297.6733942992157L1092.82896,278.8953193194336L1095.2967999999998,295.76808859904605L1097.76464,287.6759058733781L1100.23248,279.8755895925892L1102.70032,293.8940986659792L1105.1681600000002,299.7855513460106L1107.636,300.4299121101697L1110.10384,296.27311698264543L1112.57168,306.8217741449674L1115.03952,305.3984578616089L1117.50736,321.56345460149976L1119.9751999999999,292.9681144654751L1122.44304,291.5938847263654L1124.91088,302.26020228531627L1127.37872,298.30075204372406L1129.8465600000002,293.1953394744131L1132.3144,309.2681428955661L1134.78224,310.02859108977844L1137.25008,309.52846262190076L1139.71792,298.8670012851556L1142.18576,315.29980182647705L1144.6535999999999,302.88339666194383L1147.1214400000001,308.75322729349136L1149.58928,313.76866242951814L1152.05712,302.51755709449446L1154.52496,300.60818165540695L1156.9928,303.28174420528944L1159.46064,299.786918328868L1161.92848,296.4677903221713L1164.39632,305.48481497499677L1166.86416,288.65315505199965L1169.3319999999999,311.568956060542L1171.79984,317.33558260732224L1174.26768,305.4333564970228L1176.73552,309.88624385661547L1179.20336,299.6908987065156L1181.6712,307.2197908659776L1184.13904,295.57881452971037L1186.60688,306.287602186203L1189.07472,304.0675783322917L1191.54256,301.5650883813699L1194.0104,294.1262298325697L1196.47824,317.1170900596513L1198.94608,299.22081265184613L1201.41392,300.2299643390709L1203.88176,304.4423313770029L1206.3496,284.55934724873964L1208.81744,308.8679789503415L1211.28528,313.56569356388513L1213.7531199999999,312.1140513983038L1216.22096,301.1993237170908L1218.6888,304.0638831092252L1221.15664,299.8093393445015L1223.62448,308.65777568684683L1226.09232,304.74401637911797L1228.56016,313.1709476146433L1231.028,301.35015997621747L1233.49584,300.87327021691533L1235.96368,323.0773725112279L1238.4315199999999,310.46629400716887L1240.8993600000001,302.3633626765675L1243.3672,307.36040908429356L1245.83504,306.55551210045815L1248.30288,315.622072716554L1250.77072,307.1360865732034L1253.23856,296.6478200919098L1255.7064,308.48880661858453L1258.17424,301.31008678012427L1260.64208,305.853557040294L1263.1099199999999,285.36313316888277L1265.5777600000001,295.57669851515027L1268.0456,322.18211733632614L1270.51344,301.146604369084L1272.98128,307.0520764258173L1275.44912,302.4979387058152L1277.91696,307.7776509523392L1280.3848,308.9503537118435L1282.85264,300.34944113757876L1285.32048,308.55547668205367L1287.7883199999999,295.06889247232016L1290.2561600000001,314.2480864127477L1292.724,302.72624981072215L1295.19184,316.8552160925335L1297.65968,305.24269671903716L1300.12752,311.77392858597966L1302.59536,291.05162946714296L1305.0632,312.7067477007707L1307.53104,320.06526635752783L1309.99888,287.71896271242036L1312.46672,294.0815376076433L1314.93456,312.34729987051753L1317.4024,292.83917489979L1319.87024,293.2850984401173L1322.33808,305.4632740716139L1324.80592,303.4052657749918L1327.27376,302.4994242853588" style="fill: none;" fill="none"></path></g></g></g></g></g></g><g transform="translate(50, 377)" clip-path="url(#clip_1)"><clipPath id="clip_1"><rect width="1446" height="23"></rect></clipPath><g><g><line x1="0" y1="0" x2="0" y2="5" style="visibility: inherit;" fill="rgb(0, 0, 0)" stroke="rgb(204, 204, 204)" stroke-width="1px"></line><line x1="120.5" y1="0" x2="120.5" y2="5" style="visibility: inherit;" fill="rgb(0, 0, 0)" stroke="rgb(204, 204, 204)" stroke-width="1px"></line><line x1="241" y1="0" x2="241" y2="5" style="visibility: inherit;" fill="rgb(0, 0, 0)" stroke="rgb(204, 204, 204)" stroke-width="1px"></line><line x1="361.5" y1="0" x2="361.5" y2="5" style="visibility: inherit;" fill="rgb(0, 0, 0)" stroke="rgb(204, 204, 204)" stroke-width="1px"></line><line x1="482" y1="0" x2="482" y2="5" style="visibility: inherit;" fill="rgb(0, 0, 0)" stroke="rgb(204, 204, 204)" stroke-width="1px"></line><line x1="602.5" y1="0" x2="602.5" y2="5" style="visibility: inherit;" fill="rgb(0, 0, 0)" stroke="rgb(204, 204, 204)" stroke-width="1px"></line><line x1="723" y1="0" x2="723" y2="5" style="visibility: inherit;" fill="rgb(0, 0, 0)" stroke="rgb(204, 204, 204)" stroke-width="1px"></line><line x1="843.5" y1="0" x2="843.5" y2="5" style="visibility: inherit;" fill="rgb(0, 0, 0)" stroke="rgb(204, 204, 204)" stroke-width="1px"></line><line x1="964" y1="0" x2="964" y2="5" style="visibility: inherit;" fill="rgb(0, 0, 0)" stroke="rgb(204, 204, 204)" stroke-width="1px"></line><line x1="1084.5" y1="0" x2="1084.5" y2="5" style="visibility: inherit;" fill="rgb(0, 0, 0)" stroke="rgb(204, 204, 204)" stroke-width="1px"></line><line x1="1205" y1="0" x2="1205" y2="5" style="visibility: inherit;" fill="rgb(0, 0, 0)" stroke="rgb(204, 204, 204)" stroke-width="1px"></line><line x1="1325.5" y1="0" x2="1325.5" y2="5" style="visibility: inherit;" fill="rgb(0, 0, 0)" stroke="rgb(204, 204, 204)" stroke-width="1px"></line><line x1="1446" y1="0" x2="1446" y2="5" style="visibility: inherit;" fill="rgb(0, 0, 0)" stroke="rgb(204, 204, 204)" stroke-width="1px"></line></g><g transform="translate(0, 8)"><text x="0" y="0" dx="0em" dy="0.95em" style="text-anchor: middle; visibility: hidden; font-family: Roboto, sans-serif; font-size: 12px; font-weight: 200;" fill="rgb(33, 33, 33)" stroke="none" stroke-width="1px">-100k</text><text x="120.5" y="0" dx="0em" dy="0.95em" style="text-anchor: middle; visibility: inherit; font-family: Roboto, sans-serif; font-size: 12px; font-weight: 200;" fill="rgb(33, 33, 33)" stroke="none" stroke-width="1px">0</text><text x="241" y="0" dx="0em" dy="0.95em" style="text-anchor: middle; visibility: inherit; font-family: Roboto, sans-serif; font-size: 12px; font-weight: 200;" fill="rgb(33, 33, 33)" stroke="none" stroke-width="1px">100k</text><text x="361.5" y="0" dx="0em" dy="0.95em" style="text-anchor: middle; visibility: inherit; font-family: Roboto, sans-serif; font-size: 12px; font-weight: 200;" fill="rgb(33, 33, 33)" stroke="none" stroke-width="1px">200k</text><text x="482" y="0" dx="0em" dy="0.95em" style="text-anchor: middle; visibility: inherit; font-family: Roboto, sans-serif; font-size: 12px; font-weight: 200;" fill="rgb(33, 33, 33)" stroke="none" stroke-width="1px">300k</text><text x="602.5" y="0" dx="0em" dy="0.95em" style="text-anchor: middle; visibility: inherit; font-family: Roboto, sans-serif; font-size: 12px; font-weight: 200;" fill="rgb(33, 33, 33)" stroke="none" stroke-width="1px">400k</text><text x="723" y="0" dx="0em" dy="0.95em" style="text-anchor: middle; visibility: inherit; font-family: Roboto, sans-serif; font-size: 12px; font-weight: 200;" fill="rgb(33, 33, 33)" stroke="none" stroke-width="1px">500k</text><text x="843.5" y="0" dx="0em" dy="0.95em" style="text-anchor: middle; visibility: inherit; font-family: Roboto, sans-serif; font-size: 12px; font-weight: 200;" fill="rgb(33, 33, 33)" stroke="none" stroke-width="1px">600k</text><text x="964" y="0" dx="0em" dy="0.95em" style="text-anchor: middle; visibility: inherit; font-family: Roboto, sans-serif; font-size: 12px; font-weight: 200;" fill="rgb(33, 33, 33)" stroke="none" stroke-width="1px">700k</text><text x="1084.5" y="0" dx="0em" dy="0.95em" style="text-anchor: middle; visibility: inherit; font-family: Roboto, sans-serif; font-size: 12px; font-weight: 200;" fill="rgb(33, 33, 33)" stroke="none" stroke-width="1px">800k</text><text x="1205" y="0" dx="0em" dy="0.95em" style="text-anchor: middle; visibility: inherit; font-family: Roboto, sans-serif; font-size: 12px; font-weight: 200;" fill="rgb(33, 33, 33)" stroke="none" stroke-width="1px">900k</text><text x="1325.5" y="0" dx="0em" dy="0.95em" style="text-anchor: middle; visibility: inherit; font-family: Roboto, sans-serif; font-size: 12px; font-weight: 200;" fill="rgb(33, 33, 33)" stroke="none" stroke-width="1px">1M</text><text x="1446" y="0" dx="0em" dy="0.95em" style="text-anchor: middle; visibility: hidden; font-family: Roboto, sans-serif; font-size: 12px; font-weight: 200;" fill="rgb(33, 33, 33)" stroke="none" stroke-width="1px">1.1M</text></g><line x1="0" y1="0" x2="1446" y2="0" fill="rgb(0, 0, 0)" stroke="rgb(204, 204, 204)" stroke-width="1px"></line></g></g></g></g></svg>