<svg viewBox="0 0 1496 400" xmlns="http://www.w3.org/2000/svg"><g><g><g><g><g><line x1="51.5625" y1="377" x2="46.5625" y2="377" style="visibility: inherit;" fill="rgb(0, 0, 0)" stroke="rgb(204, 204, 204)" stroke-width="1px"></line><line x1="51.5625" y1="348" x2="46.5625" y2="348" style="visibility: inherit;" fill="rgb(0, 0, 0)" stroke="rgb(204, 204, 204)" stroke-width="1px"></line><line x1="51.5625" y1="319" x2="46.5625" y2="319" style="visibility: inherit;" fill="rgb(0, 0, 0)" stroke="rgb(204, 204, 204)" stroke-width="1px"></line><line x1="51.5625" y1="290" x2="46.5625" y2="290" style="visibility: inherit;" fill="rgb(0, 0, 0)" stroke="rgb(204, 204, 204)" stroke-width="1px"></line><line x1="51.5625" y1="261" x2="46.5625" y2="261" style="visibility: inherit;" fill="rgb(0, 0, 0)" stroke="rgb(204, 204, 204)" stroke-width="1px"></line><line x1="51.5625" y1="232" x2="46.5625" y2="232" style="visibility: inherit;" fill="rgb(0, 0, 0)" stroke="rgb(204, 204, 204)" stroke-width="1px"></line><line x1="51.5625" y1="203.00000000000003" x2="46.5625" y2="203.00000000000003" style="visibility: inherit;" fill="rgb(0, 0, 0)" stroke="rgb(204, 204, 204)" stroke-width="1px"></line><line x1="51.5625" y1="174" x2="46.5625" y2="174" style="visibility: inherit;" fill="rgb(0, 0, 0)" stroke="rgb(204, 204, 204)" stroke-width="1px"></line><line x1="51.5625" y1="145" x2="46.5625" y2="145" style="visibility: inherit;" fill="rgb(0, 0, 0)" stroke="rgb(204, 204, 204)" stroke-width="1px"></line><line x1="51.5625" y1="116.00000000000004" x2="46.5625" y2="116.00000000000004" style="visibility: inherit;" fill="rgb(0, 0, 0)" stroke="rgb(204, 204, 204)" stroke-width="1px"></line><line x1="51.5625" y1="87.00000000000003" x2="46.5625" y2="87.00000000000003" style="visibility: inherit;" fill="rgb(0, 0, 0)" stroke="rgb(204, 204, 204)" stroke-width="1px"></line><line x1="51.5625" y1="58" x2="46.5625" y2="58" style="visibility: inherit;" fill="rgb(0, 0, 0)" stroke="rgb(204, 204, 204)" stroke-width="1px"></line><line x1="51.5625" y1="29.00000000000002" x2="46.5625" y2="29.00000000000002" style="visibility: inherit;" fill="rgb(0, 0, 0)" stroke="rgb(204, 204, 204)" stroke-width="1px"></line><line x1="51.5625" y1="0" x2="46.5625" y2="0" style="visibility: inherit;" fill="rgb(0, 0, 0)" stroke="rgb(204, 204, 204)" stroke-width="1px"></line></g><g transform="translate(41.5625, 0)"><text x="0" y="377" dx="0em" dy="0.3em" style="text-anchor: end; visibility: hidden; font-family: Roboto, sans-serif; font-size: 12px; font-weight: 200;" fill="rgb(33, 33, 33)" stroke="none" stroke-width="1px">-0.3</text><text x="0" y="348" dx="0em" dy="0.3em" style="text-anchor: end; visibility: inherit; font-family: Roboto, sans-serif; font-size: 12px; font-weight: 200;" fill="rgb(33, 33, 33)" stroke="none" stroke-width="1px">-0.2</text><text x="0" y="319" dx="0em" dy="0.3em" style="text-anchor: end; visibility: inherit; font-family: Roboto, sans-serif; font-size: 12px; font-weight: 200;" fill="rgb(33, 33, 33)" stroke="none" stroke-width="1px">-0.1</text><text x="0" y="290" dx="0em" dy="0.3em" style="text-anchor: end; visibility: inherit; font-family: Roboto, sans-serif; font-size: 12px; font-weight: 200;" fill="rgb(33, 33, 33)" stroke="none" stroke-width="1px">0</text><text x="0" y="261" dx="0em" dy="0.3em" style="text-anchor: end; visibility: inherit; font-family: Roboto, sans-serif; font-size: 12px; font-weight: 200;" fill="rgb(33, 33, 33)" stroke="none" stroke-width="1px">0.1</text><text x="0" y="232" dx="0em" dy="0.3em" style="text-anchor: end; visibility: inherit; font-family: Roboto, sans-serif; font-size: 12px; font-weight: 200;" fill="rgb(33, 33, 33)" stroke="none" stroke-width="1px">0.2</text><text x="0" y="203.00000000000003" dx="0em" dy="0.3em" style="text-anchor: end; visibility: inherit; font-family: Roboto, sans-serif; font-size: 12px; font-weight: 200;" fill="rgb(33, 33, 33)" stroke="none" stroke-width="1px">0.3</text><text x="0" y="174" dx="0em" dy="0.3em" style="text-anchor: end; visibility: inherit; font-family: Roboto, sans-serif; font-size: 12px; font-weight: 200;" fill="rgb(33, 33, 33)" stroke="none" stroke-width="1px">0.4</text><text x="0" y="145" dx="0em" dy="0.3em" style="text-anchor: end; visibility: inherit; font-family: Roboto, sans-serif; font-size: 12px; font-weight: 200;" fill="rgb(33, 33, 33)" stroke="none" stroke-width="1px">0.5</text><text x="0" y="116.00000000000004" dx="0em" dy="0.3em" style="text-anchor: end; visibility: inherit; font-family: Roboto, sans-serif; font-size: 12px; font-weight: 200;" fill="rgb(33, 33, 33)" stroke="none" stroke-width="1px">0.6</text><text x="0" y="87.00000000000003" dx="0em" dy="0.3em" style="text-anchor: end; visibility: inherit; font-family: Roboto, sans-serif; font-size: 12px; font-weight: 200;" fill="rgb(33, 33, 33)" stroke="none" stroke-width="1px">0.7</text><text x="0" y="58" dx="0em" dy="0.3em" style="text-anchor: end; visibility: inherit; font-family: Roboto, sans-serif; font-size: 12px; font-weight: 200;" fill="rgb(33, 33, 33)" stroke="none" stroke-width="1px">0.8</text><text x="0" y="29.00000000000002" dx="0em" dy="0.3em" style="text-anchor: end; visibility: inherit; font-family: Roboto, sans-serif; font-size: 12px; font-weight: 200;" fill="rgb(33, 33, 33)" stroke="none" stroke-width="1px">0.9</text><text x="0" y="0" dx="0em" dy="0.3em" style="text-anchor: end; visibility: hidden; font-family: Roboto, sans-serif; font-size: 12px; font-weight: 200;" fill="rgb(33, 33, 33)" stroke="none" stroke-width="1px">1</text></g><line x1="51.5625" y1="0" x2="51.5625" y2="377" fill="rgb(0, 0, 0)" stroke="rgb(204, 204, 204)" stroke-width="1px"></line></g></g><g transform="translate(51, 0)" clip-path="url(#clip_0)"><clipPath id="clip_0"><rect width="1444" height="377"></rect></clipPath><g><g><g><line x1="0" y1="0" x2="0" y2="377" fill="rgb(0, 0, 0)" stroke="rgb(66, 66, 66)" stroke-width="1px" opacity="0.25"></line><line x1="120.36979166666666" y1="0" x2="120.36979166666666" y2="377" fill="rgb(0, 0, 0)" stroke="rgb(66, 66, 66)" stroke-width="1px" opacity="0.25"></line><line x1="240.73958333333331" y1="0" x2="240.73958333333331" y2="377" fill="rgb(0, 0, 0)" stroke="rgb(66, 66, 66)" stroke-width="1px" opacity="0.25"></line><line x1="361.109375" y1="0" x2="361.109375" y2="377" fill="rgb(0, 0, 0)" stroke="rgb(66, 66, 66)" stroke-width="1px" opacity="0.25"></line><line x1="481.47916666666663" y1="0" x2="481.47916666666663" y2="377" fill="rgb(0, 0, 0)" stroke="rgb(66, 66, 66)" stroke-width="1px" opacity="0.25"></line><line x1="601.8489583333334" y1="0" x2="601.8489583333334" y2="377" fill="rgb(0, 0, 0)" stroke="rgb(66, 66, 66)" stroke-width="1px" opacity="0.25"></line><line x1="722.21875" y1="0" x2="722.21875" y2="377" fill="rgb(0, 0, 0)" stroke="rgb(66, 66, 66)" stroke-width="1px" opacity="0.25"></line><line x1="842.5885416666667" y1="0" x2="842.5885416666667" y2="377" fill="rgb(0, 0, 0)" stroke="rgb(66, 66, 66)" stroke-width="1px" opacity="0.25"></line><line x1="962.9583333333333" y1="0" x2="962.9583333333333" y2="377" fill="rgb(0, 0, 0)" stroke="rgb(66, 66, 66)" stroke-width="1px" opacity="0.25"></line><line x1="1083.328125" y1="0" x2="1083.328125" y2="377" fill="rgb(0, 0, 0)" stroke="rgb(66, 66, 66)" stroke-width="1px" opacity="0.25"></line><line x1="1203.6979166666667" y1="0" x2="1203.6979166666667" y2="377" fill="rgb(0, 0, 0)" stroke="rgb(66, 66, 66)" stroke-width="1px" opacity="0.25"></line><line x1="1324.0677083333333" y1="0" x2="1324.0677083333333" y2="377" fill="rgb(0, 0, 0)" stroke="rgb(66, 66, 66)" stroke-width="1px" opacity="0.25"></line><line x1="1444.4375" y1="0" x2="1444.4375" y2="377" fill="rgb(0, 0, 0)" stroke="rgb(66, 66, 66)" stroke-width="1px" opacity="0.25"></line></g><g><line x1="0" y1="377" x2="1444.4375" y2="377" fill="rgb(0, 0, 0)" stroke="rgb(66, 66, 66)" stroke-width="1px" opacity="0.25"></line><line x1="0" y1="348" x2="1444.4375" y2="348" fill="rgb(0, 0, 0)" stroke="rgb(66, 66, 66)" stroke-width="1px" opacity="0.25"></line><line x1="0" y1="319" x2="1444.4375" y2="319" fill="rgb(0, 0, 0)" stroke="rgb(66, 66, 66)" stroke-width="1px" opacity="0.25"></line><line x1="0" y1="290" x2="1444.4375" y2="290" fill="rgb(0, 0, 0)" stroke="rgb(66, 66, 66)" stroke-width="1px" opacity="0.25"></line><line x1="0" y1="261" x2="1444.4375" y2="261" fill="rgb(0, 0, 0)" stroke="rgb(66, 66, 66)" stroke-width="1px" opacity="0.25"></line><line x1="0" y1="232" x2="1444.4375" y2="232" fill="rgb(0, 0, 0)" stroke="rgb(66, 66, 66)" stroke-width="1px" opacity="0.25"></line><line x1="0" y1="203.00000000000003" x2="1444.4375" y2="203.00000000000003" fill="rgb(0, 0, 0)" stroke="rgb(66, 66, 66)" stroke-width="1px" opacity="0.25"></line><line x1="0" y1="174" x2="1444.4375" y2="174" fill="rgb(0, 0, 0)" stroke="rgb(66, 66, 66)" stroke-width="1px" opacity="0.25"></line><line x1="0" y1="145" x2="1444.4375" y2="145" fill="rgb(0, 0, 0)" stroke="rgb(66, 66, 66)" stroke-width="1px" opacity="0.25"></line><line x1="0" y1="116.00000000000004" x2="1444.4375" y2="116.00000000000004" fill="rgb(0, 0, 0)" stroke="rgb(66, 66, 66)" stroke-width="1px" opacity="0.25"></line><line x1="0" y1="87.00000000000003" x2="1444.4375" y2="87.00000000000003" fill="rgb(0, 0, 0)" stroke="rgb(66, 66, 66)" stroke-width="1px" opacity="0.25"></line><line x1="0" y1="58" x2="1444.4375" y2="58" fill="rgb(0, 0, 0)" stroke="rgb(66, 66, 66)" stroke-width="1px" opacity="0.25"></line><line x1="0" y1="29.00000000000002" x2="1444.4375" y2="29.00000000000002" fill="rgb(0, 0, 0)" stroke="rgb(66, 66, 66)" stroke-width="1px" opacity="0.25"></line><line x1="0" y1="0" x2="1444.4375" y2="0" fill="rgb(0, 0, 0)" stroke="rgb(66, 66, 66)" stroke-width="1px" opacity="0.25"></line></g></g></g><g><g><line x1="0" y1="290" x2="1444.4375" y2="290" fill="rgb(0, 0, 0)" stroke="rgb(153, 153, 153)" stroke-width="1.5px"></line></g></g><g><g><line x1="120.36979166666666" y1="0" x2="120.36979166666666" y2="377" fill="rgb(0, 0, 0)" stroke="rgb(153, 153, 153)" stroke-width="1.5px"></line></g></g><g><g><g><g><g><path stroke="rgb(0, 153, 136)" stroke-width="2px" d="M122.83496500000001,335.0898215174675L125.30013833333334,317.56474905181676L127.76531166666666,318.47396567539903L130.23048500000002,303.9530768547796L132.69565833333334,300.87808096364506L135.16083166666667,294.2475099666417L137.626005,292.6504539582198L140.09117833333332,289.01346383918803L142.55635166666667,281.260354915837L145.021525,270.99250799775416L147.48669833333332,270.6126947970756L149.95187166666665,270.91563327252527L152.417045,267.1757974476671L154.88221833333333,260.7009129428646L157.34739166666665,259.8231696616429L159.812565,255.81044144270274L162.27773833333333,259.8682170239085L164.74291166666669,254.1938658736895L167.208085,247.75570864813676L169.67325833333334,247.78012374102906L172.13843166666666,241.73012878060547L174.60360500000002,241.44885602260132L177.06877833333334,235.83589861268328L179.53395166666667,235.643573979035L181.999125,235.44632651726118L184.46429833333332,234.52899298542303L186.92947166666664,237.288421424054L189.39464499999997,237.6755198422923L191.85981833333335,233.76358070382588L194.32499166666668,231.27390388290215L196.790165,230.64169674856052L199.25533833333333,229.47706111783913L201.72051166666665,228.4282929904042L204.185685,228.8755964292164L206.65085833333333,226.14219124702976L209.1160316666667,226.71742443194267L211.581205,223.76316494275875L214.04637833333334,220.74771156699188L216.51155166666666,217.03124004245743L218.97672500000002,220.09507243828816L221.44189833333334,216.59624960736062L223.90707166666667,219.32468591294233L226.372245,214.00076388063218L228.83741833333332,219.16392778690013L231.30259166666664,217.9366589505312L233.76776500000003,216.76129823432012L236.23293833333335,221.2676986189719L238.69811166666668,223.65290422039834L241.163285,217.75828146209886L243.62845833333333,219.10096247954607L246.09363166666665,213.71813511824044L248.558805,214.81805512890801L251.02397833333333,212.00208633890605L253.48915166666666,213.54418736547902L255.95432499999998,218.02667559296577L258.4194983333333,216.7004125184453L260.88467166666663,209.60112767616567L263.349845,210.41781376123237L265.81501833333334,208.28619831991062L268.28019166666667,209.5451051842682L270.745365,205.1380110294527L273.2105383333333,209.43420854275865L275.6757116666667,207.91356436649224L278.140885,204.927669121261L280.60605833333335,205.76559624280665L283.0712316666667,207.31041348699415L285.536405,206.96588359310434L288.0015783333333,211.25421149751074L290.4667516666667,211.72074152958712L292.93192500000004,208.93944879729935L295.39709833333336,207.71621680473916L297.8622716666667,208.29204366335648L300.327445,208.14040282803404L302.79261833333334,204.85440861843603L305.25779166666666,204.71470279492488L307.722965,207.9938265263888L310.1881383333333,203.63788179039076L312.65331166666664,205.58494312452746L315.11848499999996,206.48894228272127L317.5836583333333,202.68734048445512L320.0488316666667,206.00094098233873L322.514005,206.58389591207325L324.9791783333333,207.20270492452514L327.44435166666665,206.15834115635238L329.909525,205.64704035932354L332.3746983333333,201.9058377457531L334.8398716666667,201.80985074716043L337.305045,203.41136146472235L339.77021833333333,194.82780056528057L342.23539166666666,197.57683597404838L344.700565,207.69426573752813L347.1657383333333,205.63651042842537L349.6309116666667,201.82414876022148L352.096085,206.42930881141547L354.56125833333334,198.85437760328608L357.02643166666667,195.70836003765672L359.491605,198.8217322596622L361.9567783333334,194.82805589250995L364.42195166666664,195.58631181366607L366.887125,199.52180480746847L369.35229833333335,195.82491836421744L371.8174716666667,194.3165159313265L374.282645,194.15276003410716L376.7478183333333,197.21649427730023L379.21299166666665,192.68296181868425L381.678165,198.5482529384548L384.1433383333333,196.17465577022162L386.6085116666667,200.66177845892864L389.07368499999995,198.98736203251815L391.53885833333334,199.67711522900183L394.00403166666666,197.8389388008304L396.469205,200.57013032933398L398.93437833333337,201.84172521889406L401.39955166666664,191.38673395431158L403.864725,196.90622812817165L406.3298983333333,194.5997892994265L408.7950716666667,191.03599829546098L411.26024499999994,197.01044227523494L413.7254183333333,200.32914940025145L416.1905916666667,199.07487001124463L418.655765,207.17598155798578L421.12093833333336,198.66656396187582L423.5861116666666,186.8986290299728L426.051285,188.05463061355556L428.5164583333334,192.7447593547285L430.98163166666666,193.76143016441947L433.44680500000004,200.61323713078667L435.9119783333333,195.79997271784882L438.3771516666667,191.40644997649633L440.842325,189.7791299241379L443.30749833333334,187.49525696144073L445.77267166666667,185.80526834789256L448.237845,185.43469802178942L450.7030183333333,185.71364471696623L453.16819166666664,184.6185393892694L455.63336499999997,189.4773168422561L458.09853833333335,183.94518584357385L460.5637116666667,192.5336721560162L463.028885,190.43390494709024L465.4940583333333,189.81245471313483L467.95923166666665,189.0615125493698L470.42440500000004,187.9055771825608L472.8895783333333,194.81732318388796L475.3547516666667,194.44407623760324L477.81992499999996,191.8096484050299L480.28509833333334,198.5096478048054L482.7502716666666,190.82970771688747L485.215445,189.11964245735717L487.68061833333337,182.18777411043118L490.14579166666664,181.23505731141253L492.610965,186.918416975234L495.0761383333333,184.71408293145538L497.5413116666667,187.44536653457666L500.00648500000005,188.1868197637712L502.4716583333333,194.3016001056382L504.9368316666667,187.33970680658516L507.402005,185.86635517373378L509.86717833333336,187.03197149810015L512.3323516666667,183.3414093755294L514.797525,187.4551408352023L517.2626983333333,187.7924870766142L519.7278716666666,190.96975489359735L522.193045,189.06270530165216L524.6582183333333,188.20957807505715L527.1233916666666,178.53610830190533L529.588565,182.11533556391456L532.0537383333333,176.99314242607147L534.5189116666667,173.43971565965293L536.9840849999999,176.02479622127697L539.4492583333333,181.1111370644694L541.9144316666667,177.75142609606536L544.379605,184.557978388848L546.8447783333334,178.20346503089797L549.3099516666666,180.87560384649592L551.775125,176.66030054794882L554.2402983333333,182.60722354356727L556.7054716666667,181.42296824040585L559.170645,174.25635870207887L561.6358183333333,173.18152413314309L564.1009916666667,170.70485022989348L566.566165,171.8763919313397L569.0313383333333,175.59287200210372L571.4965116666667,176.84553986691165L573.961685,179.41919592560964L576.4268583333334,171.45368306363605L578.8920316666666,177.55983989551652L581.357205,182.52694941231604L583.8223783333334,177.21079824369545L586.2875516666667,177.47426353693842L588.752725,167.60173882723353L591.2178983333333,173.58743051100075L593.6830716666667,172.16910254602615L596.148245,175.54089529302706L598.6134183333334,178.484436410588L601.0785916666667,174.69499870414847L603.543765,175.5924608962257L606.0089383333334,164.56854490378615L608.4741116666667,164.43054466211268L610.939285,160.56726973511857L613.4044583333334,158.88881421839048L615.8696316666667,166.80451307746677L618.3348050000001,168.2037452104861L620.7999783333333,157.52372427244035L623.2651516666667,158.63756527578263L625.730325,171.95541125580928L628.1954983333334,166.26326979425704L630.6606716666666,162.50465298430416L633.125845,160.60077646217522L635.5910183333333,161.8228924205409L638.0561916666667,164.05116128507294L640.521365,159.4563965057316L642.9865383333333,164.0086915525784L645.4517116666667,162.0379148979777L647.916885,163.1583895122882L650.3820583333334,169.03548931097248L652.8472316666666,168.87048754105126L655.312405,172.56418545847626L657.7775783333333,168.28116559866368L660.2427516666667,161.49789824416223L662.7079249999999,170.4467460771202L665.1730983333333,160.5749005830168L667.6382716666666,155.32125823234793L670.103445,152.00385947546522L672.5686183333333,150.31377732468346L675.0337916666666,151.74922764130056L677.498965,160.46557485954537L679.9641383333333,153.51201379237514L682.4293116666666,151.2511387106058L684.894485,159.52941421486594L687.3596583333333,160.25896658788716L689.8248316666667,161.60340434486025L692.290005,158.36296919688203L694.7551783333333,161.5331830007113L697.2203516666666,159.63765486611584L699.685525,172.8158376487116L702.1506983333334,167.73235964012267L704.6158716666666,159.15280787487103L707.081045,156.36275665962265L709.5462183333333,157.97037671210506L712.0113916666667,166.65119677902547L714.476565,164.92827850652506L716.9417383333333,162.09438310904966L719.4069116666667,165.32965544965066L721.872085,159.53353109423043L724.3372583333332,164.0617689041121L726.8024316666667,163.4422939150228L729.267605,156.224667735618L731.7327783333333,158.10626250965694L734.1979516666668,158.2483678010899L736.663125,162.13371079848994L739.1282983333333,162.8772298198151L741.5934716666668,156.24946509010832L744.0586450000001,156.01769396190195L746.5238183333333,152.0882658274433L748.9889916666666,148.44269157120354L751.4541650000001,151.9956309835241L753.9193383333334,153.0141076588706L756.3845116666666,147.8159273352668L758.849685,154.69190458574568L761.3148583333334,157.63067901205227L763.7800316666667,149.26392829460622L766.2452049999999,154.37224767233567L768.7103783333333,162.69503391757988L771.1755516666667,157.18327675447094L773.640725,153.5033740650727L776.1058983333334,152.8277162343928L778.5710716666666,154.67043647948913L781.036245,153.87500196566592L783.5014183333333,159.99212187451366L785.9665916666667,157.0592011327877L788.431765,166.39657922478526L790.8969383333333,157.44157378609185L793.3621116666667,158.02287128409867L795.827285,163.14222924018574L798.2924583333333,156.663088274626L800.7576316666667,153.8887904123235L803.222805,151.6781502983432L805.6879783333333,157.28215325006607L808.1531516666666,142.43161408977963L810.618325,137.0435603194073L813.0834983333333,129.96707533196422L815.5486716666666,135.87258514401802L818.0138450000001,148.16933594129975L820.4790183333333,145.07396651495992L822.9441916666666,149.13753970378337L825.409365,153.8296375507933L827.8745383333334,154.7869599959148L830.3397116666666,146.4275048435267L832.8048849999999,155.51221527222012L835.2700583333334,157.7679073665334L837.7352316666667,162.15935372434814L840.2004049999999,158.3728188462422L842.6655783333334,160.44887484236753L845.1307516666667,157.84945214464778L847.595925,149.76852801248143L850.0610983333332,147.99278620961138L852.5262716666667,147.41684141208427L854.991445,147.855082049666L857.4566183333333,150.73443334978708L859.9217916666668,142.47070909548933L862.386965,137.34536672239977L864.8521383333333,145.4447025335162L867.3173116666666,149.24702502944047L869.7824850000001,147.76755569969404L872.2476583333333,144.73149561044445L874.7128316666666,148.5362745711617L877.1780050000001,149.0169578426726L879.6431783333334,147.96794173918053L882.1083516666666,156.60692821623016L884.5735250000001,145.8857784907885L887.0386983333334,151.98578454499648L889.5038716666667,155.1636376228643L891.9690449999999,148.5256804374881L894.4342183333334,147.2378887741582L896.8993916666667,141.9943829780112L899.364565,147.67158832581583L901.8297383333334,146.92709473628847L904.2949116666667,142.6595556012335L906.760085,144.6120806498255L909.2252583333333,154.37040638702666L911.6904316666667,149.8377518163774L914.155605,152.19996466080266L916.6207783333333,156.04502280855132L919.0859516666667,152.896152259731L921.5511250000001,149.6618916522406L924.0162983333333,153.68889736717597L926.4814716666666,142.2285106634239L928.946645,145.53354506821273L931.4118183333334,149.5663796969106L933.8769916666666,146.31307453559938L936.342165,147.74350542215763L938.8073383333333,149.40511082642234L941.2725116666667,149.35183367152783L943.737685,138.61673904073103L946.2028583333333,147.67875094778458L948.6680316666666,145.58747040967418L951.133205,140.89684526765512L953.5983783333334,140.5974466839085L956.0635516666666,135.87716813317837L958.528725,132.34275266785565L960.9938983333334,136.59631017004935L963.4590716666667,133.16350390407732L965.9242449999999,148.2795123451548L968.3894183333333,143.29047108850463L970.8545916666667,135.6205441067313L973.319765,130.74895724711982L975.7849383333332,138.94695141946175L978.2501116666667,133.63338601013962L980.715285,138.49003739011846L983.1804583333333,145.59043900282722L985.6456316666668,146.70081267423353L988.110805,154.64339011709052L990.5759783333333,148.49580165028667L993.0411516666666,144.75062177348195L995.5063250000001,132.18186620335615L997.9714983333333,142.58829977190993L1000.4366716666666,143.6285133724004L1002.9018450000001,134.12106010702792L1005.3670183333334,137.89660533301557L1007.8321916666666,135.2481369974168L1010.2973649999999,139.0791600228519L1012.7625383333334,146.6238109637005L1015.2277116666667,133.44741585068118L1017.6928849999999,134.84944082625046L1020.1580583333334,141.36120723085006L1022.6232316666667,137.6676338100219L1025.088405,131.302294324862L1027.5535783333332,137.50998508395378L1030.0187516666667,141.2142823425628L1032.483925,150.1781667642413L1034.9490983333333,141.4706474168669L1037.4142716666668,139.5324121489269L1039.879445,147.87110868538275L1042.3446183333333,148.76759090092693L1044.8097916666668,143.55226682464428L1047.274965,134.96741585040184L1049.7401383333333,140.69081730904634L1052.2053116666666,141.16794721640622L1054.670485,141.70932231162473L1057.1356583333334,146.1582790482908L1059.6008316666666,137.48226348572192L1062.0660050000001,126.16919484146369L1064.5311783333334,132.6701763058182L1066.9963516666667,142.12644164469688L1069.461525,146.71934810106075L1071.9266983333334,149.11001507535053L1074.3918716666667,153.13987579402013L1076.857045,146.1334545997184L1079.3222183333335,139.226498579228L1081.7873916666667,137.64192532017478L1084.252565,135.5370041758695L1086.7177383333335,139.98297292178148L1089.1829116666668,140.59958552232547L1091.648085,136.1801982814739L1094.1132583333333,137.60926299659428L1096.5784316666668,146.17444201331148L1099.043605,146.889050269251L1101.5087783333333,145.50006739147005L1103.9739516666668,145.15714592842755L1106.439125,145.91669671004118L1108.9042983333334,137.24109692731557L1111.3694716666666,140.69497682666213L1113.8346450000001,139.63460527667658L1116.2998183333334,142.0616293120936L1118.7649916666667,144.88625551274748L1121.2301650000002,141.2827612460335L1123.6953383333334,140.1571148336339L1126.1605116666667,135.67847357394746L1128.625685,136.50221244217425L1131.0908583333335,147.6489276630966L1133.5560316666667,152.10098999400668L1136.021205,145.87557683980305L1138.4863783333333,144.91611367819215L1140.9515516666668,148.97186128114168L1143.416725,142.23345928081574L1145.8818983333333,140.55810268335762L1148.3470716666666,131.45025787122975L1150.812245,136.50624976973492L1153.2774183333333,131.99028984559033L1155.7425916666666,140.14492783458505L1158.207765,141.76596780724213L1160.6729383333334,139.01282513205342L1163.1381116666666,139.89878799953541L1165.603285,140.28229943775227L1168.0684583333334,144.1041527501529L1170.5336316666667,139.3299535698763L1172.998805,135.24124430340956L1175.4639783333332,137.4257741375114L1177.9291516666667,144.56785249730024L1180.394325,145.71605103027863L1182.8594983333332,144.07764683253794L1185.3246716666665,135.80139786057015L1187.789845,143.90701800615992L1190.2550183333333,133.82861465234402L1192.7201916666666,131.45347124349382L1195.1853649999998,137.06626979119363L1197.6505383333333,142.27147464517822L1200.1157116666666,131.31270244457767L1202.5808849999999,134.26143714629674L1205.0460583333333,134.21761792208594L1207.5112316666666,130.5144012052169L1209.9764049999999,136.5646954821557L1212.4415783333332,125.88128068727315L1214.9067516666667,126.95078121830264L1217.371925,121.34258405690933L1219.8370983333332,121.8050426025721L1222.3022716666667,134.29650293466645L1224.767445,132.52746335671665L1227.2326183333332,132.81293458942366L1229.6977916666667,136.25416938784002L1232.162965,135.47040953828264L1234.6281383333333,135.93882402535297L1237.0933116666665,130.8690621897937L1239.558485,126.26966395648488L1242.0236583333333,132.41801475687132L1244.4888316666666,132.4678719949919L1246.954005,131.46755200101126L1249.4191783333333,136.5378872243952L1251.8843516666666,140.28375063469358L1254.3495249999999,143.14457699138134L1256.8146983333334,139.37666037367708L1259.2798716666666,137.57617770842862L1261.745045,139.3014174652824L1264.2102183333334,131.50831234173356L1266.6753916666667,134.85244233439195L1269.140565,134.17150520700116L1271.6057383333334,142.16522218834098L1274.0709116666667,140.77114440232955L1276.536085,145.24077378052738L1279.0012583333332,141.3965032240049L1281.4664316666667,137.42332230450486L1283.931605,127.65108257795436L1286.3967783333333,132.3227013961379L1288.8619516666668,134.75218473767663L1291.327125,137.05773484048504L1293.7922983333333,137.30592925153525L1296.2574716666666,133.02971410037495L1298.722645,133.05606798697366L1301.1878183333333,127.06030628901036L1303.6529916666666,125.25885904920884L1306.118165,135.84184554274552L1308.5833383333334,139.38004438314246L1311.0485116666666,134.2200800432766L1313.513685,134.36449555480507L1315.9788583333334,132.3189903970005L1318.4440316666667,138.2630666300918L1320.909205,137.77167345316798L1323.3743783333334,132.60577145356888L1325.8395516666667,130.22003902875755" style="fill: none;" fill="none"></path></g><g><path stroke="rgb(238, 51, 119)" stroke-width="2px" d="M122.83496500000001,330.34471720457077L125.30013833333334,322.8535759728402L127.76531166666666,317.4346727452108L130.23048500000002,304.43512691820024L132.69565833333334,299.6223835082787L135.16083166666667,300.8613612759621L137.626005,292.65195670929654L140.09117833333332,286.40655031738277L142.55635166666667,286.78909632992423L145.021525,283.0720451812201L147.48669833333332,274.7504551754316L149.95187166666665,270.47040242149245L152.417045,264.9119080861075L154.88221833333333,265.4135688994798L157.34739166666665,258.1378065804862L159.812565,257.53677368457744L162.27773833333333,252.88805928868908L164.74291166666669,250.36349851620346L167.208085,250.7347721719526L169.67325833333334,251.15645584614415L172.13843166666666,247.387164501043L174.60360500000002,245.37096467318818L177.06877833333334,245.74111173825324L179.53395166666667,243.21075456573178L181.999125,239.41381070711142L184.46429833333332,237.2110241847362L186.92947166666664,235.67610167506228L189.39464499999997,232.46961350849332L191.85981833333335,229.2484319000727L194.32499166666668,230.37158703536232L196.790165,229.6453372810391L199.25533833333333,230.62630847000727L201.72051166666665,226.2249240853916L204.185685,225.20405734108763L206.65085833333333,222.78908179737206L209.1160316666667,224.824516535159L211.581205,225.33072922564264L214.04637833333334,221.59436650043173L216.51155166666666,220.673011103994L218.97672500000002,222.5139193915456L221.44189833333334,217.5785268018674L223.90707166666667,213.41235391118497L226.372245,207.3779557438257L228.83741833333332,208.0347038682384L231.30259166666664,209.46571453682057L233.76776500000003,213.75206401536656L236.23293833333335,210.68367189508993L238.69811166666668,208.76763550242842L241.163285,210.73186867121163L243.62845833333333,216.25357152635328L246.09363166666665,215.70183683403746L248.558805,217.00521718841225L251.02397833333333,210.8017751656748L253.48915166666666,209.24611360327899L255.95432499999998,211.09431273041184L258.4194983333333,205.61884597717327L260.88467166666663,200.88332531320106L263.349845,206.35788618008604L265.81501833333334,209.2828316597959L268.28019166666667,204.73193151407344L270.745365,197.26390995176354L273.2105383333333,200.98708914275008L275.6757116666667,198.72143415543462L278.140885,193.21918945272574L280.60605833333335,191.979351882695L283.0712316666667,189.94028594765595L285.536405,186.33016518755872L288.0015783333333,188.03614182474684L290.4667516666667,186.46164681436102L292.93192500000004,183.56670979214596L295.39709833333336,181.73675586910778L297.8622716666667,175.75109583217935L300.327445,177.88497318076514L302.79261833333334,171.89289086608545L305.25779166666666,167.6316266867426L307.722965,169.5667698152606L310.1881383333333,166.39651073025135L312.65331166666664,166.70388587121053L315.11848499999996,168.94403307321005L317.5836583333333,164.35685508657892L320.0488316666667,163.34562178378943L322.514005,167.22655889943627L324.9791783333333,164.958971605035L327.44435166666665,156.71940080245275L329.909525,157.75200481367077L332.3746983333333,165.70668718309383L334.8398716666667,162.8329465454291L337.305045,165.91721258553687L339.77021833333333,165.7141519903709L342.23539166666666,158.09685333487806L344.700565,155.49703135441194L347.1657383333333,156.26392218083413L349.6309116666667,150.15148671037122L352.096085,152.8627817128072L354.56125833333334,147.9154987510425L357.02643166666667,149.1910411939849L359.491605,151.0661516204971L361.9567783333334,146.9770687589346L364.42195166666664,142.98230539377323L366.887125,138.74206883082266L369.35229833333335,129.53424586277887L371.8174716666667,118.94344504726935L374.282645,120.77904543908242L376.7478183333333,115.76332188625224L379.21299166666665,120.41461525546958L381.678165,121.42507659308583L384.1433383333333,121.16678182430546L386.6085116666667,125.60096778957539L389.07368499999995,126.13746284537604L391.53885833333334,128.7354874556845L394.00403166666666,125.6900112596503L396.469205,124.57036690517376L398.93437833333337,121.9750876224286L401.39955166666664,129.57253020979442L403.864725,119.00595070110252L406.3298983333333,104.47023177854115L408.7950716666667,109.18556490368779L411.26024499999994,104.48303436533891L413.7254183333333,109.28931150016956L416.1905916666667,110.35569639907938L418.655765,112.20270140115417L421.12093833333336,116.15571989502907L423.5861116666666,115.41721256903651L426.051285,120.72013778884316L428.5164583333334,115.66825296520649L430.98163166666666,105.62209907793675L433.44680500000004,106.62542905583187L435.9119783333333,103.02213720187073L438.3771516666667,101.74040801348998L440.842325,107.98052338971326L443.30749833333334,114.46307556756516L445.77267166666667,109.52543650226698L448.237845,96.94599124286712L450.7030183333333,107.51331932839237L453.16819166666664,107.20725135503108L455.63336499999997,103.8928677826994L458.09853833333335,112.20317925154414L460.5637116666667,107.74542692386655L463.028885,105.2193119709703L465.4940583333333,105.68254557758644L467.95923166666665,103.18252997106363L470.42440500000004,102.70621416870385L472.8895783333333,98.98010133447426L475.3547516666667,96.4145531579386L477.81992499999996,93.07411183861083L480.28509833333334,90.92701476780883L482.7502716666666,91.6923594592113L485.215445,95.45566035020936L487.68061833333337,96.78453274195545L490.14579166666664,95.80322854295461L492.610965,89.72787638053352L495.0761383333333,92.89139091697368L497.5413116666667,94.7153800709667L500.00648500000005,98.9913007011188L502.4716583333333,90.1859226459368L504.9368316666667,84.88126198256633L507.402005,85.77394246938596L509.86717833333336,90.31460022856453L512.3323516666667,89.3852320666889L514.797525,95.72541185353876L517.2626983333333,94.61967914184737L519.7278716666666,84.52689605284216L522.193045,83.76562426882076L524.6582183333333,92.87787026403599L527.1233916666666,82.41638342284118L529.588565,86.38663911666247L532.0537383333333,81.78773178962335L534.5189116666667,94.4230700391976L536.9840849999999,97.63052015652943L539.4492583333333,97.52674144000228L541.9144316666667,91.8489558785582L544.379605,89.81337209280878L546.8447783333334,83.31183230719894L549.3099516666666,78.79001877213678L551.775125,87.04198730889055L554.2402983333333,86.85313542427478L556.7054716666667,78.06215143049869L559.170645,68.15414080527492L561.6358183333333,74.68578725759426L564.1009916666667,66.57946985783724L566.566165,63.003513823882024L569.0313383333333,63.36502767260986L571.4965116666667,74.96180639658046L573.961685,68.70089069601103L576.4268583333334,68.66627058742164L578.8920316666666,85.02941466187076L581.357205,80.39285145291468L583.8223783333334,70.84424639993176L586.2875516666667,73.6517976835565L588.752725,70.61099857778525L591.2178983333333,66.32462937051758L593.6830716666667,70.65546916970435L596.148245,75.10905723004831L598.6134183333334,83.69740355151472L601.0785916666667,79.17551224313722L603.543765,77.00550380279151L606.0089383333334,79.71557297068551L608.4741116666667,74.68006991003583L610.939285,72.17139615210667L613.4044583333334,68.05167945380674L615.8696316666667,72.25901813599864L618.3348050000001,75.66996604975105L620.7999783333333,76.12525958285354L623.2651516666667,71.56090318242087L625.730325,67.39361392902954L628.1954983333334,65.72807423739211L630.6606716666666,60.08070678990231L633.125845,61.18384225059239L635.5910183333333,67.90499820046834L638.0561916666667,64.84792693694361L640.521365,63.366574908732915L642.9865383333333,66.85395721521353L645.4517116666667,60.404258513011754L647.916885,72.70787521812812L650.3820583333334,82.34253337748939L652.8472316666666,80.20134312372265L655.312405,66.35599650419267L657.7775783333333,79.27726887152502L660.2427516666667,83.05620707563106L662.7079249999999,72.26861809189043L665.1730983333333,78.76494249400454L667.6382716666666,65.78255868373482L670.103445,69.55794511090622L672.5686183333333,69.3505495658571L675.0337916666666,65.36614906019298L677.498965,74.3289464189191L679.9641383333333,78.94191416940566L682.4293116666666,74.67395015264437L684.894485,71.73481623950532L687.3596583333333,69.32956552876792L689.8248316666667,65.30947408898923L692.290005,61.08075691356812L694.7551783333333,63.8547882622156L697.2203516666666,61.37100727472747L699.685525,60.2117254204395L702.1506983333334,63.04187618892443L704.6158716666666,55.957821149832306L707.081045,62.39576860618966L709.5462183333333,69.8042111656212L712.0113916666667,82.40589315063612L714.476565,79.93707975367816L716.9417383333333,72.91740751636092L719.4069116666667,73.76131925804657L721.872085,75.85626574649359L724.3372583333332,76.02876479800909L726.8024316666667,74.99212965593557L729.267605,76.71994629636897L731.7327783333333,78.94135322055514L734.1979516666668,79.30186895061311L736.663125,68.74931733327372L739.1282983333333,74.27260971377648L741.5934716666668,78.28036365694025L744.0586450000001,81.22102080456148L746.5238183333333,78.35785113973454L748.9889916666666,72.91723181726361L751.4541650000001,68.91789418412338L753.9193383333334,69.46827114792521L756.3845116666666,64.30790365440762L758.849685,67.04519045772027L761.3148583333334,66.37657387508077L763.7800316666667,78.41976132066922L766.2452049999999,68.46315387530251L768.7103783333333,78.56588270451498L771.1755516666667,80.78769079557578L773.640725,86.25962061710072L776.1058983333334,77.57602216617418L778.5710716666666,73.33736873755547L781.036245,72.50165782624298L783.5014183333333,68.02182890328062L785.9665916666667,70.0271659931677L788.431765,69.88783608920205L790.8969383333333,73.74370700744879L793.3621116666667,75.82271579878385L795.827285,78.15487339482817L798.2924583333333,74.71310230723688L800.7576316666667,71.81432588476933L803.222805,82.27249970185161L805.6879783333333,72.70105522958875L808.1531516666666,91.6903395777252L810.618325,90.60557671340143L813.0834983333333,89.96172301740549L815.5486716666666,91.24136562807024L818.0138450000001,92.35420820511973L820.4790183333333,90.51580808995728L822.9441916666666,95.32946623825171L825.409365,95.5751118508764L827.8745383333334,91.3638814358585L830.3397116666666,91.11983228139124L832.8048849999999,102.95786624200372L835.2700583333334,104.1267652812435L837.7352316666667,90.31444236653053L840.2004049999999,83.43913701186781L842.6655783333334,79.04137770539644L845.1307516666667,84.08523607376884L847.595925,78.86175279691021L850.0610983333332,84.90032580419899L852.5262716666667,82.53647534206225L854.991445,73.2726433763189L857.4566183333333,84.16749160821934L859.9217916666668,90.2462420543176L862.386965,86.34916434765708L864.8521383333333,80.21728879261528L867.3173116666666,82.85413244991605L869.7824850000001,76.60593497532075L872.2476583333333,72.45602409706991L874.7128316666666,67.97618842522193L877.1780050000001,67.25283584833079L879.6431783333334,69.99894095563847L882.1083516666666,76.82353087129567L884.5735250000001,77.03092782415378L887.0386983333334,79.63225250671763L889.5038716666667,79.9068653895286L891.9690449999999,88.97465159379406L894.4342183333334,82.17647486855365L896.8993916666667,78.01100381570919L899.364565,81.17026620124496L901.8297383333334,69.09865482458302L904.2949116666667,72.33858027344245L906.760085,76.2121748822051L909.2252583333333,72.16860341412533L911.6904316666667,62.74322943319502L914.155605,59.4823782231189L916.6207783333333,73.7507515302764L919.0859516666667,72.13704640576043L921.5511250000001,61.46055659597393L924.0162983333333,69.5856518801765L926.4814716666666,70.4710435424278L928.946645,58.71254203045546L931.4118183333334,63.75310467078794L933.8769916666666,60.30504087444844L936.342165,62.95345675847947L938.8073383333333,64.79718167723428L941.2725116666667,66.08198809111846L943.737685,62.172698303966094L946.2028583333333,52.73613579565788L948.6680316666666,41.561652228203435L951.133205,65.08671772776066L953.5983783333334,64.07498343168507L956.0635516666666,66.13158716785199L958.528725,67.96354635970165L960.9938983333334,69.90484323749764L963.4590716666667,73.37249282985822L965.9242449999999,61.60415937894518L968.3894183333333,62.14488846298418L970.8545916666667,54.081735743500936L973.319765,49.312363227259L975.7849383333332,54.75599632266218L978.2501116666667,59.73512640954883L980.715285,59.488453813563765L983.1804583333333,50.0882262874669L985.6456316666668,50.52458065086764L988.110805,59.91012488206719L990.5759783333333,56.32942625522908L993.0411516666666,60.97832458400906L995.5063250000001,60.800267321969116L997.9714983333333,62.323620953026484L1000.4366716666666,59.43352928034249L1002.9018450000001,59.149887742232L1005.3670183333334,63.61375223495407L1007.8321916666666,68.46995550929213L1010.2973649999999,72.32288717352569L1012.7625383333334,67.05167507602704L1015.2277116666667,57.28323492690285L1017.6928849999999,61.000424106623875L1020.1580583333334,59.44949190599097L1022.6232316666667,64.98121858109457L1025.088405,56.598295929845726L1027.5535783333332,52.88292703796417L1030.0187516666667,63.25916253190634L1032.483925,57.29001547492383L1034.9490983333333,48.941270027141826L1037.4142716666668,43.166724391925925L1039.879445,41.59653326758657L1042.3446183333333,40.31796968513085L1044.8097916666668,36.06470892747256L1047.274965,48.651881634712296L1049.7401383333333,57.11226059169777L1052.2053116666666,67.22553487522129L1054.670485,58.940632318870556L1057.1356583333334,50.905551895747394L1059.6008316666666,52.71140145376314L1062.0660050000001,51.96302394339439L1064.5311783333334,52.55558478992579L1066.9963516666667,53.07970874405737L1069.461525,50.23381324348947L1071.9266983333334,51.87484176002801L1074.3918716666667,52.23428244020259L1076.857045,44.85387345925405L1079.3222183333335,47.391712789389125L1081.7873916666667,54.370328739078424L1084.252565,50.44507012056801L1086.7177383333335,50.68062892727551L1089.1829116666668,50.598035998180514L1091.648085,52.00905749025042L1094.1132583333333,46.82667272580922L1096.5784316666668,46.375769718249195L1099.043605,39.42930194363568L1101.5087783333333,44.983301953229734L1103.9739516666668,36.974467751832854L1106.439125,44.56336254921678L1108.9042983333334,46.167155474705254L1111.3694716666666,54.77332971708941L1113.8346450000001,52.174032820564314L1116.2998183333334,43.2346762974869L1118.7649916666667,36.998670921314435L1121.2301650000002,33.08207084273614L1123.6953383333334,30.114761170955415L1126.1605116666667,29.531530843503464L1128.625685,40.535555783705206L1131.0908583333335,43.46307832228919L1133.5560316666667,35.95132016079295L1136.021205,45.82546653113765L1138.4863783333333,46.032971035015606L1140.9515516666668,38.542427951438434L1143.416725,44.0902664270063L1145.8818983333333,34.50400126016489L1148.3470716666666,51.331150603511034L1150.812245,40.15275959504731L1153.2774183333333,41.34588220318012L1155.7425916666666,41.57318197846323L1158.207765,53.89918162321995L1160.6729383333334,46.769876682138175L1163.1381116666666,59.63486373625738L1165.603285,59.08382690073571L1168.0684583333334,52.55414006782488L1170.5336316666667,44.78278802438329L1172.998805,41.40498332145066L1175.4639783333332,42.88898212887199L1177.9291516666667,49.01567997442101L1180.394325,46.653740298190165L1182.8594983333332,45.14284151282223L1185.3246716666665,55.477039441384704L1187.789845,50.47504927213067L1190.2550183333333,50.45702258047507L1192.7201916666666,48.86994885979321L1195.1853649999998,46.657022044528844L1197.6505383333333,57.42230904428324L1200.1157116666666,65.36684568123917L1202.5808849999999,62.141887994986156L1205.0460583333333,57.850775392282834L1207.5112316666666,53.904121441500685L1209.9764049999999,57.007487608705375L1212.4415783333332,63.53359865767618L1214.9067516666667,55.94895057453429L1217.371925,51.24458487375809L1219.8370983333332,51.37677797999521L1222.3022716666667,61.06612449483004L1224.767445,67.13935140130472L1227.2326183333332,68.849036475167L1229.6977916666667,78.05824242838938L1232.162965,63.685697333864695L1234.6281383333333,66.3627355199172L1237.0933116666665,76.95776062614404L1239.558485,63.94571469668556L1242.0236583333333,65.3840043928862L1244.4888316666666,59.335183309712455L1246.954005,55.821425919054995L1249.4191783333333,67.20595431585262L1251.8843516666666,67.46315760766947L1254.3495249999999,78.31735827538665L1256.8146983333334,83.87487708338081L1259.2798716666666,83.81243740801797L1261.745045,71.38322588971128L1264.2102183333334,67.55171535712998L1266.6753916666667,66.99190162600593L1269.140565,73.09016575206226L1271.6057383333334,72.36784189813675L1274.0709116666667,70.87903195544091L1276.536085,78.95123370840555L1279.0012583333332,85.08007984372621L1281.4664316666667,67.44418132908727L1283.931605,55.05713241462459L1286.3967783333333,55.21287308433388L1288.8619516666668,62.21072117268287L1291.327125,67.48753785955458L1293.7922983333333,69.93940424840181L1296.2574716666666,67.59672660780271L1298.722645,67.67525374384117L1301.1878183333333,68.7337425916874L1303.6529916666666,56.14695594128866L1306.118165,59.721164497237844L1308.5833383333334,60.77010285407392L1311.0485116666666,57.694787332714085L1313.513685,65.04832729655537L1315.9788583333334,61.60630765532274L1318.4440316666667,67.56271375998747L1320.909205,73.75384243598513L1323.3743783333334,86.55377407235464L1325.8395516666667,80.65264975644683" style="fill: none;" fill="none"></path></g></g></g></g><g opacity="0.2"><g><g><g><path stroke="rgb(0, 153, 136)" stroke-width="2px" d="M122.83496500000001,335.0898215174675L125.30013833333334,307.0497055724263L127.76531166666666,319.34681363403797L130.23048500000002,286.8765116017312L132.69565833333334,296.86336632817984L135.16083166666667,285.07504327222705L137.626005,290.3666383132805L140.09117833333332,283.71069733053446L142.55635166666667,269.82602521777153L145.021525,255.74595198035237L147.48669833333332,270.04641987383366L149.95187166666665,271.36839240789413L152.417045,261.57825492322445L154.88221833333333,251.00127115845683L157.34739166666665,258.5075864940882L159.812565,249.7941792011261L162.27773833333333,265.9531632810831L164.74291166666669,245.6837798655033L167.208085,238.09945359826088L169.67325833333334,247.81674414873126L172.13843166666666,232.65546813607216L174.60360500000002,241.02695614099503L177.06877833333334,227.41657331585887L179.53395166666667,235.35508930683136L181.999125,235.15045672655108L184.46429833333332,233.15299659967422L186.92947166666664,241.42755702137947L189.39464499999997,238.25616687536242L191.85981833333335,227.89567559957504L194.32499166666668,227.53939002752304L196.790165,229.69338625669482L199.25533833333333,227.73010790348053L201.72051166666665,226.85514092445374L204.185685,229.54655155539513L206.65085833333333,222.0420835912228L209.1160316666667,227.58027419447902L211.581205,219.33177575469014L214.04637833333334,216.22453153133392L216.51155166666666,211.45653277635574L218.97672500000002,224.69082102179524L221.44189833333334,211.34801536798474L223.90707166666667,223.41734036803243L226.372245,206.01488083600995L228.83741833333332,226.90867364406589L231.30259166666664,216.0957556962967L233.76776500000003,214.99825716018674L236.23293833333335,228.02729919552803L238.69811166666668,227.23071262240407L241.163285,208.91634732484815L243.62845833333333,221.1149840056896L246.09363166666665,205.64389407634735L248.558805,216.46793514490125L251.02397833333333,207.7781331539154L253.48915166666666,215.85733890533447L255.95432499999998,224.75040793418884L258.4194983333333,214.71101790666577L260.88467166666663,198.95220041275022L263.349845,211.64284288883206L265.81501833333334,205.08877515792847L268.28019166666667,211.43346548080441L270.745365,198.52736979722977L273.2105383333333,215.8785048127174L275.6757116666667,205.63259810209274L278.140885,200.44882625341413L280.60605833333335,207.02248692512512L283.0712316666667,209.62763935327527L285.536405,206.44908875226974L288.0015783333333,217.68670335412023L290.4667516666667,212.42053657770157L292.93192500000004,204.76750969886777L295.39709833333336,205.88136881589892L297.8622716666667,209.1557839512825L300.327445,207.91294157505033L302.79261833333334,199.92541730403897L305.25779166666666,204.50514405965805L307.722965,212.91251212358472L310.1881383333333,197.1039646863937L312.65331166666664,208.50553512573242L315.11848499999996,207.8449410200119L317.5836583333333,196.98493778705597L320.0488316666667,210.97134172916412L322.514005,207.45832830667496L324.9791783333333,208.13091844320297L327.44435166666665,204.59179550409314L329.909525,204.88008916378018L332.3746983333333,196.2940338253975L334.8398716666667,201.66587024927136L337.305045,205.81362754106522L339.77021833333333,181.95245921611786L342.23539166666666,201.70038908720016L344.700565,222.87041038274765L347.1657383333333,202.54987746477124L349.6309116666667,196.10560625791553L352.096085,213.33704888820648L354.56125833333334,187.4919807910919L357.02643166666667,190.98933368921277L359.491605,203.49179059267044L361.9567783333334,188.8375413417816L364.42195166666664,196.7236956954002L366.887125,205.425044298172L369.35229833333335,190.2795886993408L371.8174716666667,192.05391228199005L374.282645,193.9071261882782L376.7478183333333,201.81209564208984L379.21299166666665,185.8826631307602L381.678165,207.34618961811063L384.1433383333333,192.61426001787186L386.6085116666667,207.3924624919891L389.07368499999995,196.47573739290235L391.53885833333334,200.71174502372742L394.00403166666666,195.08167415857315L396.469205,204.6669176220894L398.93437833333337,203.7491175532341L401.39955166666664,175.7042470574379L403.864725,205.18546938896176L406.3298983333333,191.14013105630875L408.7950716666667,185.69031178951263L411.26024499999994,205.97210824489594L413.7254183333333,205.30721008777616L416.1905916666667,197.19345092773435L418.655765,219.32764887809756L421.12093833333336,185.90243756771088L423.5861116666666,169.2467266321182L426.051285,189.78863298892975L428.5164583333334,199.77995246648788L430.98163166666666,195.28643637895584L433.44680500000004,210.89094758033752L435.9119783333333,188.58007609844208L438.3771516666667,184.81616586446762L440.842325,187.33814984560013L443.30749833333334,184.06944751739502L445.77267166666667,183.27028542757031L448.237845,184.87884253263474L450.7030183333333,186.1320647597313L453.16819166666664,182.97588139772412L455.63336499999997,196.76548302173615L458.09853833333335,175.64698934555054L460.5637116666667,205.41640162467957L463.028885,187.28425413370132L465.4940583333333,188.8802793622017L467.95923166666665,187.93509930372238L470.42440500000004,186.17167413234708L472.8895783333333,205.18494218587875L475.3547516666667,193.88420581817627L477.81992499999996,187.85800665616986L480.28509833333334,208.55964690446854L482.7502716666666,179.30979758501053L485.215445,186.55454456806183L487.68061833333337,171.78997159004211L490.14579166666664,179.80598211288452L492.610965,195.44345647096634L495.0761383333333,181.40758186578748L497.5413116666667,191.54229193925855L500.00648500000005,189.29899960756302L502.4716583333333,203.4737706184387L504.9368316666667,176.89686685800552L507.402005,183.6563277244568L509.86717833333336,188.78039598464966L512.3323516666667,177.80556619167328L514.797525,193.62573802471158L517.2626983333333,188.29850643873215L519.7278716666666,195.73565661907193L522.193045,186.20213091373444L524.6582183333333,186.92988723516464L527.1233916666666,164.02590364217755L529.588565,187.48417645692822L532.0537383333333,169.30985271930695L534.5189116666667,168.10957551002502L536.9840849999999,179.90241706371305L539.4492583333333,188.74064832925797L541.9144316666667,172.7118596434593L544.379605,194.767806828022L546.8447783333334,168.67169499397275L549.3099516666666,184.88381206989285L551.775125,170.33734560012817L554.2402983333333,191.52760803699493L556.7054716666667,179.64658528566358L559.170645,163.50644439458847L561.6358183333333,171.56927227973938L564.1009916666667,166.98983937501907L566.566165,173.63370448350906L569.0313383333333,181.16759210824964L571.4965116666667,178.72454166412354L573.961685,183.27968001365662L576.4268583333334,159.50541377067566L578.8920316666666,186.71907514333725L581.357205,189.97761368751526L583.8223783333334,169.23657149076462L586.2875516666667,177.86946147680283L588.752725,152.79295176267624L591.2178983333333,182.5659680366516L593.6830716666667,170.04161059856415L596.148245,180.59858441352844L598.6134183333334,182.89974808692932L601.0785916666667,169.0108421444893L603.543765,176.93865418434143L606.0089383333334,148.0326709151268L608.4741116666667,164.2235442996025L610.939285,154.77235734462738L613.4044583333334,156.37113094329834L615.8696316666667,178.6780613660812L618.3348050000001,170.3025934100151L620.7999783333333,141.50369286537168L623.2651516666667,160.30832678079605L625.730325,191.93218022584915L628.1954983333334,157.7250576019287L630.6606716666666,156.86672776937485L633.125845,157.74496167898178L635.5910183333333,163.65606635808942L638.0561916666667,167.39356458187103L640.521365,152.5642493367195L642.9865383333333,170.83713412284848L645.4517116666667,159.08174991607666L647.916885,164.83910143375394L650.3820583333334,177.85113900899887L652.8472316666666,168.6229848861694L655.312405,178.1047323346138L657.7775783333333,161.8566358089447L660.2427516666667,151.32299721240994L662.7079249999999,183.87001782655716L665.1730983333333,145.7671323418617L667.6382716666666,147.4407947063446L670.103445,147.0277613401413L672.5686183333333,147.7786540985107L675.0337916666666,153.90240311622617L677.498965,173.54009568691254L679.9641383333333,143.08167219161987L682.4293116666666,147.85982608795163L684.894485,171.94682747125626L687.3596583333333,161.35329514741895L689.8248316666667,163.62006098031998L692.290005,153.50231647491455L694.7551783333333,166.2885037064552L697.2203516666666,156.7943626642227L699.685525,192.5831118226051L702.1506983333334,160.1071426272392L704.6158716666666,146.28348022699356L707.081045,152.17767983675L709.5462183333333,160.3818067908287L712.0113916666667,179.67242687940595L714.476565,162.34390109777448L716.9417383333333,157.84354001283646L719.4069116666667,170.18256396055222L721.872085,150.8393445611L724.3372583333332,170.8541256189346L726.8024316666667,162.51308143138883L729.267605,145.39822846651077L731.7327783333333,160.9286546707153L734.1979516666668,158.4615257382393L736.663125,167.96172529458997L739.1282983333333,163.9925083518028L741.5934716666668,146.30781799554822L744.0586450000001,155.67003726959229L746.5238183333333,146.1941236257553L748.9889916666666,142.97433018684384L751.4541650000001,157.32504010200498L753.9193383333334,154.54182267189026L756.3845116666666,140.01865684986115L758.849685,165.00587046146393L761.3148583333334,162.03884065151215L763.7800316666667,136.7138022184372L766.2452049999999,162.03472673892972L768.7103783333333,175.17921328544617L771.1755516666667,148.9156410098076L773.640725,147.98352003097534L776.1058983333334,151.8142294883728L778.5710716666666,157.43451684713364L781.036245,152.68185019493103L783.5014183333333,169.16780173778534L785.9665916666667,152.6598200201988L788.431765,180.40264636278152L790.8969383333333,144.00906562805173L793.3621116666667,158.89481753110886L795.827285,170.82126617431638L798.2924583333333,146.94437682628632L800.7576316666667,149.72734361886978L803.222805,148.3621901273727L805.6879783333333,165.68815767765045L808.1531516666666,120.15580534934996L810.618325,128.9614796638489L813.0834983333333,119.35234785079956L815.5486716666666,144.7308498620987L818.0138450000001,166.6144621372223L820.4790183333333,140.43091237545013L822.9441916666666,155.23289948701859L825.409365,160.8677843213081L827.8745383333334,156.2229436635971L830.3397116666666,133.88832211494446L832.8048849999999,169.1392809152603L835.2700583333334,161.15144550800323L837.7352316666667,168.74652326107022L840.2004049999999,152.69301652908322L842.6655783333334,163.56295883655548L845.1307516666667,153.95031809806824L847.595925,137.64714181423184L850.0610983333332,145.32917350530622L852.5262716666667,146.5529242157936L854.991445,148.51244300603864L857.4566183333333,155.05346029996872L859.9217916666668,130.07512271404266L862.386965,129.6573531627655L864.8521383333333,157.5937062501907L867.3173116666666,154.95050877332685L869.7824850000001,145.54835170507428L872.2476583333333,140.17740547657016L874.7128316666666,154.24344301223755L877.1780050000001,149.73798274993896L879.6431783333334,146.3944175839424L882.1083516666666,169.56540793180466L884.5735250000001,129.804053902626L887.0386983333334,161.13579362630844L889.5038716666667,159.93041723966599L891.9690449999999,138.56874465942383L894.4342183333334,145.30620127916333L896.8993916666667,134.12912428379062L899.364565,156.1873963475227L901.8297383333334,145.81035435199738L904.2949116666667,136.25824689865115L906.760085,147.54086822271347L909.2252583333333,169.00789499282837L911.6904316666667,143.0387699604034L914.155605,155.74328392744061L916.6207783333333,161.81261003017426L919.0859516666667,148.17284643650052L921.5511250000001,144.81050074100494L924.0162983333333,159.72940593957898L926.4814716666666,125.0379306077957L928.946645,150.49109667539597L931.4118183333334,155.61563163995743L933.8769916666666,141.4331167936325L936.342165,149.88915175199506L938.8073383333333,151.89751893281934L941.2725116666667,149.2719179391861L943.737685,122.51409709453583L946.2028583333333,161.27176880836487L948.6680316666666,142.45054960250854L951.133205,133.86090755462646L953.5983783333334,140.14834880828857L956.0635516666666,128.79675030708313L958.528725,127.0411294698715L960.9938983333334,142.97664642333984L963.4590716666667,128.0142945051193L965.9242449999999,170.9535250067711L968.3894183333333,135.80690920352936L970.8545916666667,124.11565363407135L973.319765,123.44157695770265L975.7849383333332,151.2439426779747L978.2501116666667,125.66303789615631L980.715285,145.77501446008682L983.1804583333333,156.24104142189023L985.6456316666668,148.36637318134308L988.110805,166.55725628137586L990.5759783333333,139.27441895008087L993.0411516666666,139.13285195827484L995.5063250000001,113.32873284816742L997.9714983333333,158.19795012474057L1000.4366716666666,145.18883377313614L1002.9018450000001,119.85988020896912L1005.3670183333334,143.55992317199704L1007.8321916666666,131.27543449401855L1010.2973649999999,144.82569456100464L1012.7625383333334,157.9407873749733L1015.2277116666667,113.68282318115233L1017.6928849999999,136.9524782896042L1020.1580583333334,151.12885683774948L1022.6232316666667,132.1272736787796L1025.088405,121.75428509712216L1027.5535783333332,146.8215212225914L1030.0187516666667,146.77072823047638L1032.483925,163.62399339675903L1034.9490983333333,128.4093683958054L1037.4142716666668,136.6250592470169L1039.879445,160.3791534900665L1042.3446183333333,150.11231422424314L1044.8097916666668,135.72928071022037L1047.274965,122.09013938903807L1049.7401383333333,149.27591949701306L1052.2053116666666,141.88364207744598L1054.670485,142.52138495445251L1057.1356583333334,152.8317141532898L1059.6008316666666,124.46824014186858L1062.0660050000001,109.19959187507628L1064.5311783333334,142.42164850234985L1066.9963516666667,156.3108396530151L1069.461525,153.60870778560636L1071.9266983333334,152.69601553678513L1074.3918716666667,159.18466687202454L1076.857045,135.6238228082657L1079.3222183333335,128.86606454849243L1081.7873916666667,135.26506543159485L1084.252565,132.37962245941162L1086.7177383333335,146.65192604064939L1089.1829116666668,141.52450442314145L1091.648085,129.55111742019656L1094.1132583333333,139.7528600692749L1096.5784316666668,159.0222105383873L1099.043605,147.9609626531601L1101.5087783333333,143.41659307479856L1103.9739516666668,144.64276373386383L1106.439125,147.05602288246155L1108.9042983333334,124.22769725322725L1111.3694716666666,145.87579667568207L1113.8346450000001,138.0440479516983L1116.2998183333334,145.7021653652191L1118.7649916666667,149.12319481372833L1121.2301650000002,135.87751984596252L1123.6953383333334,138.46864521503448L1126.1605116666667,128.96051168441772L1128.625685,137.73782074451447L1131.0908583333335,164.36900049448013L1133.5560316666667,158.77908349037168L1136.021205,136.53745710849762L1138.4863783333333,143.47691893577576L1140.9515516666668,155.05548268556595L1143.416725,132.12585628032684L1145.8818983333333,138.0450677871704L1148.3470716666666,117.78849065303801L1150.812245,144.09023761749265L1153.2774183333333,125.21634995937346L1155.7425916666666,152.37688481807706L1158.207765,144.19752776622772L1160.6729383333334,134.88311111927032L1163.1381116666666,141.22773230075836L1165.603285,140.8575665950775L1168.0684583333334,149.8369327187538L1170.5336316666667,132.16865479946136L1172.998805,129.10818040370938L1175.4639783333332,140.70256888866425L1177.9291516666667,155.28097003698346L1180.394325,147.43834882974625L1182.8594983333332,141.6200405359268L1185.3246716666665,123.38702440261838L1187.789845,156.06544822454453L1190.2550183333333,118.71100962162016L1192.7201916666666,127.89075613021849L1195.1853649999998,145.48546761274338L1197.6505383333333,150.07928192615506L1200.1157116666666,114.87454414367674L1202.5808849999999,138.68453919887543L1205.0460583333333,134.15188908576965L1207.5112316666666,124.95957612991334L1209.9764049999999,145.64013689756393L1212.4415783333332,109.85615849494934L1214.9067516666667,128.55503201484677L1217.371925,112.93028831481934L1219.8370983333332,122.49873042106628L1222.3022716666667,153.03369343280792L1224.767445,129.87390398979187L1227.2326183333332,133.2411414384842L1229.6977916666667,141.41602158546448L1232.162965,134.29476976394653L1234.6281383333333,136.64144575595856L1237.0933116666665,123.26441943645479L1239.558485,119.37056660652158L1242.0236583333333,141.64054095745084L1244.4888316666666,132.54265785217285L1246.954005,129.96707201004028L1249.4191783333333,144.14339005947113L1251.8843516666666,145.90254575014114L1254.3495249999999,147.43581652641296L1256.8146983333334,133.72478544712064L1259.2798716666666,134.87545371055603L1261.745045,141.88927710056305L1264.2102183333334,119.81865465641022L1266.6753916666667,139.86863732337952L1269.140565,133.15009951591492L1271.6057383333334,154.15579766035077L1274.0709116666667,138.68002772331238L1276.536085,151.94521784782407L1279.0012583333332,135.63009738922116L1281.4664316666667,131.46355092525482L1283.931605,112.99272298812868L1286.3967783333333,139.3301296234131L1288.8619516666668,138.3964097499847L1291.327125,140.51605999469757L1293.7922983333333,137.67822086811066L1296.2574716666666,126.61539137363432L1298.722645,133.09559881687161L1301.1878183333333,118.06666374206544L1303.6529916666666,122.55668818950652L1306.118165,151.71632528305054L1308.5833383333334,144.6873426437378L1311.0485116666666,126.48013353347778L1313.513685,134.58111882209778L1315.9788583333334,129.25073266029355L1318.4440316666667,147.17918097972867L1320.909205,137.03458368778226L1323.3743783333334,124.85691845417023L1325.8395516666667,126.64144039154054" style="fill: none;" fill="none"></path></g><g><path stroke="rgb(238, 51, 119)" stroke-width="2px" d="M122.83496500000001,330.34471720457077L125.30013833333334,318.35889123380184L127.76531166666666,312.23252564668655L130.23048500000002,289.1476610256359L132.69565833333334,293.33886571228504L135.16083166666667,302.57531356066465L137.626005,280.9123768284917L140.09117833333332,277.30068784207106L142.55635166666667,287.3532773926854L145.021525,277.5526574254036L147.48669833333332,262.3435463756323L149.95187166666665,264.0736151486635L152.417045,256.592316031456L154.88221833333333,266.1650773137808L157.34739166666665,247.23271548748016L159.812565,256.6356482356787L162.27773833333333,245.9169548749924L164.74291166666669,246.57729834318158L167.208085,251.2916260957718L169.67325833333334,251.7889428138733L172.13843166666666,241.7334342002869L174.60360500000002,242.34673127532005L177.06877833333334,246.2963250279427L179.53395166666667,239.41524878144267L181.999125,233.71842190623283L184.46429833333332,233.9068537950516L186.92947166666664,233.37372183799746L189.39464499999997,227.65988618135452L191.85981833333335,224.4166624546051L194.32499166666668,232.0563191175461L196.790165,228.5559628903866L199.25533833333333,232.09776505827907L201.72051166666665,219.62284803390503L204.185685,223.6727572977543L206.65085833333333,219.16661858558652L209.1160316666667,227.87766858935356L211.581205,226.09004825353622L214.04637833333334,215.98982244729996L216.51155166666666,219.29097801446915L218.97672500000002,225.27528181672096L221.44189833333334,210.1754379272461L223.90707166666667,207.1630945801735L226.372245,198.3263584971428L228.83741833333332,209.01982605457303L231.30259166666664,211.6122305393219L233.76776500000003,220.18158823251724L236.23293833333335,206.081083714962L238.69811166666668,205.8935809135437L241.163285,213.67821842432022L243.62845833333333,224.53612580895424L246.09363166666665,214.87423479557037L248.558805,218.96028771996495L251.02397833333333,201.49661213159564L253.48915166666666,206.91262125968933L255.95432499999998,213.86661142110825L258.4194983333333,197.40564584732056L260.88467166666663,193.78004431724548L263.349845,214.56972748041153L265.81501833333334,213.67024987936023L268.28019166666667,197.90558129549024L270.745365,186.06187760829923L273.2105383333333,206.57185792922974L275.6757116666667,195.32295167446136L278.140885,184.96582239866257L280.60605833333335,190.1195955276489L283.0712316666667,186.88168704509735L285.536405,180.91498404741287L288.0015783333333,190.595106780529L290.4667516666667,184.09990429878235L292.93192500000004,179.22430425882337L295.39709833333336,178.99182498455048L297.8622716666667,166.7726057767868L300.327445,181.0857892036438L302.79261833333334,162.90476739406586L305.25779166666666,161.2397304177284L307.722965,172.46948450803757L310.1881383333333,161.6411221027374L312.65331166666664,167.16494858264923L315.11848499999996,172.30425387620926L317.5836583333333,157.47608810663223L320.0488316666667,161.8287718296051L322.514005,173.04796457290647L324.9791783333333,161.55759066343307L327.44435166666665,144.3600445985794L329.909525,159.3009108304977L332.3746983333333,177.6387107372284L334.8398716666667,158.52233558893204L337.305045,170.54361164569855L339.77021833333333,165.40956109762192L342.23539166666666,146.6709053516388L344.700565,151.59729838371277L347.1657383333333,157.41425842046738L349.6309116666667,140.98283350467682L352.096085,156.92972421646115L354.56125833333334,140.49457430839539L357.02643166666667,151.1043548583984L359.491605,153.87881726026535L361.9567783333334,140.8434444665909L364.42195166666664,136.9901603460312L366.887125,132.3817139863968L369.35229833333335,115.72251141071318L371.8174716666667,103.05724382400511L374.282645,123.53244602680208L376.7478183333333,108.23973655700684L379.21299166666665,127.39155530929565L381.678165,122.94076859951019L384.1433383333333,120.77933967113495L386.6085116666667,132.25224673748016L389.07368499999995,126.94220542907713L391.53885833333334,132.63252437114713L394.00403166666666,121.12179696559906L396.469205,122.89090037345888L398.93437833333337,118.08216869831087L401.39955166666664,140.9686940908432L403.864725,103.15608143806456L406.3298983333333,82.66665339469908L408.7950716666667,116.25856459140775L411.26024499999994,97.42923855781555L413.7254183333333,116.49872720241548L416.1905916666667,111.95527374744415L418.655765,114.97320890426636L421.12093833333336,122.08524763584136L423.5861116666666,114.30945158004761L426.051285,128.6745256185532L428.5164583333334,108.09042572975157L430.98163166666666,90.55286824703218L433.44680500000004,108.13042402267455L435.9119783333333,97.61719942092897L438.3771516666667,99.81781423091888L440.842325,117.34069645404816L443.30749833333334,124.18690383434294L445.77267166666667,102.11897790431978L448.237845,78.07682335376737L450.7030183333333,123.3643114566803L453.16819166666664,106.748149394989L455.63336499999997,98.92129242420195L458.09853833333335,124.66864645481108L460.5637116666667,101.05879843235017L463.028885,101.43013954162598L465.4940583333333,106.37739598751068L467.95923166666665,99.43250656127928L470.42440500000004,101.99174046516418L472.8895783333333,93.39093208312988L475.3547516666667,92.56623089313506L477.81992499999996,88.06344985961915L480.28509833333334,87.70636916160583L482.7502716666666,92.84037649631499L485.215445,101.10061168670653L487.68061833333337,98.77784132957457L490.14579166666664,94.33127224445344L492.610965,80.61484813690186L495.0761383333333,97.63666272163388L497.5413116666667,97.45136380195619L500.00648500000005,105.40518164634706L502.4716583333333,76.97785556316377L504.9368316666667,76.92427098751068L507.402005,87.11296319961548L509.86717833333336,97.12558686733244L512.3323516666667,87.99117982387544L514.797525,105.23568153381348L517.2626983333333,92.96108007431032L519.7278716666666,69.3877214193344L522.193045,82.6237165927887L524.6582183333333,106.54623925685883L527.1233916666666,66.72415316104887L529.588565,92.3420226573944L532.0537383333333,74.88937079906462L534.5189116666667,113.37607741355897L536.9840849999999,102.44169533252716L539.4492583333333,97.37107336521149L541.9144316666667,83.33227753639223L544.379605,86.75999641418458L546.8447783333334,73.5595226287842L549.3099516666666,72.00729846954344L551.775125,99.4199401140213L554.2402983333333,86.56985759735106L556.7054716666667,64.87567543983461L559.170645,53.292124867439284L561.6358183333333,84.48325693607329L564.1009916666667,54.41999375820158L566.566165,57.63957977294923L569.0313383333333,63.9072984457016L571.4965116666667,92.35697448253633L573.961685,59.30951714515686L576.4268583333334,68.61434042453767L578.8920316666666,109.57413077354428L581.357205,73.4380066394806L583.8223783333334,56.52133882045744L586.2875516666667,77.8631246089935L588.752725,66.0497999191284L591.2178983333333,59.8950755596161L593.6830716666667,77.15172886848451L596.148245,81.78943932056426L598.6134183333334,96.5799230337143L601.0785916666667,72.39267528057097L603.543765,73.75049114227292L606.0089383333334,83.78067672252654L608.4741116666667,67.1268153190613L610.939285,68.408385515213L613.4044583333334,61.87210440635681L615.8696316666667,78.57002615928648L618.3348050000001,80.78638792037964L620.7999783333333,76.80819988250734L623.2651516666667,64.71436858177185L625.730325,61.14268004894255L628.1954983333334,63.22976469993593L630.6606716666666,51.609655618667595L633.125845,62.83854544162752L635.5910183333333,77.98673212528229L638.0561916666667,60.26232004165649L640.521365,61.14454686641694L642.9865383333333,72.0850306749344L645.4517116666667,50.729710459709175L647.916885,91.16330027580261L650.3820583333334,96.79452061653137L652.8472316666666,76.9895577430725L655.312405,45.58797657489776L657.7775783333333,98.65917742252351L660.2427516666667,88.72461438179016L662.7079249999999,56.08723461627961L665.1730983333333,88.5094290971756L667.6382716666666,46.308982968330376L670.103445,75.22102475166322L672.5686183333333,69.03945624828336L675.0337916666666,59.38954830169677L677.498965,87.77314245700835L679.9641383333333,85.8613657951355L682.4293116666666,68.27200412750244L684.894485,67.32611536979675L687.3596583333333,65.72168946266174L689.8248316666667,59.27933692932127L692.290005,54.737681150436416L694.7551783333333,68.01583528518677L697.2203516666666,57.64533579349516L699.685525,58.47280263900758L702.1506983333334,67.28710234165192L704.6158716666666,45.33173859119416L707.081045,72.0526897907257L709.5462183333333,80.91687500476839L712.0113916666667,101.30841612815854L714.476565,76.23385965824126L716.9417383333333,62.38789916038513L719.4069116666667,75.02718687057495L721.872085,78.99868547916411L724.3372583333332,76.28751337528227L726.8024316666667,73.43717694282532L729.267605,79.31167125701904L731.7327783333333,82.2734636068344L734.1979516666668,79.84264254570006L736.663125,52.92048990726472L739.1282983333333,82.55754828453064L741.5934716666668,84.29199457168579L744.0586450000001,85.63200652599332L746.5238183333333,74.06309664249422L748.9889916666666,64.75630283355714L751.4541650000001,62.91888773441315L753.9193383333334,70.29383659362792L756.3845116666666,56.56735241413118L758.849685,71.15112066268921L761.3148583333334,65.3736490011215L763.7800316666667,96.4845424890518L766.2452049999999,53.52824270725251L768.7103783333333,93.71997594833371L771.1755516666667,84.12040293216705L773.640725,94.46751534938812L776.1058983333334,64.55062448978423L778.5710716666666,66.97938859462738L781.036245,71.24809145927428L783.5014183333333,61.30208551883696L785.9665916666667,73.03517162799835L788.431765,69.6788412332535L790.8969383333333,79.52751338481902L793.3621116666667,78.94122898578645L795.827285,81.65310978889467L798.2924583333333,69.55044567584989L800.7576316666667,67.46616125106812L803.222805,97.95976042747496L805.6879783333333,58.34388852119446L808.1531516666666,120.1742660999298L810.618325,88.97843241691588L813.0834983333333,88.99594247341157L815.5486716666666,93.16082954406738L818.0138450000001,94.02347207069396L820.4790183333333,87.75820791721341L822.9441916666666,102.54995346069336L825.409365,95.94358026981352L827.8745383333334,85.04703581333162L830.3397116666666,90.75375854969026L832.8048849999999,120.71491718292235L835.2700583333334,105.88011384010315L837.7352316666667,69.59595799446106L840.2004049999999,73.12617897987366L842.6655783333334,72.4447387456894L845.1307516666667,91.65102362632753L847.595925,71.0265278816223L850.0610983333332,93.95818531513214L852.5262716666667,78.99069964885712L854.991445,59.37689542770387L857.4566183333333,100.50976395606993L859.9217916666668,99.36436772346495L862.386965,80.50354778766634L864.8521383333333,71.01947546005248L867.3173116666666,86.8093979358673L869.7824850000001,67.23363876342775L872.2476583333333,66.2311577796936L874.7128316666666,61.256434917449944L877.1780050000001,66.16780698299407L879.6431783333334,74.11809861660004L882.1083516666666,87.0604157447815L884.5735250000001,77.34202325344083L887.0386983333334,83.53423953056335L889.5038716666667,80.31878471374513L891.9690449999999,102.57633090019225L894.4342183333334,71.97920978069304L896.8993916666667,71.76279723644258L899.364565,85.90915977954866L901.8297383333334,50.99123775959013L904.2949116666667,77.19846844673158L906.760085,82.02256679534912L909.2252583333333,66.10324621200562L911.6904316666667,48.60516846179963L914.155605,54.591101408004754L916.6207783333333,95.15331149101256L919.0859516666667,69.71648871898651L921.5511250000001,45.445821881294236L924.0162983333333,81.77329480648038L926.4814716666666,71.79913103580475L928.946645,41.07478976249695L931.4118183333334,71.31394863128662L933.8769916666666,55.132945179939284L936.342165,66.92608058452606L938.8073383333333,67.5627690553665L941.2725116666667,68.0091977119446L943.737685,56.30876362323759L946.2028583333333,38.58129203319551L948.6680316666666,24.799926877021786L951.133205,100.37431597709656L953.5983783333334,62.55738198757172L956.0635516666666,69.21649277210234L958.528725,70.71148514747618L960.9938983333334,72.81678855419158L963.4590716666667,78.57396721839906L965.9242449999999,43.95165920257569L968.3894183333333,62.95598208904268L970.8545916666667,41.987006664276116L973.319765,42.15830445289613L975.7849383333332,62.92144596576691L978.2501116666667,67.20382153987885L980.715285,59.11844491958616L983.1804583333333,35.98788499832152L985.6456316666668,51.17911219596862L988.110805,73.98844122886658L990.5759783333333,50.95837831497194L993.0411516666666,67.95167207717897L995.5063250000001,60.533181428909295L997.9714983333333,64.60865139961243L1000.4366716666666,55.09839177131651L1002.9018450000001,58.72442543506623L1005.3670183333334,70.30954897403718L1007.8321916666666,75.75426042079927L1010.2973649999999,78.1022846698761L1012.7625383333334,59.14485692977906L1015.2277116666667,42.630574703216546L1017.6928849999999,66.57620787620544L1020.1580583333334,57.123093605041504L1022.6232316666667,73.27880859375L1025.088405,44.023911952972405L1027.5535783333332,47.30987370014189L1030.0187516666667,78.82351577281952L1032.483925,48.33629488945005L1034.9490983333333,36.41815185546877L1037.4142716666668,34.50490593910217L1039.879445,39.241246581077576L1042.3446183333333,38.40012431144715L1044.8097916666668,29.684817790985125L1047.274965,67.53264069557191L1049.7401383333333,69.80282902717592L1052.2053116666666,82.39544630050659L1054.670485,46.51327848434447L1057.1356583333334,38.85293126106261L1059.6008316666666,55.42017579078672L1062.0660050000001,50.840457677841165L1064.5311783333334,53.44442605972291L1066.9963516666667,53.865894675254836L1069.461525,45.96496999263764L1071.9266983333334,54.33638453483582L1074.3918716666667,52.773443460464485L1076.857045,33.7832599878311L1079.3222183333335,51.19847178459166L1081.7873916666667,64.83825266361235L1084.252565,44.557182192802415L1086.7177383333335,51.03396713733674L1089.1829116666668,50.47414660453795L1091.648085,54.1255897283554L1094.1132583333333,39.05309557914736L1096.5784316666668,45.699415206909194L1099.043605,29.0096002817154L1101.5087783333333,53.31430196762084L1103.9739516666668,24.961216449737538L1106.439125,55.94670474529268L1108.9042983333334,48.57284486293793L1111.3694716666666,67.68259108066559L1113.8346450000001,48.27508747577665L1116.2998183333334,29.82564151287078L1118.7649916666667,27.644662857055664L1121.2301650000002,27.207170724868792L1123.6953383333334,25.663796663284295L1126.1605116666667,28.656685352325457L1128.625685,57.04159319400786L1131.0908583333335,47.8543621301651L1133.5560316666667,24.6836829185486L1136.021205,60.636686086654656L1138.4863783333333,46.34422779083252L1140.9515516666668,27.306613326072696L1143.416725,52.412024140357985L1145.8818983333333,20.124603509902936L1148.3470716666666,76.57187461853027L1150.812245,23.3851730823517L1153.2774183333333,43.13556611537935L1155.7425916666666,41.91413164138795L1158.207765,72.3881810903549L1160.6729383333334,36.07591927051546L1163.1381116666666,78.9323443174362L1165.603285,58.257271647453294L1168.0684583333334,42.75960981845856L1170.5336316666667,33.12575995922087L1172.998805,36.338276267051704L1175.4639783333332,45.114980340003974L1177.9291516666667,58.20572674274443L1180.394325,43.110830783843994L1182.8594983333332,42.87649333477019L1185.3246716666665,70.97833633422853L1187.789845,42.97206401824952L1190.2550183333333,50.42998254299164L1192.7201916666666,46.48933827877045L1195.1853649999998,43.33763182163241L1197.6505383333333,73.57023954391478L1200.1157116666666,77.28365063667296L1202.5808849999999,57.30445146560667L1205.0460583333333,51.41410648822783L1207.5112316666666,47.98414051532744L1209.9764049999999,61.66253685951233L1212.4415783333332,73.32276523113251L1214.9067516666667,44.571978449821465L1217.371925,44.18803632259368L1219.8370983333332,51.5750676393509L1222.3022716666667,75.60014426708221L1224.767445,76.24919176101685L1227.2326183333332,71.41356408596037L1229.6977916666667,91.87205135822298L1232.162965,42.12687969207764L1234.6281383333333,70.37829279899597L1237.0933116666665,92.85029828548433L1239.558485,44.42764580249788L1242.0236583333333,67.5414389371872L1244.4888316666666,50.26195168495179L1246.954005,50.55078983306885L1249.4191783333333,84.28274691104889L1251.8843516666666,67.8489625453949L1254.3495249999999,94.59865927696228L1256.8146983333334,92.211155295372L1259.2798716666666,83.71877789497377L1261.745045,52.73940861225128L1264.2102183333334,61.80444955825804L1266.6753916666667,66.15218102931976L1269.140565,82.23756194114685L1271.6057383333334,71.28435611724852L1274.0709116666667,68.64581704139708L1276.536085,91.05953633785248L1279.0012583333332,94.27334904670714L1281.4664316666667,40.9903335571289L1283.931605,36.4765590429306L1286.3967783333333,55.446484088897705L1288.8619516666668,72.70749330520628L1291.327125,75.40276288986206L1293.7922983333333,73.61720383167265L1296.2574716666666,64.08271014690399L1298.722645,67.79304444789885L1301.1878183333333,70.32147586345671L1303.6529916666666,37.26677596569062L1306.118165,65.0824773311615L1308.5833383333334,62.34351038932802L1311.0485116666666,53.08181405067443L1313.513685,76.0786372423172L1315.9788583333334,56.443278193473795L1318.4440316666667,76.49732291698456L1320.909205,83.04053544998168L1323.3743783333334,105.75367152690886L1325.8395516666667,71.80096328258513" style="fill: none;" fill="none"></path></g></g></g></g></g><g><g opacity="0.0103267"><span fill="rgb(0, 0, 0)" stroke="none" stroke-width="1px">Alt + Scroll to Zoom</span></g></g></g><g transform="translate(51, 377)" clip-path="url(#clip_1)"><clipPath id="clip_1"><rect width="1444" height="23"></rect></clipPath><g><g><line x1="0" y1="0" x2="0" y2="5" style="visibility: inherit;" fill="rgb(0, 0, 0)" stroke="rgb(204, 204, 204)" stroke-width="1px"></line><line x1="120.36979166666666" y1="0" x2="120.36979166666666" y2="5" style="visibility: inherit;" fill="rgb(0, 0, 0)" stroke="rgb(204, 204, 204)" stroke-width="1px"></line><line x1="240.73958333333331" y1="0" x2="240.73958333333331" y2="5" style="visibility: inherit;" fill="rgb(0, 0, 0)" stroke="rgb(204, 204, 204)" stroke-width="1px"></line><line x1="361.109375" y1="0" x2="361.109375" y2="5" style="visibility: inherit;" fill="rgb(0, 0, 0)" stroke="rgb(204, 204, 204)" stroke-width="1px"></line><line x1="481.47916666666663" y1="0" x2="481.47916666666663" y2="5" style="visibility: inherit;" fill="rgb(0, 0, 0)" stroke="rgb(204, 204, 204)" stroke-width="1px"></line><line x1="601.8489583333334" y1="0" x2="601.8489583333334" y2="5" style="visibility: inherit;" fill="rgb(0, 0, 0)" stroke="rgb(204, 204, 204)" stroke-width="1px"></line><line x1="722.21875" y1="0" x2="722.21875" y2="5" style="visibility: inherit;" fill="rgb(0, 0, 0)" stroke="rgb(204, 204, 204)" stroke-width="1px"></line><line x1="842.5885416666667" y1="0" x2="842.5885416666667" y2="5" style="visibility: inherit;" fill="rgb(0, 0, 0)" stroke="rgb(204, 204, 204)" stroke-width="1px"></line><line x1="962.9583333333333" y1="0" x2="962.9583333333333" y2="5" style="visibility: inherit;" fill="rgb(0, 0, 0)" stroke="rgb(204, 204, 204)" stroke-width="1px"></line><line x1="1083.328125" y1="0" x2="1083.328125" y2="5" style="visibility: inherit;" fill="rgb(0, 0, 0)" stroke="rgb(204, 204, 204)" stroke-width="1px"></line><line x1="1203.6979166666667" y1="0" x2="1203.6979166666667" y2="5" style="visibility: inherit;" fill="rgb(0, 0, 0)" stroke="rgb(204, 204, 204)" stroke-width="1px"></line><line x1="1324.0677083333333" y1="0" x2="1324.0677083333333" y2="5" style="visibility: inherit;" fill="rgb(0, 0, 0)" stroke="rgb(204, 204, 204)" stroke-width="1px"></line><line x1="1444.4375" y1="0" x2="1444.4375" y2="5" style="visibility: inherit;" fill="rgb(0, 0, 0)" stroke="rgb(204, 204, 204)" stroke-width="1px"></line></g><g transform="translate(0, 8)"><text x="0" y="0" dx="0em" dy="0.95em" style="text-anchor: middle; visibility: hidden; font-family: Roboto, sans-serif; font-size: 12px; font-weight: 200;" fill="rgb(33, 33, 33)" stroke="none" stroke-width="1px">-100k</text><text x="120.36979166666666" y="0" dx="0em" dy="0.95em" style="text-anchor: middle; visibility: inherit; font-family: Roboto, sans-serif; font-size: 12px; font-weight: 200;" fill="rgb(33, 33, 33)" stroke="none" stroke-width="1px">0</text><text x="240.73958333333331" y="0" dx="0em" dy="0.95em" style="text-anchor: middle; visibility: inherit; font-family: Roboto, sans-serif; font-size: 12px; font-weight: 200;" fill="rgb(33, 33, 33)" stroke="none" stroke-width="1px">100k</text><text x="361.109375" y="0" dx="0em" dy="0.95em" style="text-anchor: middle; visibility: inherit; font-family: Roboto, sans-serif; font-size: 12px; font-weight: 200;" fill="rgb(33, 33, 33)" stroke="none" stroke-width="1px">200k</text><text x="481.47916666666663" y="0" dx="0em" dy="0.95em" style="text-anchor: middle; visibility: inherit; font-family: Roboto, sans-serif; font-size: 12px; font-weight: 200;" fill="rgb(33, 33, 33)" stroke="none" stroke-width="1px">300k</text><text x="601.8489583333334" y="0" dx="0em" dy="0.95em" style="text-anchor: middle; visibility: inherit; font-family: Roboto, sans-serif; font-size: 12px; font-weight: 200;" fill="rgb(33, 33, 33)" stroke="none" stroke-width="1px">400k</text><text x="722.21875" y="0" dx="0em" dy="0.95em" style="text-anchor: middle; visibility: inherit; font-family: Roboto, sans-serif; font-size: 12px; font-weight: 200;" fill="rgb(33, 33, 33)" stroke="none" stroke-width="1px">500k</text><text x="842.5885416666667" y="0" dx="0em" dy="0.95em" style="text-anchor: middle; visibility: inherit; font-family: Roboto, sans-serif; font-size: 12px; font-weight: 200;" fill="rgb(33, 33, 33)" stroke="none" stroke-width="1px">600k</text><text x="962.9583333333333" y="0" dx="0em" dy="0.95em" style="text-anchor: middle; visibility: inherit; font-family: Roboto, sans-serif; font-size: 12px; font-weight: 200;" fill="rgb(33, 33, 33)" stroke="none" stroke-width="1px">700k</text><text x="1083.328125" y="0" dx="0em" dy="0.95em" style="text-anchor: middle; visibility: inherit; font-family: Roboto, sans-serif; font-size: 12px; font-weight: 200;" fill="rgb(33, 33, 33)" stroke="none" stroke-width="1px">800k</text><text x="1203.6979166666667" y="0" dx="0em" dy="0.95em" style="text-anchor: middle; visibility: inherit; font-family: Roboto, sans-serif; font-size: 12px; font-weight: 200;" fill="rgb(33, 33, 33)" stroke="none" stroke-width="1px">900k</text><text x="1324.0677083333333" y="0" dx="0em" dy="0.95em" style="text-anchor: middle; visibility: inherit; font-family: Roboto, sans-serif; font-size: 12px; font-weight: 200;" fill="rgb(33, 33, 33)" stroke="none" stroke-width="1px">1M</text><text x="1444.4375" y="0" dx="0em" dy="0.95em" style="text-anchor: middle; visibility: hidden; font-family: Roboto, sans-serif; font-size: 12px; font-weight: 200;" fill="rgb(33, 33, 33)" stroke="none" stroke-width="1px">1.1M</text></g><line x1="0" y1="0" x2="1444.4375" y2="0" fill="rgb(0, 0, 0)" stroke="rgb(204, 204, 204)" stroke-width="1px"></line></g></g></g></g></svg>