<svg viewBox="0 0 1496 400" xmlns="http://www.w3.org/2000/svg"><g><g><g><g><g><line x1="41.171875" y1="377" x2="36.171875" y2="377" style="visibility: inherit;" fill="rgb(0, 0, 0)" stroke="rgb(204, 204, 204)" stroke-width="1px"></line><line x1="41.171875" y1="329.87500000000006" x2="36.171875" y2="329.87500000000006" style="visibility: inherit;" fill="rgb(0, 0, 0)" stroke="rgb(204, 204, 204)" stroke-width="1px"></line><line x1="41.171875" y1="282.75" x2="36.171875" y2="282.75" style="visibility: inherit;" fill="rgb(0, 0, 0)" stroke="rgb(204, 204, 204)" stroke-width="1px"></line><line x1="41.171875" y1="235.62500000000009" x2="36.171875" y2="235.62500000000009" style="visibility: inherit;" fill="rgb(0, 0, 0)" stroke="rgb(204, 204, 204)" stroke-width="1px"></line><line x1="41.171875" y1="188.5" x2="36.171875" y2="188.5" style="visibility: inherit;" fill="rgb(0, 0, 0)" stroke="rgb(204, 204, 204)" stroke-width="1px"></line><line x1="41.171875" y1="141.37499999999997" x2="36.171875" y2="141.37499999999997" style="visibility: inherit;" fill="rgb(0, 0, 0)" stroke="rgb(204, 204, 204)" stroke-width="1px"></line><line x1="41.171875" y1="94.25" x2="36.171875" y2="94.25" style="visibility: inherit;" fill="rgb(0, 0, 0)" stroke="rgb(204, 204, 204)" stroke-width="1px"></line><line x1="41.171875" y1="47.12499999999996" x2="36.171875" y2="47.12499999999996" style="visibility: inherit;" fill="rgb(0, 0, 0)" stroke="rgb(204, 204, 204)" stroke-width="1px"></line><line x1="41.171875" y1="0" x2="36.171875" y2="0" style="visibility: inherit;" fill="rgb(0, 0, 0)" stroke="rgb(204, 204, 204)" stroke-width="1px"></line></g><g transform="translate(31.171875, 0)"><text x="0" y="377" dx="0em" dy="0.3em" style="text-anchor: end; visibility: hidden; font-family: Roboto, sans-serif; font-size: 12px; font-weight: 200;" fill="rgb(33, 33, 33)" stroke="none" stroke-width="1px">2.2</text><text x="0" y="329.87500000000006" dx="0em" dy="0.3em" style="text-anchor: end; visibility: inherit; font-family: Roboto, sans-serif; font-size: 12px; font-weight: 200;" fill="rgb(33, 33, 33)" stroke="none" stroke-width="1px">2.4</text><text x="0" y="282.75" dx="0em" dy="0.3em" style="text-anchor: end; visibility: inherit; font-family: Roboto, sans-serif; font-size: 12px; font-weight: 200;" fill="rgb(33, 33, 33)" stroke="none" stroke-width="1px">2.6</text><text x="0" y="235.62500000000009" dx="0em" dy="0.3em" style="text-anchor: end; visibility: inherit; font-family: Roboto, sans-serif; font-size: 12px; font-weight: 200;" fill="rgb(33, 33, 33)" stroke="none" stroke-width="1px">2.8</text><text x="0" y="188.5" dx="0em" dy="0.3em" style="text-anchor: end; visibility: inherit; font-family: Roboto, sans-serif; font-size: 12px; font-weight: 200;" fill="rgb(33, 33, 33)" stroke="none" stroke-width="1px">3</text><text x="0" y="141.37499999999997" dx="0em" dy="0.3em" style="text-anchor: end; visibility: inherit; font-family: Roboto, sans-serif; font-size: 12px; font-weight: 200;" fill="rgb(33, 33, 33)" stroke="none" stroke-width="1px">3.2</text><text x="0" y="94.25" dx="0em" dy="0.3em" style="text-anchor: end; visibility: inherit; font-family: Roboto, sans-serif; font-size: 12px; font-weight: 200;" fill="rgb(33, 33, 33)" stroke="none" stroke-width="1px">3.4</text><text x="0" y="47.12499999999996" dx="0em" dy="0.3em" style="text-anchor: end; visibility: inherit; font-family: Roboto, sans-serif; font-size: 12px; font-weight: 200;" fill="rgb(33, 33, 33)" stroke="none" stroke-width="1px">3.6</text><text x="0" y="0" dx="0em" dy="0.3em" style="text-anchor: end; visibility: hidden; font-family: Roboto, sans-serif; font-size: 12px; font-weight: 200;" fill="rgb(33, 33, 33)" stroke="none" stroke-width="1px">3.8</text></g><line x1="41.171875" y1="0" x2="41.171875" y2="377" fill="rgb(0, 0, 0)" stroke="rgb(204, 204, 204)" stroke-width="1px"></line></g></g><g transform="translate(41, 0)" clip-path="url(#clip_0)"><clipPath id="clip_0"><rect width="1454" height="377"></rect></clipPath><g><g><g><line x1="0" y1="0" x2="0" y2="377" fill="rgb(0, 0, 0)" stroke="rgb(66, 66, 66)" stroke-width="1px" opacity="0.25"></line><line x1="121.23567708333333" y1="0" x2="121.23567708333333" y2="377" fill="rgb(0, 0, 0)" stroke="rgb(66, 66, 66)" stroke-width="1px" opacity="0.25"></line><line x1="242.47135416666666" y1="0" x2="242.47135416666666" y2="377" fill="rgb(0, 0, 0)" stroke="rgb(66, 66, 66)" stroke-width="1px" opacity="0.25"></line><line x1="363.70703125" y1="0" x2="363.70703125" y2="377" fill="rgb(0, 0, 0)" stroke="rgb(66, 66, 66)" stroke-width="1px" opacity="0.25"></line><line x1="484.9427083333333" y1="0" x2="484.9427083333333" y2="377" fill="rgb(0, 0, 0)" stroke="rgb(66, 66, 66)" stroke-width="1px" opacity="0.25"></line><line x1="606.1783854166667" y1="0" x2="606.1783854166667" y2="377" fill="rgb(0, 0, 0)" stroke="rgb(66, 66, 66)" stroke-width="1px" opacity="0.25"></line><line x1="727.4140625" y1="0" x2="727.4140625" y2="377" fill="rgb(0, 0, 0)" stroke="rgb(66, 66, 66)" stroke-width="1px" opacity="0.25"></line><line x1="848.6497395833334" y1="0" x2="848.6497395833334" y2="377" fill="rgb(0, 0, 0)" stroke="rgb(66, 66, 66)" stroke-width="1px" opacity="0.25"></line><line x1="969.8854166666666" y1="0" x2="969.8854166666666" y2="377" fill="rgb(0, 0, 0)" stroke="rgb(66, 66, 66)" stroke-width="1px" opacity="0.25"></line><line x1="1091.12109375" y1="0" x2="1091.12109375" y2="377" fill="rgb(0, 0, 0)" stroke="rgb(66, 66, 66)" stroke-width="1px" opacity="0.25"></line><line x1="1212.3567708333335" y1="0" x2="1212.3567708333335" y2="377" fill="rgb(0, 0, 0)" stroke="rgb(66, 66, 66)" stroke-width="1px" opacity="0.25"></line><line x1="1333.5924479166665" y1="0" x2="1333.5924479166665" y2="377" fill="rgb(0, 0, 0)" stroke="rgb(66, 66, 66)" stroke-width="1px" opacity="0.25"></line><line x1="1454.828125" y1="0" x2="1454.828125" y2="377" fill="rgb(0, 0, 0)" stroke="rgb(66, 66, 66)" stroke-width="1px" opacity="0.25"></line></g><g><line x1="0" y1="377" x2="1454.828125" y2="377" fill="rgb(0, 0, 0)" stroke="rgb(66, 66, 66)" stroke-width="1px" opacity="0.25"></line><line x1="0" y1="329.87500000000006" x2="1454.828125" y2="329.87500000000006" fill="rgb(0, 0, 0)" stroke="rgb(66, 66, 66)" stroke-width="1px" opacity="0.25"></line><line x1="0" y1="282.75" x2="1454.828125" y2="282.75" fill="rgb(0, 0, 0)" stroke="rgb(66, 66, 66)" stroke-width="1px" opacity="0.25"></line><line x1="0" y1="235.62500000000009" x2="1454.828125" y2="235.62500000000009" fill="rgb(0, 0, 0)" stroke="rgb(66, 66, 66)" stroke-width="1px" opacity="0.25"></line><line x1="0" y1="188.5" x2="1454.828125" y2="188.5" fill="rgb(0, 0, 0)" stroke="rgb(66, 66, 66)" stroke-width="1px" opacity="0.25"></line><line x1="0" y1="141.37499999999997" x2="1454.828125" y2="141.37499999999997" fill="rgb(0, 0, 0)" stroke="rgb(66, 66, 66)" stroke-width="1px" opacity="0.25"></line><line x1="0" y1="94.25" x2="1454.828125" y2="94.25" fill="rgb(0, 0, 0)" stroke="rgb(66, 66, 66)" stroke-width="1px" opacity="0.25"></line><line x1="0" y1="47.12499999999996" x2="1454.828125" y2="47.12499999999996" fill="rgb(0, 0, 0)" stroke="rgb(66, 66, 66)" stroke-width="1px" opacity="0.25"></line><line x1="0" y1="0" x2="1454.828125" y2="0" fill="rgb(0, 0, 0)" stroke="rgb(66, 66, 66)" stroke-width="1px" opacity="0.25"></line></g></g></g><g><g><line x1="0" y1="895.3750000000001" x2="1454.828125" y2="895.3750000000001" fill="rgb(0, 0, 0)" stroke="rgb(153, 153, 153)" stroke-width="1.5px"></line></g></g><g><g><line x1="121.23567708333333" y1="0" x2="121.23567708333333" y2="377" fill="rgb(0, 0, 0)" stroke="rgb(153, 153, 153)" stroke-width="1.5px"></line></g></g><g><g><g><g><g><path stroke="rgb(51, 187, 238)" stroke-width="2px" d="M123.71858375000001,96.60622528195381L126.20149041666667,81.8796768262982L128.68439708333332,96.60625394388123L131.16730375,99.85476992465556L133.65021041666665,119.90712694481465L136.13311708333333,116.06240396211201L138.61602375,123.57010825035456L141.09893041666666,117.39332683074645L143.5818370833333,128.98783574266506L146.06474375,131.12814125691472L148.54765041666667,146.59299798979475L151.03055708333332,164.33692255660716L153.51346375,167.40867174345294L155.99637041666665,185.2842020676077L158.47927708333333,180.9134715817468L160.96218375,197.14767268282313L163.44509041666666,230.45175076479046L165.92799708333334,220.26750985594265L168.41090375,237.72156320144018L170.89381041666667,254.79107189636528L173.37671708333335,284.8252930086649L175.85962375,306.6154724984725L178.34253041666665,320.63190317945333L180.82543708333336,322.4441433040524L183.30834375,304.6814462686285L185.79125041666666,316.6438773808424L188.2741570833333,322.87882292269364L190.75706375,310.597291604627L193.2399704166667,310.7683732281364L195.72287708333334,321.23853703761847L198.20578375,313.3831229782708L200.68869041666667,319.03736614742223L203.17159708333332,310.17742286072587L205.65450375000003,310.51645192847303L208.13741041666668,311.66236848026875L210.62031708333333,293.49991371012163L213.10322375,282.60244096792803L215.58613041666666,280.7764753600331L218.0690370833333,273.0833798058521L220.55194375000002,280.72003328674776L223.03485041666667,284.35952626683394L225.51775708333335,286.5432220530174L228.00066375,293.50843413265966L230.48357041666665,269.4125658684496L232.96647708333333,247.4150296315648L235.44938375,262.4915258694216L237.9322904166667,251.74492001544104L240.41519708333334,264.1469609979236L242.89810375,257.450676598664L245.38101041666667,262.85789697086165L247.86391708333332,277.41224087910166L250.34682375000003,287.0873463251653L252.82973041666668,287.23741498580375L255.31263708333333,285.44245797986076L257.79554375,274.94047029371967L260.27845041666666,267.6967785808769L262.76135708333334,269.94805726130824L265.24426375,280.7238379521385L267.7271704166667,280.5918126585016L270.2100770833333,272.9725822020723L272.69298375,249.5510394340242L275.1758904166667,258.1181146720343L277.65879708333335,251.0058714997347L280.14170375000003,252.3935202033267L282.62461041666666,260.76610223477763L285.10751708333333,265.7896514536481L287.59042375,258.4362908721889L290.07333041666664,259.67926913028504L292.5562370833334,269.8500695677135L295.03914375,258.04504443714234L297.5220504166667,246.2495338529898L300.00495708333335,254.25221312108945L302.48786375,251.51382787265368L304.97077041666665,264.9508048131347L307.45367708333333,264.5304765960146L309.93658375,245.42827517155214L312.4194904166667,253.759457912227L314.9023970833333,230.483172050822L317.38530375,233.48240682584532L319.86821041666667,243.764439601317L322.35111708333335,253.70365567124782L324.83402375000003,255.8971889085584L327.31693041666665,260.0408061544307L329.79983708333333,249.33198908568664L332.28274375,262.6992024397925L334.76565041666663,262.2370160708473L337.24855708333337,244.05219885645192L339.73146375,242.5663220103853L342.21437041666667,236.9623003969355L344.69727708333335,232.65738832770361L347.18018374999997,243.26942850243208L349.66309041666665,243.03915889913534L352.1459970833333,247.6134926429671L354.62890375,254.12808929391403L357.1118104166667,252.38185267751038L359.5947170833333,243.7941178983725L362.07762375,239.58397613205176L364.56053041666667,221.03538388155494L367.0434370833333,224.9862366207993L369.52634375,216.04673657945125L372.0092504166667,229.53304104883267L374.4921570833333,231.9698291234898L376.97506375,241.9143938787417L379.4579704166666,238.45614172027325L381.94087708333336,243.92118323448796L384.42378375,235.89021892907323L386.90669041666666,245.20912686325372L389.38959708333334,233.83546533189576L391.87250374999996,231.72378638984188L394.3554104166667,250.2492826199616L396.8383170833333,237.80208035803358L399.32122375,238.81625091133438L401.8041304166667,233.76975863634303L404.2870370833333,222.25934888993956L406.76994375000004,230.43311113163992L409.25285041666666,240.04986398246982L411.73575708333334,250.5324111987776L414.21866374999996,251.16694492159056L416.70157041666664,247.7776687506305L419.1844770833334,243.8591048457305L421.66738375,229.255455716734L424.1502904166667,244.99826534049802L426.6331970833333,228.0539538112705L429.11610375,225.42738217398082L431.5990104166667,227.62143559625483L434.08191708333334,228.93786764961925L436.56482375,235.38272148860963L439.04773041666664,227.93962210710927L441.5306370833333,209.33627596077963L444.01354375000005,221.736768272982L446.4964504166667,216.9245528742468L448.97935708333335,218.74974161176655L451.46226375,217.01733507984142L453.94517041666666,227.2879028455809L456.4280770833333,240.99023631432033L458.91098375,233.18915167581068L461.3938904166667,218.1409883089722L463.8767970833333,214.7670848958409L466.35970375,199.54775543169475L468.8426104166666,207.3811640450734L471.32551708333335,210.19618853982553L473.80842375000003,209.05770593319096L476.29133041666665,191.40963254829498L478.77423708333333,197.78577233827264L481.25714374999995,211.97896879599176L483.7400504166667,220.4948866706233L486.2229570833333,224.66193829424031L488.70586375,213.02466028003005L491.18877041666667,199.44479976337018L493.6716770833333,213.91688435221238L496.15458375000003,208.4626261171372L498.63749041666665,218.38508106331062L501.12039708333333,202.66105223333852L503.60330375,205.4791232504608L506.08621041666663,206.22746675957217L508.56911708333337,210.44646926968682L511.05202375,209.20787437110775L513.5349304166667,215.06223361104503L516.0178370833333,227.99984016662694L518.50074375,231.04990859416637L520.9836504166667,224.39743526928135L523.4665570833333,217.5784539708645L525.9494637500001,221.02708047206116L528.4323704166667,208.9587473843987L530.9152770833333,211.14273854342073L533.39818375,226.59064222721435L535.8810904166667,226.43439342587095L538.3639970833334,219.74312796598028L540.84690375,214.78586958888386L543.3298104166666,207.0990190568162L545.8127170833334,204.37190693989953L548.29562375,203.67813877091143L550.7785304166667,194.77938595906096L553.2614370833334,198.8651252835702L555.74434375,177.75406887827572L558.2272504166666,207.4999395292893L560.7101570833333,211.209952931517L563.1930637500001,204.0109699612341L565.6759704166667,204.40407568487416L568.1588770833333,214.06495260162882L570.64178375,223.63147515632946L573.1246904166667,211.46388329612154L575.6075970833334,211.70332098929254L578.09050375,214.67450337963209L580.5734104166667,199.49220652196942L583.0563170833333,208.2903338004001L585.53922375,205.0866957860499L588.0221304166668,195.62452016814407L590.5050370833334,194.65971030321026L592.98794375,210.10333157495438L595.4708504166666,231.62199265310636L597.9537570833334,214.37319559186383L600.43666375,220.98892364698455L602.9195704166667,200.45336137889504L605.4024770833333,205.09700783895656L607.88538375,215.42321099524028L610.3682904166667,207.48142390063L612.8511970833333,214.02636332875844L615.33410375,205.700816199579L617.8170104166667,198.82048971974731L620.2999170833333,201.289787539982L622.78282375,213.13887881585558L625.2657304166667,204.2258263906753L627.7486370833334,203.59049044137686L630.23154375,206.97928527644564L632.7144504166666,192.9900774577337L635.1973570833334,203.44655726069675L637.68026375,208.7779235703615L640.1631704166667,210.09174515383648L642.6460770833334,213.70755787835841L645.12898375,212.10702663747273L647.6118904166667,213.03170609526506L650.0947970833333,208.8740182641308L652.5777037500001,198.83941275615453L655.0606104166667,199.41614315950244L657.5435170833333,197.87718319918733L660.02642375,196.01130812183624L662.5093304166667,191.12178667077788L664.9922370833334,191.9580702047907L667.47514375,190.57484212287432L669.9580504166667,205.7674124644289L672.4409570833333,203.57294298446718L674.92386375,209.79627657673686L677.4067704166667,199.3927677437182L679.8896770833334,198.80565705087875L682.37258375,205.99338344447074L684.8554904166666,202.7660264713303L687.3383970833333,193.28961947815034L689.8213037500001,193.25876988921414L692.3042104166667,202.66525114747202L694.7871170833333,199.82664799196908L697.27002375,195.29598879518136L699.7529304166667,199.17508698524256L702.2358370833333,206.215041405089L704.71874375,217.97902933724362L707.2016504166667,203.35992029886026L709.6845570833333,203.07094678628786L712.16746375,195.35756986944875L714.6503704166666,186.0170482135355L717.1332770833334,184.18273162463547L719.61618375,186.85213807594315L722.0990904166666,176.2012936316224L724.5819970833334,183.9482734824594L727.06490375,186.71146319063763L729.5478104166666,179.88688510508698L732.0307170833333,195.58464184910875L734.51362375,187.09579050249346L736.9965304166666,193.31246890846776L739.4794370833334,176.30747325553824L741.9623437500001,176.4719884475132L744.4452504166667,189.76568497896554L746.9281570833334,205.28191817808366L749.41106375,187.25916169290667L751.8939704166667,184.9279997122581L754.3768770833333,199.55180971457338L756.85978375,204.5560768403636L759.3426904166666,207.5586371158378L761.8255970833333,208.41767417996033L764.3085037500001,197.62310720449025L766.7914104166667,193.03136522153218L769.2743170833334,192.1613182340813L771.75722375,202.94930172650535L774.2401304166667,197.16958103590324L776.7230370833333,216.3217495203799L779.20594375,202.36555240874208L781.6888504166667,207.18682155802676L784.1717570833333,211.02208214875955L786.6546637499999,193.53075737879809L789.1375704166666,189.63345622495493L791.6204770833334,191.06507193729684L794.10338375,179.67155304959658L796.5862904166667,175.6629390204623L799.0691970833334,190.22275442389702L801.55210375,179.1661625415568L804.0350104166666,179.12970112028614L806.5179170833334,172.51033055939013L809.00082375,168.5387082228526L811.4837304166666,169.92573122557786L813.9666370833332,180.18293603883262L816.4495437500001,180.6822643198137L818.9324504166667,166.84435230002188L821.4153570833333,179.2766077846609L823.8982637500001,191.44845658125416L826.3811704166667,192.15407215107638L828.8640770833333,174.6699360999415L831.3469837499999,175.48946615415502L833.8298904166667,186.34867429946473L836.3127970833333,173.07169559129838L838.7957037499999,166.04800746756064L841.2786104166668,161.83379459331792L843.7615170833334,173.4427758571527L846.24442375,178.52316641312964L848.7273304166667,178.74390344323L851.2102370833334,180.7613438636141L853.69314375,183.85680631816842L856.1760504166666,193.25407660019667L858.6589570833333,198.89243876941364L861.14186375,205.10295337442963L863.6247704166666,196.57677382233382L866.1076770833334,196.17356159688617L868.5905837500001,194.98913516045556L871.0734904166667,190.50848289394943L873.5563970833333,196.3025834445034L876.03930375,197.89404557251177L878.5222104166667,181.88391655745053L881.0051170833333,182.64535173214645L883.48802375,188.7572074439357L885.9709304166666,185.8268271628755L888.4538370833333,182.18360079191544L890.9367437500001,190.36515508212105L893.4196504166667,188.6765939481107L895.9025570833334,186.72095816654246L898.38546375,167.64007130457338L900.8683704166667,178.8115400862299L903.3512770833333,175.14693124244224L905.83418375,172.00566683500773L908.3170904166667,171.06340729170898L910.7999970833333,176.15304617270152L913.28290375,175.43683309664917L915.7658104166666,160.86959626263737L918.2487170833334,173.8067559599063L920.73162375,175.91405717129598L923.2145304166667,168.69592351672102L925.6974370833334,174.7325559077087L928.18034375,168.92954433068172L930.6632504166666,166.39023648562755L933.1461570833333,161.09663290299616L935.62906375,174.88547704528358L938.1119704166666,183.15878353065605L940.5948770833332,176.812778207936L943.0777837500001,173.00517501430392L945.5606904166667,162.2380987167161L948.0435970833333,170.85786102770575L950.5265037500001,192.0522256050039L953.0094104166667,167.06883536300236L955.4923170833333,166.21631020618184L957.9752237499999,165.70479511208953L960.4581304166667,170.11038156144394L962.9410370833333,172.7537334310565L965.4239437499999,185.64973376676755L967.9068504166668,175.47985104611706L970.3897570833334,179.74541152650832L972.87266375,171.9372577019615L975.3555704166666,184.2173492281486L977.8384770833334,180.2754149299175L980.32138375,184.50774805911237L982.8042904166666,181.3921533296576L985.2871970833334,173.86780188501308L987.77010375,176.89318382752194L990.2530104166666,185.30590670116106L992.7359170833334,190.35354042534448L995.2188237500001,184.89962874939684L997.7017304166667,169.37477095777186L1000.1846370833333,156.28985987814903L1002.66754375,173.8864114326992L1005.1504504166667,178.78934775845764L1007.6333570833333,168.5360996666941L1010.11626375,171.80916429420668L1012.5991704166667,180.3704967788479L1015.0820770833333,166.65729177544242L1017.5649837499999,167.85438225596985L1020.0478904166667,172.34263294893404L1022.5307970833334,170.32308785890277L1025.0137037499999,175.7088545130177L1027.4966104166667,181.76781180897257L1029.9795170833333,168.4381798946791L1032.46242375,164.2103971507509L1034.9453304166666,168.2712436834788L1037.4282370833334,171.6502507042774L1039.91114375,168.02266030978487L1042.3940504166667,163.96108539981438L1044.8769570833333,172.8341521387267L1047.35986375,175.3304948785882L1049.8427704166666,172.11580501669533L1052.3256770833334,187.1519749204748L1054.80858375,187.69118495228489L1057.2914904166666,182.35971636439922L1059.7743970833333,180.1033343128297L1062.2573037500001,196.6570104749163L1064.7402104166667,183.02671617216822L1067.2231170833334,188.9860261079488L1069.70602375,193.5041111705791L1072.1889304166666,188.6749693988616L1074.6718370833332,198.02997265093657L1077.1547437499999,183.85049347778047L1079.6376504166667,174.40030687272483L1082.1205570833333,167.78767333757835L1084.60346375,177.01510310370904L1087.0863704166668,174.06906905292982L1089.5692770833334,169.47395131897636L1092.05218375,180.85436719603368L1094.5350904166667,184.8551194187822L1097.0179970833333,173.11806176405085L1099.50090375,167.01832627237394L1101.9838104166665,148.27849935877654L1104.4667170833334,165.30959871642784L1106.94962375,160.44825024147636L1109.4325304166666,175.4389465495336L1111.9154370833335,170.29587781693863L1114.39834375,158.727522195973L1116.8812504166667,153.67150702571746L1119.3641570833333,171.3729006200783L1121.84706375,180.10873857437085L1124.3299704166666,185.35024134694638L1126.8128770833332,186.61014480816775L1129.29578375,176.99859677211913L1131.7786904166667,182.54165716443342L1134.2615970833333,181.15499789401227L1136.7445037500001,169.95548974802693L1139.2274104166668,174.54579654533023L1141.7103170833334,169.7599878144167L1144.19322375,164.06098280143158L1146.6761304166666,163.46909956807752L1149.1590370833333,170.65396243736063L1151.6419437499999,165.53986667635985L1154.1248504166667,179.43641551162565L1156.6077570833334,169.866839419757L1159.09066375,167.8951126402346L1161.5735704166666,176.1370675841408L1164.0564770833334,166.94473156210404L1166.53938375,161.42932994888204L1169.0222904166667,159.06258808211075L1171.5051970833333,188.74505824229476L1173.98810375,175.45202505815837L1176.4710104166666,171.24622402327537L1178.9539170833332,165.89522362790873L1181.43682375,170.22463867093552L1183.9197304166667,178.47728230372317L1186.4026370833333,185.31386668571983L1188.8855437500001,181.87582450562212L1191.3684504166667,181.69799739988738L1193.8513570833334,166.51129304690417L1196.33426375,175.3067758281425L1198.8171704166666,190.95155560966694L1201.3000770833332,168.2934315681241L1203.7829837499999,177.31855804203633L1206.2658904166667,168.59612493800333L1208.7487970833333,161.4776668732596L1211.23170375,174.17159832627968L1213.7146104166668,182.73045629925372L1216.1975170833334,180.3257782737424L1218.68042375,176.0554741549498L1221.1633304166667,172.55079258251226L1223.6462370833333,161.96546925764105L1226.12914375,163.15429054296504L1228.6120504166665,168.58007881996923L1231.0949570833334,182.20304189895324L1233.57786375,169.6418170498295L1236.0607704166666,158.33508573570754L1238.5436770833335,166.6310550367767L1241.02658375,171.6086366174181L1243.5094904166667,164.22767298207043L1245.9923970833333,176.76410109272808L1248.47530375,176.74596514982707L1250.9582104166666,174.8500853817626L1253.4411170833332,169.94256111627604L1255.92402375,178.3080357709276L1258.4069304166667,186.1548178672044L1260.8898370833333,187.09289072032263L1263.37274375,174.46072454497514L1265.8556504166668,178.19143652466116L1268.3385570833334,168.17735292641635L1270.82146375,154.62890995817364L1273.3043704166666,162.52235136793252L1275.7872770833333,185.165921606816L1278.27018375,185.55705386292763L1280.7530904166667,179.19423950846092L1283.2359970833334,183.85904280623856L1285.71890375,166.8654211895529L1288.2018104166666,156.66924821954157L1290.6847170833335,158.09155971778145L1293.16762375,166.48493942602101L1295.6505304166667,167.75097084631693L1298.1334370833333,168.5105896984945L1300.61634375,176.50635381909666L1303.0992504166666,174.70631858332436L1305.5821570833332,179.28129204883274L1308.06506375,192.39376624091918L1310.5479704166667,187.06626333990363L1313.0308770833333,185.75475980161826L1315.5137837500001,168.00285138678083L1317.9966904166668,160.17920364136407L1320.4795970833334,169.62252398249453L1322.96250375,167.7485233778771L1325.4454104166666,176.0491140267263L1327.9283170833332,172.54697650557813L1330.4112237499999,170.44569399288935L1332.8941304166667,173.89741999108577L1335.3770370833333,181.62345019697534" style="fill: none;" fill="none"></path></g><g><path stroke="rgb(204, 51, 17)" stroke-width="2px" d="M123.71858375000001,37.699975281953684L126.20149041666667,80.40703602507698L128.68439708333332,93.4806260484822L131.16730375,90.58568497396564L133.65021041666665,91.15301877088552L136.13311708333333,111.23631388397543L138.61602375,121.69969329165802L141.09893041666666,118.20105863946137L143.5818370833333,109.4751886311793L146.06474375,136.53624553585223L148.54765041666667,148.88405289262477L151.03055708333332,158.15311475757997L153.51346375,157.0954776198259L155.99637041666665,169.66713824866034L158.47927708333333,203.60623790773187L160.96218375,222.07395179086143L163.44509041666666,233.15124519140846L165.92799708333334,241.68161076188875L168.41090375,277.90366379599675L170.89381041666667,281.7273452681552L173.37671708333335,287.7915437862689L175.85962375,298.0275583034144L178.34253041666665,296.6290284316259L180.82543708333336,299.55993184555166L183.30834375,307.9159774707811L185.79125041666666,310.1020875150588L188.2741570833333,318.0112516156083L190.75706375,318.0442464954367L193.2399704166667,304.8690511323176L195.72287708333334,323.3539401589457L198.20578375,308.05487015557463L200.68869041666667,295.1054102766847L203.17159708333332,286.39323586276885L205.65450375000003,287.7634478487858L208.13741041666668,282.9305578401341L210.62031708333333,279.0883247772316L213.10322375,276.7829849648536L215.58613041666666,269.7447864585876L218.0690370833333,261.7518709585071L220.55194375000002,259.78361897712085L223.03485041666667,248.23517766887642L225.51775708333335,246.96110749955068L228.00066375,249.9666618040841L230.48357041666665,249.8849961835983L232.96647708333333,241.35350489997654L235.44938375,236.23461013037112L237.9322904166667,229.39327686402314L240.41519708333334,222.46095712987776L242.89810375,225.84158056983853L245.38101041666667,221.27243845464767L247.86391708333332,222.30097206117395L250.34682375000003,217.26307514714745L252.82973041666668,221.78035227900074L255.31263708333333,232.0307113674112L257.79554375,227.8134367076624L260.27845041666666,239.42055842924964L262.76135708333334,230.3623242714912L265.24426375,233.40989815824736L267.7271704166667,221.1009335019192L270.2100770833333,219.3705493150948L272.69298375,222.10233767859935L275.1758904166667,211.4888999106453L277.65879708333335,210.77583185684483L280.14170375000003,204.69299641759267L282.62461041666666,204.81329155868926L285.10751708333333,213.36798302475597L287.59042375,211.9032817253112L290.07333041666664,215.7369789224053L292.5562370833334,208.61218375809102L295.03914375,209.04980216531223L297.5220504166667,183.864875007321L300.00495708333335,188.54642230787846L302.48786375,203.6078614742695L304.97077041666665,210.75972677178018L307.45367708333333,199.97083786074415L309.93658375,207.63501350250309L312.4194904166667,200.92350720266379L314.9023970833333,199.72410072624612L317.38530375,204.65945144736725L319.86821041666667,200.08066907074422L322.35111708333335,186.0234104308269L324.83402375000003,195.49653816895375L327.31693041666665,184.2154309909146L329.79983708333333,177.44676668409107L332.28274375,184.69555731394047L334.76565041666663,190.92982989417408L337.24855708333337,183.3604042283707L339.73146375,173.16373175096592L342.21437041666667,184.0107345563894L344.69727708333335,190.51893623964338L347.18018374999997,185.9413653391382L349.66309041666665,179.42482639418728L352.1459970833333,178.34240033070253L354.62890375,185.23293750190737L357.1118104166667,174.28725171508785L359.5947170833333,177.1448537255668L362.07762375,175.08941852720648L364.56053041666667,178.56865291399995L367.0434370833333,185.36868905188584L369.52634375,178.1387215206739L372.0092504166667,188.88072662053807L374.4921570833333,175.53342608510437L376.97506375,174.122561942929L379.4579704166666,177.0460398622715L381.94087708333336,183.5126221196868L384.42378375,173.2550624857555L386.90669041666666,173.69804288448157L389.38959708333334,181.50382393301285L391.87250374999996,190.89978806794136L394.3554104166667,188.05487463844088L396.8383170833333,192.94542028887426L399.32122375,193.99474947681043L401.8041304166667,195.56684609073412L404.2870370833333,190.85510945211655L406.76994375000004,194.62556117707976L409.25285041666666,189.34783940276202L411.73575708333334,195.6061973497909L414.21866374999996,202.18870942149417L416.70157041666664,199.54072295638233L419.1844770833334,198.89443017847717L421.66738375,199.44915361289605L424.1502904166667,191.29949576308985L426.6331970833333,184.52470285088216L429.11610375,191.76981631750107L431.5990104166667,196.11688439747235L434.08191708333334,193.07013063848336L436.56482375,191.24207838309002L439.04773041666664,190.14524702985406L441.5306370833333,193.25714462256025L444.01354375000005,207.37679396424053L446.4964504166667,199.8260763785443L448.97935708333335,179.27313863642217L451.46226375,186.73387958650122L453.94517041666666,186.49782865073874L456.4280770833333,186.35619808928138L458.91098375,180.61622514543512L461.3938904166667,179.9997386826132L463.8767970833333,189.05483781653973L466.35970375,178.46541257714242L468.8426104166666,176.82425293931365L471.32551708333335,186.20704726939806L473.80842375000003,193.72172206977254L476.29133041666665,184.09304043256782L478.77423708333333,170.7758161699984L481.25714374999995,159.95798430897085L483.7400504166667,161.00730047260097L486.2229570833333,187.08438837310297L488.70586375,195.19062583315744L491.18877041666667,191.57187639873254L493.6716770833333,179.033136625296L496.15458375000003,176.22238826704395L498.63749041666665,177.36343655557846L501.12039708333333,186.5305574391568L503.60330375,176.95084435071252L506.08621041666663,178.74300930694164L508.56911708333337,176.04831187603133L511.05202375,175.37399251864707L513.5349304166667,185.33689101699804L516.0178370833333,177.1771435985792L518.50074375,177.93628975449963L520.9836504166667,181.2192747515379L523.4665570833333,168.10905766021835L525.9494637500001,158.35792920310283L528.4323704166667,173.24225482534766L530.9152770833333,166.1503430079901L533.39818375,179.80270131060385L535.8810904166667,192.70661179798196L538.3639970833334,187.25397067414136L540.84690375,184.92488510099895L543.3298104166666,179.75743735246562L545.8127170833334,180.4269651079935L548.29562375,183.6561790647961L550.7785304166667,185.5937074388776L553.2614370833334,177.331233451707L555.74434375,192.16623018380568L558.2272504166666,212.37723990795956L560.7101570833333,188.68883495639528L563.1930637500001,188.6133009738371L565.6759704166667,189.51047968546416L568.1588770833333,187.22128960895458L570.64178375,188.6752728665347L573.1246904166667,203.68517180946318L575.6075970833334,195.72610488335394L578.09050375,184.3531710195547L580.5734104166667,180.35690800476115L583.0563170833333,172.3041555889132L585.53922375,164.64498436496757L588.0221304166668,177.01448792246643L590.5050370833334,174.06869994418415L592.98794375,183.61121637115832L595.4708504166666,189.3367262273429L597.9537570833334,194.65703034337753L600.43666375,204.44672899208302L602.9195704166667,206.5505293057075L605.4024770833333,205.92781129155824L607.88538375,194.2441912691251L610.3682904166667,179.69400397541858L612.8511970833333,178.50390687944133L615.33410375,191.9273351392844L617.8170104166667,193.3838983870565L620.2999170833333,182.00534802061435L622.78282375,179.89071330655884L625.2657304166667,170.13941809671678L627.7486370833334,182.19614636383994L630.23154375,166.81018242527574L632.7144504166666,191.50861664586978L635.1973570833334,181.8226780770642L637.68026375,175.06861583461895L640.1631704166667,173.84367579263767L642.6460770833334,185.36120008255432L645.12898375,180.01922634139896L647.6118904166667,178.69904029902952L650.0947970833333,165.6544178875514L652.5777037500001,178.56264713717866L655.0606104166667,169.3425783950887L657.5435170833333,175.12054883472928L660.02642375,170.10483918805613L662.5093304166667,185.0028963221294L664.9922370833334,188.28673599560156L667.47514375,173.29203350781856L669.9580504166667,185.03021471166292L672.4409570833333,188.30312702932167L674.92386375,189.324375318755L677.4067704166667,184.28212968544327L679.8896770833334,187.8542760135898L682.37258375,195.6525584174495L684.8554904166666,198.4465296574415L687.3383970833333,185.04292678284529L689.8213037500001,195.85074708132672L692.3042104166667,206.10545813601456L694.7871170833333,184.9257658932283L697.27002375,175.0454703219935L699.7529304166667,182.31228039552L702.2358370833333,173.4773790233685L704.71874375,182.31392471750698L707.2016504166667,186.67335303282815L709.6845570833333,176.09402260575345L712.16746375,181.05641356345203L714.6503704166666,168.9538400485288L717.1332770833334,180.54230043376515L719.61618375,179.95538385561122L722.0990904166666,173.94823930174712L724.5819970833334,174.1139489740766L727.06490375,176.09837297979806L729.5478104166666,174.46153007974513L732.0307170833333,181.96191625017104L734.51362375,180.80715334545482L736.9965304166666,188.59678751308277L739.4794370833334,191.3855698113355L741.9623437500001,174.20883469609686L744.4452504166667,182.75279812114408L746.9281570833334,191.64917258082014L749.41106375,169.6545008519779L751.8939704166667,163.9976906239683L754.3768770833333,160.60360448716258L756.85978375,169.8771644899737L759.3426904166666,176.38379959282233L761.8255970833333,186.88527436266511L764.3085037500001,184.7036673141132L766.7914104166667,188.10719859079182L769.2743170833334,188.26431915447512L771.75722375,194.95608520081876L774.2401304166667,183.89115921003366L776.7230370833333,178.1947027167245L779.20594375,171.94933151725323L781.6888504166667,160.66209351732377L784.1717570833333,166.1422615034225L786.6546637499999,180.7403515090252L789.1375704166666,182.9017118042532L791.6204770833334,183.2560288802281L794.10338375,175.92862631651724L796.5862904166667,174.3596820817766L799.0691970833334,168.70582003512243L801.55210375,186.04848303269313L804.0350104166666,180.43159611148218L806.5179170833334,184.6014567680513L809.00082375,183.33337675734487L811.4837304166666,189.17002245905474L813.9666370833332,185.132017070785L816.4495437500001,186.47921024247094L818.9324504166667,183.51752974083468L821.4153570833333,183.6255196421769L823.8982637500001,184.63281268414417L826.3811704166667,191.83468221745827L828.8640770833333,198.04080213977053L831.3469837499999,201.76447409315801L833.8298904166667,185.14869524195134L836.3127970833333,191.20171265098065L838.7957037499999,184.46603298361666L841.2786104166668,187.9646179924939L843.7615170833334,189.12126989665825L846.24442375,190.75776014031882L848.7273304166667,177.60214529813481L851.2102370833334,189.50127998817655L853.69314375,190.98576619522993L856.1760504166666,189.04896061597609L858.6589570833333,177.51938715564214L861.14186375,185.68162869803317L863.6247704166666,187.75147631998183L866.1076770833334,179.5683938815314L868.5905837500001,181.25603812659497L871.0734904166667,178.49862826898527L873.5563970833333,174.9591841520955L876.03930375,181.31800959241926L878.5222104166667,185.1333048566135L881.0051170833333,188.36498111629206L883.48802375,180.87899586047953L885.9709304166666,189.5823921232595L888.4538370833333,191.03443347627962L890.9367437500001,190.96315918692963L893.4196504166667,171.12789101796753L895.9025570833334,171.47924090264678L898.38546375,179.23004364275L900.8683704166667,179.16802978100216L903.3512770833333,189.49831157673498L905.83418375,190.9839851483649L908.3170904166667,181.5078991785613L910.7999970833333,192.78723141759446L913.28290375,205.20984783893712L915.7658104166666,206.06590151265786L918.2487170833334,211.29205169365122L920.73162375,206.8877265220005L923.2145304166667,193.87764130622864L925.6974370833334,201.15157579535673L928.18034375,198.91844278069996L930.6632504166666,196.6360638707439L933.1461570833333,208.46164641198868L935.62906375,199.5344887460312L938.1119704166666,197.94819055110463L940.5948770833332,174.37641073531057L943.0777837500001,186.62334014932006L945.5606904166667,182.6615085837822L948.0435970833333,181.22690874562144L950.5265037500001,169.05613715783048L953.0094104166667,177.77618139586025L955.4923170833333,190.54820074797377L957.9752237499999,183.13142674065057L960.4581304166667,189.0488524490382L962.9410370833333,208.62181506477515L965.4239437499999,205.28558454467486L967.9068504166668,195.74385342331908L970.3897570833334,197.55880755980124L972.87266375,176.97027824401448L975.3555704166666,185.3521633510565L977.8384770833334,170.58879081992953L980.32138375,179.6382726942816L982.8042904166666,182.24046451540698L985.2871970833334,176.26178679878663L987.77010375,182.09957118043388L990.2530104166666,185.60224180942228L992.7359170833334,181.10635047868166L995.2188237500001,186.89130759069488L997.7017304166667,186.592285453255L1000.1846370833333,176.04538205800952L1002.66754375,185.7397247406155L1005.1504504166667,178.36134293391171L1007.6333570833333,199.3818120522133L1010.11626375,194.086588130166L1012.5991704166667,187.13945737228983L1015.0820770833333,187.68367442337393L1017.5649837499999,188.95270375518632L1020.0478904166667,192.54161865775959L1022.5307970833334,210.71747479000788L1025.0137037499999,194.29049206470907L1027.4966104166667,197.62928984579716L1029.9795170833333,199.63256851445004L1032.46242375,205.5470312214515L1034.9453304166666,203.44071423868073L1037.4282370833334,191.8094339362367L1039.91114375,178.2331495756855L1042.3940504166667,183.28238884657318L1044.8769570833333,194.79442431956343L1047.35986375,202.64414470451953L1049.8427704166666,205.46897873316942L1052.3256770833334,189.25639622828203L1054.80858375,188.95383773696918L1057.2914904166666,210.4498044398576L1059.7743970833333,219.5773880569428L1062.2573037500001,211.85892833997542L1064.7402104166667,192.14786689120368L1067.2231170833334,203.8837300219407L1069.70602375,193.0177425073546L1072.1889304166666,195.92314101022254L1074.6718370833332,193.89638370729543L1077.1547437499999,198.3353239325109L1079.6376504166667,214.19369795485866L1082.1205570833333,208.62871427872494L1084.60346375,207.1747222753686L1087.0863704166668,218.5548378594114L1089.5692770833334,214.07289552494245L1092.05218375,215.15372652890895L1094.5350904166667,212.974727827803L1097.0179970833333,220.1498429885481L1099.50090375,214.08739950126255L1101.9838104166665,221.75994509378572L1104.4667170833334,219.76595627021496L1106.94962375,211.97206926793876L1109.4325304166666,206.35323796541113L1111.9154370833335,199.21194277924667L1114.39834375,195.8696647687099L1116.8812504166667,182.5543087484444L1119.3641570833333,196.24257446301007L1121.84706375,216.70804467780596L1124.3299704166666,201.6548304020357L1126.8128770833332,183.19788835400294L1129.29578375,207.93873391123972L1131.7786904166667,195.45074484093402L1134.2615970833333,193.61294600572236L1136.7445037500001,206.64777569297576L1139.2274104166668,219.18116901113768L1141.7103170833334,202.1962059008727L1144.19322375,206.1427145521432L1146.6761304166666,200.0281278324479L1149.1590370833333,207.66938748552525L1151.6419437499999,213.19664237853362L1154.1248504166667,212.7429764387398L1156.6077570833334,213.4132759760254L1159.09066375,201.5629673832913L1161.5735704166666,199.16527773346073L1164.0564770833334,192.0716693365905L1166.53938375,203.83801148917283L1169.0222904166667,198.64530599466562L1171.5051970833333,186.10469168634174L1173.98810375,186.1203159106431L1176.4710104166666,192.72718415335754L1178.9539170833332,197.63380420014826L1181.43682375,200.57777622822266L1183.9197304166667,208.94167562415208L1186.4026370833333,204.53500177913898L1188.8855437500001,212.25851005586375L1191.3684504166667,196.15761232538452L1193.8513570833334,191.20956919290683L1196.33426375,197.66573432503972L1198.8171704166666,196.8269378985097L1201.3000770833332,208.57617082864823L1203.7829837499999,187.35069260997048L1206.2658904166667,223.62542635203874L1208.7487970833333,229.36775940657543L1211.23170375,213.02065564394522L1213.7146104166668,197.55739877939536L1216.1975170833334,208.07194825601763L1218.68042375,207.78316176290627L1221.1633304166667,209.4948880693634L1223.6462370833333,212.4069220555615L1226.12914375,195.30416042404116L1228.6120504166665,208.60500344512909L1231.0949570833334,205.27549757288725L1233.57786375,214.5878057344367L1236.0607704166666,212.63517535111964L1238.5436770833335,208.6360998176435L1241.02658375,207.17915359871972L1243.5094904166667,207.24748496852752L1245.9923970833333,210.115981093898L1248.47530375,210.89457966795834L1250.9582104166666,207.59174240774675L1253.4411170833332,200.89754454580995L1255.92402375,192.1685303228382L1258.4069304166667,190.7011181937029L1260.8898370833333,191.7056691185456L1263.37274375,196.078396078099L1265.8556504166668,202.47202865847902L1268.3385570833334,197.82571629624937L1270.82146375,213.8879333731017L1273.3043704166666,208.4452555296709L1275.7872770833333,197.6396560143166L1278.27018375,193.04129450742798L1280.7530904166667,185.56978209748505L1283.2359970833334,179.2018764491953L1285.71890375,194.23111508346062L1288.2018104166666,201.36366006169598L1290.6847170833335,207.52818525096112L1293.16762375,214.99691924011907L1295.6505304166667,204.39815154407142L1298.1334370833333,209.3488801403863L1300.61634375,199.12432988190787L1303.0992504166666,218.43709792914476L1305.5821570833332,191.3822506679444L1308.06506375,200.59684051354816L1310.5479704166667,206.12559442091035L1313.0308770833333,212.27036653976467L1315.5137837500001,214.07220913780225L1317.9966904166668,210.44081919081503L1320.4795970833334,205.43448791913679L1322.96250375,201.4881900549679L1325.4454104166666,201.94790863995252L1327.9283170833332,191.85624967816173L1330.4112237499999,196.16874441386875L1332.8941304166667,199.69874035645495L1335.3770370833333,210.29925230341533" style="fill: none;" fill="none"></path></g></g></g></g><g opacity="0.2"><g><g><g><path stroke="rgb(51, 187, 238)" stroke-width="2px" d="M123.71858375000001,96.60622528195381L126.20149041666667,73.04374775290485L128.68439708333332,110.74376797676086L131.16730375,103.67502471804619L133.65021041666665,146.08748427033424L136.13311708333333,110.74376797676086L138.61602375,134.30624550580978L141.09893041666666,108.38752022385597L143.5818370833333,146.08748427033424L146.06474375,134.30624550580978L148.54765041666667,169.65001797676086L151.03055708333332,190.8562477529049L153.51346375,172.00626572966576L155.99637041666665,212.06247752904892L158.47927708333333,174.36251348257065L160.96218375,221.4875247180462L163.44509041666666,280.3937747180462L165.92799708333334,204.99373427033424L168.41090375,263.89998427033424L170.89381041666667,280.3937747180462L173.37671708333335,329.874977529049L175.85962375,339.30002471804625L178.34253041666665,341.65627247095114L180.82543708333336,325.1624820232392L183.30834375,278.0375269651413L185.79125041666666,334.58747303485876L188.2741570833333,332.23122528195387L190.75706375,292.17501348257065L193.2399704166667,311.02499550580984L195.72287708333334,336.94377696514135L198.20578375,301.6000044941902L200.68869041666667,327.5187297761441L203.17159708333332,296.88750898838043L205.65450375000003,311.02499550580984L208.13741041666668,313.38124325871473L210.62031708333333,266.25623202323914L213.10322375,266.25623202323914L215.58613041666666,278.0375269651413L218.0690370833333,261.54373651742935L220.55194375000002,292.17501348257065L223.03485041666667,289.81876572966576L225.51775708333335,289.81876572966576L228.00066375,303.9562522470951L230.48357041666665,233.26876348257065L232.96647708333333,214.4187252819538L235.44938375,285.106270223856L237.9322904166667,235.62501123547554L240.41519708333334,282.7500224709511L242.89810375,247.40625L245.38101041666667,270.9687275290489L247.86391708333332,299.2437567412853L250.34682375000003,301.6000044941902L252.82973041666668,287.46251797676086L255.31263708333333,282.7500224709511L257.79554375,259.18748876452446L260.27845041666666,256.83124101161957L262.76135708333334,273.3249752819538L265.24426375,296.88750898838043L267.7271704166667,280.3937747180462L270.2100770833333,261.54373651742935L272.69298375,214.4187252819538L275.1758904166667,270.9687275290489L277.65879708333335,240.33750674128532L280.14170375000003,254.47499325871468L282.62461041666666,273.3249752819538L285.10751708333333,273.3249752819538L287.59042375,247.40625L290.07333041666664,261.54373651742935L292.5562370833334,285.106270223856L295.03914375,240.33750674128532L297.5220504166667,228.55626797676086L300.00495708333335,266.25623202323914L302.48786375,247.40625L304.97077041666665,285.106270223856L307.45367708333333,263.89998427033424L309.93658375,216.7749730348587L312.4194904166667,266.25623202323914L314.9023970833333,195.56874325871468L317.38530375,237.98125898838043L319.86821041666667,259.18748876452446L322.35111708333335,268.612479776144L324.83402375000003,259.18748876452446L327.31693041666665,266.25623202323914L329.79983708333333,233.26876348257065L332.28274375,282.7500224709511L334.76565041666663,261.54373651742935L337.24855708333337,216.7749730348587L339.73146375,240.33750674128532L342.21437041666667,228.55626797676086L344.69727708333335,226.20002022385597L347.18018374999997,259.18748876452446L349.66309041666665,242.69375449419022L352.1459970833333,254.47499325871468L354.62890375,263.89998427033424L357.1118104166667,249.7624977529049L359.5947170833333,230.91251572966576L362.07762375,233.26876348257065L364.56053041666667,193.21249550580978L367.0434370833333,230.91251572966576L369.52634375,202.63748651742935L372.0092504166667,249.7624977529049L374.4921570833333,235.62501123547554L376.97506375,256.83124101161957L379.4579704166666,233.26876348257065L381.94087708333336,252.11874550580978L384.42378375,223.84377247095108L386.90669041666666,259.18748876452446L389.38959708333334,216.7749730348587L391.87250374999996,228.55626797676086L394.3554104166667,278.0375269651413L396.8383170833333,219.1312769651413L399.32122375,240.33750674128532L401.8041304166667,226.20002022385597L404.2870370833333,204.99373427033424L406.76994375000004,242.69375449419022L409.25285041666666,254.47499325871468L411.73575708333334,266.25623202323914L414.21866374999996,252.11874550580978L416.70157041666664,242.69375449419022L419.1844770833334,237.98125898838043L421.66738375,207.34998202323914L424.1502904166667,268.612479776144L426.6331970833333,202.63748651742935L429.11610375,221.4875247180462L431.5990104166667,230.91251572966576L434.08191708333334,230.91251572966576L436.56482375,245.0500022470951L439.04773041666664,216.7749730348587L441.5306370833333,181.43125674128532L444.01354375000005,240.33750674128532L446.4964504166667,209.70622977614403L448.97935708333335,221.4875247180462L451.46226375,214.4187252819538L453.94517041666666,242.69375449419022L456.4280770833333,261.54373651742935L458.91098375,221.4875247180462L461.3938904166667,195.56874325871468L463.8767970833333,209.70622977614403L466.35970375,176.71876123547554L468.8426104166666,219.1312769651413L471.32551708333335,214.4187252819538L473.80842375000003,207.34998202323914L476.29133041666665,164.93752247095108L478.77423708333333,207.34998202323914L481.25714374999995,233.26876348257065L483.7400504166667,233.26876348257065L486.2229570833333,230.91251572966576L488.70586375,195.56874325871468L491.18877041666667,179.07500898838043L493.6716770833333,235.62501123547554L496.15458375000003,200.28123876452446L498.63749041666665,233.26876348257065L501.12039708333333,179.07500898838043L503.60330375,209.70622977614403L506.08621041666663,207.34998202323914L508.56911708333337,216.7749730348587L511.05202375,207.34998202323914L513.5349304166667,223.84377247095108L516.0178370833333,247.40625L518.50074375,235.62501123547554L520.9836504166667,214.4187252819538L523.4665570833333,207.34998202323914L525.9494637500001,226.20002022385597L528.4323704166667,190.8562477529049L530.9152770833333,214.4187252819538L533.39818375,249.7624977529049L535.8810904166667,226.20002022385597L538.3639970833334,209.70622977614403L540.84690375,207.34998202323914L543.3298104166666,195.56874325871468L545.8127170833334,200.28123876452446L548.29562375,202.63748651742935L550.7785304166667,181.43125674128532L553.2614370833334,204.99373427033424L555.74434375,146.08748427033424L558.2272504166666,252.11874550580978L560.7101570833333,216.7749730348587L563.1930637500001,193.21249550580978L565.6759704166667,204.99373427033424L568.1588770833333,228.55626797676086L570.64178375,237.98125898838043L573.1246904166667,193.21249550580978L575.6075970833334,212.06247752904892L578.09050375,219.1312769651413L580.5734104166667,176.71876123547554L583.0563170833333,221.4875247180462L585.53922375,200.28123876452446L588.0221304166668,181.43125674128532L590.5050370833334,193.21249550580978L592.98794375,233.26876348257065L595.4708504166666,263.89998427033424L597.9537570833334,188.5L600.43666375,230.91251572966576L602.9195704166667,169.65001797676086L605.4024770833333,212.06247752904892L607.88538375,230.91251572966576L610.3682904166667,195.56874325871468L612.8511970833333,223.84377247095108L615.33410375,193.21249550580978L617.8170104166667,188.5L620.2999170833333,204.99373427033424L622.78282375,230.91251572966576L625.2657304166667,190.8562477529049L627.7486370833334,202.63748651742935L630.23154375,212.06247752904892L632.7144504166666,172.00626572966576L635.1973570833334,219.1312769651413L637.68026375,216.7749730348587L640.1631704166667,212.06247752904892L642.6460770833334,219.1312769651413L645.12898375,209.70622977614403L647.6118904166667,214.4187252819538L650.0947970833333,202.63748651742935L652.5777037500001,183.78750449419022L655.0606104166667,200.28123876452446L657.5435170833333,195.56874325871468L660.02642375,193.21249550580978L662.5093304166667,183.78750449419022L664.9922370833334,193.21249550580978L667.47514375,188.5L669.9580504166667,228.55626797676086L672.4409570833333,200.28123876452446L674.92386375,219.1312769651413L677.4067704166667,183.78750449419022L679.8896770833334,197.92499101161957L682.37258375,216.7749730348587L684.8554904166666,197.92499101161957L687.3383970833333,179.07500898838043L689.8213037500001,193.21249550580978L692.3042104166667,216.7749730348587L694.7871170833333,195.56874325871468L697.27002375,188.5L699.7529304166667,204.99373427033424L702.2358370833333,216.7749730348587L704.71874375,235.62501123547554L707.2016504166667,181.43125674128532L709.6845570833333,202.63748651742935L712.16746375,183.78750449419022L714.6503704166666,172.00626572966576L717.1332770833334,181.43125674128532L719.61618375,190.8562477529049L722.0990904166666,160.2250269651413L724.5819970833334,195.56874325871468L727.06490375,190.8562477529049L729.5478104166666,169.65001797676086L732.0307170833333,219.1312769651413L734.51362375,174.36251348257065L736.9965304166666,202.63748651742935L739.4794370833334,150.79997977614403L741.9623437500001,176.71876123547554L744.4452504166667,209.70622977614403L746.9281570833334,228.55626797676086L749.41106375,160.2250269651413L751.8939704166667,181.43125674128532L754.3768770833333,221.4875247180462L756.85978375,212.06247752904892L759.3426904166666,212.06247752904892L761.8255970833333,209.70622977614403L764.3085037500001,181.43125674128532L766.7914104166667,186.1437522470951L769.2743170833334,190.8562477529049L771.75722375,219.1312769651413L774.2401304166667,188.5L776.7230370833333,245.0500022470951L779.20594375,181.43125674128532L781.6888504166667,214.4187252819538L784.1717570833333,216.7749730348587L786.6546637499999,167.29377022385597L789.1375704166666,183.78750449419022L791.6204770833334,193.21249550580978L794.10338375,162.5812747180462L796.5862904166667,169.65001797676086L799.0691970833334,212.06247752904892L801.55210375,162.5812747180462L804.0350104166666,179.07500898838043L806.5179170833334,162.5812747180462L809.00082375,162.5812747180462L811.4837304166666,172.00626572966576L813.9666370833332,195.56874325871468L816.4495437500001,181.43125674128532L818.9324504166667,146.08748427033424L821.4153570833333,197.92499101161957L823.8982637500001,209.70622977614403L826.3811704166667,193.21249550580978L828.8640770833333,148.44373202323914L831.3469837499999,176.71876123547554L833.8298904166667,202.63748651742935L836.3127970833333,153.15622752904892L838.7957037499999,155.5124752819538L841.2786104166668,155.5124752819538L843.7615170833334,190.8562477529049L846.24442375,186.1437522470951L848.7273304166667,179.07500898838043L851.2102370833334,183.78750449419022L853.69314375,188.5L856.1760504166666,207.34998202323914L858.6589570833333,207.34998202323914L861.14186375,214.4187252819538L863.6247704166666,183.78750449419022L866.1076770833334,195.56874325871468L868.5905837500001,193.21249550580978L871.0734904166667,183.78750449419022L873.5563970833333,204.99373427033424L876.03930375,200.28123876452446L878.5222104166667,157.8687230348587L881.0051170833333,183.78750449419022L883.48802375,197.92499101161957L885.9709304166666,181.43125674128532L888.4538370833333,176.71876123547554L890.9367437500001,202.63748651742935L893.4196504166667,186.1437522470951L895.9025570833334,183.78750449419022L898.38546375,139.01874101161957L900.8683704166667,195.56874325871468L903.3512770833333,169.65001797676086L905.83418375,167.29377022385597L908.3170904166667,169.65001797676086L910.7999970833333,183.78750449419022L913.28290375,174.36251348257065L915.7658104166666,139.01874101161957L918.2487170833334,193.21249550580978L920.73162375,179.07500898838043L923.2145304166667,157.8687230348587L925.6974370833334,183.78750449419022L928.18034375,160.2250269651413L930.6632504166666,162.5812747180462L933.1461570833333,153.15622752904892L935.62906375,195.56874325871468L938.1119704166666,195.56874325871468L940.5948770833332,167.29377022385597L943.0777837500001,167.29377022385597L945.5606904166667,146.08748427033424L948.0435970833333,183.78750449419022L950.5265037500001,223.84377247095108L953.0094104166667,129.59375L955.4923170833333,164.93752247095108L957.9752237499999,164.93752247095108L960.4581304166667,176.71876123547554L962.9410370833333,176.71876123547554L965.4239437499999,204.99373427033424L967.9068504166668,160.2250269651413L970.3897570833334,186.1437522470951L972.87266375,160.2250269651413L975.3555704166666,202.63748651742935L977.8384770833334,174.36251348257065L980.32138375,190.8562477529049L982.8042904166666,176.71876123547554L985.2871970833334,162.5812747180462L987.77010375,181.43125674128532L990.2530104166666,197.92499101161957L992.7359170833334,197.92499101161957L995.2188237500001,176.71876123547554L997.7017304166667,146.08748427033424L1000.1846370833333,136.66249325871468L1002.66754375,200.28123876452446L1005.1504504166667,186.1437522470951L1007.6333570833333,153.15622752904892L1010.11626375,176.71876123547554L1012.5991704166667,193.21249550580978L1015.0820770833333,146.08748427033424L1017.5649837499999,169.65001797676086L1020.0478904166667,179.07500898838043L1022.5307970833334,167.29377022385597L1025.0137037499999,183.78750449419022L1027.4966104166667,190.8562477529049L1029.9795170833333,148.44373202323914L1032.46242375,157.8687230348587L1034.9453304166666,174.36251348257065L1037.4282370833334,176.71876123547554L1039.91114375,162.5812747180462L1042.3940504166667,157.8687230348587L1044.8769570833333,186.1437522470951L1047.35986375,179.07500898838043L1049.8427704166666,167.29377022385597L1052.3256770833334,209.70622977614403L1054.80858375,188.5L1057.2914904166666,174.36251348257065L1059.7743970833333,176.71876123547554L1062.2573037500001,221.4875247180462L1064.7402104166667,162.5812747180462L1067.2231170833334,197.92499101161957L1069.70602375,200.28123876452446L1072.1889304166666,181.43125674128532L1074.6718370833332,212.06247752904892L1077.1547437499999,162.5812747180462L1079.6376504166667,160.2250269651413L1082.1205570833333,157.8687230348587L1084.60346375,190.8562477529049L1087.0863704166668,169.65001797676086L1089.5692770833334,162.5812747180462L1092.05218375,197.92499101161957L1094.5350904166667,190.8562477529049L1097.0179970833333,155.5124752819538L1099.50090375,157.8687230348587L1101.9838104166665,120.16875898838043L1104.4667170833334,190.8562477529049L1106.94962375,153.15622752904892L1109.4325304166666,197.92499101161957L1111.9154370833335,162.5812747180462L1114.39834375,141.37498876452446L1116.8812504166667,146.08748427033424L1119.3641570833333,197.92499101161957L1121.84706375,193.21249550580978L1124.3299704166666,193.21249550580978L1126.8128770833332,188.5L1129.29578375,162.5812747180462L1131.7786904166667,190.8562477529049L1134.2615970833333,179.07500898838043L1136.7445037500001,153.15622752904892L1139.2274104166668,181.43125674128532L1141.7103170833334,162.5812747180462L1144.19322375,155.5124752819538L1146.6761304166666,162.5812747180462L1149.1590370833333,181.43125674128532L1151.6419437499999,157.8687230348587L1154.1248504166667,200.28123876452446L1156.6077570833334,155.5124752819538L1159.09066375,164.93752247095108L1161.5735704166666,188.5L1164.0564770833334,153.15622752904892L1166.53938375,153.15622752904892L1169.0222904166667,155.5124752819538L1171.5051970833333,233.26876348257065L1173.98810375,155.5124752819538L1176.4710104166666,164.93752247095108L1178.9539170833332,157.8687230348587L1181.43682375,176.71876123547554L1183.9197304166667,190.8562477529049L1186.4026370833333,195.56874325871468L1188.8855437500001,176.71876123547554L1191.3684504166667,181.43125674128532L1193.8513570833334,143.73123651742935L1196.33426375,188.5L1198.8171704166666,214.4187252819538L1201.3000770833332,134.30624550580978L1203.7829837499999,190.8562477529049L1206.2658904166667,155.5124752819538L1208.7487970833333,150.79997977614403L1211.23170375,193.21249550580978L1213.7146104166668,195.56874325871468L1216.1975170833334,176.71876123547554L1218.68042375,169.65001797676086L1221.1633304166667,167.29377022385597L1223.6462370833333,146.08748427033424L1226.12914375,164.93752247095108L1228.6120504166665,176.71876123547554L1231.0949570833334,202.63748651742935L1233.57786375,150.79997977614403L1236.0607704166666,141.37498876452446L1238.5436770833335,179.07500898838043L1241.02658375,179.07500898838043L1243.5094904166667,153.15622752904892L1245.9923970833333,195.56874325871468L1248.47530375,176.71876123547554L1250.9582104166666,172.00626572966576L1253.4411170833332,162.5812747180462L1255.92402375,190.8562477529049L1258.4069304166667,197.92499101161957L1260.8898370833333,188.5L1263.37274375,155.5124752819538L1265.8556504166668,183.78750449419022L1268.3385570833334,153.15622752904892L1270.82146375,134.30624550580978L1273.3043704166666,174.36251348257065L1275.7872770833333,219.1312769651413L1278.27018375,186.1437522470951L1280.7530904166667,169.65001797676086L1283.2359970833334,190.8562477529049L1285.71890375,141.37498876452446L1288.2018104166666,141.37498876452446L1290.6847170833335,160.2250269651413L1293.16762375,179.07500898838043L1295.6505304166667,169.65001797676086L1298.1334370833333,169.65001797676086L1300.61634375,188.5L1303.0992504166666,172.00626572966576L1305.5821570833332,186.1437522470951L1308.06506375,212.06247752904892L1310.5479704166667,179.07500898838043L1313.0308770833333,183.78750449419022L1315.5137837500001,141.37498876452446L1317.9966904166668,148.44373202323914L1320.4795970833334,183.78750449419022L1322.96250375,164.93752247095108L1325.4454104166666,188.5L1327.9283170833332,167.29377022385597L1330.4112237499999,167.29377022385597L1332.8941304166667,179.07500898838043L1335.3770370833333,193.21249550580978" style="fill: none;" fill="none"></path></g><g><path stroke="rgb(204, 51, 17)" stroke-width="2px" d="M123.71858375000001,37.69997528195377L126.20149041666667,106.03127247095108L128.68439708333332,106.03127247095108L131.16730375,87.1812342703342L133.65021041666665,91.89372977614399L136.13311708333333,139.01874101161957L138.61602375,136.66249325871468L141.09893041666666,113.10001572966576L143.5818370833333,96.60622528195381L146.06474375,176.71876123547554L148.54765041666667,167.29377022385597L151.03055708333332,172.00626572966576L153.51346375,155.5124752819538L155.99637041666665,188.5L158.47927708333333,254.47499325871468L160.96218375,249.7624977529049L163.44509041666666,249.7624977529049L165.92799708333334,254.47499325871468L168.41090375,332.23122528195387L170.89381041666667,287.46251797676086L173.37671708333335,296.88750898838043L175.85962375,313.38124325871473L178.34253041666665,294.53126123547554L180.82543708333336,303.9562522470951L183.30834375,320.4499865174294L185.79125041666666,313.38124325871473L188.2741570833333,329.874977529049L190.75706375,318.0937387645245L193.2399704166667,285.106270223856L195.72287708333334,351.0812634825707L198.20578375,285.106270223856L200.68869041666667,275.6812230348587L203.17159708333332,273.3249752819538L205.65450375000003,289.81876572966576L208.13741041666668,275.6812230348587L210.62031708333333,273.3249752819538L213.10322375,273.3249752819538L215.58613041666666,259.18748876452446L218.0690370833333,249.7624977529049L220.55194375000002,256.83124101161957L223.03485041666667,230.91251572966576L225.51775708333335,245.0500022470951L228.00066375,254.47499325871468L230.48357041666665,249.7624977529049L232.96647708333333,228.55626797676086L235.44938375,228.55626797676086L237.9322904166667,219.1312769651413L240.41519708333334,212.06247752904892L242.89810375,230.91251572966576L245.38101041666667,214.4187252819538L247.86391708333332,223.84377247095108L250.34682375000003,209.70622977614403L252.82973041666668,228.55626797676086L255.31263708333333,247.40625L257.79554375,221.4875247180462L260.27845041666666,256.83124101161957L262.76135708333334,216.7749730348587L265.24426375,237.98125898838043L267.7271704166667,202.63748651742935L270.2100770833333,216.7749730348587L272.69298375,226.20002022385597L275.1758904166667,195.56874325871468L277.65879708333335,209.70622977614403L280.14170375000003,195.56874325871468L282.62461041666666,204.99373427033424L285.10751708333333,226.20002022385597L287.59042375,209.70622977614403L290.07333041666664,221.4875247180462L292.5562370833334,197.92499101161957L295.03914375,209.70622977614403L297.5220504166667,146.08748427033424L300.00495708333335,195.56874325871468L302.48786375,226.20002022385597L304.97077041666665,221.4875247180462L307.45367708333333,183.78750449419022L309.93658375,219.1312769651413L312.4194904166667,190.8562477529049L314.9023970833333,197.92499101161957L317.38530375,212.06247752904892L319.86821041666667,193.21249550580978L322.35111708333335,164.93752247095108L324.83402375000003,209.70622977614403L327.31693041666665,167.29377022385597L329.79983708333333,167.29377022385597L332.28274375,195.56874325871468L334.76565041666663,200.28123876452446L337.24855708333337,172.00626572966576L339.73146375,157.8687230348587L342.21437041666667,200.28123876452446L344.69727708333335,200.28123876452446L347.18018374999997,179.07500898838043L349.66309041666665,169.65001797676086L352.1459970833333,176.71876123547554L354.62890375,195.56874325871468L357.1118104166667,157.8687230348587L359.5947170833333,181.43125674128532L362.07762375,172.00626572966576L364.56053041666667,183.78750449419022L367.0434370833333,195.56874325871468L369.52634375,167.29377022385597L372.0092504166667,204.99373427033424L374.4921570833333,155.5124752819538L376.97506375,172.00626572966576L379.4579704166666,181.43125674128532L381.94087708333336,193.21249550580978L384.42378375,157.8687230348587L386.90669041666666,174.36251348257065L389.38959708333334,193.21249550580978L391.87250374999996,204.99373427033424L394.3554104166667,183.78750449419022L396.8383170833333,200.28123876452446L399.32122375,195.56874325871468L401.8041304166667,197.92499101161957L404.2870370833333,183.78750449419022L406.76994375000004,200.28123876452446L409.25285041666666,181.43125674128532L411.73575708333334,204.99373427033424L414.21866374999996,212.06247752904892L416.70157041666664,195.56874325871468L419.1844770833334,197.92499101161957L421.66738375,200.28123876452446L424.1502904166667,179.07500898838043L426.6331970833333,174.36251348257065L429.11610375,202.63748651742935L431.5990104166667,202.63748651742935L434.08191708333334,188.5L436.56482375,188.5L439.04773041666664,188.5L441.5306370833333,197.92499101161957L444.01354375000005,228.55626797676086L446.4964504166667,188.5L448.97935708333335,148.44373202323914L451.46226375,197.92499101161957L453.94517041666666,186.1437522470951L456.4280770833333,186.1437522470951L458.91098375,172.00626572966576L461.3938904166667,179.07500898838043L463.8767970833333,202.63748651742935L466.35970375,162.5812747180462L468.8426104166666,174.36251348257065L471.32551708333335,200.28123876452446L473.80842375000003,204.99373427033424L476.29133041666665,169.65001797676086L478.77423708333333,150.79997977614403L481.25714374999995,143.73123651742935L483.7400504166667,162.5812747180462L486.2229570833333,226.20002022385597L488.70586375,207.34998202323914L491.18877041666667,186.1437522470951L493.6716770833333,160.2250269651413L496.15458375000003,172.00626572966576L498.63749041666665,179.07500898838043L501.12039708333333,200.28123876452446L503.60330375,162.5812747180462L506.08621041666663,181.43125674128532L508.56911708333337,172.00626572966576L511.05202375,174.36251348257065L513.5349304166667,200.28123876452446L516.0178370833333,164.93752247095108L518.50074375,179.07500898838043L520.9836504166667,186.1437522470951L523.4665570833333,148.44373202323914L525.9494637500001,143.73123651742935L528.4323704166667,195.56874325871468L530.9152770833333,155.5124752819538L533.39818375,200.28123876452446L535.8810904166667,212.06247752904892L538.3639970833334,179.07500898838043L540.84690375,181.43125674128532L543.3298104166666,172.00626572966576L545.8127170833334,181.43125674128532L548.29562375,188.5L550.7785304166667,188.5L553.2614370833334,164.93752247095108L555.74434375,214.4187252819538L558.2272504166666,242.69375449419022L560.7101570833333,153.15622752904892L563.1930637500001,188.5L565.6759704166667,190.8562477529049L568.1588770833333,183.78750449419022L570.64178375,190.8562477529049L573.1246904166667,226.20002022385597L575.6075970833334,183.78750449419022L578.09050375,167.29377022385597L580.5734104166667,174.36251348257065L583.0563170833333,160.2250269651413L585.53922375,153.15622752904892L588.0221304166668,195.56874325871468L590.5050370833334,169.65001797676086L592.98794375,197.92499101161957L595.4708504166666,197.92499101161957L597.9537570833334,202.63748651742935L600.43666375,219.1312769651413L602.9195704166667,209.70622977614403L605.4024770833333,204.99373427033424L607.88538375,176.71876123547554L610.3682904166667,157.8687230348587L612.8511970833333,176.71876123547554L615.33410375,212.06247752904892L617.8170104166667,195.56874325871468L620.2999170833333,164.93752247095108L622.78282375,176.71876123547554L625.2657304166667,155.5124752819538L627.7486370833334,200.28123876452446L630.23154375,143.73123651742935L632.7144504166666,228.55626797676086L635.1973570833334,167.29377022385597L637.68026375,164.93752247095108L640.1631704166667,172.00626572966576L642.6460770833334,202.63748651742935L645.12898375,172.00626572966576L647.6118904166667,176.71876123547554L650.0947970833333,146.08748427033424L652.5777037500001,197.92499101161957L655.0606104166667,155.5124752819538L657.5435170833333,183.78750449419022L660.02642375,162.5812747180462L662.5093304166667,207.34998202323914L664.9922370833334,193.21249550580978L667.47514375,150.79997977614403L669.9580504166667,202.63748651742935L672.4409570833333,193.21249550580978L674.92386375,190.8562477529049L677.4067704166667,176.71876123547554L679.8896770833334,193.21249550580978L682.37258375,207.34998202323914L684.8554904166666,202.63748651742935L687.3383970833333,164.93752247095108L689.8213037500001,212.06247752904892L692.3042104166667,221.4875247180462L694.7871170833333,153.15622752904892L697.27002375,160.2250269651413L699.7529304166667,193.21249550580978L702.2358370833333,160.2250269651413L704.71874375,195.56874325871468L707.2016504166667,193.21249550580978L709.6845570833333,160.2250269651413L712.16746375,188.5L714.6503704166666,150.79997977614403L717.1332770833334,197.92499101161957L719.61618375,179.07500898838043L722.0990904166666,164.93752247095108L724.5819970833334,174.36251348257065L727.06490375,179.07500898838043L729.5478104166666,172.00626572966576L732.0307170833333,193.21249550580978L734.51362375,179.07500898838043L736.9965304166666,200.28123876452446L739.4794370833334,195.56874325871468L741.9623437500001,148.44373202323914L744.4452504166667,195.56874325871468L746.9281570833334,204.99373427033424L749.41106375,136.66249325871468L751.8939704166667,155.5124752819538L754.3768770833333,155.5124752819538L756.85978375,183.78750449419022L759.3426904166666,186.1437522470951L761.8255970833333,202.63748651742935L764.3085037500001,181.43125674128532L766.7914104166667,193.21249550580978L769.2743170833334,188.5L771.75722375,204.99373427033424L774.2401304166667,167.29377022385597L776.7230370833333,169.65001797676086L779.20594375,162.5812747180462L781.6888504166667,143.73123651742935L784.1717570833333,174.36251348257065L786.6546637499999,202.63748651742935L789.1375704166666,186.1437522470951L791.6204770833334,183.78750449419022L794.10338375,164.93752247095108L796.5862904166667,172.00626572966576L799.0691970833334,160.2250269651413L801.55210375,212.06247752904892L804.0350104166666,172.00626572966576L806.5179170833334,190.8562477529049L809.00082375,181.43125674128532L811.4837304166666,197.92499101161957L813.9666370833332,179.07500898838043L816.4495437500001,188.5L818.9324504166667,179.07500898838043L821.4153570833333,183.78750449419022L823.8982637500001,186.1437522470951L826.3811704166667,202.63748651742935L828.8640770833333,207.34998202323914L831.3469837499999,207.34998202323914L833.8298904166667,160.2250269651413L836.3127970833333,200.28123876452446L838.7957037499999,174.36251348257065L841.2786104166668,193.21249550580978L843.7615170833334,190.8562477529049L846.24442375,193.21249550580978L848.7273304166667,157.8687230348587L851.2102370833334,207.34998202323914L853.69314375,193.21249550580978L856.1760504166666,186.1437522470951L858.6589570833333,160.2250269651413L861.14186375,197.92499101161957L863.6247704166666,190.8562477529049L866.1076770833334,167.29377022385597L868.5905837500001,183.78750449419022L871.0734904166667,174.36251348257065L873.5563970833333,169.65001797676086L876.03930375,190.8562477529049L878.5222104166667,190.8562477529049L881.0051170833333,193.21249550580978L883.48802375,169.65001797676086L885.9709304166666,202.63748651742935L888.4538370833333,193.21249550580978L890.9367437500001,190.8562477529049L893.4196504166667,141.37498876452446L895.9025570833334,172.00626572966576L898.38546375,190.8562477529049L900.8683704166667,179.07500898838043L903.3512770833333,204.99373427033424L905.83418375,193.21249550580978L908.3170904166667,167.29377022385597L910.7999970833333,209.70622977614403L913.28290375,223.84377247095108L915.7658104166666,207.34998202323914L918.2487170833334,219.1312769651413L920.73162375,200.28123876452446L923.2145304166667,174.36251348257065L925.6974370833334,212.06247752904892L928.18034375,195.56874325871468L930.6632504166666,193.21249550580978L933.1461570833333,226.20002022385597L935.62906375,186.1437522470951L938.1119704166666,195.56874325871468L940.5948770833332,139.01874101161957L943.0777837500001,204.99373427033424L945.5606904166667,176.71876123547554L948.0435970833333,179.07500898838043L950.5265037500001,150.79997977614403L953.0094104166667,190.8562477529049L955.4923170833333,209.70622977614403L957.9752237499999,172.00626572966576L960.4581304166667,197.92499101161957L962.9410370833333,237.98125898838043L965.4239437499999,200.28123876452446L967.9068504166668,181.43125674128532L970.3897570833334,200.28123876452446L972.87266375,146.08748427033424L975.3555704166666,197.92499101161957L977.8384770833334,148.44373202323914L980.32138375,193.21249550580978L982.8042904166666,186.1437522470951L985.2871970833334,167.29377022385597L987.77010375,190.8562477529049L990.2530104166666,190.8562477529049L992.7359170833334,174.36251348257065L995.2188237500001,195.56874325871468L997.7017304166667,186.1437522470951L1000.1846370833333,160.2250269651413L1002.66754375,200.28123876452446L1005.1504504166667,167.29377022385597L1007.6333570833333,230.91251572966576L1010.11626375,186.1437522470951L1012.5991704166667,176.71876123547554L1015.0820770833333,188.5L1017.5649837499999,190.8562477529049L1020.0478904166667,197.92499101161957L1022.5307970833334,237.98125898838043L1025.0137037499999,169.65001797676086L1027.4966104166667,202.63748651742935L1029.9795170833333,202.63748651742935L1032.46242375,214.4187252819538L1034.9453304166666,200.28123876452446L1037.4282370833334,174.36251348257065L1039.91114375,157.8687230348587L1042.3940504166667,190.8562477529049L1044.8769570833333,212.06247752904892L1047.35986375,214.4187252819538L1049.8427704166666,209.70622977614403L1052.3256770833334,164.93752247095108L1054.80858375,188.5L1057.2914904166666,242.69375449419022L1059.7743970833333,233.26876348257065L1062.2573037500001,200.28123876452446L1064.7402104166667,162.5812747180462L1067.2231170833334,221.4875247180462L1069.70602375,176.71876123547554L1072.1889304166666,200.28123876452446L1074.6718370833332,190.8562477529049L1077.1547437499999,204.99373427033424L1079.6376504166667,237.98125898838043L1082.1205570833333,200.28123876452446L1084.60346375,204.99373427033424L1087.0863704166668,235.62501123547554L1089.5692770833334,207.34998202323914L1092.05218375,216.7749730348587L1094.5350904166667,209.70622977614403L1097.0179970833333,230.91251572966576L1099.50090375,204.99373427033424L1101.9838104166665,233.26876348257065L1104.4667170833334,216.7749730348587L1106.94962375,200.28123876452446L1109.4325304166666,197.92499101161957L1111.9154370833335,188.5L1114.39834375,190.8562477529049L1116.8812504166667,162.5812747180462L1119.3641570833333,216.7749730348587L1121.84706375,247.40625L1124.3299704166666,179.07500898838043L1126.8128770833332,155.5124752819538L1129.29578375,245.0500022470951L1131.7786904166667,176.71876123547554L1134.2615970833333,190.8562477529049L1136.7445037500001,226.20002022385597L1139.2274104166668,237.98125898838043L1141.7103170833334,176.71876123547554L1144.19322375,212.06247752904892L1146.6761304166666,190.8562477529049L1149.1590370833333,219.1312769651413L1151.6419437499999,221.4875247180462L1154.1248504166667,212.06247752904892L1156.6077570833334,214.4187252819538L1159.09066375,183.78750449419022L1161.5735704166666,195.56874325871468L1164.0564770833334,181.43125674128532L1166.53938375,221.4875247180462L1169.0222904166667,190.8562477529049L1171.5051970833333,167.29377022385597L1173.98810375,186.1437522470951L1176.4710104166666,202.63748651742935L1178.9539170833332,204.99373427033424L1181.43682375,204.99373427033424L1183.9197304166667,221.4875247180462L1186.4026370833333,197.92499101161957L1188.8855437500001,223.84377247095108L1191.3684504166667,172.00626572966576L1193.8513570833334,183.78750449419022L1196.33426375,207.34998202323914L1198.8171704166666,195.56874325871468L1201.3000770833332,226.20002022385597L1203.7829837499999,155.5124752819538L1206.2658904166667,278.0375269651413L1208.7487970833333,237.98125898838043L1211.23170375,188.5L1213.7146104166668,174.36251348257065L1216.1975170833334,223.84377247095108L1218.68042375,207.34998202323914L1221.1633304166667,212.06247752904892L1223.6462370833333,216.7749730348587L1226.12914375,169.65001797676086L1228.6120504166665,228.55626797676086L1231.0949570833334,200.28123876452446L1233.57786375,228.55626797676086L1236.0607704166666,209.70622977614403L1238.5436770833335,202.63748651742935L1241.02658375,204.99373427033424L1243.5094904166667,207.34998202323914L1245.9923970833333,214.4187252819538L1248.47530375,212.06247752904892L1250.9582104166666,202.63748651742935L1253.4411170833332,190.8562477529049L1255.92402375,179.07500898838043L1258.4069304166667,188.5L1260.8898370833333,193.21249550580978L1263.37274375,202.63748651742935L1265.8556504166668,212.06247752904892L1268.3385570833334,190.8562477529049L1270.82146375,237.98125898838043L1273.3043704166666,200.28123876452446L1275.7872770833333,181.43125674128532L1278.27018375,186.1437522470951L1280.7530904166667,174.36251348257065L1283.2359970833334,169.65001797676086L1285.71890375,216.7749730348587L1288.2018104166666,212.06247752904892L1290.6847170833335,216.7749730348587L1293.16762375,226.20002022385597L1295.6505304166667,188.5L1298.1334370833333,216.7749730348587L1300.61634375,183.78750449419022L1303.0992504166666,247.40625L1305.5821570833332,150.79997977614403L1308.06506375,214.4187252819538L1310.5479704166667,214.4187252819538L1313.0308770833333,221.4875247180462L1315.5137837500001,216.7749730348587L1317.9966904166668,204.99373427033424L1320.4795970833334,197.92499101161957L1322.96250375,195.56874325871468L1325.4454104166666,202.63748651742935L1327.9283170833332,176.71876123547554L1330.4112237499999,202.63748651742935L1332.8941304166667,204.99373427033424L1335.3770370833333,226.20002022385597" style="fill: none;" fill="none"></path></g></g></g></g></g></g><g transform="translate(41, 377)" clip-path="url(#clip_1)"><clipPath id="clip_1"><rect width="1454" height="23"></rect></clipPath><g><g><line x1="0" y1="0" x2="0" y2="5" style="visibility: inherit;" fill="rgb(0, 0, 0)" stroke="rgb(204, 204, 204)" stroke-width="1px"></line><line x1="121.23567708333333" y1="0" x2="121.23567708333333" y2="5" style="visibility: inherit;" fill="rgb(0, 0, 0)" stroke="rgb(204, 204, 204)" stroke-width="1px"></line><line x1="242.47135416666666" y1="0" x2="242.47135416666666" y2="5" style="visibility: inherit;" fill="rgb(0, 0, 0)" stroke="rgb(204, 204, 204)" stroke-width="1px"></line><line x1="363.70703125" y1="0" x2="363.70703125" y2="5" style="visibility: inherit;" fill="rgb(0, 0, 0)" stroke="rgb(204, 204, 204)" stroke-width="1px"></line><line x1="484.9427083333333" y1="0" x2="484.9427083333333" y2="5" style="visibility: inherit;" fill="rgb(0, 0, 0)" stroke="rgb(204, 204, 204)" stroke-width="1px"></line><line x1="606.1783854166667" y1="0" x2="606.1783854166667" y2="5" style="visibility: inherit;" fill="rgb(0, 0, 0)" stroke="rgb(204, 204, 204)" stroke-width="1px"></line><line x1="727.4140625" y1="0" x2="727.4140625" y2="5" style="visibility: inherit;" fill="rgb(0, 0, 0)" stroke="rgb(204, 204, 204)" stroke-width="1px"></line><line x1="848.6497395833334" y1="0" x2="848.6497395833334" y2="5" style="visibility: inherit;" fill="rgb(0, 0, 0)" stroke="rgb(204, 204, 204)" stroke-width="1px"></line><line x1="969.8854166666666" y1="0" x2="969.8854166666666" y2="5" style="visibility: inherit;" fill="rgb(0, 0, 0)" stroke="rgb(204, 204, 204)" stroke-width="1px"></line><line x1="1091.12109375" y1="0" x2="1091.12109375" y2="5" style="visibility: inherit;" fill="rgb(0, 0, 0)" stroke="rgb(204, 204, 204)" stroke-width="1px"></line><line x1="1212.3567708333335" y1="0" x2="1212.3567708333335" y2="5" style="visibility: inherit;" fill="rgb(0, 0, 0)" stroke="rgb(204, 204, 204)" stroke-width="1px"></line><line x1="1333.5924479166665" y1="0" x2="1333.5924479166665" y2="5" style="visibility: inherit;" fill="rgb(0, 0, 0)" stroke="rgb(204, 204, 204)" stroke-width="1px"></line><line x1="1454.828125" y1="0" x2="1454.828125" y2="5" style="visibility: inherit;" fill="rgb(0, 0, 0)" stroke="rgb(204, 204, 204)" stroke-width="1px"></line></g><g transform="translate(0, 8)"><text x="0" y="0" dx="0em" dy="0.95em" style="text-anchor: middle; visibility: hidden; font-family: Roboto, sans-serif; font-size: 12px; font-weight: 200;" fill="rgb(33, 33, 33)" stroke="none" stroke-width="1px">-100k</text><text x="121.23567708333333" y="0" dx="0em" dy="0.95em" style="text-anchor: middle; visibility: inherit; font-family: Roboto, sans-serif; font-size: 12px; font-weight: 200;" fill="rgb(33, 33, 33)" stroke="none" stroke-width="1px">0</text><text x="242.47135416666666" y="0" dx="0em" dy="0.95em" style="text-anchor: middle; visibility: inherit; font-family: Roboto, sans-serif; font-size: 12px; font-weight: 200;" fill="rgb(33, 33, 33)" stroke="none" stroke-width="1px">100k</text><text x="363.70703125" y="0" dx="0em" dy="0.95em" style="text-anchor: middle; visibility: inherit; font-family: Roboto, sans-serif; font-size: 12px; font-weight: 200;" fill="rgb(33, 33, 33)" stroke="none" stroke-width="1px">200k</text><text x="484.9427083333333" y="0" dx="0em" dy="0.95em" style="text-anchor: middle; visibility: inherit; font-family: Roboto, sans-serif; font-size: 12px; font-weight: 200;" fill="rgb(33, 33, 33)" stroke="none" stroke-width="1px">300k</text><text x="606.1783854166667" y="0" dx="0em" dy="0.95em" style="text-anchor: middle; visibility: inherit; font-family: Roboto, sans-serif; font-size: 12px; font-weight: 200;" fill="rgb(33, 33, 33)" stroke="none" stroke-width="1px">400k</text><text x="727.4140625" y="0" dx="0em" dy="0.95em" style="text-anchor: middle; visibility: inherit; font-family: Roboto, sans-serif; font-size: 12px; font-weight: 200;" fill="rgb(33, 33, 33)" stroke="none" stroke-width="1px">500k</text><text x="848.6497395833334" y="0" dx="0em" dy="0.95em" style="text-anchor: middle; visibility: inherit; font-family: Roboto, sans-serif; font-size: 12px; font-weight: 200;" fill="rgb(33, 33, 33)" stroke="none" stroke-width="1px">600k</text><text x="969.8854166666666" y="0" dx="0em" dy="0.95em" style="text-anchor: middle; visibility: inherit; font-family: Roboto, sans-serif; font-size: 12px; font-weight: 200;" fill="rgb(33, 33, 33)" stroke="none" stroke-width="1px">700k</text><text x="1091.12109375" y="0" dx="0em" dy="0.95em" style="text-anchor: middle; visibility: inherit; font-family: Roboto, sans-serif; font-size: 12px; font-weight: 200;" fill="rgb(33, 33, 33)" stroke="none" stroke-width="1px">800k</text><text x="1212.3567708333335" y="0" dx="0em" dy="0.95em" style="text-anchor: middle; visibility: inherit; font-family: Roboto, sans-serif; font-size: 12px; font-weight: 200;" fill="rgb(33, 33, 33)" stroke="none" stroke-width="1px">900k</text><text x="1333.5924479166665" y="0" dx="0em" dy="0.95em" style="text-anchor: middle; visibility: inherit; font-family: Roboto, sans-serif; font-size: 12px; font-weight: 200;" fill="rgb(33, 33, 33)" stroke="none" stroke-width="1px">1M</text><text x="1454.828125" y="0" dx="0em" dy="0.95em" style="text-anchor: middle; visibility: hidden; font-family: Roboto, sans-serif; font-size: 12px; font-weight: 200;" fill="rgb(33, 33, 33)" stroke="none" stroke-width="1px">1.1M</text></g><line x1="0" y1="0" x2="1454.828125" y2="0" fill="rgb(0, 0, 0)" stroke="rgb(204, 204, 204)" stroke-width="1px"></line></g></g></g></g></svg>