<svg viewBox="0 0 1496 400" xmlns="http://www.w3.org/2000/svg"><g><g><g><g><g><line x1="51.5625" y1="377" x2="46.5625" y2="377" style="visibility: inherit;" fill="rgb(0, 0, 0)" stroke="rgb(204, 204, 204)" stroke-width="1px"></line><line x1="51.5625" y1="335.1111111111111" x2="46.5625" y2="335.1111111111111" style="visibility: inherit;" fill="rgb(0, 0, 0)" stroke="rgb(204, 204, 204)" stroke-width="1px"></line><line x1="51.5625" y1="293.22222222222223" x2="46.5625" y2="293.22222222222223" style="visibility: inherit;" fill="rgb(0, 0, 0)" stroke="rgb(204, 204, 204)" stroke-width="1px"></line><line x1="51.5625" y1="251.33333333333331" x2="46.5625" y2="251.33333333333331" style="visibility: inherit;" fill="rgb(0, 0, 0)" stroke="rgb(204, 204, 204)" stroke-width="1px"></line><line x1="51.5625" y1="209.44444444444446" x2="46.5625" y2="209.44444444444446" style="visibility: inherit;" fill="rgb(0, 0, 0)" stroke="rgb(204, 204, 204)" stroke-width="1px"></line><line x1="51.5625" y1="167.55555555555554" x2="46.5625" y2="167.55555555555554" style="visibility: inherit;" fill="rgb(0, 0, 0)" stroke="rgb(204, 204, 204)" stroke-width="1px"></line><line x1="51.5625" y1="125.66666666666664" x2="46.5625" y2="125.66666666666664" style="visibility: inherit;" fill="rgb(0, 0, 0)" stroke="rgb(204, 204, 204)" stroke-width="1px"></line><line x1="51.5625" y1="83.77777777777781" x2="46.5625" y2="83.77777777777781" style="visibility: inherit;" fill="rgb(0, 0, 0)" stroke="rgb(204, 204, 204)" stroke-width="1px"></line><line x1="51.5625" y1="41.888888888888864" x2="46.5625" y2="41.888888888888864" style="visibility: inherit;" fill="rgb(0, 0, 0)" stroke="rgb(204, 204, 204)" stroke-width="1px"></line><line x1="51.5625" y1="0" x2="46.5625" y2="0" style="visibility: inherit;" fill="rgb(0, 0, 0)" stroke="rgb(204, 204, 204)" stroke-width="1px"></line></g><g transform="translate(41.5625, 0)"><text x="0" y="377" dx="0em" dy="0.3em" style="text-anchor: end; visibility: hidden; font-family: Roboto, sans-serif; font-size: 12px; font-weight: 200;" fill="rgb(33, 33, 33)" stroke="none" stroke-width="1px">-0.8</text><text x="0" y="335.1111111111111" dx="0em" dy="0.3em" style="text-anchor: end; visibility: inherit; font-family: Roboto, sans-serif; font-size: 12px; font-weight: 200;" fill="rgb(33, 33, 33)" stroke="none" stroke-width="1px">-0.6</text><text x="0" y="293.22222222222223" dx="0em" dy="0.3em" style="text-anchor: end; visibility: inherit; font-family: Roboto, sans-serif; font-size: 12px; font-weight: 200;" fill="rgb(33, 33, 33)" stroke="none" stroke-width="1px">-0.4</text><text x="0" y="251.33333333333331" dx="0em" dy="0.3em" style="text-anchor: end; visibility: inherit; font-family: Roboto, sans-serif; font-size: 12px; font-weight: 200;" fill="rgb(33, 33, 33)" stroke="none" stroke-width="1px">-0.2</text><text x="0" y="209.44444444444446" dx="0em" dy="0.3em" style="text-anchor: end; visibility: inherit; font-family: Roboto, sans-serif; font-size: 12px; font-weight: 200;" fill="rgb(33, 33, 33)" stroke="none" stroke-width="1px">0</text><text x="0" y="167.55555555555554" dx="0em" dy="0.3em" style="text-anchor: end; visibility: inherit; font-family: Roboto, sans-serif; font-size: 12px; font-weight: 200;" fill="rgb(33, 33, 33)" stroke="none" stroke-width="1px">0.2</text><text x="0" y="125.66666666666664" dx="0em" dy="0.3em" style="text-anchor: end; visibility: inherit; font-family: Roboto, sans-serif; font-size: 12px; font-weight: 200;" fill="rgb(33, 33, 33)" stroke="none" stroke-width="1px">0.4</text><text x="0" y="83.77777777777781" dx="0em" dy="0.3em" style="text-anchor: end; visibility: inherit; font-family: Roboto, sans-serif; font-size: 12px; font-weight: 200;" fill="rgb(33, 33, 33)" stroke="none" stroke-width="1px">0.6</text><text x="0" y="41.888888888888864" dx="0em" dy="0.3em" style="text-anchor: end; visibility: inherit; font-family: Roboto, sans-serif; font-size: 12px; font-weight: 200;" fill="rgb(33, 33, 33)" stroke="none" stroke-width="1px">0.8</text><text x="0" y="0" dx="0em" dy="0.3em" style="text-anchor: end; visibility: hidden; font-family: Roboto, sans-serif; font-size: 12px; font-weight: 200;" fill="rgb(33, 33, 33)" stroke="none" stroke-width="1px">1</text></g><line x1="51.5625" y1="0" x2="51.5625" y2="377" fill="rgb(0, 0, 0)" stroke="rgb(204, 204, 204)" stroke-width="1px"></line></g></g><g transform="translate(51, 0)" clip-path="url(#clip_0)"><clipPath id="clip_0"><rect width="1444" height="377"></rect></clipPath><g><g><g><line x1="0" y1="0" x2="0" y2="377" fill="rgb(0, 0, 0)" stroke="rgb(66, 66, 66)" stroke-width="1px" opacity="0.25"></line><line x1="120.36979166666666" y1="0" x2="120.36979166666666" y2="377" fill="rgb(0, 0, 0)" stroke="rgb(66, 66, 66)" stroke-width="1px" opacity="0.25"></line><line x1="240.73958333333331" y1="0" x2="240.73958333333331" y2="377" fill="rgb(0, 0, 0)" stroke="rgb(66, 66, 66)" stroke-width="1px" opacity="0.25"></line><line x1="361.109375" y1="0" x2="361.109375" y2="377" fill="rgb(0, 0, 0)" stroke="rgb(66, 66, 66)" stroke-width="1px" opacity="0.25"></line><line x1="481.47916666666663" y1="0" x2="481.47916666666663" y2="377" fill="rgb(0, 0, 0)" stroke="rgb(66, 66, 66)" stroke-width="1px" opacity="0.25"></line><line x1="601.8489583333334" y1="0" x2="601.8489583333334" y2="377" fill="rgb(0, 0, 0)" stroke="rgb(66, 66, 66)" stroke-width="1px" opacity="0.25"></line><line x1="722.21875" y1="0" x2="722.21875" y2="377" fill="rgb(0, 0, 0)" stroke="rgb(66, 66, 66)" stroke-width="1px" opacity="0.25"></line><line x1="842.5885416666667" y1="0" x2="842.5885416666667" y2="377" fill="rgb(0, 0, 0)" stroke="rgb(66, 66, 66)" stroke-width="1px" opacity="0.25"></line><line x1="962.9583333333333" y1="0" x2="962.9583333333333" y2="377" fill="rgb(0, 0, 0)" stroke="rgb(66, 66, 66)" stroke-width="1px" opacity="0.25"></line><line x1="1083.328125" y1="0" x2="1083.328125" y2="377" fill="rgb(0, 0, 0)" stroke="rgb(66, 66, 66)" stroke-width="1px" opacity="0.25"></line><line x1="1203.6979166666667" y1="0" x2="1203.6979166666667" y2="377" fill="rgb(0, 0, 0)" stroke="rgb(66, 66, 66)" stroke-width="1px" opacity="0.25"></line><line x1="1324.0677083333333" y1="0" x2="1324.0677083333333" y2="377" fill="rgb(0, 0, 0)" stroke="rgb(66, 66, 66)" stroke-width="1px" opacity="0.25"></line><line x1="1444.4375" y1="0" x2="1444.4375" y2="377" fill="rgb(0, 0, 0)" stroke="rgb(66, 66, 66)" stroke-width="1px" opacity="0.25"></line></g><g><line x1="0" y1="377" x2="1444.4375" y2="377" fill="rgb(0, 0, 0)" stroke="rgb(66, 66, 66)" stroke-width="1px" opacity="0.25"></line><line x1="0" y1="335.1111111111111" x2="1444.4375" y2="335.1111111111111" fill="rgb(0, 0, 0)" stroke="rgb(66, 66, 66)" stroke-width="1px" opacity="0.25"></line><line x1="0" y1="293.22222222222223" x2="1444.4375" y2="293.22222222222223" fill="rgb(0, 0, 0)" stroke="rgb(66, 66, 66)" stroke-width="1px" opacity="0.25"></line><line x1="0" y1="251.33333333333331" x2="1444.4375" y2="251.33333333333331" fill="rgb(0, 0, 0)" stroke="rgb(66, 66, 66)" stroke-width="1px" opacity="0.25"></line><line x1="0" y1="209.44444444444446" x2="1444.4375" y2="209.44444444444446" fill="rgb(0, 0, 0)" stroke="rgb(66, 66, 66)" stroke-width="1px" opacity="0.25"></line><line x1="0" y1="167.55555555555554" x2="1444.4375" y2="167.55555555555554" fill="rgb(0, 0, 0)" stroke="rgb(66, 66, 66)" stroke-width="1px" opacity="0.25"></line><line x1="0" y1="125.66666666666664" x2="1444.4375" y2="125.66666666666664" fill="rgb(0, 0, 0)" stroke="rgb(66, 66, 66)" stroke-width="1px" opacity="0.25"></line><line x1="0" y1="83.77777777777781" x2="1444.4375" y2="83.77777777777781" fill="rgb(0, 0, 0)" stroke="rgb(66, 66, 66)" stroke-width="1px" opacity="0.25"></line><line x1="0" y1="41.888888888888864" x2="1444.4375" y2="41.888888888888864" fill="rgb(0, 0, 0)" stroke="rgb(66, 66, 66)" stroke-width="1px" opacity="0.25"></line><line x1="0" y1="0" x2="1444.4375" y2="0" fill="rgb(0, 0, 0)" stroke="rgb(66, 66, 66)" stroke-width="1px" opacity="0.25"></line></g></g></g><g><g><line x1="0" y1="209.44444444444446" x2="1444.4375" y2="209.44444444444446" fill="rgb(0, 0, 0)" stroke="rgb(153, 153, 153)" stroke-width="1.5px"></line></g></g><g><g><line x1="120.36979166666666" y1="0" x2="120.36979166666666" y2="377" fill="rgb(0, 0, 0)" stroke="rgb(153, 153, 153)" stroke-width="1.5px"></line></g></g><g><g><g><g><g><path stroke="rgb(51, 187, 238)" stroke-width="2px" d="M122.83496500000001,323.3376360601849L125.30013833333334,309.81791031857335L127.76531166666666,302.31855363836365L130.23048500000002,288.60857336891485L132.69565833333334,282.34881578627L135.16083166666667,274.65549315272455L137.626005,262.96026503245287L140.09117833333332,256.578026497567L142.55635166666667,249.52334168037487L145.021525,243.97440715174213L147.48669833333332,231.70970130691256L149.95187166666665,223.63096538071383L152.417045,217.37623868240937L154.88221833333333,215.1668451030842L157.34739166666665,212.1380794293559L159.812565,203.48192188967937L162.27773833333333,195.68417038781854L164.74291166666669,195.32552064113398L167.208085,192.81222350352394L169.67325833333334,189.4416511365291L172.13843166666666,188.4512390935875L174.60360500000002,184.64116685908277L177.06877833333334,182.50585324385838L179.53395166666667,178.50649684807428L181.999125,179.822712160849L184.46429833333332,177.8997897989658L186.92947166666664,175.5440623324807L189.39464499999997,174.925319310574L191.85981833333335,171.7423400216901L194.32499166666668,170.7348844261468L196.790165,171.26249538018195L199.25533833333333,167.87473032095122L201.72051166666665,166.94389589683664L204.185685,164.35889867986327L206.65085833333333,166.3959870240971L209.1160316666667,165.53835996443212L211.581205,161.8266754689505L214.04637833333334,160.83533989408545L216.51155166666666,159.075686890053L218.97672500000002,158.471945710402L221.44189833333334,157.53739334314886L223.90707166666667,157.10980480526402L226.372245,156.47313057730798L228.83741833333332,153.4398758963468L231.30259166666664,153.57782953980015L233.76776500000003,151.93528210180818L236.23293833333335,150.1022717061419L238.69811166666668,151.41466963509362L241.163285,148.18891138097388L243.62845833333333,149.57544199119906L246.09363166666665,149.92718110046164L248.558805,151.095299824117L251.02397833333333,147.40675539680637L253.48915166666666,149.00035765977526L255.95432499999998,149.90945236213162L258.4194983333333,146.69827051092687L260.88467166666663,148.54925285721234L263.349845,144.66862207551725L265.81501833333334,142.57751687572997L268.28019166666667,140.8854417124452L270.745365,139.407734454152L273.2105383333333,138.302397835539L275.6757116666667,136.3741936733044L278.140885,139.17264293993483L280.60605833333335,138.59999336950295L283.0712316666667,137.00066446156686L285.536405,137.31764684122302L288.0015783333333,135.54521840811668L290.4667516666667,134.74168283939898L292.93192500000004,134.87065901279772L295.39709833333336,133.67183201795348L297.8622716666667,134.4204407132796L300.327445,129.83752855840115L302.79261833333334,128.18161223507263L305.25779166666666,128.19588959057268L307.722965,125.16602887614053L310.1881383333333,122.62723434973515L312.65331166666664,120.78787374567901L315.11848499999996,114.11800805240686L317.5836583333333,112.50866317854215L320.0488316666667,112.07577009793985L322.514005,112.66361855014948L324.9791783333333,110.97770551370455L327.44435166666665,109.83974361137668L329.909525,114.62225381761466L332.3746983333333,117.0866611255984L334.8398716666667,111.54082128659898L337.305045,113.29212184965888L339.77021833333333,113.704737163903L342.23539166666666,114.74036260683631L344.700565,114.07906602366349L347.1657383333333,111.89176024654985L349.6309116666667,112.15106251169264L352.096085,110.63396369812305L354.56125833333334,108.569626323764L357.02643166666667,104.21517435785535L359.491605,103.48478489232564L361.9567783333334,102.59837558402789L364.42195166666664,102.26200729926926L366.887125,100.978979039778L369.35229833333335,101.32794080292562L371.8174716666667,102.88028676181261L374.282645,101.01582364891833L376.7478183333333,102.31777655409034L379.21299166666665,103.10111050204195L381.678165,101.43068287078658L384.1433383333333,99.46291444019282L386.6085116666667,98.46585103925217L389.07368499999995,99.44488400982841L391.53885833333334,100.01258927775962L394.00403166666666,95.615077577526L396.469205,93.84636614471354L398.93437833333337,89.30363993098149L401.39955166666664,92.54996905210828L403.864725,95.31046592218938L406.3298983333333,96.08551825894871L408.7950716666667,100.54378248077337L411.26024499999994,97.89764975931604L413.7254183333333,94.60957827755958L416.1905916666667,91.91011970791709L418.655765,92.29280105563099L421.12093833333336,93.60730738241729L423.5861116666666,92.20580752504753L426.051285,90.90446284235583L428.5164583333334,88.0568029200962L430.98163166666666,83.58056478661553L433.44680500000004,84.88872885482854L435.9119783333333,85.38747721115496L438.3771516666667,83.37870487822275L440.842325,83.14571458980683L443.30749833333334,83.84005210794818L445.77267166666667,81.86495145028188L448.237845,80.87462931128887L450.7030183333333,79.97751262669621L453.16819166666664,81.3827052394309L455.63336499999997,81.10131948602084L458.09853833333335,78.76635326591264L460.5637116666667,83.47374704336072L463.028885,87.27336266417934L465.4940583333333,85.29947587451453L467.95923166666665,86.00001217087774L470.42440500000004,85.17742070254089L472.8895783333333,79.06623291589653L475.3547516666667,86.4309994966193L477.81992499999996,82.99114365917866L480.28509833333334,83.57855770050277L482.7502716666666,83.71348731883968L485.215445,84.92287133701475L487.68061833333337,80.33805173709027L490.14579166666664,79.07959565763095L492.610965,74.67967881573554L495.0761383333333,82.08324513456543L497.5413116666667,75.76601890364743L500.00648500000005,73.05571697073192L502.4716583333333,75.64333349946678L504.9368316666667,77.17114542216183L507.402005,74.84746150746022L509.86717833333336,71.66072341678318L512.3323516666667,76.94562184539106L514.797525,71.52794368369051L517.2626983333333,73.383106394426L519.7278716666666,73.34215090237355L522.193045,73.41044255763998L524.6582183333333,71.72273727128002L527.1233916666666,73.22334516500226L529.588565,73.30234171025828L532.0537383333333,75.8603241242673L534.5189116666667,77.92841915143434L536.9840849999999,71.30289029722488L539.4492583333333,69.08701849302034L541.9144316666667,70.43884913847407L544.379605,70.74316765634883L546.8447783333334,69.94036262029942L549.3099516666666,72.6487207301132L551.775125,72.91463255212737L554.2402983333333,76.59702055582359L556.7054716666667,68.6153776886467L559.170645,67.06067590568884L561.6358183333333,64.1383367497986L564.1009916666667,67.80300414213464L566.566165,66.9037095843688L569.0313383333333,60.59288352893732L571.4965116666667,65.76872199873296L573.961685,59.827759736711116L576.4268583333334,59.77655053571917L578.8920316666666,66.45090714025798L581.357205,64.59661509881731L583.8223783333334,66.6646481994873L586.2875516666667,70.67153727343859L588.752725,65.09865286481421L591.2178983333333,67.67879424014909L593.6830716666667,67.84101062196693L596.148245,64.10792714927182L598.6134183333334,61.70083826062567L601.0785916666667,65.47784024311261L603.543765,68.43929265902996L606.0089383333334,68.49307659910724L608.4741116666667,67.01831515154534L610.939285,64.23716967615265L613.4044583333334,66.5257017664214L615.8696316666667,61.144597422208435L618.3348050000001,63.58273915583118L620.7999783333333,64.90259409560629L623.2651516666667,64.86712664069387L625.730325,65.53061095033412L628.1954983333334,63.1816227730042L630.6606716666666,64.2410583328097L633.125845,62.51483295545313L635.5910183333333,59.336118027679134L638.0561916666667,59.97006401260747L640.521365,66.13211743272707L642.9865383333333,62.277676774486075L645.4517116666667,64.18915169906737L647.916885,61.540703003439L650.3820583333334,67.62853460997309L652.8472316666666,65.4616517341201L655.312405,65.05880705942432L657.7775783333333,58.05165616132653L660.2427516666667,56.72459114069443L662.7079249999999,53.112721983772055L665.1730983333333,54.28538304551665L667.6382716666666,59.01904488792558L670.103445,59.388675773617194L672.5686183333333,56.0300627920554L675.0337916666666,62.07461594317846L677.498965,63.4584522968997L679.9641383333333,62.658980969178835L682.4293116666666,59.68502759617522L684.894485,57.05619723077457L687.3596583333333,57.51131664003435L689.8248316666667,53.78471379317809L692.290005,57.21543658014252L694.7551783333333,56.66089812525451L697.2203516666666,57.749502656509485L699.685525,52.74699164621368L702.1506983333334,52.34119448312852L704.6158716666666,51.80583850492278L707.081045,54.532784464321665L709.5462183333333,51.79122626657346L712.0113916666667,54.86739322799813L714.476565,58.1632387554151L716.9417383333333,60.5422270645004L719.4069116666667,58.36432073608842L721.872085,60.638432851673684L724.3372583333332,58.53840878017568L726.8024316666667,60.51190926874373L729.267605,58.06654149174842L731.7327783333333,58.5176059967421L734.1979516666668,58.876380763419995L736.663125,59.521729640014776L739.1282983333333,63.82635979034045L741.5934716666668,58.68372477001467L744.0586450000001,56.6348236085035L746.5238183333333,55.10567048873848L748.9889916666666,53.53320032833493L751.4541650000001,54.276577574879774L753.9193383333334,59.0414857656318L756.3845116666666,51.49266513264855L758.849685,54.413207112875334L761.3148583333334,53.213433573785146L763.7800316666667,61.327953957934156L766.2452049999999,58.17480630416149L768.7103783333333,54.27423440128315L771.1755516666667,52.20579476117274L773.640725,49.92975891870435L776.1058983333334,57.08046308569085L778.5710716666666,58.37023961723363L781.036245,61.313031695700154L783.5014183333333,58.14977872648159L785.9665916666667,55.67653064893675L788.431765,54.79443376905579L790.8969383333333,50.72673989058982L793.3621116666667,52.192753337815766L795.827285,47.05376683652122L798.2924583333333,46.868123922624505L800.7576316666667,53.69545327457489L803.222805,48.232658360729125L805.6879783333333,50.70985690017316L808.1531516666666,53.57557283331154L810.618325,54.41022617181325L813.0834983333333,58.01498557663072L815.5486716666666,58.885127352227734L818.0138450000001,62.82054489314225L820.4790183333333,58.69274402269855L822.9441916666666,54.2476331535195L825.409365,51.53668336132454L827.8745383333334,56.09675082136099L830.3397116666666,43.33425675042484L832.8048849999999,44.335721590699144L835.2700583333334,51.01982151980087L837.7352316666667,53.23847779938507L840.2004049999999,51.415938499093265L842.6655783333334,47.50485726612688L845.1307516666667,48.436770224412854L847.595925,44.97933536467062L850.0610983333332,40.9030073267049L852.5262716666667,42.65169316156994L854.991445,44.36354304857954L857.4566183333333,48.43754916030244L859.9217916666668,52.88398972997581L862.386965,54.90383678452546L864.8521383333333,52.38802396190655L867.3173116666666,50.2351180357353L869.7824850000001,47.1030834832691L872.2476583333333,52.924408009781594L874.7128316666666,53.53205245204816L877.1780050000001,53.08264139838509L879.6431783333334,50.53998316124249L882.1083516666666,49.51402232591078L884.5735250000001,53.98211899723869L887.0386983333334,50.92447534530451L889.5038716666667,46.2436735484082L891.9690449999999,47.055931824298064L894.4342183333334,51.35454984775269L896.8993916666667,52.278949837181145L899.364565,55.380392497290394L901.8297383333334,51.72516392532875L904.2949116666667,47.88383245585692L906.760085,52.0710361540748L909.2252583333333,54.31348225053083L911.6904316666667,54.05355525360069L914.155605,52.345185909741474L916.6207783333333,50.55779983644086L919.0859516666667,47.63233366966224L921.5511250000001,45.48065640544876L924.0162983333333,46.00838391128108L926.4814716666666,47.76283170997192L928.946645,49.55178856582894L931.4118183333334,44.66094781132745L933.8769916666666,48.55000232494531L936.342165,44.21240388918582L938.8073383333333,51.03945986172751L941.2725116666667,48.58263479449405L943.737685,49.242556042805276L946.2028583333333,52.588849791289356L948.6680316666666,46.88684771826588L951.133205,44.91614137314196L953.5983783333334,48.25068333943813L956.0635516666666,55.901873981158715L958.528725,43.36551408481643L960.9938983333334,37.8656293316738L963.4590716666667,35.52105845528512L965.9242449999999,38.59613214178812L968.3894183333333,43.043132721182644L970.8545916666667,41.18611296608532L973.319765,44.854248818656L975.7849383333332,46.93616911517928L978.2501116666667,48.318698871616625L980.715285,40.48959500368151L983.1804583333333,45.77207628950905L985.6456316666668,47.96065811090261L988.110805,43.39510678844538L990.5759783333333,39.31811023842757L993.0411516666666,42.04092515960216L995.5063250000001,44.28558429154681L997.9714983333333,48.0285521617574L1000.4366716666666,45.88912178701416L1002.9018450000001,38.80405822504646L1005.3670183333334,42.26129035948499L1007.8321916666666,37.91143939706289L1010.2973649999999,32.42012370448209L1012.7625383333334,36.290991014499205L1015.2277116666667,45.894309279410635L1017.6928849999999,41.47229542823614L1020.1580583333334,42.781185186192616L1022.6232316666667,39.538066750537496L1025.088405,39.20829650375182L1027.5535783333332,38.841402868109526L1030.0187516666667,42.64206886669652L1032.483925,44.88652992475423L1034.9490983333333,46.91178434031244L1037.4142716666668,45.59679778180738L1039.879445,49.06868766801884L1042.3446183333333,45.90680200491745L1044.8097916666668,42.02819212788314L1047.274965,45.28977145130488L1049.7401383333333,47.01941788486335L1052.2053116666666,48.69116121042121L1054.670485,50.8039975441662L1057.1356583333334,51.94968707359175L1059.6008316666666,48.736588109180026L1062.0660050000001,44.93034198137138L1064.5311783333334,38.90711345160545L1066.9963516666667,37.1489872673888L1069.461525,38.25445880663168L1071.9266983333334,38.58506179620553L1074.3918716666667,38.98184708153377L1076.857045,43.642406160670205L1079.3222183333335,43.94389677414226L1081.7873916666667,41.43545273629846L1084.252565,35.57570574892372L1086.7177383333335,41.90550477234213L1089.1829116666668,39.349283336499795L1091.648085,41.14693888227777L1094.1132583333333,43.059269410905394L1096.5784316666668,42.8711891441103L1099.043605,38.495102209627625L1101.5087783333333,45.51414204604233L1103.9739516666668,43.71075648513186L1106.439125,34.56265741323148L1108.9042983333334,38.72034756581813L1111.3694716666666,42.057172903860604L1113.8346450000001,44.841556816962346L1116.2998183333334,36.79583280795166L1118.7649916666667,35.293789562662525L1121.2301650000002,36.43482352056245L1123.6953383333334,37.03722018852716L1126.1605116666667,36.400733238918235L1128.625685,39.46116606514746L1131.0908583333335,34.842769901679496L1133.5560316666667,31.127527806927045L1136.021205,39.858074604400244L1138.4863783333333,41.54859404897389L1140.9515516666668,39.06526722525308L1143.416725,38.28069920151284L1145.8818983333333,35.937164408153734L1148.3470716666666,34.61324227119011L1150.812245,38.457467549629165L1153.2774183333333,32.342459515881835L1155.7425916666666,32.72088245586357L1158.207765,38.053086628067646L1160.6729383333334,32.92973811533273L1163.1381116666666,32.43809070584246L1165.603285,29.48680613939868L1168.0684583333334,26.364202956718998L1170.5336316666667,30.55089176649949L1172.998805,28.890179268913766L1175.4639783333332,36.56675490085122L1177.9291516666667,40.71695443729195L1180.394325,39.98839005540258L1182.8594983333332,35.00275141821569L1185.3246716666665,31.05272750154891L1187.789845,39.77681145460197L1190.2550183333333,39.08337499599794L1192.7201916666666,32.05828182770826L1195.1853649999998,33.74111154070572L1197.6505383333333,41.95043717855862L1200.1157116666666,42.86356960092114L1202.5808849999999,37.034552672960444L1205.0460583333333,39.71596994765089L1207.5112316666666,42.662935488030236L1209.9764049999999,41.33280509666894L1212.4415783333332,35.148749487669356L1214.9067516666667,32.97413571898408L1217.371925,35.57388995622155L1219.8370983333332,36.75021829261453L1222.3022716666667,35.939685502639506L1224.767445,28.274301435610973L1227.2326183333332,28.52129113108262L1229.6977916666667,27.932682436620627L1232.162965,26.929827095219725L1234.6281383333333,30.25402873425642L1237.0933116666665,28.590278881801897L1239.558485,28.32074193968529L1242.0236583333333,28.205719404304933L1244.4888316666666,29.268078321613487L1246.954005,31.744975714523186L1249.4191783333333,31.09014185387206L1251.8843516666666,33.366016526397615L1254.3495249999999,36.84372084765892L1256.8146983333334,40.27079060134846L1259.2798716666666,33.56691693605185L1261.745045,30.380911600636647L1264.2102183333334,29.196942763091787L1266.6753916666667,26.823751028978503L1269.140565,32.13839983075415L1271.6057383333334,33.798889793399965L1274.0709116666667,30.540818525486237L1276.536085,25.334808652811393L1279.0012583333332,24.673834206456515L1281.4664316666667,31.905852798365938L1283.931605,32.84398064306648L1286.3967783333333,33.317407983953046L1288.8619516666668,32.5668268975767L1291.327125,34.74559949632736L1293.7922983333333,28.79032656958784L1296.2574716666666,24.838172746168112L1298.722645,29.735024688786837L1301.1878183333333,32.0304666534609L1303.6529916666666,34.41329191247567L1306.118165,35.77001140586501L1308.5833383333334,39.23666397376043L1311.0485116666666,36.275492387870045L1313.513685,34.39842418172171L1315.9788583333334,35.257262082923745L1318.4440316666667,37.28412078673733L1320.909205,34.045649595853895L1323.3743783333334,34.19791315993831L1325.8395516666667,35.635341190636495" style="fill: none;" fill="none"></path></g><g><path stroke="rgb(204, 51, 17)" stroke-width="2px" d="M122.83496500000001,339.52758179770575L125.30013833333334,318.0495229549706L127.76531166666666,308.10996421745847L130.23048500000002,301.35064482737596L132.69565833333334,291.7126155253369L135.16083166666667,285.1189331409857L137.626005,277.29221091475574L140.09117833333332,267.1234734004308L142.55635166666667,259.5570684878901L145.021525,250.17570724340337L147.48669833333332,243.17254525650313L149.95187166666665,234.37434406231563L152.417045,223.10289299988108L154.88221833333333,217.30274422262974L157.34739166666665,206.3107986777115L159.812565,199.5397828323536L162.27773833333333,193.60071015047433L164.74291166666669,190.75498217785662L167.208085,187.4809164950782L169.67325833333334,184.95904513906444L172.13843166666666,181.71773004140752L174.60360500000002,179.72897405657434L177.06877833333334,179.46028308940376L179.53395166666667,176.30933935294132L181.999125,174.28916735542597L184.46429833333332,173.2032399414739L186.92947166666664,171.84849049967752L189.39464499999997,170.8955739559776L191.85981833333335,172.29682706831053L194.32499166666668,169.48224940750862L196.790165,167.09987104768695L199.25533833333333,167.37104220198484L201.72051166666665,163.2732885556761L204.185685,159.50182357086106L206.65085833333333,159.9639095464512L209.1160316666667,158.22508485240664L211.581205,154.95815709536498L214.04637833333334,155.8839347249518L216.51155166666666,155.76780449375306L218.97672500000002,154.33036200624156L221.44189833333334,150.56473202654564L223.90707166666667,146.3879027905097L226.372245,148.33365270537206L228.83741833333332,150.14620371120026L231.30259166666664,145.6908198173923L233.76776500000003,144.95191891178678L236.23293833333335,143.53693694047584L238.69811166666668,141.11724575457973L241.163285,138.44278409800768L243.62845833333333,133.75878284536427L246.09363166666665,134.16705121693784L248.558805,136.4172425143519L251.02397833333333,134.7891722881328L253.48915166666666,136.23293346081843L255.95432499999998,130.96020622599588L258.4194983333333,130.8571059319285L260.88467166666663,127.31606839972103L263.349845,124.46809348125969L265.81501833333334,119.75045067730004L268.28019166666667,119.40963139399034L270.745365,116.75202853969544L273.2105383333333,114.16969624984678L275.6757116666667,113.34783136874813L278.140885,111.36294090103668L280.60605833333335,109.9989128842381L283.0712316666667,108.4438508590714L285.536405,106.59534460018675L288.0015783333333,100.1551375332113L290.4667516666667,97.41666312935433L292.93192500000004,98.85704239428198L295.39709833333336,95.27461328902601L297.8622716666667,91.4304116760286L300.327445,91.100725190847L302.79261833333334,90.15265318506823L305.25779166666666,88.68338399117836L307.722965,92.48302593288878L310.1881383333333,88.96952526445027L312.65331166666664,85.58805099465684L315.11848499999996,81.41125810281706L317.5836583333333,78.7045966712809L320.0488316666667,75.46992698082386L322.514005,73.75062882166539L324.9791783333333,70.76286874436866L327.44435166666665,68.80555056201868L329.909525,67.90508553982252L332.3746983333333,72.86591506693377L334.8398716666667,74.41709034326509L337.305045,67.75206475399966L339.77021833333333,69.00456060335857L342.23539166666666,68.06960824085101L344.700565,62.464547479533785L347.1657383333333,56.43089840938331L349.6309116666667,57.57240836565173L352.096085,58.530845736596525L354.56125833333334,53.49863186519687L357.02643166666667,56.45965255324851L359.491605,53.90378570107835L361.9567783333334,52.91816230610609L364.42195166666664,51.492676552110495L366.887125,50.56653169418454L369.35229833333335,50.33643387994881L371.8174716666667,46.996599229955315L374.282645,44.088377484682695L376.7478183333333,47.58521323475783L379.21299166666665,48.60722078592372L381.678165,54.79351580367956L384.1433383333333,52.454260178432406L386.6085116666667,50.762734074872725L389.07368499999995,45.85422179005796L391.53885833333334,45.84369579164204L394.00403166666666,48.400551698520566L396.469205,46.94418613097619L398.93437833333337,45.76300912157296L401.39955166666664,45.13538809451817L403.864725,38.96096554497894L406.3298983333333,41.091863210929844L408.7950716666667,44.91074283013086L411.26024499999994,38.0646927832259L413.7254183333333,40.50337013342806L416.1905916666667,34.974300682974786L418.655765,40.08942796017705L421.12093833333336,39.38231592644178L423.5861116666666,40.62385027105298L426.051285,39.24275424775291L428.5164583333334,40.02285693769407L430.98163166666666,38.44927784612632L433.44680500000004,39.51117211666214L435.9119783333333,39.04112497089874L438.3771516666667,40.53373255469211L440.842325,43.567398113171485L443.30749833333334,38.105436331659035L445.77267166666667,46.86540346010962L448.237845,42.574285577389894L450.7030183333333,42.24891710254084L453.16819166666664,42.06546080890814L455.63336499999997,38.31167737315211L458.09853833333335,39.45405394304529L460.5637116666667,39.765313581770414L463.028885,41.421964184794945L465.4940583333333,39.533036387442706L467.95923166666665,34.84465040950724L470.42440500000004,33.57309111204329L472.8895783333333,37.908884243315605L475.3547516666667,35.893123971443366L477.81992499999996,35.568978338982596L480.28509833333334,34.64462448132792L482.7502716666666,39.495619165072675L485.215445,38.27017776466265L487.68061833333337,34.02473064970421L490.14579166666664,33.596203416190576L492.610965,33.03934955639429L495.0761383333333,31.576970786773593L497.5413116666667,33.56911893277106L500.00648500000005,31.42737171404804L502.4716583333333,33.57161522718217L504.9368316666667,29.158559393424134L507.402005,32.993021022203514L509.86717833333336,30.03130586268548L512.3323516666667,31.815338268477685L514.797525,33.8099230138057L517.2626983333333,29.089028790714657L519.7278716666666,26.99753428804219L522.193045,29.456381710215467L524.6582183333333,31.748114745259038L527.1233916666666,33.7264846221578L529.588565,32.33724196820618L532.0537383333333,34.03395043520294L534.5189116666667,36.69987022901475L536.9840849999999,34.99873900428352L539.4492583333333,35.767222362183446L541.9144316666667,37.6588480775096L544.379605,35.81712158481837L546.8447783333334,42.0809896705184L549.3099516666666,37.469160883020734L551.775125,44.9150259862689L554.2402983333333,45.95593473734548L556.7054716666667,47.474893750613774L559.170645,47.34043614048379L561.6358183333333,46.60697045843307L564.1009916666667,46.80924565678476L566.566165,50.933071666141814L569.0313383333333,49.86363337030832L571.4965116666667,42.92667851866448L573.961685,43.280632465541665L576.4268583333334,47.21369997164558L578.8920316666666,40.446309539681344L581.357205,44.83352972646894L583.8223783333334,41.110427712217394L586.2875516666667,42.86017676282847L588.752725,40.81922177526705L591.2178983333333,39.44979104497709L593.6830716666667,36.72652088131383L596.148245,36.97674303765619L598.6134183333334,34.4539467133679L601.0785916666667,35.56024698905404L603.543765,38.43212267851188L606.0089383333334,33.30979243242621L608.4741116666667,37.672761054777354L610.939285,38.2570110392232L613.4044583333334,35.957786478499166L615.8696316666667,34.38970548186672L618.3348050000001,35.3399122559135L620.7999783333333,32.50288585310481L623.2651516666667,33.442839394256616L625.730325,35.66158733713664L628.1954983333334,38.7385992987503L630.6606716666666,38.72963471579512L633.125845,49.4497907230004L635.5910183333333,55.126206216671065L638.0561916666667,54.34469364994914L640.521365,48.70820141251045L642.9865383333333,46.451107003779136L645.4517116666667,43.67648151493198L647.916885,38.114599137031426L650.3820583333334,40.55691343789036L652.8472316666666,42.140299479300836L655.312405,39.55456690001588L657.7775783333333,42.54111594893729L660.2427516666667,46.55958705640084L662.7079249999999,44.5647204329347L665.1730983333333,44.58890689537243L667.6382716666666,43.906160141446776L670.103445,43.07116694640895L672.5686183333333,41.94908892216022L675.0337916666666,46.61329720809436L677.498965,43.333330041533976L679.9641383333333,41.181252729713684L682.4293116666666,41.20881647443625L684.894485,37.3715866109945L687.3596583333333,41.146112935483224L689.8248316666667,39.018701573918776L692.290005,38.554629573980634L694.7551783333333,37.481758356613355L697.2203516666666,41.58603773148204L699.685525,42.352158407822L702.1506983333334,39.33572948138529L704.6158716666666,38.62163060337009L707.081045,37.65807800880227L709.5462183333333,37.17435440786708L712.0113916666667,44.2810480013902L714.476565,51.34450023663534L716.9417383333333,54.12847633337468L719.4069116666667,50.776614412055714L721.872085,50.76202128857216L724.3372583333332,58.331064350584214L726.8024316666667,54.368044158128335L729.267605,55.3782522402053L731.7327783333333,57.83095995251736L734.1979516666668,51.80604559645358L736.663125,52.08458374751126L739.1282983333333,51.302129187393625L741.5934716666668,60.02349016559625L744.0586450000001,53.57369424067112L746.5238183333333,54.68072287934323L748.9889916666666,47.94288893161595L751.4541650000001,53.96929690345487L753.9193383333334,51.554852235277025L756.3845116666666,54.47358955089487L758.849685,54.90612167934456L761.3148583333334,51.49427704637509L763.7800316666667,53.7933268504854L766.2452049999999,53.88543090037272L768.7103783333333,53.8248181259009L771.1755516666667,54.99468612166475L773.640725,46.76639129547951L776.1058983333334,49.0189302818365L778.5710716666666,50.217051980942394L781.036245,50.399593333565456L783.5014183333333,57.10210517919522L785.9665916666667,59.178332012817705L788.431765,63.54661649447874L790.8969383333333,63.5672936663626L793.3621116666667,64.95963608179085L795.827285,65.03383057288482L798.2924583333333,68.23401283737647L800.7576316666667,64.05748851011174L803.222805,65.88194090935244L805.6879783333333,65.61251076679352L808.1531516666666,59.19779121451135L810.618325,55.53470935831666L813.0834983333333,52.349212009172824L815.5486716666666,55.36361099257409L818.0138450000001,53.75562216756674L820.4790183333333,54.00576828139451L822.9441916666666,53.559496882198125L825.409365,53.7265519396292L827.8745383333334,57.453391743119866L830.3397116666666,58.73590835808029L832.8048849999999,56.58623205284599L835.2700583333334,57.02350362138143L837.7352316666667,60.54353526960857L840.2004049999999,60.656193895856184L842.6655783333334,60.32344161361303L845.1307516666667,60.13173996740485L847.595925,62.550688236292956L850.0610983333332,59.61120339526273L852.5262716666667,64.45079621384002L854.991445,64.27597168444603L857.4566183333333,62.00737405500881L859.9217916666668,57.00624598273877L862.386965,52.40306075340059L864.8521383333333,56.86424708586923L867.3173116666666,54.54252552058825L869.7824850000001,52.023603054946484L872.2476583333333,52.96848432207059L874.7128316666666,57.05286595811817L877.1780050000001,57.157567595318504L879.6431783333334,60.000849186968836L882.1083516666666,59.453605941688224L884.5735250000001,57.91902932761754L887.0386983333334,64.46244919243644L889.5038716666667,68.7935974303144L891.9690449999999,62.85314020136542L894.4342183333334,65.38408637681002L896.8993916666667,66.07637723667462L899.364565,63.22827555301938L901.8297383333334,63.2924974216808L904.2949116666667,64.44673323819444L906.760085,64.05867665191798L909.2252583333333,64.68166634945261L911.6904316666667,66.40157500212301L914.155605,66.49619190808417L916.6207783333333,66.3842801122179L919.0859516666667,66.46977071506969L921.5511250000001,66.40094036585008L924.0162983333333,57.05940986509674L926.4814716666666,63.360015911208215L928.946645,67.0247689923392L931.4118183333334,62.465332497270346L933.8769916666666,62.4565005396474L936.342165,63.130003855308054L938.8073383333333,64.01328639263053L941.2725116666667,61.88425828660017L943.737685,59.71829507536383L946.2028583333333,56.82668022584929L948.6680316666666,63.90005448821394L951.133205,68.05882425723398L953.5983783333334,68.80703458823184L956.0635516666666,70.75882798217191L958.528725,71.54379315643976L960.9938983333334,64.08990199514574L963.4590716666667,68.419179172208L965.9242449999999,67.58021798782956L968.3894183333333,68.3541600462335L970.8545916666667,69.59602518219972L973.319765,67.05326461133234L975.7849383333332,64.6577527589479L978.2501116666667,66.50719675886572L980.715285,62.08451000929641L983.1804583333333,58.93769054460984L985.6456316666668,60.70432428494832L988.110805,64.24933704785614L990.5759783333333,65.2188809960875L993.0411516666666,66.9056288682629L995.5063250000001,61.43093321421998L997.9714983333333,61.29614367968063L1000.4366716666666,60.78854659794167L1002.9018450000001,63.85181465174459L1005.3670183333334,71.5742634176091L1007.8321916666666,66.83495416872951L1010.2973649999999,67.58281084676538L1012.7625383333334,67.3343411253688L1015.2277116666667,61.91094257103852L1017.6928849999999,61.371054767904724L1020.1580583333334,65.89125492003507L1022.6232316666667,62.09847909903697L1025.088405,63.56472132223548L1027.5535783333332,63.20625233554794L1030.0187516666667,66.46772169479767L1032.483925,64.28452532204076L1034.9490983333333,62.404424592129935L1037.4142716666668,66.13170250246613L1039.879445,67.20251599676554L1042.3446183333333,61.69706672929678L1044.8097916666668,60.79532763330575L1047.274965,65.48320458247657L1049.7401383333333,67.80000185518104L1052.2053116666666,64.25654795430616L1054.670485,67.42009255618699L1057.1356583333334,66.04464617038936L1059.6008316666666,69.16909741029907L1062.0660050000001,73.08778079350252L1064.5311783333334,76.98895713223033L1066.9963516666667,71.75811591730984L1069.461525,70.10980976083425L1071.9266983333334,70.73100453756048L1074.3918716666667,72.6631554731238L1076.857045,71.24298558577279L1079.3222183333335,71.41305226319331L1081.7873916666667,73.12646419743676L1084.252565,73.76130466888996L1086.7177383333335,66.09607045324368L1089.1829116666668,64.3051995835341L1091.648085,69.1288822625394L1094.1132583333333,64.63920226102958L1096.5784316666668,67.40242478162247L1099.043605,67.90958593434215L1101.5087783333333,64.02754443970989L1103.9739516666668,64.66217307434418L1106.439125,64.54014524729611L1108.9042983333334,61.94638194256629L1111.3694716666666,63.41903838483652L1113.8346450000001,64.20918804851733L1116.2998183333334,63.230750575349134L1118.7649916666667,63.36209937812013L1121.2301650000002,67.52160341470113L1123.6953383333334,71.85563437035216L1126.1605116666667,70.58386864067108L1128.625685,68.58700917575686L1131.0908583333335,72.72068591761945L1133.5560316666667,63.89673021544032L1136.021205,71.62395335831982L1138.4863783333333,67.08436425420224L1140.9515516666668,69.07982511191449L1143.416725,75.33547750169697L1145.8818983333333,71.46029563711217L1148.3470716666666,66.81563008341205L1150.812245,68.18280078081102L1153.2774183333333,67.56976612009623L1155.7425916666666,70.85260100389995L1158.207765,70.12294148407334L1160.6729383333334,73.21832332016203L1163.1381116666666,72.55350774990887L1165.603285,74.16494459457289L1168.0684583333334,66.8041521277188L1170.5336316666667,67.37909408208682L1172.998805,67.70358072795639L1175.4639783333332,71.29275955339504L1177.9291516666667,66.14503538490808L1180.394325,64.83901144592846L1182.8594983333332,67.5546335073047L1185.3246716666665,70.00745724324119L1187.789845,64.84943193604788L1190.2550183333333,67.95153579559071L1192.7201916666666,70.38558265435385L1195.1853649999998,67.34320169542178L1197.6505383333333,63.3316342119942L1200.1157116666666,65.14520273447785L1202.5808849999999,63.83800537888662L1205.0460583333333,69.67152187793792L1207.5112316666666,68.6607331607898L1209.9764049999999,71.61738875950343L1212.4415783333332,71.26767250630901L1214.9067516666667,64.69415429870472L1217.371925,68.37182045828085L1219.8370983333332,69.62499767386717L1222.3022716666667,70.97918042116315L1224.767445,68.89476501753363L1227.2326183333332,62.938763535217355L1229.6977916666667,62.38954792590692L1232.162965,60.708965110478L1234.6281383333333,63.86891193053951L1237.0933116666665,64.07591839747724L1239.558485,66.97705245087803L1242.0236583333333,69.35182816759236L1244.4888316666666,66.8442172360284L1246.954005,67.03779043731927L1249.4191783333333,69.49388442953465L1251.8843516666666,72.53835518272741L1254.3495249999999,67.97176742024438L1256.8146983333334,63.62756362968349L1259.2798716666666,66.74856719886127L1261.745045,67.64449192261284L1264.2102183333334,66.09067533981822L1266.6753916666667,63.06112658391275L1269.140565,60.79768851246365L1271.6057383333334,66.84362428295171L1274.0709116666667,68.13170007345941L1276.536085,65.8687649987147L1279.0012583333332,66.62808713249396L1281.4664316666667,65.76723722112727L1283.931605,64.40263862572307L1286.3967783333333,60.38987346255768L1288.8619516666668,64.83313795584827L1291.327125,64.25705274603462L1293.7922983333333,62.83933251828308L1296.2574716666666,61.87113735912452L1298.722645,61.63397587971154L1301.1878183333333,69.82715845023682L1303.6529916666666,70.02254037011716L1306.118165,69.95104848778348L1308.5833383333334,69.03435794176316L1311.0485116666666,69.31438559224536L1313.513685,64.79124159638945L1315.9788583333334,66.67076215427701L1318.4440316666667,58.72619251909139L1320.909205,62.41753669879206L1323.3743783333334,60.94478523116131L1325.8395516666667,66.20185604256218" style="fill: none;" fill="none"></path></g></g></g></g><g opacity="0.2"><g><g><g><path stroke="rgb(51, 187, 238)" stroke-width="2px" d="M122.83496500000001,323.3376360601849L125.30013833333334,301.7060748736063L127.76531166666666,295.1191712253624L130.23048500000002,272.48563657204306L132.69565833333334,274.1760762863689L135.16083166666667,264.01285835438307L137.626005,246.23590169681438L140.09117833333332,247.27266144421367L142.55635166666667,239.1190518769953L145.021525,235.73488607174818L147.48669833333332,213.42388251899843L149.95187166666665,211.5568256155691L152.417045,208.01457140284276L154.88221833333333,211.85708316612158L157.34739166666665,207.5984911191174L159.812565,190.50379057311352L162.27773833333333,183.99084288212987L164.74291166666669,194.78763708223897L167.208085,189.04266067263154L169.67325833333334,184.38610066970188L172.13843166666666,186.96567534572546L174.60360500000002,178.92618387937546L177.06877833333334,179.3029249790642L179.53395166666667,172.50750963058738L181.999125,181.797025774916L184.46429833333332,175.01541445652646L186.92947166666664,172.01047716041404L189.39464499999997,173.99720572763016L191.85981833333335,166.96787402033806L194.32499166666668,169.2237015896373L196.790165,172.05391163627309L199.25533833333333,162.79308340615694L201.72051166666665,165.54764437178773L204.185685,160.48140303956137L206.65085833333333,169.45161945290033L209.1160316666667,164.25191939704945L211.581205,156.25914878315393L214.04637833333334,159.34833654099037L216.51155166666666,156.4362073938052L218.97672500000002,157.56633394294312L221.44189833333334,156.13556479414302L223.90707166666667,156.46842199895116L226.372245,155.51811923583347L228.83741833333332,148.8899938762188L231.30259166666664,153.78476000494425L233.76776500000003,149.4714609450764L236.23293833333335,147.35275611281395L238.69811166666668,153.38326652844745L241.163285,143.35027399990292L243.62845833333333,151.65523790650894L246.09363166666665,150.4547897643513L248.558805,152.84747790959148L251.02397833333333,141.8739387558566L253.48915166666666,151.3907610542244L255.95432499999998,151.27309441566467L258.4194983333333,141.88149773412277L260.88467166666663,151.32572637663947L263.349845,138.84767590297594L265.81501833333334,139.4408590760496L268.28019166666667,138.34732896751825L270.745365,137.19117356671228L273.2105383333333,136.64439290761948L275.6757116666667,133.48188742995262L278.140885,143.3703168398804L280.60605833333335,137.74101901385518L283.0712316666667,134.60167109966278L285.536405,137.79312041070727L288.0015783333333,132.88657575845718L290.4667516666667,133.5363794863224L292.93192500000004,135.0641232728958L295.39709833333336,131.87359152568712L297.8622716666667,135.5433537562688L300.327445,122.96316032608348L302.79261833333334,125.69773775007991L305.25779166666666,128.2173056238227L307.722965,120.6212378044923L310.1881383333333,118.81904256012706L312.65331166666664,118.02883283959494L315.11848499999996,104.11320951249866L317.5836583333333,110.0946458677451L320.0488316666667,111.42643047703638L322.514005,113.54539122846393L324.9791783333333,108.44883595903713L327.44435166666665,108.13280075788498L329.909525,121.79601912697154L332.3746983333333,120.783272087574L334.8398716666667,103.22206152809991L337.305045,115.9190726942486L339.77021833333333,114.32366013526917L342.23539166666666,116.29380077123642L344.700565,113.08712114890415L347.1657383333333,108.61080158087941L349.6309116666667,112.54001590940686L352.096085,108.3583154777686L354.56125833333334,105.47312026222545L357.02643166666667,97.68349640899233L359.491605,102.38920069403116L361.9567783333334,101.26876162158118L364.42195166666664,101.75745487213135L366.887125,99.0544366505411L369.35229833333335,101.8513834476471L371.8174716666667,105.20880570014316L374.282645,98.21912897957696L376.7478183333333,104.27070591184827L379.21299166666665,104.27611142396927L381.678165,98.92504142390356L384.1433383333333,96.51126179430219L386.6085116666667,96.97025593784122L389.07368499999995,100.91343346569272L391.53885833333334,100.86414717965654L394.00403166666666,89.0188100271755L396.469205,91.19329899549484L398.93437833333337,82.48955061038333L401.39955166666664,97.41946273379854L403.864725,99.45121122731103L406.3298983333333,97.24809676408768L408.7950716666667,107.23117881351045L411.26024499999994,93.92845067712994L413.7254183333333,89.67747105492487L416.1905916666667,87.86093185345334L418.655765,92.86682307720184L421.12093833333336,95.57906687259674L423.5861116666666,90.10355773899289L426.051285,88.95244581831827L428.5164583333334,83.78531303670673L430.98163166666666,76.86620758639441L433.44680500000004,86.85097495714825L435.9119783333333,86.13559974564447L438.3771516666667,80.36554637882443L440.842325,82.79622915718289L443.30749833333334,84.88155838516025L445.77267166666667,78.90230046378241L448.237845,79.38914610279932L450.7030183333333,78.63183759980734L453.16819166666664,83.4904941585329L455.63336499999997,80.67924085590573L458.09853833333335,75.2639039357503L460.5637116666667,90.53483770953284L463.028885,92.97278609540729L465.4940583333333,82.3386456900173L467.95923166666665,87.05081661542255L470.42440500000004,83.94353350003558L472.8895783333333,69.89945123593014L475.3547516666667,97.47814936770334L477.81992499999996,77.8313599030177L480.28509833333334,84.45967876248892L482.7502716666666,83.91588174634512L485.215445,86.73694736427728L487.68061833333337,73.46082233720358L490.14579166666664,77.19191153844196L492.610965,68.07980355289249L495.0761383333333,93.18859461281033L497.5413116666667,66.29017955727045L500.00648500000005,68.99026407135858L502.4716583333333,79.52475829256906L504.9368316666667,79.4628633062045L507.402005,71.36193563540775L509.86717833333336,66.88061628076764L512.3323516666667,84.87296948830289L514.797525,63.40142644113963L517.2626983333333,76.16585046052933L519.7278716666666,73.2807176642948L522.193045,73.51288004053964L524.6582183333333,69.19117934174005L527.1233916666666,75.47425700558557L529.588565,73.42083652814227L532.0537383333333,79.69729774528082L534.5189116666667,81.03056169218485L536.9840849999999,61.3645970159107L539.4492583333333,65.7632107867135L541.9144316666667,72.46659510665472L544.379605,71.19964543316098L546.8447783333334,68.73615506622525L549.3099516666666,76.71125789483386L551.775125,73.31350028514862L554.2402983333333,82.12060256136789L556.7054716666667,56.64291338788138L559.170645,64.72862323125202L561.6358183333333,59.75482801596325L564.1009916666667,73.3000052306387L566.566165,65.55476774772006L569.0313383333333,51.12664444579019L571.4965116666667,73.53247970342636L573.961685,50.916316343678375L576.4268583333334,59.6997367342313L578.8920316666666,76.46244204706613L581.357205,61.81517703665628L583.8223783333334,69.76669785049228L586.2875516666667,76.68187088436548L588.752725,56.739326251877685L591.2178983333333,71.54900630315143L593.6830716666667,68.08433519469367L596.148245,58.50830194022922L598.6134183333334,58.09020492765637L601.0785916666667,71.14334321684305L603.543765,72.88147128290598L606.0089383333334,68.57375250922308L608.4741116666667,64.80617298020258L610.939285,60.065451463063546L613.4044583333334,69.95849990182455L615.8696316666667,53.07294090588886L618.3348050000001,67.23995175626544L620.7999783333333,66.88237650526895L623.2651516666667,64.81392545832529L625.730325,66.52583741479452L628.1954983333334,59.65814050700931L630.6606716666666,65.83021167251798L633.125845,59.925494889418296L635.5910183333333,54.568045636018105L638.0561916666667,60.92098298999997L640.521365,75.37519756290646L642.9865383333333,56.496015787124634L645.4517116666667,67.05636408593921L647.916885,57.56802995999653L650.3820583333334,76.76028201977414L652.8472316666666,62.21132742034064L655.312405,64.45454004738065L657.7775783333333,47.54092981417973L660.2427516666667,54.733993609746285L662.7079249999999,47.69491824838849L665.1730983333333,56.0443746381336L667.6382716666666,66.11953765153885L670.103445,59.94312210215463L672.5686183333333,50.99214331971274L675.0337916666666,71.14144566986295L677.498965,65.53420682748157L679.9641383333333,61.45977397759754L682.4293116666666,55.22409753666983L684.894485,53.112951682673554L687.3596583333333,58.193995753924064L689.8248316666667,48.194809522893706L692.290005,62.361520760589194L694.7551783333333,55.82909044292239L697.2203516666666,59.38240945339203L699.685525,45.24322513076993L702.1506983333334,51.732498738500794L704.6158716666666,51.002804537614175L707.081045,58.6232034034199L709.5462183333333,47.678888969951224L712.0113916666667,59.48164367013509L714.476565,63.107007046540566L716.9417383333333,64.11070952812833L719.4069116666667,55.0974612434705L721.872085,64.04960102505152L724.3372583333332,55.38837267292871L726.8024316666667,63.4721600015958L729.267605,54.39848982625539L731.7327783333333,59.194202754232606L734.1979516666668,59.41454291343689L736.663125,60.48975295490687L739.1282983333333,70.28330501582889L741.5934716666668,50.9697722395261L744.0586450000001,53.561471866236786L746.5238183333333,52.81194080909092L748.9889916666666,51.174495087729554L751.4541650000001,55.391643444697074L753.9193383333334,66.18884805175992L756.3845116666666,40.16943418317373L758.849685,58.794020083215514L761.3148583333334,51.41377326514987L763.7800316666667,73.49973453415765L766.2452049999999,53.44508482350244L768.7103783333333,48.4233765469657L771.1755516666667,49.10313530100717L773.640725,46.51570515500174L776.1058983333334,67.8065193361706L778.5710716666666,60.30490441454782L781.036245,65.72721981339987L783.5014183333333,53.40489927265378L785.9665916666667,51.966658532619476L788.431765,53.471288449234414L790.8969383333333,44.62519907289083L793.3621116666667,54.391773508654694L795.827285,39.34528708457947L798.2924583333333,46.58965955177944L800.7576316666667,63.93644730250042L803.222805,40.03846598996057L805.6879783333333,54.42565470933914L808.1531516666666,57.874146733019074L810.618325,55.662206179565835L813.0834983333333,63.422124683856964L815.5486716666666,60.19034001562329L818.0138450000001,68.72367120451395L820.4790183333333,52.50104271703298L822.9441916666666,47.579966849750924L825.409365,47.47025867303211L827.8745383333334,62.93685201141568L830.3397116666666,24.190515644020486L832.8048849999999,45.83791885111066L835.2700583333334,61.04597141345341L837.7352316666667,56.566462218761444L840.2004049999999,48.68212954865561L842.6655783333334,41.638235416677276L845.1307516666667,49.83463966184194L847.595925,39.79318307505713L850.0610983333332,34.78851526975632L852.5262716666667,45.274721913867545L854.991445,46.931317879094024L857.4566183333333,54.54855832788678L859.9217916666668,59.55365058448581L862.386965,57.933607366349975L864.8521383333333,48.61430472797816L867.3173116666666,47.005759146478454L869.7824850000001,42.405031654569825L872.2476583333333,61.65639479955036L874.7128316666666,54.443519115448L877.1780050000001,52.40852481789057L879.6431783333334,46.72599580552844L882.1083516666666,47.97508107291327L884.5735250000001,60.6842640042305L887.0386983333334,46.33800986740323L889.5038716666667,39.22247085306378L891.9690449999999,48.27431923813288L894.4342183333334,57.80247688293457L896.8993916666667,53.6655498213238L899.364565,60.032556487454315L901.8297383333334,46.24232106738622L904.2949116666667,42.12183525164921L906.760085,58.35184170140161L909.2252583333333,57.677151395214935L911.6904316666667,53.663664758205414L914.155605,49.782631893952676L916.6207783333333,47.87672072649002L919.0859516666667,43.24413441949422L921.5511250000001,42.25314050912857L924.0162983333333,46.79997517002954L926.4814716666666,50.39450340800817L928.946645,52.23522384961445L931.4118183333334,37.324686679575166L933.8769916666666,54.3835840953721L936.342165,37.70600623554652L938.8073383333333,61.28004382054012L941.2725116666667,44.89739719364377L943.737685,50.232437915272165L946.2028583333333,57.608290414015464L948.6680316666666,38.33384460873072L951.133205,41.960081855456046L953.5983783333334,53.252496288882355L956.0635516666666,67.37865994373959L958.528725,24.56097424030304L960.9938983333334,29.615802201959813L963.4590716666667,32.00420214070215L965.9242449999999,43.208742671542716L968.3894183333333,49.713633590274405L970.8545916666667,38.40058333343928L973.319765,50.356452597512146L975.7849383333332,50.05904955996408L978.2501116666667,50.39249350627262L980.715285,28.745939201778818L983.1804583333333,53.695798218250275L985.6456316666668,51.24353084299298L988.110805,36.54677980475957L990.5759783333333,33.20261541340085L993.0411516666666,46.12514754136402L995.5063250000001,47.652572989463806L997.9714983333333,53.64300396707324L1000.4366716666666,42.67997622489929L1002.9018450000001,28.17646288209493L1005.3670183333334,47.44713856114282L1007.8321916666666,31.38666295342977L1010.2973649999999,24.18315016561086L1012.7625383333334,42.09729197952481L1015.2277116666667,60.29928667677774L1017.6928849999999,34.839274651474405L1020.1580583333334,44.74451982312734L1022.6232316666667,34.67338909705479L1025.088405,38.71364113357333L1027.5535783333332,38.29106241464615L1030.0187516666667,48.34306786457699L1032.483925,48.25322151184082L1034.9490983333333,49.94966596364975L1037.4142716666668,43.624317944049835L1039.879445,54.27652249733608L1042.3446183333333,41.16397351026535L1044.8097916666668,36.21027731233175L1047.274965,50.18214043643741L1049.7401383333333,49.61388753520117L1052.2053116666666,51.198776198758026L1054.670485,53.97325204478369L1057.1356583333334,53.66822136773004L1059.6008316666666,43.91693966256247L1062.0660050000001,39.22097278965845L1064.5311783333334,29.872270656956573L1066.9963516666667,34.51179799106387L1069.461525,39.91266611549588L1071.9266983333334,39.080966280566315L1074.3918716666667,39.57702500952615L1076.857045,50.63324477937488L1079.3222183333335,44.39613269435034L1081.7873916666667,37.672786679532805L1084.252565,26.78608526786167L1086.7177383333335,51.400203307469674L1089.1829116666668,35.5149511827363L1091.648085,43.8434222009447L1094.1132583333333,45.92776520384683L1096.5784316666668,42.589068743917665L1099.043605,31.930971807903695L1101.5087783333333,56.042701800664254L1103.9739516666668,41.005678143766204L1106.439125,20.84050880538092L1108.9042983333334,44.95688279469807L1111.3694716666666,47.062410910924264L1113.8346450000001,49.01813268661499L1116.2998183333334,24.727246794435704L1118.7649916666667,33.04072469472885L1121.2301650000002,38.146374457412314L1123.6953383333334,37.940815190474204L1126.1605116666667,35.44600281450482L1128.625685,44.05181530449124L1131.0908583333335,27.915175656477626L1133.5560316666667,25.55466466479833L1136.021205,52.953894800609994L1138.4863783333333,44.08437321583431L1140.9515516666668,35.34027698967191L1143.416725,37.103847165902444L1145.8818983333333,32.42186221811505L1148.3470716666666,32.6273590657446L1150.812245,44.22380546728771L1153.2774183333333,23.169947465260808L1155.7425916666666,33.28851686583624L1158.207765,46.05139288637372L1160.6729383333334,25.244715346230407L1163.1381116666666,31.700619591606994L1165.603285,25.059879289733033L1168.0684583333334,21.680298182699406L1170.5336316666667,36.83092498117025L1172.998805,26.39911052253512L1175.4639783333332,48.08161834875744L1177.9291516666667,46.942253741953095L1180.394325,38.89554348256854L1182.8594983333332,27.52429346243542L1185.3246716666665,25.127691626548767L1187.789845,52.86293738418157L1190.2550183333333,38.04322030809192L1192.7201916666666,21.520642075273717L1195.1853649999998,36.265356110201935L1197.6505383333333,54.26442563533783L1200.1157116666666,44.233268234464845L1202.5808849999999,28.291027281019414L1205.0460583333333,43.738095859686545L1207.5112316666666,47.08338379859924L1209.9764049999999,39.337609509627036L1212.4415783333332,25.872666074170013L1214.9067516666667,29.712215065956116L1217.371925,39.47352131207783L1219.8370983333332,38.51471079720392L1222.3022716666667,34.72388631767695L1224.767445,16.776225335068155L1227.2326183333332,28.89177567429011L1229.6977916666667,27.049769394927573L1232.162965,25.42554408311844L1234.6281383333333,35.24033119281132L1237.0933116666665,26.094654103120153L1239.558485,27.91643652651044L1242.0236583333333,28.033185601234436L1244.4888316666666,30.86161669757632L1246.954005,35.46032180388767L1249.4191783333333,30.107891062895472L1251.8843516666666,36.77982853518591L1254.3495249999999,42.06027732955084L1256.8146983333334,45.41139523188274L1259.2798716666666,23.511106438106943L1261.745045,25.60190359751385L1264.2102183333334,27.420989506774497L1266.6753916666667,23.26396342780856L1269.140565,40.1103730334176L1271.6057383333334,36.28962473736868L1274.0709116666667,25.65371162361567L1276.536085,17.525793843799185L1279.0012583333332,23.68237253692416L1281.4664316666667,42.75388068623011L1283.931605,34.25117241011725L1286.3967783333333,34.02754899528293L1288.8619516666668,31.440955268012146L1291.327125,38.01375839445325L1293.7922983333333,19.857417179478546L1296.2574716666666,18.909942011038478L1298.722645,37.080302602714944L1301.1878183333333,35.4736296004719L1303.6529916666666,37.987529800997834L1306.118165,37.80509064594906L1308.5833383333334,44.436642825603485L1311.0485116666666,31.83373500903446L1313.513685,31.582821872499263L1315.9788583333334,36.545518934726715L1318.4440316666667,40.32440884245767L1320.909205,29.187942809528757L1323.3743783333334,34.42630850606496L1325.8395516666667,37.791483236683746" style="fill: none;" fill="none"></path></g><g><path stroke="rgb(204, 51, 17)" stroke-width="2px" d="M122.83496500000001,339.52758179770575L125.30013833333334,305.1626876493295L127.76531166666666,298.5679878294468L130.23048500000002,293.40168522463904L132.69565833333334,279.12920446859465L135.16083166666667,275.9974966777695L137.626005,266.0998729036914L140.09117833333332,252.29735648466476L142.55635166666667,248.39809094038276L145.021525,236.2454791367054L147.48669833333332,232.73132043994133L149.95187166666665,221.2249216934045L152.417045,206.23251964959002L154.88221833333333,208.61388415201668L157.34739166666665,189.83580097970037L159.812565,189.38803450928793L162.27773833333333,184.69461434417298L164.74291166666669,186.48711274895402L167.208085,182.5703167418639L169.67325833333334,181.1764686140749L172.13843166666666,176.85593515634537L174.60360500000002,176.74590552018748L177.06877833333334,179.0572519434823L179.53395166666667,171.58296107418005L181.999125,171.25892371767094L184.46429833333332,171.57435345153016L186.92947166666664,169.8163698034154L189.39464499999997,169.46620060337915L191.85981833333335,174.39870544605782L194.32499166666668,165.26038447188006L196.790165,163.526304297977L199.25533833333333,167.7777988794777L201.72051166666665,157.12665857540236L204.185685,153.84462636378078L206.65085833333333,160.65703848997754L209.1160316666667,155.61684785617723L211.581205,150.05776551034717L214.04637833333334,157.2726011607382L216.51155166666666,155.59360914760163L218.97672500000002,152.17419827977818L221.44189833333334,144.9162870645523L223.90707166666667,140.12265894148084L226.372245,151.25227757626106L228.83741833333332,152.86503021915752L231.30259166666664,139.00774397783806L233.76776500000003,143.8435675534937L236.23293833333335,141.41446398364172L238.69811166666668,137.48770897587139L241.163285,134.4310916132397L243.62845833333333,126.7327809664938L246.09363166666665,134.77945377429324L248.558805,139.79252946045665L251.02397833333333,132.34706694881123L253.48915166666666,138.3985752198431L255.95432499999998,123.05111537377041L258.4194983333333,130.70245549082756L260.88467166666663,122.00451210141182L263.349845,120.19613110356859L265.81501833333334,112.67398647136156L268.28019166666667,118.89840246902571L270.745365,112.7656242582533L273.2105383333333,110.29619781507387L275.6757116666667,112.11503404710027L278.140885,108.38560519946947L280.60605833333335,107.95287085904016L283.0712316666667,106.11125782132149L285.536405,103.8225852118598L288.0015783333333,90.49482693274814L290.4667516666667,93.30895152356891L292.93192500000004,101.01761129167346L295.39709833333336,89.90096963114206L297.8622716666667,85.66410925653247L300.327445,90.60619546307458L302.79261833333334,88.73054517640008L305.25779166666666,86.47948020034369L307.722965,98.18248884545432L310.1881383333333,83.69927426179248L312.65331166666664,80.51583958996667L315.11848499999996,75.14606876505746L317.5836583333333,74.64460452397662L320.0488316666667,70.61792244513828L322.514005,71.1716815829277L324.9791783333333,66.28122862842349L327.44435166666665,65.86957328849371L329.909525,66.5543880065282L332.3746983333333,80.30715935760077L334.8398716666667,76.74385325776205L337.305045,57.75452637010152L339.77021833333333,70.88330437739688L342.23539166666666,66.66717969708975L344.700565,54.05695633755789L347.1657383333333,47.38042480415766L349.6309116666667,59.28467330005435L352.096085,59.96850179301367L354.56125833333334,45.950311058097434L357.02643166666667,60.90118358532589L359.491605,50.06998542282315L361.9567783333334,51.43972721364764L364.42195166666664,49.354447921117135L366.887125,49.17731440729563L369.35229833333335,49.991287158595185L371.8174716666667,41.98684725496503L374.282645,39.726044866773805L376.7478183333333,52.830466859870505L379.21299166666665,50.14023211267261L381.678165,64.07295833031338L384.1433383333333,48.945376740561585L386.6085116666667,48.22544491953318L389.07368499999995,38.491453362835784L391.53885833333334,45.8279067940182L394.00403166666666,52.235835558838296L396.469205,44.75963777965968L398.93437833333337,43.99124360746806L401.39955166666664,44.193956553936005L403.864725,29.69933172067005L406.3298983333333,44.28820970985623L408.7950716666667,50.63906225893231L411.26024499999994,27.79561771286859L413.7254183333333,44.16138615873126L416.1905916666667,26.680696507294957L418.655765,47.76211887598038L421.12093833333336,38.32164787583883L423.5861116666666,42.48615178796979L426.051285,37.17111021280289L428.5164583333334,41.193010972605805L430.98163166666666,36.08890920877457L433.44680500000004,41.10401352246601L435.9119783333333,38.33605425225363L438.3771516666667,42.77264393038218L440.842325,48.11789645089044L443.30749833333334,29.91249365939035L445.77267166666667,60.0053541527854L448.237845,36.1376087533103L450.7030183333333,41.76086439026727L453.16819166666664,41.790276368459054L455.63336499999997,32.681002219518014L458.09853833333335,41.16761879788504L460.5637116666667,40.232203039858064L463.028885,43.90694008933173L465.4940583333333,36.699644691414285L467.95923166666665,27.812071442604065L470.42440500000004,31.665752165847373L472.8895783333333,44.4125739402241L475.3547516666667,32.86948356363507L477.81992499999996,35.08275989029141L480.28509833333334,33.25809369484585L482.7502716666666,46.77211119068994L485.215445,36.43201566404765L487.68061833333337,27.656559977266514L490.14579166666664,32.953412565920075L492.610965,32.20406876669989L495.0761383333333,29.383402632342438L497.5413116666667,36.557341151767325L500.00648500000005,28.21475088596344L502.4716583333333,36.78798049688339L504.9368316666667,22.53897564278708L507.402005,38.74471346537273L509.86717833333336,25.588733123408417L512.3323516666667,34.491386877165894L514.797525,36.80180013179779L517.2626983333333,22.00768745607798L519.7278716666666,23.860292534033473L522.193045,33.14465284347534L524.6582183333333,35.185714297824454L527.1233916666666,36.69403943750592L529.588565,30.25337798727884L532.0537383333333,36.57901313569812L534.5189116666667,40.6987499197324L536.9840849999999,32.44704216718674L539.4492583333333,36.91994739903345L541.9144316666667,40.496286650498696L544.379605,33.054531845781526L546.8447783333334,51.47679179906845L549.3099516666666,30.55141770177419L551.775125,56.083823641141244L554.2402983333333,47.517297863960266L556.7054716666667,49.753332270516296L559.170645,47.1387497252888L561.6358183333333,45.506771935356994L564.1009916666667,47.112658454312225L566.566165,57.11881068017749L569.0313383333333,48.25947592655819L571.4965116666667,32.52124624119864L573.961685,43.81156338585748L576.4268583333334,53.11330123080148L578.8920316666666,30.295223891735077L581.357205,51.41436000665028L583.8223783333334,35.52577469083997L586.2875516666667,45.48480033874512L588.752725,37.75778929392498L591.2178983333333,37.395644949542145L593.6830716666667,32.64161563581889L596.148245,37.35207627216976L598.6134183333334,30.669752226935486L601.0785916666667,37.21969740258322L603.543765,42.73993621269863L606.0089383333334,25.626297063297677L608.4741116666667,44.21721398830414L610.939285,39.13338601589203L613.4044583333334,32.508949637413025L615.8696316666667,32.03758398691814L618.3348050000001,36.765222416983704L620.7999783333333,28.247346248891628L623.2651516666667,34.852769705984315L625.730325,38.98970925145681L628.1954983333334,43.354117241170684L630.6606716666666,38.716187841362405L633.125845,65.53002473380832L635.5910183333333,63.64082945717706L638.0561916666667,53.17242479986613L640.521365,40.253463056352416L642.9865383333333,43.06546539068222L645.4517116666667,39.51454328166113L647.916885,29.77177557018069L650.3820583333334,44.220384889178824L652.8472316666666,44.515378541416574L655.312405,35.67596803108852L657.7775783333333,47.02093952231939L660.2427516666667,52.58729371759625L662.7079249999999,41.57242049773533L665.1730983333333,44.62518658902911L667.6382716666666,42.88204001055823L670.103445,41.81867715385226L672.5686183333333,40.26597188578711L675.0337916666666,53.609609636995515L677.498965,38.41337929169338L679.9641383333333,37.953136761983224L682.4293116666666,41.25016209152011L684.894485,31.615741815831935L687.3596583333333,46.807902422216216L689.8248316666667,35.82758453157214L692.290005,37.858521574073386L694.7551783333333,35.8724515305625L697.2203516666666,47.742456793785095L699.685525,43.50133942233191L702.1506983333334,34.81108609173032L704.6158716666666,37.55048228634729L707.081045,36.21274911695058L709.5462183333333,36.448769006464204L712.0113916666667,54.941088391674896L714.476565,61.93967858950298L716.9417383333333,58.30444047848385L719.4069116666667,45.74882153007718L721.872085,50.740131603346924L724.3372583333332,69.68462894360226L726.8024316666667,48.42351386944454L729.267605,56.89356436332066L731.7327783333333,61.510021520985504L734.1979516666668,42.768674062358L736.663125,52.5023909740978L739.1282983333333,50.128447347217154L741.5934716666668,73.10553163290024L744.0586450000001,43.899000353283334L746.5238183333333,56.34126583735149L748.9889916666666,37.836138010025024L751.4541650000001,63.00890886121328L753.9193383333334,47.93318523301019L756.3845116666666,58.851695524321656L758.849685,55.55491987201901L761.3148583333334,46.37651009692087L763.7800316666667,57.24190155665081L766.2452049999999,54.023586975203614L768.7103783333333,53.733898964193145L771.1755516666667,56.74948811531067L773.640725,34.42394905620153L776.1058983333334,52.39773876137202L778.5710716666666,52.0142345296012L781.036245,50.67340536250009L783.5014183333333,67.15587294763986L785.9665916666667,62.292672263251404L788.431765,70.09904321697024L790.8969383333333,63.598309424188415L793.3621116666667,67.04814970493317L795.827285,65.14512230952579L798.2924583333333,73.03428623411389L800.7576316666667,57.79270201921463L803.222805,68.61861950821344L805.6879783333333,65.20836555295523L808.1531516666666,49.575711886088065L810.618325,50.040086574024606L813.0834983333333,47.570965985457114L815.5486716666666,59.88520946767596L818.0138450000001,51.34363893005582L820.4790183333333,54.38098745213614L822.9441916666666,52.890089783403596L825.409365,53.97713452577591L827.8745383333334,63.043651448355774L830.3397116666666,60.65968328052099L832.8048849999999,53.361717594994445L835.2700583333334,57.679410974184684L837.7352316666667,65.82358274194928L840.2004049999999,60.82518183522756L842.6655783333334,59.82431319024829L845.1307516666667,59.84418749809265L847.595925,66.17911063962515L850.0610983333332,55.20197613371744L852.5262716666667,71.7101854417059L854.991445,64.01373489035501L857.4566183333333,58.604477610852996L859.9217916666668,49.50455387433369L862.386965,45.49828290939331L864.8521383333333,63.556026584572244L867.3173116666666,51.05994317266675L869.7824850000001,48.245219356483865L872.2476583333333,54.38580622275669L874.7128316666666,63.179438412189484L877.1780050000001,57.31462005111905L879.6431783333334,64.26577157444422L882.1083516666666,58.632741073767356L884.5735250000001,55.617164406511506L887.0386983333334,74.27757898966473L889.5038716666667,75.29031978713141L891.9690449999999,53.94245435794193L894.4342183333334,69.1805056399769L896.8993916666667,67.11481352647144L899.364565,58.95612302753659L901.8297383333334,63.388830224672965L904.2949116666667,66.17808696296481L906.760085,63.476591772503305L909.2252583333333,65.61615089575452L911.6904316666667,68.98143798112869L914.155605,66.63811726702585L916.6207783333333,66.21641241841849L919.0859516666667,66.59800661934747L921.5511250000001,66.29769484202069L924.0162983333333,43.047114113966636L926.4814716666666,72.81092498037549L928.946645,72.5218986140357L931.4118183333334,55.62617775466708L933.8769916666666,62.443252603213004L936.342165,64.14025882879895L938.8073383333333,65.33821019861432L941.2725116666667,58.69071612755459L943.737685,56.46935025850933L946.2028583333333,52.48925795157749L948.6680316666666,74.5101158817609L951.133205,74.29697891076404L953.5983783333334,69.92935008472864L956.0635516666666,73.68651807308197L958.528725,72.72124091784161L960.9938983333334,52.90906525320475L963.4590716666667,74.91309493780136L965.9242449999999,66.32177621126175L968.3894183333333,69.51507313383951L970.8545916666667,71.45882288614911L973.319765,63.23912375503118L975.7849383333332,61.064484980371276L978.2501116666667,69.28136275874243L980.715285,55.45047988494236L983.1804583333333,54.217461347579956L985.6456316666668,63.354274895456115L988.110805,69.56685619221793L990.5759783333333,66.67319691843454L993.0411516666666,69.43575067652597L995.5063250000001,53.21888973315556L997.9714983333333,61.09395937787161L1000.4366716666666,60.02715097533331L1002.9018450000001,68.44671673244898L1005.3670183333334,83.15793656640585L1007.8321916666666,59.725990295410156L1010.2973649999999,68.70459586381912L1012.7625383333334,66.96163654327393L1015.2277116666667,53.77584473954306L1017.6928849999999,60.56122306320401L1020.1580583333334,72.67155514823065L1022.6232316666667,56.40931536753971L1025.088405,65.76408465703327L1027.5535783333332,62.66854885551663L1030.0187516666667,71.35992573367224L1032.483925,61.00973076290553L1034.9490983333333,59.5842734972636L1037.4142716666668,71.72261936797037L1039.879445,68.80873623821469L1042.3446183333333,53.43889282809363L1044.8097916666668,59.44271898931925L1047.274965,72.51502000623282L1049.7401383333333,71.2751977642377L1052.2053116666666,58.941367102993866L1054.670485,72.16540945900812L1057.1356583333334,63.981476591693024L1059.6008316666666,73.85577427016364L1062.0660050000001,78.96580586830777L1064.5311783333334,82.84072164032193L1066.9963516666667,63.91185409492915L1069.461525,67.63735052612094L1071.9266983333334,71.66279670264987L1074.3918716666667,75.56138187646866L1076.857045,69.11273075474634L1079.3222183333335,71.66815227932398L1081.7873916666667,75.69658209880191L1084.252565,74.71356537606982L1086.7177383333335,54.59821912977429L1089.1829116666668,61.618893278969665L1091.648085,76.36440628104742L1094.1132583333333,57.904682258764915L1096.5784316666668,71.54725856251184L1099.043605,68.67032766342163L1101.5087783333333,58.204482197761536L1103.9739516666668,65.61411602629556L1106.439125,64.35710350672406L1108.9042983333334,58.055736985471526L1111.3694716666666,65.62802304824191L1113.8346450000001,65.39441254403857L1116.2998183333334,61.76309436559677L1118.7649916666667,63.55912258227665L1121.2301650000002,73.76085946957272L1123.6953383333334,78.3566808038288L1126.1605116666667,68.67622004614935L1128.625685,65.59171997838553L1131.0908583333335,78.92120103041333L1133.5560316666667,50.66079666217167L1136.021205,83.21478807263907L1138.4863783333333,60.27498059802587L1140.9515516666668,72.07301639848288L1143.416725,84.71895608637067L1145.8818983333333,65.64752284023496L1148.3470716666666,59.84863175286188L1150.812245,70.23355682690936L1153.2774183333333,66.6502141290241L1155.7425916666666,75.7768533296055L1158.207765,69.0284522043334L1160.6729383333334,77.86139607429504L1163.1381116666666,71.55628439452914L1165.603285,76.58209986156885L1168.0684583333334,55.76296342743768L1170.5336316666667,68.2415070136388L1172.998805,68.19031069676083L1175.4639783333332,76.6765277915531L1177.9291516666667,58.42344913217755L1180.394325,62.87997553745907L1182.8594983333332,71.62806659936905L1185.3246716666665,73.68669284714593L1187.789845,57.11239397525787L1190.2550183333333,72.60469158490497L1192.7201916666666,74.0366529424985L1195.1853649999998,62.77963025702371L1197.6505383333333,57.314282986852845L1200.1157116666666,67.86555551820334L1202.5808849999999,61.877209345499686L1205.0460583333333,78.42179662651483L1207.5112316666666,67.14455008506775L1209.9764049999999,76.0523721575737L1212.4415783333332,70.7430981265174L1214.9067516666667,54.83387698729832L1217.371925,73.88831969764499L1219.8370983333332,71.50476349724664L1222.3022716666667,73.01045454210703L1224.767445,65.76814191208945L1227.2326183333332,54.00476131174298L1229.6977916666667,61.56572451194126L1232.162965,58.188090887334624L1234.6281383333333,68.60883216063183L1237.0933116666665,64.38642809788388L1239.558485,71.32875353097916L1242.0236583333333,72.91399174266394L1244.4888316666666,63.082800838682374L1246.954005,67.3281502392557L1249.4191783333333,73.17802541785773L1251.8843516666666,77.10506131251651L1254.3495249999999,61.121885776519775L1256.8146983333334,57.11125794384213L1259.2798716666666,71.43007255262796L1261.745045,68.98837900824014L1264.2102183333334,63.75995046562617L1266.6753916666667,58.516803450054574L1269.140565,57.402531405289956L1271.6057383333334,75.91252793868381L1274.0709116666667,70.06381375922098L1276.536085,62.474362386597534L1279.0012583333332,67.76707033316296L1281.4664316666667,64.47596235407724L1283.931605,62.35574073261683L1286.3967783333333,54.37072571780948L1288.8619516666668,71.49803469578427L1291.327125,63.39292493131427L1293.7922983333333,60.71275217665567L1296.2574716666666,60.41884462038677L1298.722645,61.27823366059198L1301.1878183333333,82.11693230602475L1303.6529916666666,70.31561324993771L1306.118165,69.8438106642829L1308.5833383333334,67.65932212273282L1311.0485116666666,69.73442706796857L1313.513685,58.00652560260562L1315.9788583333334,69.49004299110834L1318.4440316666667,46.80933806631299L1320.909205,67.95455296834308L1323.3743783333334,58.73565802971523L1325.8395516666667,74.08746225966348" style="fill: none;" fill="none"></path></g></g></g></g></g></g><g transform="translate(51, 377)" clip-path="url(#clip_1)"><clipPath id="clip_1"><rect width="1444" height="23"></rect></clipPath><g><g><line x1="0" y1="0" x2="0" y2="5" style="visibility: inherit;" fill="rgb(0, 0, 0)" stroke="rgb(204, 204, 204)" stroke-width="1px"></line><line x1="120.36979166666666" y1="0" x2="120.36979166666666" y2="5" style="visibility: inherit;" fill="rgb(0, 0, 0)" stroke="rgb(204, 204, 204)" stroke-width="1px"></line><line x1="240.73958333333331" y1="0" x2="240.73958333333331" y2="5" style="visibility: inherit;" fill="rgb(0, 0, 0)" stroke="rgb(204, 204, 204)" stroke-width="1px"></line><line x1="361.109375" y1="0" x2="361.109375" y2="5" style="visibility: inherit;" fill="rgb(0, 0, 0)" stroke="rgb(204, 204, 204)" stroke-width="1px"></line><line x1="481.47916666666663" y1="0" x2="481.47916666666663" y2="5" style="visibility: inherit;" fill="rgb(0, 0, 0)" stroke="rgb(204, 204, 204)" stroke-width="1px"></line><line x1="601.8489583333334" y1="0" x2="601.8489583333334" y2="5" style="visibility: inherit;" fill="rgb(0, 0, 0)" stroke="rgb(204, 204, 204)" stroke-width="1px"></line><line x1="722.21875" y1="0" x2="722.21875" y2="5" style="visibility: inherit;" fill="rgb(0, 0, 0)" stroke="rgb(204, 204, 204)" stroke-width="1px"></line><line x1="842.5885416666667" y1="0" x2="842.5885416666667" y2="5" style="visibility: inherit;" fill="rgb(0, 0, 0)" stroke="rgb(204, 204, 204)" stroke-width="1px"></line><line x1="962.9583333333333" y1="0" x2="962.9583333333333" y2="5" style="visibility: inherit;" fill="rgb(0, 0, 0)" stroke="rgb(204, 204, 204)" stroke-width="1px"></line><line x1="1083.328125" y1="0" x2="1083.328125" y2="5" style="visibility: inherit;" fill="rgb(0, 0, 0)" stroke="rgb(204, 204, 204)" stroke-width="1px"></line><line x1="1203.6979166666667" y1="0" x2="1203.6979166666667" y2="5" style="visibility: inherit;" fill="rgb(0, 0, 0)" stroke="rgb(204, 204, 204)" stroke-width="1px"></line><line x1="1324.0677083333333" y1="0" x2="1324.0677083333333" y2="5" style="visibility: inherit;" fill="rgb(0, 0, 0)" stroke="rgb(204, 204, 204)" stroke-width="1px"></line><line x1="1444.4375" y1="0" x2="1444.4375" y2="5" style="visibility: inherit;" fill="rgb(0, 0, 0)" stroke="rgb(204, 204, 204)" stroke-width="1px"></line></g><g transform="translate(0, 8)"><text x="0" y="0" dx="0em" dy="0.95em" style="text-anchor: middle; visibility: hidden; font-family: Roboto, sans-serif; font-size: 12px; font-weight: 200;" fill="rgb(33, 33, 33)" stroke="none" stroke-width="1px">-100k</text><text x="120.36979166666666" y="0" dx="0em" dy="0.95em" style="text-anchor: middle; visibility: inherit; font-family: Roboto, sans-serif; font-size: 12px; font-weight: 200;" fill="rgb(33, 33, 33)" stroke="none" stroke-width="1px">0</text><text x="240.73958333333331" y="0" dx="0em" dy="0.95em" style="text-anchor: middle; visibility: inherit; font-family: Roboto, sans-serif; font-size: 12px; font-weight: 200;" fill="rgb(33, 33, 33)" stroke="none" stroke-width="1px">100k</text><text x="361.109375" y="0" dx="0em" dy="0.95em" style="text-anchor: middle; visibility: inherit; font-family: Roboto, sans-serif; font-size: 12px; font-weight: 200;" fill="rgb(33, 33, 33)" stroke="none" stroke-width="1px">200k</text><text x="481.47916666666663" y="0" dx="0em" dy="0.95em" style="text-anchor: middle; visibility: inherit; font-family: Roboto, sans-serif; font-size: 12px; font-weight: 200;" fill="rgb(33, 33, 33)" stroke="none" stroke-width="1px">300k</text><text x="601.8489583333334" y="0" dx="0em" dy="0.95em" style="text-anchor: middle; visibility: inherit; font-family: Roboto, sans-serif; font-size: 12px; font-weight: 200;" fill="rgb(33, 33, 33)" stroke="none" stroke-width="1px">400k</text><text x="722.21875" y="0" dx="0em" dy="0.95em" style="text-anchor: middle; visibility: inherit; font-family: Roboto, sans-serif; font-size: 12px; font-weight: 200;" fill="rgb(33, 33, 33)" stroke="none" stroke-width="1px">500k</text><text x="842.5885416666667" y="0" dx="0em" dy="0.95em" style="text-anchor: middle; visibility: inherit; font-family: Roboto, sans-serif; font-size: 12px; font-weight: 200;" fill="rgb(33, 33, 33)" stroke="none" stroke-width="1px">600k</text><text x="962.9583333333333" y="0" dx="0em" dy="0.95em" style="text-anchor: middle; visibility: inherit; font-family: Roboto, sans-serif; font-size: 12px; font-weight: 200;" fill="rgb(33, 33, 33)" stroke="none" stroke-width="1px">700k</text><text x="1083.328125" y="0" dx="0em" dy="0.95em" style="text-anchor: middle; visibility: inherit; font-family: Roboto, sans-serif; font-size: 12px; font-weight: 200;" fill="rgb(33, 33, 33)" stroke="none" stroke-width="1px">800k</text><text x="1203.6979166666667" y="0" dx="0em" dy="0.95em" style="text-anchor: middle; visibility: inherit; font-family: Roboto, sans-serif; font-size: 12px; font-weight: 200;" fill="rgb(33, 33, 33)" stroke="none" stroke-width="1px">900k</text><text x="1324.0677083333333" y="0" dx="0em" dy="0.95em" style="text-anchor: middle; visibility: inherit; font-family: Roboto, sans-serif; font-size: 12px; font-weight: 200;" fill="rgb(33, 33, 33)" stroke="none" stroke-width="1px">1M</text><text x="1444.4375" y="0" dx="0em" dy="0.95em" style="text-anchor: middle; visibility: hidden; font-family: Roboto, sans-serif; font-size: 12px; font-weight: 200;" fill="rgb(33, 33, 33)" stroke="none" stroke-width="1px">1.1M</text></g><line x1="0" y1="0" x2="1444.4375" y2="0" fill="rgb(0, 0, 0)" stroke="rgb(204, 204, 204)" stroke-width="1px"></line></g></g></g></g></svg>