<svg viewBox="0 0 1496 400" xmlns="http://www.w3.org/2000/svg"><g><g><g><g><g><line x1="51.5625" y1="377" x2="46.5625" y2="377" style="visibility: inherit;" fill="rgb(0, 0, 0)" stroke="rgb(204, 204, 204)" stroke-width="1px"></line><line x1="51.5625" y1="348" x2="46.5625" y2="348" style="visibility: inherit;" fill="rgb(0, 0, 0)" stroke="rgb(204, 204, 204)" stroke-width="1px"></line><line x1="51.5625" y1="319" x2="46.5625" y2="319" style="visibility: inherit;" fill="rgb(0, 0, 0)" stroke="rgb(204, 204, 204)" stroke-width="1px"></line><line x1="51.5625" y1="290" x2="46.5625" y2="290" style="visibility: inherit;" fill="rgb(0, 0, 0)" stroke="rgb(204, 204, 204)" stroke-width="1px"></line><line x1="51.5625" y1="261" x2="46.5625" y2="261" style="visibility: inherit;" fill="rgb(0, 0, 0)" stroke="rgb(204, 204, 204)" stroke-width="1px"></line><line x1="51.5625" y1="232" x2="46.5625" y2="232" style="visibility: inherit;" fill="rgb(0, 0, 0)" stroke="rgb(204, 204, 204)" stroke-width="1px"></line><line x1="51.5625" y1="203.00000000000003" x2="46.5625" y2="203.00000000000003" style="visibility: inherit;" fill="rgb(0, 0, 0)" stroke="rgb(204, 204, 204)" stroke-width="1px"></line><line x1="51.5625" y1="174" x2="46.5625" y2="174" style="visibility: inherit;" fill="rgb(0, 0, 0)" stroke="rgb(204, 204, 204)" stroke-width="1px"></line><line x1="51.5625" y1="145" x2="46.5625" y2="145" style="visibility: inherit;" fill="rgb(0, 0, 0)" stroke="rgb(204, 204, 204)" stroke-width="1px"></line><line x1="51.5625" y1="116.00000000000004" x2="46.5625" y2="116.00000000000004" style="visibility: inherit;" fill="rgb(0, 0, 0)" stroke="rgb(204, 204, 204)" stroke-width="1px"></line><line x1="51.5625" y1="87.00000000000003" x2="46.5625" y2="87.00000000000003" style="visibility: inherit;" fill="rgb(0, 0, 0)" stroke="rgb(204, 204, 204)" stroke-width="1px"></line><line x1="51.5625" y1="58" x2="46.5625" y2="58" style="visibility: inherit;" fill="rgb(0, 0, 0)" stroke="rgb(204, 204, 204)" stroke-width="1px"></line><line x1="51.5625" y1="29.00000000000002" x2="46.5625" y2="29.00000000000002" style="visibility: inherit;" fill="rgb(0, 0, 0)" stroke="rgb(204, 204, 204)" stroke-width="1px"></line><line x1="51.5625" y1="0" x2="46.5625" y2="0" style="visibility: inherit;" fill="rgb(0, 0, 0)" stroke="rgb(204, 204, 204)" stroke-width="1px"></line></g><g transform="translate(41.5625, 0)"><text x="0" y="377" dx="0em" dy="0.3em" style="text-anchor: end; visibility: hidden; font-family: Roboto, sans-serif; font-size: 12px; font-weight: 200;" fill="rgb(33, 33, 33)" stroke="none" stroke-width="1px">-0.3</text><text x="0" y="348" dx="0em" dy="0.3em" style="text-anchor: end; visibility: inherit; font-family: Roboto, sans-serif; font-size: 12px; font-weight: 200;" fill="rgb(33, 33, 33)" stroke="none" stroke-width="1px">-0.2</text><text x="0" y="319" dx="0em" dy="0.3em" style="text-anchor: end; visibility: inherit; font-family: Roboto, sans-serif; font-size: 12px; font-weight: 200;" fill="rgb(33, 33, 33)" stroke="none" stroke-width="1px">-0.1</text><text x="0" y="290" dx="0em" dy="0.3em" style="text-anchor: end; visibility: inherit; font-family: Roboto, sans-serif; font-size: 12px; font-weight: 200;" fill="rgb(33, 33, 33)" stroke="none" stroke-width="1px">0</text><text x="0" y="261" dx="0em" dy="0.3em" style="text-anchor: end; visibility: inherit; font-family: Roboto, sans-serif; font-size: 12px; font-weight: 200;" fill="rgb(33, 33, 33)" stroke="none" stroke-width="1px">0.1</text><text x="0" y="232" dx="0em" dy="0.3em" style="text-anchor: end; visibility: inherit; font-family: Roboto, sans-serif; font-size: 12px; font-weight: 200;" fill="rgb(33, 33, 33)" stroke="none" stroke-width="1px">0.2</text><text x="0" y="203.00000000000003" dx="0em" dy="0.3em" style="text-anchor: end; visibility: inherit; font-family: Roboto, sans-serif; font-size: 12px; font-weight: 200;" fill="rgb(33, 33, 33)" stroke="none" stroke-width="1px">0.3</text><text x="0" y="174" dx="0em" dy="0.3em" style="text-anchor: end; visibility: inherit; font-family: Roboto, sans-serif; font-size: 12px; font-weight: 200;" fill="rgb(33, 33, 33)" stroke="none" stroke-width="1px">0.4</text><text x="0" y="145" dx="0em" dy="0.3em" style="text-anchor: end; visibility: inherit; font-family: Roboto, sans-serif; font-size: 12px; font-weight: 200;" fill="rgb(33, 33, 33)" stroke="none" stroke-width="1px">0.5</text><text x="0" y="116.00000000000004" dx="0em" dy="0.3em" style="text-anchor: end; visibility: inherit; font-family: Roboto, sans-serif; font-size: 12px; font-weight: 200;" fill="rgb(33, 33, 33)" stroke="none" stroke-width="1px">0.6</text><text x="0" y="87.00000000000003" dx="0em" dy="0.3em" style="text-anchor: end; visibility: inherit; font-family: Roboto, sans-serif; font-size: 12px; font-weight: 200;" fill="rgb(33, 33, 33)" stroke="none" stroke-width="1px">0.7</text><text x="0" y="58" dx="0em" dy="0.3em" style="text-anchor: end; visibility: inherit; font-family: Roboto, sans-serif; font-size: 12px; font-weight: 200;" fill="rgb(33, 33, 33)" stroke="none" stroke-width="1px">0.8</text><text x="0" y="29.00000000000002" dx="0em" dy="0.3em" style="text-anchor: end; visibility: inherit; font-family: Roboto, sans-serif; font-size: 12px; font-weight: 200;" fill="rgb(33, 33, 33)" stroke="none" stroke-width="1px">0.9</text><text x="0" y="0" dx="0em" dy="0.3em" style="text-anchor: end; visibility: hidden; font-family: Roboto, sans-serif; font-size: 12px; font-weight: 200;" fill="rgb(33, 33, 33)" stroke="none" stroke-width="1px">1</text></g><line x1="51.5625" y1="0" x2="51.5625" y2="377" fill="rgb(0, 0, 0)" stroke="rgb(204, 204, 204)" stroke-width="1px"></line></g></g><g transform="translate(51, 0)" clip-path="url(#clip_0)"><clipPath id="clip_0"><rect width="1444" height="377"></rect></clipPath><g><g><g><line x1="0" y1="0" x2="0" y2="377" fill="rgb(0, 0, 0)" stroke="rgb(66, 66, 66)" stroke-width="1px" opacity="0.25"></line><line x1="120.36979166666666" y1="0" x2="120.36979166666666" y2="377" fill="rgb(0, 0, 0)" stroke="rgb(66, 66, 66)" stroke-width="1px" opacity="0.25"></line><line x1="240.73958333333331" y1="0" x2="240.73958333333331" y2="377" fill="rgb(0, 0, 0)" stroke="rgb(66, 66, 66)" stroke-width="1px" opacity="0.25"></line><line x1="361.109375" y1="0" x2="361.109375" y2="377" fill="rgb(0, 0, 0)" stroke="rgb(66, 66, 66)" stroke-width="1px" opacity="0.25"></line><line x1="481.47916666666663" y1="0" x2="481.47916666666663" y2="377" fill="rgb(0, 0, 0)" stroke="rgb(66, 66, 66)" stroke-width="1px" opacity="0.25"></line><line x1="601.8489583333334" y1="0" x2="601.8489583333334" y2="377" fill="rgb(0, 0, 0)" stroke="rgb(66, 66, 66)" stroke-width="1px" opacity="0.25"></line><line x1="722.21875" y1="0" x2="722.21875" y2="377" fill="rgb(0, 0, 0)" stroke="rgb(66, 66, 66)" stroke-width="1px" opacity="0.25"></line><line x1="842.5885416666667" y1="0" x2="842.5885416666667" y2="377" fill="rgb(0, 0, 0)" stroke="rgb(66, 66, 66)" stroke-width="1px" opacity="0.25"></line><line x1="962.9583333333333" y1="0" x2="962.9583333333333" y2="377" fill="rgb(0, 0, 0)" stroke="rgb(66, 66, 66)" stroke-width="1px" opacity="0.25"></line><line x1="1083.328125" y1="0" x2="1083.328125" y2="377" fill="rgb(0, 0, 0)" stroke="rgb(66, 66, 66)" stroke-width="1px" opacity="0.25"></line><line x1="1203.6979166666667" y1="0" x2="1203.6979166666667" y2="377" fill="rgb(0, 0, 0)" stroke="rgb(66, 66, 66)" stroke-width="1px" opacity="0.25"></line><line x1="1324.0677083333333" y1="0" x2="1324.0677083333333" y2="377" fill="rgb(0, 0, 0)" stroke="rgb(66, 66, 66)" stroke-width="1px" opacity="0.25"></line><line x1="1444.4375" y1="0" x2="1444.4375" y2="377" fill="rgb(0, 0, 0)" stroke="rgb(66, 66, 66)" stroke-width="1px" opacity="0.25"></line></g><g><line x1="0" y1="377" x2="1444.4375" y2="377" fill="rgb(0, 0, 0)" stroke="rgb(66, 66, 66)" stroke-width="1px" opacity="0.25"></line><line x1="0" y1="348" x2="1444.4375" y2="348" fill="rgb(0, 0, 0)" stroke="rgb(66, 66, 66)" stroke-width="1px" opacity="0.25"></line><line x1="0" y1="319" x2="1444.4375" y2="319" fill="rgb(0, 0, 0)" stroke="rgb(66, 66, 66)" stroke-width="1px" opacity="0.25"></line><line x1="0" y1="290" x2="1444.4375" y2="290" fill="rgb(0, 0, 0)" stroke="rgb(66, 66, 66)" stroke-width="1px" opacity="0.25"></line><line x1="0" y1="261" x2="1444.4375" y2="261" fill="rgb(0, 0, 0)" stroke="rgb(66, 66, 66)" stroke-width="1px" opacity="0.25"></line><line x1="0" y1="232" x2="1444.4375" y2="232" fill="rgb(0, 0, 0)" stroke="rgb(66, 66, 66)" stroke-width="1px" opacity="0.25"></line><line x1="0" y1="203.00000000000003" x2="1444.4375" y2="203.00000000000003" fill="rgb(0, 0, 0)" stroke="rgb(66, 66, 66)" stroke-width="1px" opacity="0.25"></line><line x1="0" y1="174" x2="1444.4375" y2="174" fill="rgb(0, 0, 0)" stroke="rgb(66, 66, 66)" stroke-width="1px" opacity="0.25"></line><line x1="0" y1="145" x2="1444.4375" y2="145" fill="rgb(0, 0, 0)" stroke="rgb(66, 66, 66)" stroke-width="1px" opacity="0.25"></line><line x1="0" y1="116.00000000000004" x2="1444.4375" y2="116.00000000000004" fill="rgb(0, 0, 0)" stroke="rgb(66, 66, 66)" stroke-width="1px" opacity="0.25"></line><line x1="0" y1="87.00000000000003" x2="1444.4375" y2="87.00000000000003" fill="rgb(0, 0, 0)" stroke="rgb(66, 66, 66)" stroke-width="1px" opacity="0.25"></line><line x1="0" y1="58" x2="1444.4375" y2="58" fill="rgb(0, 0, 0)" stroke="rgb(66, 66, 66)" stroke-width="1px" opacity="0.25"></line><line x1="0" y1="29.00000000000002" x2="1444.4375" y2="29.00000000000002" fill="rgb(0, 0, 0)" stroke="rgb(66, 66, 66)" stroke-width="1px" opacity="0.25"></line><line x1="0" y1="0" x2="1444.4375" y2="0" fill="rgb(0, 0, 0)" stroke="rgb(66, 66, 66)" stroke-width="1px" opacity="0.25"></line></g></g></g><g><g><line x1="0" y1="290" x2="1444.4375" y2="290" fill="rgb(0, 0, 0)" stroke="rgb(153, 153, 153)" stroke-width="1.5px"></line></g></g><g><g><line x1="120.36979166666666" y1="0" x2="120.36979166666666" y2="377" fill="rgb(0, 0, 0)" stroke="rgb(153, 153, 153)" stroke-width="1.5px"></line></g></g><g><g><g><g><g><path stroke="rgb(0, 119, 187)" stroke-width="2px" d="M122.83496500000001,163.52087765932083L125.30013833333334,257.7173733524978L127.76531166666666,276.7449763823985L130.23048500000002,297.3291543291142L132.69565833333334,312.1750252018505L135.16083166666667,317.1645135236139L137.626005,322.3746567775503L140.09117833333332,327.4075786457485L142.55635166666667,327.1714926833382L145.021525,328.83268633753386L147.48669833333332,327.7962596110579L149.95187166666665,332.4248401678889L152.417045,331.30035462353396L154.88221833333333,334.4928603856827L157.34739166666665,336.1283162004121L159.812565,335.94875042885076L162.27773833333333,334.6836038669133L164.74291166666669,328.6759852408694L167.208085,330.02505923785196L169.67325833333334,326.75015188541033L172.13843166666666,322.52368365020624L174.60360500000002,322.24346444307685L177.06877833333334,326.0363539497746L179.53395166666667,326.32674363409023L181.999125,323.413911985093L184.46429833333332,321.82150233950495L186.92947166666664,321.7250795519901L189.39464499999997,321.3643294358146L191.85981833333335,321.0905958468771L194.32499166666668,316.67930963001095L196.790165,310.1873814635866L199.25533833333333,313.7442853643131L201.72051166666665,310.29373474891423L204.185685,312.4022176153102L206.65085833333333,313.5328627295929L209.1160316666667,313.8115027973566L211.581205,312.13348381252814L214.04637833333334,307.2594321042021L216.51155166666666,303.7839649701007L218.97672500000002,305.22253862715667L221.44189833333334,305.56261439170044L223.90707166666667,307.12545752031673L226.372245,309.87643086693487L228.83741833333332,309.4272479639574L231.30259166666664,304.2421917448689L233.76776500000003,304.43378024282754L236.23293833333335,302.3078613905272L238.69811166666668,299.84314194632964L241.163285,300.8402082849482L243.62845833333333,299.3761841150368L246.09363166666665,296.2191873549364L248.558805,299.2320862119847L251.02397833333333,295.1253370513593L253.48915166666666,295.06512184113706L255.95432499999998,296.4573889697825L258.4194983333333,294.6915327463433L260.88467166666663,291.32315736361573L263.349845,292.9453557512061L265.81501833333334,291.6304540945937L268.28019166666667,289.0492817499546L270.745365,289.429033129996L273.2105383333333,288.2509662908828L275.6757116666667,287.67062305748556L278.140885,285.0423349773293L280.60605833333335,285.9325162334982L283.0712316666667,286.29907811887523L285.536405,282.5564714235512L288.0015783333333,283.59742530956555L290.4667516666667,284.86825441583807L292.93192500000004,281.9614387319375L295.39709833333336,278.57987123822505L297.8622716666667,279.85488912818033L300.327445,279.6156648478341L302.79261833333334,275.580766539659L305.25779166666666,279.7613723000204L307.722965,277.8947247666309L310.1881383333333,276.1127303601616L312.65331166666664,274.4912889189311L315.11848499999996,274.59654441993166L317.5836583333333,276.3994320274635L320.0488316666667,275.4171822393682L322.514005,274.0628265544621L324.9791783333333,275.6956645223408L327.44435166666665,273.30531450348553L329.909525,272.1832035317269L332.3746983333333,270.8801427384762L334.8398716666667,269.4710616410106L337.305045,269.2493313932615L339.77021833333333,269.5455566873668L342.23539166666666,269.16355170789467L344.700565,266.2331416188664L347.1657383333333,263.7285799669616L349.6309116666667,262.5055138401623L352.096085,257.916652866151L354.56125833333334,251.8005843805946L357.02643166666667,250.439373722534L359.491605,249.81201521805562L361.9567783333334,252.9051201477744L364.42195166666664,253.46992498249404L366.887125,252.97127578026408L369.35229833333335,254.33606191495866L371.8174716666667,254.0516375542868L374.282645,257.70285266883303L376.7478183333333,250.020701457543L379.21299166666665,249.39886544315982L381.678165,251.85511153441053L384.1433383333333,253.5245716661297L386.6085116666667,252.86504811585445L389.07368499999995,254.8299601169854L391.53885833333334,251.82008954837497L394.00403166666666,249.3778037008916L396.469205,247.41646200283017L398.93437833333337,251.05565541901376L401.39955166666664,246.74151101063603L403.864725,251.09635983914683L406.3298983333333,250.7515094578895L408.7950716666667,252.66818448308902L411.26024499999994,252.51347681524635L413.7254183333333,248.73393834020067L416.1905916666667,247.23115927210665L418.655765,246.20361474890245L421.12093833333336,238.7545136078521L423.5861116666666,241.81437030221966L426.051285,242.2032017397043L428.5164583333334,236.06263952774742L430.98163166666666,235.5120595534023L433.44680500000004,231.1414103650675L435.9119783333333,230.0934428539053L438.3771516666667,228.7717256287441L440.842325,230.33138485787543L443.30749833333334,234.01336915515802L445.77267166666667,238.93100593818988L448.237845,239.08773317535977L450.7030183333333,233.72026881337325L453.16819166666664,234.96048313832375L455.63336499999997,235.5408520844942L458.09853833333335,237.2807426659683L460.5637116666667,235.0119264369261L463.028885,234.70756134063316L465.4940583333333,239.41659003895705L467.95923166666665,238.81732541562428L470.42440500000004,233.9803362979967L472.8895783333333,229.78986073103422L475.3547516666667,233.97572850326821L477.81992499999996,240.3023897119768L480.28509833333334,234.67824742248104L482.7502716666666,236.5033880177167L485.215445,234.96746279615323L487.68061833333337,239.89645312916136L490.14579166666664,229.6731998365575L492.610965,230.64881305941665L495.0761383333333,233.8313821616693L497.5413116666667,241.44880102055808L500.00648500000005,236.96272269473994L502.4716583333333,232.63352761022168L504.9368316666667,232.42166846604295L507.402005,234.06554394728627L509.86717833333336,228.07578667263206L512.3323516666667,227.3795113221408L514.797525,229.42360647056105L517.2626983333333,232.95099215229516L519.7278716666666,232.40667972874738L522.193045,226.8885091776377L524.6582183333333,226.89815311638867L527.1233916666666,217.24037092333052L529.588565,219.14150453451288L532.0537383333333,219.21170834805378L534.5189116666667,217.955408955251L536.9840849999999,221.6078388480156L539.4492583333333,218.9416977040654L541.9144316666667,221.2328616543225L544.379605,217.12463067553114L546.8447783333334,214.56451551068824L549.3099516666666,216.80792037218217L551.775125,215.6884660933578L554.2402983333333,209.43982151831176L556.7054716666667,211.13435404112923L559.170645,213.28498885995737L561.6358183333333,215.2235564349091L564.1009916666667,217.0942847584484L566.566165,214.35568515388948L569.0313383333333,210.6536262269544L571.4965116666667,210.06987673257157L573.961685,206.75411142238596L576.4268583333334,199.79191718893418L578.8920316666666,206.50192510126337L581.357205,208.87555438898983L583.8223783333334,200.1261264003693L586.2875516666667,209.30432921155565L588.752725,217.8845527500169L591.2178983333333,206.3460489946757L593.6830716666667,208.00924926031556L596.148245,207.66541510241586L598.6134183333334,207.00173049817892L601.0785916666667,212.18106561690814L603.543765,213.96440514201072L606.0089383333334,214.68261747523636L608.4741116666667,208.66819506266407L610.939285,206.75459459649738L613.4044583333334,209.75961575047504L615.8696316666667,209.81363135061463L618.3348050000001,209.77568589140054L620.7999783333333,209.37082602077177L623.2651516666667,214.03531517680554L625.730325,207.74304143247642L628.1954983333334,214.51175958906197L630.6606716666666,210.7065742671167L633.125845,207.402490226011L635.5910183333333,209.86657777284415L638.0561916666667,205.11671876224773L640.521365,199.1227957922989L642.9865383333333,197.23417897932376L645.4517116666667,196.37063956208615L647.916885,196.71386203734627L650.3820583333334,206.67894167642922L652.8472316666666,211.4956743296452L655.312405,206.43981449463774L657.7775783333333,204.32429571544412L660.2427516666667,198.87075507399607L662.7079249999999,199.70432236049874L665.1730983333333,198.31430658253612L667.6382716666666,191.8419655832802L670.103445,190.50241784293382L672.5686183333333,189.69919738792737L675.0337916666666,198.04305957331277L677.498965,202.48566369160423L679.9641383333333,192.10139071908242L682.4293116666666,185.58595058898118L684.894485,188.50689457404607L687.3596583333333,190.54950217335218L689.8248316666667,189.85022580581185L692.290005,184.88014373753836L694.7551783333333,183.5577298019789L697.2203516666666,187.72326772299184L699.685525,188.3546217971252L702.1506983333334,186.00078682262932L704.6158716666666,194.84824848269963L707.081045,189.81916148719515L709.5462183333333,186.39202928100423L712.0113916666667,188.71581539842126L714.476565,187.83671823342223L716.9417383333333,189.94173185348262L719.4069116666667,182.0870997686371L721.872085,181.1141643630973L724.3372583333332,186.66868220016426L726.8024316666667,194.85860306170625L729.267605,191.1260516533079L731.7327783333333,192.93218046956193L734.1979516666668,186.02641135771833L736.663125,186.3603456635461L739.1282983333333,189.45500968809046L741.5934716666668,189.39489423582026L744.0586450000001,191.91912364571735L746.5238183333333,189.81941623454955L748.9889916666666,186.83117117265266L751.4541650000001,176.93004468547937L753.9193383333334,182.0051406590202L756.3845116666666,189.68117432403915L758.849685,182.32944486503808L761.3148583333334,192.99241553524143L763.7800316666667,199.09710413681873L766.2452049999999,200.3019305853093L768.7103783333333,193.3486804239777L771.1755516666667,186.8879187627332L773.640725,187.1491520716963L776.1058983333334,193.67378968681206L778.5710716666666,195.6587738912422L781.036245,194.2727922869395L783.5014183333333,188.32238289550972L785.9665916666667,186.83155413172258L788.431765,188.39742550672065L790.8969383333333,186.8995415533839L793.3621116666667,181.27079351933352L795.827285,180.84620001430247L798.2924583333333,186.2644049079116L800.7576316666667,179.15283146803955L803.222805,183.94918598714693L805.6879783333333,178.91199682940973L808.1531516666666,180.18508860343653L810.618325,185.80560761018967L813.0834983333333,181.20276759460194L815.5486716666666,183.57797140118257L818.0138450000001,181.03422590635284L820.4790183333333,177.22486429537574L822.9441916666666,182.7914999313667L825.409365,186.71319546625105L827.8745383333334,191.71945132210902L830.3397116666666,200.99803815719517L832.8048849999999,198.36589283011577L835.2700583333334,200.50073925413025L837.7352316666667,190.41971196983653L840.2004049999999,186.3149676934147L842.6655783333334,181.55605663152124L845.1307516666667,187.73162275130505L847.595925,183.72549551472042L850.0610983333332,181.13893328753096L852.5262716666667,178.8076411405026L854.991445,177.15401761047957L857.4566183333333,184.62972409911703L859.9217916666668,184.06086413495393L862.386965,180.42138295431525L864.8521383333333,184.70077191030737L867.3173116666666,185.03907259843203L869.7824850000001,181.92206333006294L872.2476583333333,187.23968929007572L874.7128316666666,190.45521107885196L877.1780050000001,189.28732185109234L879.6431783333334,188.0741365465151L882.1083516666666,190.8450354166404L884.5735250000001,181.31790882513383L887.0386983333334,182.03193060258306L889.5038716666667,180.29469365894357L891.9690449999999,182.12708792102075L894.4342183333334,184.41027343876203L896.8993916666667,182.01900732879065L899.364565,184.26160152175558L901.8297383333334,185.24555203568062L904.2949116666667,180.44637881071048L906.760085,179.00468386620688L909.2252583333333,174.24248145467286L911.6904316666667,169.86638990906624L914.155605,174.20930533330286L916.6207783333333,178.9352130217591L919.0859516666667,188.4123307063126L921.5511250000001,179.92088661157752L924.0162983333333,173.91718426682746L926.4814716666666,172.50082635485055L928.946645,178.7846985078032L931.4118183333334,182.25605098105524L933.8769916666666,179.81831555185946L936.342165,178.61644795309445L938.8073383333333,181.79886001808015L941.2725116666667,172.48111139811616L943.737685,182.49582905219518L946.2028583333333,177.5928937116058L948.6680316666666,178.50740353577086L951.133205,173.50398338027446L953.5983783333334,161.63434431664737L956.0635516666666,161.68268529005402L958.528725,174.18790416376325L960.9938983333334,172.53938803944905L963.4590716666667,178.86759442015835L965.9242449999999,181.7057104225418L968.3894183333333,171.7844296285785L970.8545916666667,166.68358676369647L973.319765,173.93478961429392L975.7849383333332,166.95273656631352L978.2501116666667,163.3981984793236L980.715285,165.60604405040087L983.1804583333333,168.8457051016959L985.6456316666668,169.92397600996927L988.110805,166.3697799121644L990.5759783333333,173.49892402144116L993.0411516666666,177.05078890592955L995.5063250000001,171.4364268223709L997.9714983333333,178.84557258130704L1000.4366716666666,174.97598189736368L1002.9018450000001,168.69069742336842L1005.3670183333334,173.91898016437875L1007.8321916666666,186.51249695006004L1010.2973649999999,187.4128046523511L1012.7625383333334,184.2627094323027L1015.2277116666667,182.47075355855154L1017.6928849999999,175.15619550232609L1020.1580583333334,181.2331989650996L1022.6232316666667,175.78460164338773L1025.088405,177.52771334332482L1027.5535783333332,172.48348937322058L1030.0187516666667,166.1399141901097L1032.483925,172.93651103695404L1034.9490983333333,171.04494690728285L1037.4142716666668,167.79744863410056L1039.879445,169.16757726609265L1042.3446183333333,168.69158711397387L1044.8097916666668,167.4406409642919L1047.274965,177.82444336306L1049.7401383333333,181.9614796536621L1052.2053116666666,180.85454432353123L1054.670485,170.3347415219828L1057.1356583333334,173.8074932391098L1059.6008316666666,175.82132529584473L1062.0660050000001,173.7601011476988L1064.5311783333334,171.22268924010243L1066.9963516666667,178.02901368673116L1069.461525,165.7201216300456L1071.9266983333334,174.70100579739383L1074.3918716666667,169.43454073715668L1076.857045,169.83242170124333L1079.3222183333335,172.64140532081768L1081.7873916666667,161.86689857045084L1084.252565,172.89866127609767L1086.7177383333335,160.73132966780398L1089.1829116666668,166.17368504299964L1091.648085,167.88976076182274L1094.1132583333333,175.46832980475753L1096.5784316666668,170.65214396573262L1099.043605,164.57784927521445L1101.5087783333333,165.65948043247636L1103.9739516666668,173.0608554719721L1106.439125,175.08247173063958L1108.9042983333334,167.38424704213742L1111.3694716666666,164.28919879042985L1113.8346450000001,162.96329669620917L1116.2998183333334,163.0214026717325L1118.7649916666667,163.18527717280267L1121.2301650000002,157.85857843689843L1123.6953383333334,159.78919605811078L1126.1605116666667,168.25917506456162L1128.625685,169.73937323236336L1131.0908583333335,171.06826156701965L1133.5560316666667,172.38837260202357L1136.021205,171.01749609825487L1138.4863783333333,174.1440669948904L1140.9515516666668,171.31484474271826L1143.416725,171.06642845589096L1145.8818983333333,163.37216224264014L1148.3470716666666,168.94117299312893L1150.812245,163.7678140616092L1153.2774183333333,169.94413901660872L1155.7425916666666,161.68477135475896L1158.207765,160.90495525346054L1160.6729383333334,166.78518878546868L1163.1381116666666,174.16597346739485L1165.603285,169.12750864193745L1168.0684583333334,161.28971042731948L1170.5336316666667,162.23425115644662L1172.998805,162.64613691270188L1175.4639783333332,170.4367182451477L1177.9291516666667,164.50674520718997L1180.394325,164.43851391546693L1182.8594983333332,159.55517506642798L1185.3246716666665,156.92240021254815L1187.789845,160.72433448807118L1190.2550183333333,174.2888060627921L1192.7201916666666,182.733712757739L1195.1853649999998,177.33166537589582L1197.6505383333333,174.33476186935158L1200.1157116666666,177.63621197428736L1202.5808849999999,177.9676381724264L1205.0460583333333,183.25182223184024L1207.5112316666666,177.97519793428847L1209.9764049999999,174.02395349930447L1212.4415783333332,182.82145966405108L1214.9067516666667,173.10751074143909L1217.371925,175.5337277268688L1219.8370983333332,171.45129151435614L1222.3022716666667,172.30709580953072L1224.767445,176.7369885943839L1227.2326183333332,174.2392895044392L1229.6977916666667,183.74067422279745L1232.162965,168.85312185602805L1234.6281383333333,171.47487000177756L1237.0933116666665,180.3514204952148L1239.558485,178.29434004622863L1242.0236583333333,179.72307924746372L1244.4888316666666,172.32482376288712L1246.954005,171.45904554481115L1249.4191783333333,158.33179863425974L1251.8843516666666,166.29785819132854L1254.3495249999999,164.76997055578076L1256.8146983333334,167.08568774442577L1259.2798716666666,166.98092772233906L1261.745045,167.26236470740093L1264.2102183333334,175.0257169497076L1266.6753916666667,182.32826884341617L1269.140565,173.43587384076343L1271.6057383333334,172.3276444998469L1274.0709116666667,174.96218578380856L1276.536085,174.75210366465163L1279.0012583333332,168.5983289350123L1281.4664316666667,168.31665319615905L1283.931605,161.5491221094984L1286.3967783333333,155.92249225049366L1288.8619516666668,155.94056135695666L1291.327125,168.4354819433778L1293.7922983333333,165.86741528373298L1296.2574716666666,169.91964341080984L1298.722645,165.15281558559423L1301.1878183333333,165.550235870636L1303.6529916666666,166.5996992368439L1306.118165,162.39902161234255L1308.5833383333334,155.12131418391252L1311.0485116666666,160.83722225191704L1313.513685,157.40281111814087L1315.9788583333334,157.46182505379622L1318.4440316666667,159.01664998585287L1320.909205,161.85056320699638L1323.3743783333334,149.62305612488137L1325.8395516666667,157.75442759468288" style="fill: none;" fill="none"></path></g><g><path stroke="rgb(238, 51, 119)" stroke-width="2px" d="M122.83496500000001,330.34471720457077L125.30013833333334,322.8535759728402L127.76531166666666,317.4346727452108L130.23048500000002,304.43512691820024L132.69565833333334,299.6223835082787L135.16083166666667,300.8613612759621L137.626005,292.65195670929654L140.09117833333332,286.40655031738277L142.55635166666667,286.78909632992423L145.021525,283.0720451812201L147.48669833333332,274.7504551754316L149.95187166666665,270.47040242149245L152.417045,264.9119080861075L154.88221833333333,265.4135688994798L157.34739166666665,258.1378065804862L159.812565,257.53677368457744L162.27773833333333,252.88805928868908L164.74291166666669,250.36349851620346L167.208085,250.7347721719526L169.67325833333334,251.15645584614415L172.13843166666666,247.387164501043L174.60360500000002,245.37096467318818L177.06877833333334,245.74111173825324L179.53395166666667,243.21075456573178L181.999125,239.41381070711142L184.46429833333332,237.2110241847362L186.92947166666664,235.67610167506228L189.39464499999997,232.46961350849332L191.85981833333335,229.2484319000727L194.32499166666668,230.37158703536232L196.790165,229.6453372810391L199.25533833333333,230.62630847000727L201.72051166666665,226.2249240853916L204.185685,225.20405734108763L206.65085833333333,222.78908179737206L209.1160316666667,224.824516535159L211.581205,225.33072922564264L214.04637833333334,221.59436650043173L216.51155166666666,220.673011103994L218.97672500000002,222.5139193915456L221.44189833333334,217.5785268018674L223.90707166666667,213.41235391118497L226.372245,207.3779557438257L228.83741833333332,208.0347038682384L231.30259166666664,209.46571453682057L233.76776500000003,213.75206401536656L236.23293833333335,210.68367189508993L238.69811166666668,208.76763550242842L241.163285,210.73186867121163L243.62845833333333,216.25357152635328L246.09363166666665,215.70183683403746L248.558805,217.00521718841225L251.02397833333333,210.8017751656748L253.48915166666666,209.24611360327899L255.95432499999998,211.09431273041184L258.4194983333333,205.61884597717327L260.88467166666663,200.88332531320106L263.349845,206.35788618008604L265.81501833333334,209.2828316597959L268.28019166666667,204.73193151407344L270.745365,197.26390995176354L273.2105383333333,200.98708914275008L275.6757116666667,198.72143415543462L278.140885,193.21918945272574L280.60605833333335,191.979351882695L283.0712316666667,189.94028594765595L285.536405,186.33016518755872L288.0015783333333,188.03614182474684L290.4667516666667,186.46164681436102L292.93192500000004,183.56670979214596L295.39709833333336,181.73675586910778L297.8622716666667,175.75109583217935L300.327445,177.88497318076514L302.79261833333334,171.89289086608545L305.25779166666666,167.6316266867426L307.722965,169.5667698152606L310.1881383333333,166.39651073025135L312.65331166666664,166.70388587121053L315.11848499999996,168.94403307321005L317.5836583333333,164.35685508657892L320.0488316666667,163.34562178378943L322.514005,167.22655889943627L324.9791783333333,164.958971605035L327.44435166666665,156.71940080245275L329.909525,157.75200481367077L332.3746983333333,165.70668718309383L334.8398716666667,162.8329465454291L337.305045,165.91721258553687L339.77021833333333,165.7141519903709L342.23539166666666,158.09685333487806L344.700565,155.49703135441194L347.1657383333333,156.26392218083413L349.6309116666667,150.15148671037122L352.096085,152.8627817128072L354.56125833333334,147.9154987510425L357.02643166666667,149.1910411939849L359.491605,151.0661516204971L361.9567783333334,146.9770687589346L364.42195166666664,142.98230539377323L366.887125,138.74206883082266L369.35229833333335,129.53424586277887L371.8174716666667,118.94344504726935L374.282645,120.77904543908242L376.7478183333333,115.76332188625224L379.21299166666665,120.41461525546958L381.678165,121.42507659308583L384.1433383333333,121.16678182430546L386.6085116666667,125.60096778957539L389.07368499999995,126.13746284537604L391.53885833333334,128.7354874556845L394.00403166666666,125.6900112596503L396.469205,124.57036690517376L398.93437833333337,121.9750876224286L401.39955166666664,129.57253020979442L403.864725,119.00595070110252L406.3298983333333,104.47023177854115L408.7950716666667,109.18556490368779L411.26024499999994,104.48303436533891L413.7254183333333,109.28931150016956L416.1905916666667,110.35569639907938L418.655765,112.20270140115417L421.12093833333336,116.15571989502907L423.5861116666666,115.41721256903651L426.051285,120.72013778884316L428.5164583333334,115.66825296520649L430.98163166666666,105.62209907793675L433.44680500000004,106.62542905583187L435.9119783333333,103.02213720187073L438.3771516666667,101.74040801348998L440.842325,107.98052338971326L443.30749833333334,114.46307556756516L445.77267166666667,109.52543650226698L448.237845,96.94599124286712L450.7030183333333,107.51331932839237L453.16819166666664,107.20725135503108L455.63336499999997,103.8928677826994L458.09853833333335,112.20317925154414L460.5637116666667,107.74542692386655L463.028885,105.2193119709703L465.4940583333333,105.68254557758644L467.95923166666665,103.18252997106363L470.42440500000004,102.70621416870385L472.8895783333333,98.98010133447426L475.3547516666667,96.4145531579386L477.81992499999996,93.07411183861083L480.28509833333334,90.92701476780883L482.7502716666666,91.6923594592113L485.215445,95.45566035020936L487.68061833333337,96.78453274195545L490.14579166666664,95.80322854295461L492.610965,89.72787638053352L495.0761383333333,92.89139091697368L497.5413116666667,94.7153800709667L500.00648500000005,98.9913007011188L502.4716583333333,90.1859226459368L504.9368316666667,84.88126198256633L507.402005,85.77394246938596L509.86717833333336,90.31460022856453L512.3323516666667,89.3852320666889L514.797525,95.72541185353876L517.2626983333333,94.61967914184737L519.7278716666666,84.52689605284216L522.193045,83.76562426882076L524.6582183333333,92.87787026403599L527.1233916666666,82.41638342284118L529.588565,86.38663911666247L532.0537383333333,81.78773178962335L534.5189116666667,94.4230700391976L536.9840849999999,97.63052015652943L539.4492583333333,97.52674144000228L541.9144316666667,91.8489558785582L544.379605,89.81337209280878L546.8447783333334,83.31183230719894L549.3099516666666,78.79001877213678L551.775125,87.04198730889055L554.2402983333333,86.85313542427478L556.7054716666667,78.06215143049869L559.170645,68.15414080527492L561.6358183333333,74.68578725759426L564.1009916666667,66.57946985783724L566.566165,63.003513823882024L569.0313383333333,63.36502767260986L571.4965116666667,74.96180639658046L573.961685,68.70089069601103L576.4268583333334,68.66627058742164L578.8920316666666,85.02941466187076L581.357205,80.39285145291468L583.8223783333334,70.84424639993176L586.2875516666667,73.6517976835565L588.752725,70.61099857778525L591.2178983333333,66.32462937051758L593.6830716666667,70.65546916970435L596.148245,75.10905723004831L598.6134183333334,83.69740355151472L601.0785916666667,79.17551224313722L603.543765,77.00550380279151L606.0089383333334,79.71557297068551L608.4741116666667,74.68006991003583L610.939285,72.17139615210667L613.4044583333334,68.05167945380674L615.8696316666667,72.25901813599864L618.3348050000001,75.66996604975105L620.7999783333333,76.12525958285354L623.2651516666667,71.56090318242087L625.730325,67.39361392902954L628.1954983333334,65.72807423739211L630.6606716666666,60.08070678990231L633.125845,61.18384225059239L635.5910183333333,67.90499820046834L638.0561916666667,64.84792693694361L640.521365,63.366574908732915L642.9865383333333,66.85395721521353L645.4517116666667,60.404258513011754L647.916885,72.70787521812812L650.3820583333334,82.34253337748939L652.8472316666666,80.20134312372265L655.312405,66.35599650419267L657.7775783333333,79.27726887152502L660.2427516666667,83.05620707563106L662.7079249999999,72.26861809189043L665.1730983333333,78.76494249400454L667.6382716666666,65.78255868373482L670.103445,69.55794511090622L672.5686183333333,69.3505495658571L675.0337916666666,65.36614906019298L677.498965,74.3289464189191L679.9641383333333,78.94191416940566L682.4293116666666,74.67395015264437L684.894485,71.73481623950532L687.3596583333333,69.32956552876792L689.8248316666667,65.30947408898923L692.290005,61.08075691356812L694.7551783333333,63.8547882622156L697.2203516666666,61.37100727472747L699.685525,60.2117254204395L702.1506983333334,63.04187618892443L704.6158716666666,55.957821149832306L707.081045,62.39576860618966L709.5462183333333,69.8042111656212L712.0113916666667,82.40589315063612L714.476565,79.93707975367816L716.9417383333333,72.91740751636092L719.4069116666667,73.76131925804657L721.872085,75.85626574649359L724.3372583333332,76.02876479800909L726.8024316666667,74.99212965593557L729.267605,76.71994629636897L731.7327783333333,78.94135322055514L734.1979516666668,79.30186895061311L736.663125,68.74931733327372L739.1282983333333,74.27260971377648L741.5934716666668,78.28036365694025L744.0586450000001,81.22102080456148L746.5238183333333,78.35785113973454L748.9889916666666,72.91723181726361L751.4541650000001,68.91789418412338L753.9193383333334,69.46827114792521L756.3845116666666,64.30790365440762L758.849685,67.04519045772027L761.3148583333334,66.37657387508077L763.7800316666667,78.41976132066922L766.2452049999999,68.46315387530251L768.7103783333333,78.56588270451498L771.1755516666667,80.78769079557578L773.640725,86.25962061710072L776.1058983333334,77.57602216617418L778.5710716666666,73.33736873755547L781.036245,72.50165782624298L783.5014183333333,68.02182890328062L785.9665916666667,70.0271659931677L788.431765,69.88783608920205L790.8969383333333,73.74370700744879L793.3621116666667,75.82271579878385L795.827285,78.15487339482817L798.2924583333333,74.71310230723688L800.7576316666667,71.81432588476933L803.222805,82.27249970185161L805.6879783333333,72.70105522958875L808.1531516666666,91.6903395777252L810.618325,90.60557671340143L813.0834983333333,89.96172301740549L815.5486716666666,91.24136562807024L818.0138450000001,92.35420820511973L820.4790183333333,90.51580808995728L822.9441916666666,95.32946623825171L825.409365,95.5751118508764L827.8745383333334,91.3638814358585L830.3397116666666,91.11983228139124L832.8048849999999,102.95786624200372L835.2700583333334,104.1267652812435L837.7352316666667,90.31444236653053L840.2004049999999,83.43913701186781L842.6655783333334,79.04137770539644L845.1307516666667,84.08523607376884L847.595925,78.86175279691021L850.0610983333332,84.90032580419899L852.5262716666667,82.53647534206225L854.991445,73.2726433763189L857.4566183333333,84.16749160821934L859.9217916666668,90.2462420543176L862.386965,86.34916434765708L864.8521383333333,80.21728879261528L867.3173116666666,82.85413244991605L869.7824850000001,76.60593497532075L872.2476583333333,72.45602409706991L874.7128316666666,67.97618842522193L877.1780050000001,67.25283584833079L879.6431783333334,69.99894095563847L882.1083516666666,76.82353087129567L884.5735250000001,77.03092782415378L887.0386983333334,79.63225250671763L889.5038716666667,79.9068653895286L891.9690449999999,88.97465159379406L894.4342183333334,82.17647486855365L896.8993916666667,78.01100381570919L899.364565,81.17026620124496L901.8297383333334,69.09865482458302L904.2949116666667,72.33858027344245L906.760085,76.2121748822051L909.2252583333333,72.16860341412533L911.6904316666667,62.74322943319502L914.155605,59.4823782231189L916.6207783333333,73.7507515302764L919.0859516666667,72.13704640576043L921.5511250000001,61.46055659597393L924.0162983333333,69.5856518801765L926.4814716666666,70.4710435424278L928.946645,58.71254203045546L931.4118183333334,63.75310467078794L933.8769916666666,60.30504087444844L936.342165,62.95345675847947L938.8073383333333,64.79718167723428L941.2725116666667,66.08198809111846L943.737685,62.172698303966094L946.2028583333333,52.73613579565788L948.6680316666666,41.561652228203435L951.133205,65.08671772776066L953.5983783333334,64.07498343168507L956.0635516666666,66.13158716785199L958.528725,67.96354635970165L960.9938983333334,69.90484323749764L963.4590716666667,73.37249282985822L965.9242449999999,61.60415937894518L968.3894183333333,62.14488846298418L970.8545916666667,54.081735743500936L973.319765,49.312363227259L975.7849383333332,54.75599632266218L978.2501116666667,59.73512640954883L980.715285,59.488453813563765L983.1804583333333,50.0882262874669L985.6456316666668,50.52458065086764L988.110805,59.91012488206719L990.5759783333333,56.32942625522908L993.0411516666666,60.97832458400906L995.5063250000001,60.800267321969116L997.9714983333333,62.323620953026484L1000.4366716666666,59.43352928034249L1002.9018450000001,59.149887742232L1005.3670183333334,63.61375223495407L1007.8321916666666,68.46995550929213L1010.2973649999999,72.32288717352569L1012.7625383333334,67.05167507602704L1015.2277116666667,57.28323492690285L1017.6928849999999,61.000424106623875L1020.1580583333334,59.44949190599097L1022.6232316666667,64.98121858109457L1025.088405,56.598295929845726L1027.5535783333332,52.88292703796417L1030.0187516666667,63.25916253190634L1032.483925,57.29001547492383L1034.9490983333333,48.941270027141826L1037.4142716666668,43.166724391925925L1039.879445,41.59653326758657L1042.3446183333333,40.31796968513085L1044.8097916666668,36.06470892747256L1047.274965,48.651881634712296L1049.7401383333333,57.11226059169777L1052.2053116666666,67.22553487522129L1054.670485,58.940632318870556L1057.1356583333334,50.905551895747394L1059.6008316666666,52.71140145376314L1062.0660050000001,51.96302394339439L1064.5311783333334,52.55558478992579L1066.9963516666667,53.07970874405737L1069.461525,50.23381324348947L1071.9266983333334,51.87484176002801L1074.3918716666667,52.23428244020259L1076.857045,44.85387345925405L1079.3222183333335,47.391712789389125L1081.7873916666667,54.370328739078424L1084.252565,50.44507012056801L1086.7177383333335,50.68062892727551L1089.1829116666668,50.598035998180514L1091.648085,52.00905749025042L1094.1132583333333,46.82667272580922L1096.5784316666668,46.375769718249195L1099.043605,39.42930194363568L1101.5087783333333,44.983301953229734L1103.9739516666668,36.974467751832854L1106.439125,44.56336254921678L1108.9042983333334,46.167155474705254L1111.3694716666666,54.77332971708941L1113.8346450000001,52.174032820564314L1116.2998183333334,43.2346762974869L1118.7649916666667,36.998670921314435L1121.2301650000002,33.08207084273614L1123.6953383333334,30.114761170955415L1126.1605116666667,29.531530843503464L1128.625685,40.535555783705206L1131.0908583333335,43.46307832228919L1133.5560316666667,35.95132016079295L1136.021205,45.82546653113765L1138.4863783333333,46.032971035015606L1140.9515516666668,38.542427951438434L1143.416725,44.0902664270063L1145.8818983333333,34.50400126016489L1148.3470716666666,51.331150603511034L1150.812245,40.15275959504731L1153.2774183333333,41.34588220318012L1155.7425916666666,41.57318197846323L1158.207765,53.89918162321995L1160.6729383333334,46.769876682138175L1163.1381116666666,59.63486373625738L1165.603285,59.08382690073571L1168.0684583333334,52.55414006782488L1170.5336316666667,44.78278802438329L1172.998805,41.40498332145066L1175.4639783333332,42.88898212887199L1177.9291516666667,49.01567997442101L1180.394325,46.653740298190165L1182.8594983333332,45.14284151282223L1185.3246716666665,55.477039441384704L1187.789845,50.47504927213067L1190.2550183333333,50.45702258047507L1192.7201916666666,48.86994885979321L1195.1853649999998,46.657022044528844L1197.6505383333333,57.42230904428324L1200.1157116666666,65.36684568123917L1202.5808849999999,62.141887994986156L1205.0460583333333,57.850775392282834L1207.5112316666666,53.904121441500685L1209.9764049999999,57.007487608705375L1212.4415783333332,63.53359865767618L1214.9067516666667,55.94895057453429L1217.371925,51.24458487375809L1219.8370983333332,51.37677797999521L1222.3022716666667,61.06612449483004L1224.767445,67.13935140130472L1227.2326183333332,68.849036475167L1229.6977916666667,78.05824242838938L1232.162965,63.685697333864695L1234.6281383333333,66.3627355199172L1237.0933116666665,76.95776062614404L1239.558485,63.94571469668556L1242.0236583333333,65.3840043928862L1244.4888316666666,59.335183309712455L1246.954005,55.821425919054995L1249.4191783333333,67.20595431585262L1251.8843516666666,67.46315760766947L1254.3495249999999,78.31735827538665L1256.8146983333334,83.87487708338081L1259.2798716666666,83.81243740801797L1261.745045,71.38322588971128L1264.2102183333334,67.55171535712998L1266.6753916666667,66.99190162600593L1269.140565,73.09016575206226L1271.6057383333334,72.36784189813675L1274.0709116666667,70.87903195544091L1276.536085,78.95123370840555L1279.0012583333332,85.08007984372621L1281.4664316666667,67.44418132908727L1283.931605,55.05713241462459L1286.3967783333333,55.21287308433388L1288.8619516666668,62.21072117268287L1291.327125,67.48753785955458L1293.7922983333333,69.93940424840181L1296.2574716666666,67.59672660780271L1298.722645,67.67525374384117L1301.1878183333333,68.7337425916874L1303.6529916666666,56.14695594128866L1306.118165,59.721164497237844L1308.5833383333334,60.77010285407392L1311.0485116666666,57.694787332714085L1313.513685,65.04832729655537L1315.9788583333334,61.60630765532274L1318.4440316666667,67.56271375998747L1320.909205,73.75384243598513L1323.3743783333334,86.55377407235464L1325.8395516666667,80.65264975644683" style="fill: none;" fill="none"></path></g></g></g></g><g opacity="0.2"><g><g><g><path stroke="rgb(0, 119, 187)" stroke-width="2px" d="M122.83496500000001,163.52087765932083L125.30013833333334,314.235270768404L127.76531166666666,295.0114752911031L130.23048500000002,321.5361475944519L132.69565833333334,331.557794213295L135.16083166666667,324.06677208840847L137.626005,329.8252449929714L140.09117833333332,334.7456270456314L142.55635166666667,326.82331174612045L145.021525,331.29936531186104L147.48669833333332,326.2510198354721L149.95187166666665,339.3425224721432L152.417045,329.61729794740677L154.88221833333333,339.27536457777023L157.34739166666665,338.57957750558853L159.812565,335.6795284152031L162.27773833333333,332.7864193916321L164.74291166666669,319.6660826355219L167.208085,332.0484647154808L169.67325833333334,321.83809019625187L172.13843166666666,316.1842130869627L174.60360500000002,321.8231448531151L177.06877833333334,331.7256133258343L179.53395166666667,326.7623247206211L181.999125,319.0446852147579L184.46429833333332,319.4328946620226L186.92947166666664,321.58044561743736L189.39464499999997,320.8232048153877L191.85981833333335,320.67999571561813L194.32499166666668,310.06238274276257L196.790165,300.44949136674404L199.25533833333333,319.07964050769806L201.72051166666665,305.1179092377424L204.185685,315.56494176387787L206.65085833333333,315.2288303524256L209.1160316666667,314.2294628918171L211.581205,309.61645536124706L214.04637833333334,299.9483545869589L216.51155166666666,298.57076428830624L218.97672500000002,307.38039910793304L221.44189833333334,306.07272803783417L223.90707166666667,309.46972221136093L226.372245,314.00289088487625L228.83741833333332,308.7534736096859L231.30259166666664,296.46460741758347L233.76776500000003,304.7211629897356L236.23293833333335,299.1189831122756L238.69811166666668,296.14606278017163L241.163285,302.3358077928424L243.62845833333333,297.1801478601992L246.09363166666665,291.48369221482426L248.558805,303.75143449753523L251.02397833333333,288.9652133104392L253.48915166666666,294.9747990258038L255.95432499999998,298.5457896627486L258.4194983333333,292.04274841118604L260.88467166666663,286.2705942895264L263.349845,295.37865333259106L265.81501833333334,289.6581016096752L268.28019166666667,285.17752323299646L270.745365,289.9986602000581L273.2105383333333,286.483866032213L275.6757116666667,286.80010820738977L278.140885,281.099902857095L280.60605833333335,287.2677881177515L283.0712316666667,286.8489209469408L285.536405,276.94256138056517L288.0015783333333,285.158856138587L290.4667516666667,286.7744980752468L292.93192500000004,277.60121520608664L295.39709833333336,273.50751999765635L297.8622716666667,281.7674159631133L300.327445,279.25682842731476L302.79261833333334,269.52841907739645L305.25779166666666,286.0322809405625L307.722965,275.09475346654654L310.1881383333333,273.43973875045776L312.65331166666664,272.0591267570853L315.11848499999996,274.7544276714325L317.5836583333333,279.10376343876123L320.0488316666667,273.9438075572252L322.514005,272.03129302710295L324.9791783333333,278.14492147415876L327.44435166666665,269.71978947520256L329.909525,270.50003707408905L332.3746983333333,268.92555154860025L334.8398716666667,267.357439994812L337.305045,268.9167360216379L339.77021833333333,269.9898946285248L342.23539166666666,268.59054423868656L344.700565,261.8375264853239L347.1657383333333,259.97173748910427L349.6309116666667,260.6709146499634L352.096085,251.03336140513423L354.56125833333334,242.62648165225986L357.02643166666667,248.3975577354431L359.491605,248.87097746133804L361.9567783333334,257.5447775423527L364.42195166666664,254.31713223457336L366.887125,252.22330197691917L369.35229833333335,256.3832411170006L371.8174716666667,253.625001013279L374.282645,263.17967534065247L376.7478183333333,238.4974746406078L379.21299166666665,248.4661114215851L381.678165,255.53948067128658L384.1433383333333,256.0287618637085L386.6085116666667,251.8757627904415L389.07368499999995,257.7773281186819L391.53885833333334,247.30528369545937L394.00403166666666,245.71437492966655L396.469205,244.47444945573807L398.93437833333337,256.5144455432892L401.39955166666664,240.2702943980694L403.864725,257.628633081913L406.3298983333333,250.2342338860035L408.7950716666667,255.54319702088836L411.26024499999994,252.28141531348228L413.7254183333333,243.06463062763214L416.1905916666667,244.97699066996577L418.655765,244.6622979640961L421.12093833333336,227.58086189627645L423.5861116666666,246.40415534377098L426.051285,242.78644889593122L428.5164583333334,226.85179620981214L430.98163166666666,234.6861895918846L433.44680500000004,224.58543658256528L435.9119783333333,228.52149158716202L438.3771516666667,226.78914979100227L440.842325,232.67087370157245L443.30749833333334,239.53634560108185L445.77267166666667,246.30746111273766L448.237845,239.32282403111458L450.7030183333333,225.66907227039337L453.16819166666664,236.82080462574956L455.63336499999997,236.41140550374988L458.09853833333335,239.89057853817943L460.5637116666667,231.6087020933628L463.028885,234.2510136961937L465.4940583333333,246.48013308644298L467.95923166666665,237.91842848062518L470.42440500000004,226.72485262155533L472.8895783333333,223.50414738059044L475.3547516666667,240.2545301616192L477.81992499999996,249.79238152503967L480.28509833333334,226.24203398823738L482.7502716666666,239.24109891057017L485.215445,232.66357496380806L487.68061833333337,247.28993862867358L490.14579166666664,214.33831989765167L492.610965,232.11223289370537L495.0761383333333,238.60523581504822L497.5413116666667,252.8749293088913L500.00648500000005,230.23360520601273L502.4716583333333,226.1397349834442L504.9368316666667,232.10387974977493L507.402005,236.5313571691513L509.86717833333336,219.09115076065063L512.3323516666667,226.33509829640386L514.797525,232.48974919319153L517.2626983333333,238.24207067489624L519.7278716666666,231.59021109342572L522.193045,218.6112533509731L524.6582183333333,226.91261902451515L527.1233916666666,202.7536976337433L529.588565,221.9932049512863L532.0537383333333,219.31701406836507L534.5189116666667,216.07095986604688L536.9840849999999,227.0864836871624L539.4492583333333,214.9424859881401L541.9144316666667,224.66960757970807L544.379605,210.96228420734406L546.8447783333334,210.7243427634239L549.3099516666666,220.173027664423L551.775125,214.0092846751213L554.2402983333333,200.06685465574265L556.7054716666667,213.67615282535553L559.170645,216.5109410881996L561.6358183333333,218.1314077973366L564.1009916666667,219.90037724375728L566.566165,210.2477857470512L569.0313383333333,205.10053783655164L571.4965116666667,209.19425249099731L573.961685,201.78046345710754L576.4268583333334,189.34862583875653L578.8920316666666,216.56693696975708L581.357205,212.43599832057953L583.8223783333334,187.0019844174385L586.2875516666667,223.0716334283352L588.752725,230.7548880577087L591.2178983333333,189.0382933616638L593.6830716666667,210.50404965877533L596.148245,207.14966386556623L598.6134183333334,206.00620359182358L601.0785916666667,219.95006829500196L603.543765,216.6394144296646L606.0089383333334,215.7599359750748L608.4741116666667,199.6465614438057L610.939285,203.88419389724731L613.4044583333334,214.2671474814415L615.8696316666667,209.89465475082395L618.3348050000001,209.71876770257947L620.7999783333333,208.7635362148285L623.2651516666667,221.03204891085622L625.730325,198.30463081598282L628.1954983333334,224.6648368239403L630.6606716666666,204.99879628419873L633.125845,202.44636416435242L635.5910183333333,213.56270909309384L638.0561916666667,197.99193024635318L640.521365,190.13191133737564L642.9865383333333,194.401253759861L645.4517116666667,195.0753304362297L647.916885,197.2286957502365L650.3820583333334,221.62656113505363L652.8472316666666,218.72077330946922L655.312405,198.85602474212644L657.7775783333333,201.15101754665375L660.2427516666667,190.69044411182406L662.7079249999999,200.95467329025269L665.1730983333333,196.22928291559217L667.6382716666666,182.13345408439636L670.103445,188.49309623241422L672.5686183333333,188.49436670541763L675.0337916666666,210.55885285139084L677.498965,209.14956986904141L679.9641383333333,176.52498126029965L682.4293116666666,175.81279039382932L684.894485,192.88831055164337L687.3596583333333,193.6134135723114L689.8248316666667,188.80131125450137L692.290005,177.42502063512802L694.7551783333333,181.57410889863968L697.2203516666666,193.97157460451123L699.685525,189.30165290832517L702.1506983333334,182.4700343608856L704.6158716666666,208.11944097280502L707.081045,182.27553099393845L709.5462183333333,181.25133097171783L712.0113916666667,192.2014945745468L714.476565,186.51807248592377L716.9417383333333,193.09925228357312L719.4069116666667,170.30515164136887L721.872085,179.65476125478742L724.3372583333332,195.00045895576474L726.8024316666667,207.14348435401914L729.267605,185.52722454071045L731.7327783333333,195.64137369394302L734.1979516666668,175.66775768995285L736.663125,186.86124712228775L739.1282983333333,194.09700572490692L741.5934716666668,189.304721057415L744.0586450000001,195.7054677605629L746.5238183333333,186.66985511779782L748.9889916666666,182.34880357980725L751.4541650000001,162.07835495471954L753.9193383333334,189.61778461933136L756.3845116666666,201.19522482156754L758.849685,171.30185067653656L761.3148583333334,208.98687154054642L763.7800316666667,208.25413703918457L766.2452049999999,202.10917025804522L768.7103783333333,182.9188051819801L771.1755516666667,177.19677627086637L773.640725,187.54100203514096L776.1058983333334,203.46074610948563L778.5710716666666,198.63625019788742L781.036245,192.19381988048553L783.5014183333333,179.39676880836484L785.9665916666667,184.595310986042L788.431765,190.74623256921768L790.8969383333333,184.65271562337875L793.3621116666667,172.8276714682579L795.827285,180.20930975675583L798.2924583333333,194.39171224832535L800.7576316666667,168.48547130823135L803.222805,191.14371776580808L805.6879783333333,171.35621309280393L808.1531516666666,182.09472626447678L810.618325,194.23638612031934L813.0834983333333,174.2985075712204L815.5486716666666,187.14077711105347L818.0138450000001,177.21860766410828L820.4790183333333,171.51082187891006L822.9441916666666,191.1414533853531L825.409365,192.59573876857758L827.8745383333334,199.228835105896L830.3397116666666,214.91591840982437L832.8048849999999,194.41767483949658L835.2700583333334,203.70300889015195L837.7352316666667,175.298171043396L840.2004049999999,180.1578512787819L842.6655783333334,174.41769003868103L845.1307516666667,196.99497193098068L847.595925,177.71630465984342L850.0610983333332,177.25908994674683L852.5262716666667,175.31070291996L854.991445,174.67358231544495L857.4566183333333,195.84328383207318L859.9217916666668,183.20757418870926L862.386965,174.96216118335724L864.8521383333333,191.1198553442955L867.3173116666666,185.54652363061905L869.7824850000001,177.24654942750928L872.2476583333333,195.21612823009488L874.7128316666666,195.2784937620163L877.1780050000001,187.53548800945282L879.6431783333334,186.2543585896492L882.1083516666666,195.0013837218285L884.5735250000001,167.02721893787384L887.0386983333334,183.10296326875687L889.5038716666667,177.68883824348447L891.9690449999999,184.8756793141365L894.4342183333334,187.835051715374L896.8993916666667,178.43210816383362L899.364565,187.62549281120297L901.8297383333334,186.72147780656815L904.2949116666667,173.24761897325513L906.760085,176.84214144945145L909.2252583333333,167.0991778373718L911.6904316666667,163.30225259065628L914.155605,180.72367846965787L916.6207783333333,186.02407455444336L919.0859516666667,202.62800723314285L921.5511250000001,167.18372046947476L924.0162983333333,164.91163074970243L926.4814716666666,170.37628948688507L928.946645,188.2105067372322L931.4118183333334,187.4630796909332L933.8769916666666,176.16171240806577L936.342165,176.81364655494687L938.8073383333333,186.57247811555862L941.2725116666667,158.50448846817014L943.737685,197.51790553331378L946.2028583333333,170.23849070072174L948.6680316666666,179.87916827201843L951.133205,165.99885314702985L953.5983783333334,143.82988572120664L956.0635516666666,161.75519675016403L958.528725,192.9457324743271L960.9938983333334,170.06661385297775L963.4590716666667,188.35990399122238L965.9242449999999,185.96288442611694L968.3894183333333,156.90250843763351L970.8545916666667,159.03232246637344L973.319765,184.8115938901901L975.7849383333332,156.47965699434278L978.2501116666667,158.0663913488388L980.715285,168.91781240701675L983.1804583333333,173.70519667863846L985.6456316666668,171.5413823723793L988.110805,161.03848576545715L990.5759783333333,184.19264018535614L993.0411516666666,182.3785862326622L995.5063250000001,163.0148836970329L997.9714983333333,189.95929121971128L1000.4366716666666,169.17159587144852L1002.9018450000001,159.2627707123756L1005.3670183333334,181.76140427589417L1007.8321916666666,205.40277212858197L1010.2973649999999,188.76326620578766L1012.7625383333334,179.53756660223007L1015.2277116666667,179.78281974792478L1017.6928849999999,164.1843584179878L1020.1580583333334,190.3487041592598L1022.6232316666667,167.61170566081998L1025.088405,180.1423808932304L1027.5535783333332,164.91715341806412L1030.0187516666667,156.62455141544342L1032.483925,183.13140630722046L1034.9490983333333,168.20760071277618L1037.4142716666668,162.9262012243271L1039.879445,171.2227702140808L1042.3446183333333,167.9776018857956L1044.8097916666668,165.56422173976898L1047.274965,193.40014696121216L1049.7401383333333,188.16703408956528L1052.2053116666666,179.1941413283348L1054.670485,154.5550373196602L1057.1356583333334,179.01662081480026L1059.6008316666666,178.84207338094708L1062.0660050000001,170.66826492547986L1064.5311783333334,167.41657137870789L1066.9963516666667,188.23850035667417L1069.461525,147.25678354501724L1071.9266983333334,188.17233204841614L1074.3918716666667,161.534843146801L1076.857045,170.4292431473732L1079.3222183333335,176.85488075017926L1081.7873916666667,145.7051384449005L1084.252565,189.44630533456802L1086.7177383333335,142.48033225536346L1089.1829116666668,174.337218105793L1091.648085,170.46387434005737L1094.1132583333333,186.8361833691597L1096.5784316666668,163.42786520719528L1099.043605,155.4664072394371L1101.5087783333333,167.2819271683693L1103.9739516666668,184.16291803121567L1106.439125,178.1148961186409L1108.9042983333334,155.83691000938416L1111.3694716666666,159.64662641286847L1113.8346450000001,160.97444355487823L1116.2998183333334,163.10856163501737L1118.7649916666667,163.43108892440796L1121.2301650000002,149.86853033304212L1123.6953383333334,162.68512248992917L1126.1605116666667,180.9641435742378L1128.625685,171.95967048406598L1131.0908583333335,173.06159406900406L1133.5560316666667,174.36853915452957L1136.021205,168.96118134260178L1138.4863783333333,178.83392333984372L1140.9515516666668,167.07101136446L1143.416725,170.69380402565002L1145.8818983333333,151.83076292276382L1148.3470716666666,177.29468911886215L1150.812245,156.00777566432953L1153.2774183333333,179.2086264491081L1155.7425916666666,149.29571986198422L1158.207765,159.7352311015129L1160.6729383333334,175.60553908348083L1163.1381116666666,185.23715049028397L1165.603285,161.56981140375137L1168.0684583333334,149.53301310539243L1170.5336316666667,163.6510622501373L1172.998805,163.2639655470848L1175.4639783333332,182.12259024381638L1177.9291516666667,155.6117856502533L1180.394325,164.33616697788239L1182.8594983333332,152.23016679286957L1185.3246716666665,152.97323793172836L1187.789845,166.42723590135571L1190.2550183333333,194.63551342487335L1192.7201916666666,195.40107280015945L1195.1853649999998,169.2285943031311L1197.6505383333333,169.83940660953522L1200.1157116666666,182.58838713169098L1202.5808849999999,178.464777469635L1205.0460583333333,191.17809832096097L1207.5112316666666,170.06026148796082L1209.9764049999999,168.09708684682846L1212.4415783333332,196.01771891117093L1214.9067516666667,158.53658735752103L1217.371925,179.17305320501328L1219.8370983333332,165.32763719558716L1222.3022716666667,173.59080225229263L1224.767445,183.38182777166367L1227.2326183333332,170.49274086952207L1229.6977916666667,197.9927513003349L1232.162965,146.52179330587384L1234.6281383333333,175.40749222040176L1237.0933116666665,193.6662462353706L1239.558485,175.2087193727493L1242.0236583333333,181.86618804931638L1244.4888316666666,161.2274405360222L1246.954005,170.16037821769714L1249.4191783333333,138.64092826843262L1251.8843516666666,178.24694752693176L1254.3495249999999,162.47813910245893L1256.8146983333334,170.55926352739334L1259.2798716666666,166.82378768920898L1261.745045,167.68452018499374L1264.2102183333334,186.67074531316757L1266.6753916666667,193.28209668397903L1269.140565,160.09728133678433L1271.6057383333334,170.66530048847198L1274.0709116666667,178.91399770975113L1276.536085,174.4369804859161L1279.0012583333332,159.36766684055328L1281.4664316666667,167.89413958787915L1283.931605,151.39782547950742L1286.3967783333333,147.48254746198654L1288.8619516666668,155.96766501665115L1291.327125,187.1778628230095L1293.7922983333333,162.01531529426572L1296.2574716666666,175.99798560142517L1298.722645,158.0025738477707L1301.1878183333333,166.1463662981987L1303.6529916666666,168.1738942861557L1306.118165,156.09800517559052L1308.5833383333334,144.2047530412674L1311.0485116666666,169.4110843539238L1313.513685,152.25119441747665L1315.9788583333334,157.5503459572792L1318.4440316666667,161.3488873839378L1320.909205,166.10143303871152L1323.3743783333334,131.28179550170896L1325.8395516666667,169.95148479938507" style="fill: none;" fill="none"></path></g><g><path stroke="rgb(238, 51, 119)" stroke-width="2px" d="M122.83496500000001,330.34471720457077L125.30013833333334,318.35889123380184L127.76531166666666,312.23252564668655L130.23048500000002,289.1476610256359L132.69565833333334,293.33886571228504L135.16083166666667,302.57531356066465L137.626005,280.9123768284917L140.09117833333332,277.30068784207106L142.55635166666667,287.3532773926854L145.021525,277.5526574254036L147.48669833333332,262.3435463756323L149.95187166666665,264.0736151486635L152.417045,256.592316031456L154.88221833333333,266.1650773137808L157.34739166666665,247.23271548748016L159.812565,256.6356482356787L162.27773833333333,245.9169548749924L164.74291166666669,246.57729834318158L167.208085,251.2916260957718L169.67325833333334,251.7889428138733L172.13843166666666,241.7334342002869L174.60360500000002,242.34673127532005L177.06877833333334,246.2963250279427L179.53395166666667,239.41524878144267L181.999125,233.71842190623283L184.46429833333332,233.9068537950516L186.92947166666664,233.37372183799746L189.39464499999997,227.65988618135452L191.85981833333335,224.4166624546051L194.32499166666668,232.0563191175461L196.790165,228.5559628903866L199.25533833333333,232.09776505827907L201.72051166666665,219.62284803390503L204.185685,223.6727572977543L206.65085833333333,219.16661858558652L209.1160316666667,227.87766858935356L211.581205,226.09004825353622L214.04637833333334,215.98982244729996L216.51155166666666,219.29097801446915L218.97672500000002,225.27528181672096L221.44189833333334,210.1754379272461L223.90707166666667,207.1630945801735L226.372245,198.3263584971428L228.83741833333332,209.01982605457303L231.30259166666664,211.6122305393219L233.76776500000003,220.18158823251724L236.23293833333335,206.081083714962L238.69811166666668,205.8935809135437L241.163285,213.67821842432022L243.62845833333333,224.53612580895424L246.09363166666665,214.87423479557037L248.558805,218.96028771996495L251.02397833333333,201.49661213159564L253.48915166666666,206.91262125968933L255.95432499999998,213.86661142110825L258.4194983333333,197.40564584732056L260.88467166666663,193.78004431724548L263.349845,214.56972748041153L265.81501833333334,213.67024987936023L268.28019166666667,197.90558129549024L270.745365,186.06187760829923L273.2105383333333,206.57185792922974L275.6757116666667,195.32295167446136L278.140885,184.96582239866257L280.60605833333335,190.1195955276489L283.0712316666667,186.88168704509735L285.536405,180.91498404741287L288.0015783333333,190.595106780529L290.4667516666667,184.09990429878235L292.93192500000004,179.22430425882337L295.39709833333336,178.99182498455048L297.8622716666667,166.7726057767868L300.327445,181.0857892036438L302.79261833333334,162.90476739406586L305.25779166666666,161.2397304177284L307.722965,172.46948450803757L310.1881383333333,161.6411221027374L312.65331166666664,167.16494858264923L315.11848499999996,172.30425387620926L317.5836583333333,157.47608810663223L320.0488316666667,161.8287718296051L322.514005,173.04796457290647L324.9791783333333,161.55759066343307L327.44435166666665,144.3600445985794L329.909525,159.3009108304977L332.3746983333333,177.6387107372284L334.8398716666667,158.52233558893204L337.305045,170.54361164569855L339.77021833333333,165.40956109762192L342.23539166666666,146.6709053516388L344.700565,151.59729838371277L347.1657383333333,157.41425842046738L349.6309116666667,140.98283350467682L352.096085,156.92972421646115L354.56125833333334,140.49457430839539L357.02643166666667,151.1043548583984L359.491605,153.87881726026535L361.9567783333334,140.8434444665909L364.42195166666664,136.9901603460312L366.887125,132.3817139863968L369.35229833333335,115.72251141071318L371.8174716666667,103.05724382400511L374.282645,123.53244602680208L376.7478183333333,108.23973655700684L379.21299166666665,127.39155530929565L381.678165,122.94076859951019L384.1433383333333,120.77933967113495L386.6085116666667,132.25224673748016L389.07368499999995,126.94220542907713L391.53885833333334,132.63252437114713L394.00403166666666,121.12179696559906L396.469205,122.89090037345888L398.93437833333337,118.08216869831087L401.39955166666664,140.9686940908432L403.864725,103.15608143806456L406.3298983333333,82.66665339469908L408.7950716666667,116.25856459140775L411.26024499999994,97.42923855781555L413.7254183333333,116.49872720241548L416.1905916666667,111.95527374744415L418.655765,114.97320890426636L421.12093833333336,122.08524763584136L423.5861116666666,114.30945158004761L426.051285,128.6745256185532L428.5164583333334,108.09042572975157L430.98163166666666,90.55286824703218L433.44680500000004,108.13042402267455L435.9119783333333,97.61719942092897L438.3771516666667,99.81781423091888L440.842325,117.34069645404816L443.30749833333334,124.18690383434294L445.77267166666667,102.11897790431978L448.237845,78.07682335376737L450.7030183333333,123.3643114566803L453.16819166666664,106.748149394989L455.63336499999997,98.92129242420195L458.09853833333335,124.66864645481108L460.5637116666667,101.05879843235017L463.028885,101.43013954162598L465.4940583333333,106.37739598751068L467.95923166666665,99.43250656127928L470.42440500000004,101.99174046516418L472.8895783333333,93.39093208312988L475.3547516666667,92.56623089313506L477.81992499999996,88.06344985961915L480.28509833333334,87.70636916160583L482.7502716666666,92.84037649631499L485.215445,101.10061168670653L487.68061833333337,98.77784132957457L490.14579166666664,94.33127224445344L492.610965,80.61484813690186L495.0761383333333,97.63666272163388L497.5413116666667,97.45136380195619L500.00648500000005,105.40518164634706L502.4716583333333,76.97785556316377L504.9368316666667,76.92427098751068L507.402005,87.11296319961548L509.86717833333336,97.12558686733244L512.3323516666667,87.99117982387544L514.797525,105.23568153381348L517.2626983333333,92.96108007431032L519.7278716666666,69.3877214193344L522.193045,82.6237165927887L524.6582183333333,106.54623925685883L527.1233916666666,66.72415316104887L529.588565,92.3420226573944L532.0537383333333,74.88937079906462L534.5189116666667,113.37607741355897L536.9840849999999,102.44169533252716L539.4492583333333,97.37107336521149L541.9144316666667,83.33227753639223L544.379605,86.75999641418458L546.8447783333334,73.5595226287842L549.3099516666666,72.00729846954344L551.775125,99.4199401140213L554.2402983333333,86.56985759735106L556.7054716666667,64.87567543983461L559.170645,53.292124867439284L561.6358183333333,84.48325693607329L564.1009916666667,54.41999375820158L566.566165,57.63957977294923L569.0313383333333,63.9072984457016L571.4965116666667,92.35697448253633L573.961685,59.30951714515686L576.4268583333334,68.61434042453767L578.8920316666666,109.57413077354428L581.357205,73.4380066394806L583.8223783333334,56.52133882045744L586.2875516666667,77.8631246089935L588.752725,66.0497999191284L591.2178983333333,59.8950755596161L593.6830716666667,77.15172886848451L596.148245,81.78943932056426L598.6134183333334,96.5799230337143L601.0785916666667,72.39267528057097L603.543765,73.75049114227292L606.0089383333334,83.78067672252654L608.4741116666667,67.1268153190613L610.939285,68.408385515213L613.4044583333334,61.87210440635681L615.8696316666667,78.57002615928648L618.3348050000001,80.78638792037964L620.7999783333333,76.80819988250734L623.2651516666667,64.71436858177185L625.730325,61.14268004894255L628.1954983333334,63.22976469993593L630.6606716666666,51.609655618667595L633.125845,62.83854544162752L635.5910183333333,77.98673212528229L638.0561916666667,60.26232004165649L640.521365,61.14454686641694L642.9865383333333,72.0850306749344L645.4517116666667,50.729710459709175L647.916885,91.16330027580261L650.3820583333334,96.79452061653137L652.8472316666666,76.9895577430725L655.312405,45.58797657489776L657.7775783333333,98.65917742252351L660.2427516666667,88.72461438179016L662.7079249999999,56.08723461627961L665.1730983333333,88.5094290971756L667.6382716666666,46.308982968330376L670.103445,75.22102475166322L672.5686183333333,69.03945624828336L675.0337916666666,59.38954830169677L677.498965,87.77314245700835L679.9641383333333,85.8613657951355L682.4293116666666,68.27200412750244L684.894485,67.32611536979675L687.3596583333333,65.72168946266174L689.8248316666667,59.27933692932127L692.290005,54.737681150436416L694.7551783333333,68.01583528518677L697.2203516666666,57.64533579349516L699.685525,58.47280263900758L702.1506983333334,67.28710234165192L704.6158716666666,45.33173859119416L707.081045,72.0526897907257L709.5462183333333,80.91687500476839L712.0113916666667,101.30841612815854L714.476565,76.23385965824126L716.9417383333333,62.38789916038513L719.4069116666667,75.02718687057495L721.872085,78.99868547916411L724.3372583333332,76.28751337528227L726.8024316666667,73.43717694282532L729.267605,79.31167125701904L731.7327783333333,82.2734636068344L734.1979516666668,79.84264254570006L736.663125,52.92048990726472L739.1282983333333,82.55754828453064L741.5934716666668,84.29199457168579L744.0586450000001,85.63200652599332L746.5238183333333,74.06309664249422L748.9889916666666,64.75630283355714L751.4541650000001,62.91888773441315L753.9193383333334,70.29383659362792L756.3845116666666,56.56735241413118L758.849685,71.15112066268921L761.3148583333334,65.3736490011215L763.7800316666667,96.4845424890518L766.2452049999999,53.52824270725251L768.7103783333333,93.71997594833371L771.1755516666667,84.12040293216705L773.640725,94.46751534938812L776.1058983333334,64.55062448978423L778.5710716666666,66.97938859462738L781.036245,71.24809145927428L783.5014183333333,61.30208551883696L785.9665916666667,73.03517162799835L788.431765,69.6788412332535L790.8969383333333,79.52751338481902L793.3621116666667,78.94122898578645L795.827285,81.65310978889467L798.2924583333333,69.55044567584989L800.7576316666667,67.46616125106812L803.222805,97.95976042747496L805.6879783333333,58.34388852119446L808.1531516666666,120.1742660999298L810.618325,88.97843241691588L813.0834983333333,88.99594247341157L815.5486716666666,93.16082954406738L818.0138450000001,94.02347207069396L820.4790183333333,87.75820791721341L822.9441916666666,102.54995346069336L825.409365,95.94358026981352L827.8745383333334,85.04703581333162L830.3397116666666,90.75375854969026L832.8048849999999,120.71491718292235L835.2700583333334,105.88011384010315L837.7352316666667,69.59595799446106L840.2004049999999,73.12617897987366L842.6655783333334,72.4447387456894L845.1307516666667,91.65102362632753L847.595925,71.0265278816223L850.0610983333332,93.95818531513214L852.5262716666667,78.99069964885712L854.991445,59.37689542770387L857.4566183333333,100.50976395606993L859.9217916666668,99.36436772346495L862.386965,80.50354778766634L864.8521383333333,71.01947546005248L867.3173116666666,86.8093979358673L869.7824850000001,67.23363876342775L872.2476583333333,66.2311577796936L874.7128316666666,61.256434917449944L877.1780050000001,66.16780698299407L879.6431783333334,74.11809861660004L882.1083516666666,87.0604157447815L884.5735250000001,77.34202325344083L887.0386983333334,83.53423953056335L889.5038716666667,80.31878471374513L891.9690449999999,102.57633090019225L894.4342183333334,71.97920978069304L896.8993916666667,71.76279723644258L899.364565,85.90915977954866L901.8297383333334,50.99123775959013L904.2949116666667,77.19846844673158L906.760085,82.02256679534912L909.2252583333333,66.10324621200562L911.6904316666667,48.60516846179963L914.155605,54.591101408004754L916.6207783333333,95.15331149101256L919.0859516666667,69.71648871898651L921.5511250000001,45.445821881294236L924.0162983333333,81.77329480648038L926.4814716666666,71.79913103580475L928.946645,41.07478976249695L931.4118183333334,71.31394863128662L933.8769916666666,55.132945179939284L936.342165,66.92608058452606L938.8073383333333,67.5627690553665L941.2725116666667,68.0091977119446L943.737685,56.30876362323759L946.2028583333333,38.58129203319551L948.6680316666666,24.799926877021786L951.133205,100.37431597709656L953.5983783333334,62.55738198757172L956.0635516666666,69.21649277210234L958.528725,70.71148514747618L960.9938983333334,72.81678855419158L963.4590716666667,78.57396721839906L965.9242449999999,43.95165920257569L968.3894183333333,62.95598208904268L970.8545916666667,41.987006664276116L973.319765,42.15830445289613L975.7849383333332,62.92144596576691L978.2501116666667,67.20382153987885L980.715285,59.11844491958616L983.1804583333333,35.98788499832152L985.6456316666668,51.17911219596862L988.110805,73.98844122886658L990.5759783333333,50.95837831497194L993.0411516666666,67.95167207717897L995.5063250000001,60.533181428909295L997.9714983333333,64.60865139961243L1000.4366716666666,55.09839177131651L1002.9018450000001,58.72442543506623L1005.3670183333334,70.30954897403718L1007.8321916666666,75.75426042079927L1010.2973649999999,78.1022846698761L1012.7625383333334,59.14485692977906L1015.2277116666667,42.630574703216546L1017.6928849999999,66.57620787620544L1020.1580583333334,57.123093605041504L1022.6232316666667,73.27880859375L1025.088405,44.023911952972405L1027.5535783333332,47.30987370014189L1030.0187516666667,78.82351577281952L1032.483925,48.33629488945005L1034.9490983333333,36.41815185546877L1037.4142716666668,34.50490593910217L1039.879445,39.241246581077576L1042.3446183333333,38.40012431144715L1044.8097916666668,29.684817790985125L1047.274965,67.53264069557191L1049.7401383333333,69.80282902717592L1052.2053116666666,82.39544630050659L1054.670485,46.51327848434447L1057.1356583333334,38.85293126106261L1059.6008316666666,55.42017579078672L1062.0660050000001,50.840457677841165L1064.5311783333334,53.44442605972291L1066.9963516666667,53.865894675254836L1069.461525,45.96496999263764L1071.9266983333334,54.33638453483582L1074.3918716666667,52.773443460464485L1076.857045,33.7832599878311L1079.3222183333335,51.19847178459166L1081.7873916666667,64.83825266361235L1084.252565,44.557182192802415L1086.7177383333335,51.03396713733674L1089.1829116666668,50.47414660453795L1091.648085,54.1255897283554L1094.1132583333333,39.05309557914736L1096.5784316666668,45.699415206909194L1099.043605,29.0096002817154L1101.5087783333333,53.31430196762084L1103.9739516666668,24.961216449737538L1106.439125,55.94670474529268L1108.9042983333334,48.57284486293793L1111.3694716666666,67.68259108066559L1113.8346450000001,48.27508747577665L1116.2998183333334,29.82564151287078L1118.7649916666667,27.644662857055664L1121.2301650000002,27.207170724868792L1123.6953383333334,25.663796663284295L1126.1605116666667,28.656685352325457L1128.625685,57.04159319400786L1131.0908583333335,47.8543621301651L1133.5560316666667,24.6836829185486L1136.021205,60.636686086654656L1138.4863783333333,46.34422779083252L1140.9515516666668,27.306613326072696L1143.416725,52.412024140357985L1145.8818983333333,20.124603509902936L1148.3470716666666,76.57187461853027L1150.812245,23.3851730823517L1153.2774183333333,43.13556611537935L1155.7425916666666,41.91413164138795L1158.207765,72.3881810903549L1160.6729383333334,36.07591927051546L1163.1381116666666,78.9323443174362L1165.603285,58.257271647453294L1168.0684583333334,42.75960981845856L1170.5336316666667,33.12575995922087L1172.998805,36.338276267051704L1175.4639783333332,45.114980340003974L1177.9291516666667,58.20572674274443L1180.394325,43.110830783843994L1182.8594983333332,42.87649333477019L1185.3246716666665,70.97833633422853L1187.789845,42.97206401824952L1190.2550183333333,50.42998254299164L1192.7201916666666,46.48933827877045L1195.1853649999998,43.33763182163241L1197.6505383333333,73.57023954391478L1200.1157116666666,77.28365063667296L1202.5808849999999,57.30445146560667L1205.0460583333333,51.41410648822783L1207.5112316666666,47.98414051532744L1209.9764049999999,61.66253685951233L1212.4415783333332,73.32276523113251L1214.9067516666667,44.571978449821465L1217.371925,44.18803632259368L1219.8370983333332,51.5750676393509L1222.3022716666667,75.60014426708221L1224.767445,76.24919176101685L1227.2326183333332,71.41356408596037L1229.6977916666667,91.87205135822298L1232.162965,42.12687969207764L1234.6281383333333,70.37829279899597L1237.0933116666665,92.85029828548433L1239.558485,44.42764580249788L1242.0236583333333,67.5414389371872L1244.4888316666666,50.26195168495179L1246.954005,50.55078983306885L1249.4191783333333,84.28274691104889L1251.8843516666666,67.8489625453949L1254.3495249999999,94.59865927696228L1256.8146983333334,92.211155295372L1259.2798716666666,83.71877789497377L1261.745045,52.73940861225128L1264.2102183333334,61.80444955825804L1266.6753916666667,66.15218102931976L1269.140565,82.23756194114685L1271.6057383333334,71.28435611724852L1274.0709116666667,68.64581704139708L1276.536085,91.05953633785248L1279.0012583333332,94.27334904670714L1281.4664316666667,40.9903335571289L1283.931605,36.4765590429306L1286.3967783333333,55.446484088897705L1288.8619516666668,72.70749330520628L1291.327125,75.40276288986206L1293.7922983333333,73.61720383167265L1296.2574716666666,64.08271014690399L1298.722645,67.79304444789885L1301.1878183333333,70.32147586345671L1303.6529916666666,37.26677596569062L1306.118165,65.0824773311615L1308.5833383333334,62.34351038932802L1311.0485116666666,53.08181405067443L1313.513685,76.0786372423172L1315.9788583333334,56.443278193473795L1318.4440316666667,76.49732291698456L1320.909205,83.04053544998168L1323.3743783333334,105.75367152690886L1325.8395516666667,71.80096328258513" style="fill: none;" fill="none"></path></g></g></g></g></g></g><g transform="translate(51, 377)" clip-path="url(#clip_1)"><clipPath id="clip_1"><rect width="1444" height="23"></rect></clipPath><g><g><line x1="0" y1="0" x2="0" y2="5" style="visibility: inherit;" fill="rgb(0, 0, 0)" stroke="rgb(204, 204, 204)" stroke-width="1px"></line><line x1="120.36979166666666" y1="0" x2="120.36979166666666" y2="5" style="visibility: inherit;" fill="rgb(0, 0, 0)" stroke="rgb(204, 204, 204)" stroke-width="1px"></line><line x1="240.73958333333331" y1="0" x2="240.73958333333331" y2="5" style="visibility: inherit;" fill="rgb(0, 0, 0)" stroke="rgb(204, 204, 204)" stroke-width="1px"></line><line x1="361.109375" y1="0" x2="361.109375" y2="5" style="visibility: inherit;" fill="rgb(0, 0, 0)" stroke="rgb(204, 204, 204)" stroke-width="1px"></line><line x1="481.47916666666663" y1="0" x2="481.47916666666663" y2="5" style="visibility: inherit;" fill="rgb(0, 0, 0)" stroke="rgb(204, 204, 204)" stroke-width="1px"></line><line x1="601.8489583333334" y1="0" x2="601.8489583333334" y2="5" style="visibility: inherit;" fill="rgb(0, 0, 0)" stroke="rgb(204, 204, 204)" stroke-width="1px"></line><line x1="722.21875" y1="0" x2="722.21875" y2="5" style="visibility: inherit;" fill="rgb(0, 0, 0)" stroke="rgb(204, 204, 204)" stroke-width="1px"></line><line x1="842.5885416666667" y1="0" x2="842.5885416666667" y2="5" style="visibility: inherit;" fill="rgb(0, 0, 0)" stroke="rgb(204, 204, 204)" stroke-width="1px"></line><line x1="962.9583333333333" y1="0" x2="962.9583333333333" y2="5" style="visibility: inherit;" fill="rgb(0, 0, 0)" stroke="rgb(204, 204, 204)" stroke-width="1px"></line><line x1="1083.328125" y1="0" x2="1083.328125" y2="5" style="visibility: inherit;" fill="rgb(0, 0, 0)" stroke="rgb(204, 204, 204)" stroke-width="1px"></line><line x1="1203.6979166666667" y1="0" x2="1203.6979166666667" y2="5" style="visibility: inherit;" fill="rgb(0, 0, 0)" stroke="rgb(204, 204, 204)" stroke-width="1px"></line><line x1="1324.0677083333333" y1="0" x2="1324.0677083333333" y2="5" style="visibility: inherit;" fill="rgb(0, 0, 0)" stroke="rgb(204, 204, 204)" stroke-width="1px"></line><line x1="1444.4375" y1="0" x2="1444.4375" y2="5" style="visibility: inherit;" fill="rgb(0, 0, 0)" stroke="rgb(204, 204, 204)" stroke-width="1px"></line></g><g transform="translate(0, 8)"><text x="0" y="0" dx="0em" dy="0.95em" style="text-anchor: middle; visibility: hidden; font-family: Roboto, sans-serif; font-size: 12px; font-weight: 200;" fill="rgb(33, 33, 33)" stroke="none" stroke-width="1px">-100k</text><text x="120.36979166666666" y="0" dx="0em" dy="0.95em" style="text-anchor: middle; visibility: inherit; font-family: Roboto, sans-serif; font-size: 12px; font-weight: 200;" fill="rgb(33, 33, 33)" stroke="none" stroke-width="1px">0</text><text x="240.73958333333331" y="0" dx="0em" dy="0.95em" style="text-anchor: middle; visibility: inherit; font-family: Roboto, sans-serif; font-size: 12px; font-weight: 200;" fill="rgb(33, 33, 33)" stroke="none" stroke-width="1px">100k</text><text x="361.109375" y="0" dx="0em" dy="0.95em" style="text-anchor: middle; visibility: inherit; font-family: Roboto, sans-serif; font-size: 12px; font-weight: 200;" fill="rgb(33, 33, 33)" stroke="none" stroke-width="1px">200k</text><text x="481.47916666666663" y="0" dx="0em" dy="0.95em" style="text-anchor: middle; visibility: inherit; font-family: Roboto, sans-serif; font-size: 12px; font-weight: 200;" fill="rgb(33, 33, 33)" stroke="none" stroke-width="1px">300k</text><text x="601.8489583333334" y="0" dx="0em" dy="0.95em" style="text-anchor: middle; visibility: inherit; font-family: Roboto, sans-serif; font-size: 12px; font-weight: 200;" fill="rgb(33, 33, 33)" stroke="none" stroke-width="1px">400k</text><text x="722.21875" y="0" dx="0em" dy="0.95em" style="text-anchor: middle; visibility: inherit; font-family: Roboto, sans-serif; font-size: 12px; font-weight: 200;" fill="rgb(33, 33, 33)" stroke="none" stroke-width="1px">500k</text><text x="842.5885416666667" y="0" dx="0em" dy="0.95em" style="text-anchor: middle; visibility: inherit; font-family: Roboto, sans-serif; font-size: 12px; font-weight: 200;" fill="rgb(33, 33, 33)" stroke="none" stroke-width="1px">600k</text><text x="962.9583333333333" y="0" dx="0em" dy="0.95em" style="text-anchor: middle; visibility: inherit; font-family: Roboto, sans-serif; font-size: 12px; font-weight: 200;" fill="rgb(33, 33, 33)" stroke="none" stroke-width="1px">700k</text><text x="1083.328125" y="0" dx="0em" dy="0.95em" style="text-anchor: middle; visibility: inherit; font-family: Roboto, sans-serif; font-size: 12px; font-weight: 200;" fill="rgb(33, 33, 33)" stroke="none" stroke-width="1px">800k</text><text x="1203.6979166666667" y="0" dx="0em" dy="0.95em" style="text-anchor: middle; visibility: inherit; font-family: Roboto, sans-serif; font-size: 12px; font-weight: 200;" fill="rgb(33, 33, 33)" stroke="none" stroke-width="1px">900k</text><text x="1324.0677083333333" y="0" dx="0em" dy="0.95em" style="text-anchor: middle; visibility: inherit; font-family: Roboto, sans-serif; font-size: 12px; font-weight: 200;" fill="rgb(33, 33, 33)" stroke="none" stroke-width="1px">1M</text><text x="1444.4375" y="0" dx="0em" dy="0.95em" style="text-anchor: middle; visibility: hidden; font-family: Roboto, sans-serif; font-size: 12px; font-weight: 200;" fill="rgb(33, 33, 33)" stroke="none" stroke-width="1px">1.1M</text></g><line x1="0" y1="0" x2="1444.4375" y2="0" fill="rgb(0, 0, 0)" stroke="rgb(204, 204, 204)" stroke-width="1px"></line></g></g></g></g></svg>